<?xml version="1.0" encoding="utf-8" standalone="no"?>
<!DOCTYPE svg PUBLIC "-//W3C//DTD SVG 1.1//EN"
  "http://www.w3.org/Graphics/SVG/1.1/DTD/svg11.dtd">
<svg xmlns:xlink="http://www.w3.org/1999/xlink" width="559.54375pt" height="392.994375pt" viewBox="0 0 559.54375 392.994375" xmlns="http://www.w3.org/2000/svg" version="1.1">
 <metadata>
  <rdf:RDF xmlns:dc="http://purl.org/dc/elements/1.1/" xmlns:cc="http://creativecommons.org/ns#" xmlns:rdf="http://www.w3.org/1999/02/22-rdf-syntax-ns#">
   <cc:Work>
    <dc:type rdf:resource="http://purl.org/dc/dcmitype/StillImage"/>
    <dc:date>2026-04-06T21:25:00.560976</dc:date>
    <dc:format>image/svg+xml</dc:format>
    <dc:creator>
     <cc:Agent>
      <dc:title>Matplotlib v3.10.8, https://matplotlib.org/</dc:title>
     </cc:Agent>
    </dc:creator>
   </cc:Work>
  </rdf:RDF>
 </metadata>
 <defs>
  <style type="text/css">*{stroke-linejoin: round; stroke-linecap: butt}</style>
 </defs>
 <g id="figure_1">
  <g id="patch_1">
   <path d="M 0 392.994375 
L 559.54375 392.994375 
L 559.54375 0 
L 0 0 
z
" style="fill: #ffffff"/>
  </g>
  <g id="axes_1">
   <g id="patch_2">
    <path d="M 50.14375 355.438125 
L 552.34375 355.438125 
L 552.34375 22.798125 
L 50.14375 22.798125 
z
" style="fill: #ffffff"/>
   </g>
   <g id="PathCollection_1">
    <defs>
     <path id="m42bcd54436" d="M 0 1.581139 
C 0.419323 1.581139 0.821528 1.41454 1.118034 1.118034 
C 1.41454 0.821528 1.581139 0.419323 1.581139 0 
C 1.581139 -0.419323 1.41454 -0.821528 1.118034 -1.118034 
C 0.821528 -1.41454 0.419323 -1.581139 0 -1.581139 
C -0.419323 -1.581139 -0.821528 -1.41454 -1.118034 -1.118034 
C -1.41454 -0.821528 -1.581139 -0.419323 -1.581139 0 
C -1.581139 0.419323 -1.41454 0.821528 -1.118034 1.118034 
C -0.821528 1.41454 -0.419323 1.581139 0 1.581139 
z
" style="stroke: #0000ff"/>
    </defs>
    <g clip-path="url(#p1a56b03869)">
     <use xlink:href="#m42bcd54436" x="72.971023" y="340.014901" style="fill: #0000ff; stroke: #0000ff"/>
     <use xlink:href="#m42bcd54436" x="77.235449" y="336.975382" style="fill: #0000ff; stroke: #0000ff"/>
     <use xlink:href="#m42bcd54436" x="81.504144" y="336.975382" style="fill: #0000ff; stroke: #0000ff"/>
     <use xlink:href="#m42bcd54436" x="85.76857" y="332.495123" style="fill: #0000ff; stroke: #0000ff"/>
     <use xlink:href="#m42bcd54436" x="90.032996" y="319.054348" style="fill: #0000ff; stroke: #0000ff"/>
     <use xlink:href="#m42bcd54436" x="94.297422" y="294.412926" style="fill: #0000ff; stroke: #0000ff"/>
     <use xlink:href="#m42bcd54436" x="98.55758" y="286.572473" style="fill: #0000ff; stroke: #0000ff"/>
     <use xlink:href="#m42bcd54436" x="102.817737" y="286.572473" style="fill: #0000ff; stroke: #0000ff"/>
     <use xlink:href="#m42bcd54436" x="107.077895" y="254.090599" style="fill: #0000ff; stroke: #0000ff"/>
     <use xlink:href="#m42bcd54436" x="111.333784" y="242.889953" style="fill: #0000ff; stroke: #0000ff"/>
     <use xlink:href="#m42bcd54436" x="115.593941" y="284.332344" style="fill: #0000ff; stroke: #0000ff"/>
     <use xlink:href="#m42bcd54436" x="119.84983" y="214.888337" style="fill: #0000ff; stroke: #0000ff"/>
     <use xlink:href="#m42bcd54436" x="124.105719" y="180.166333" style="fill: #0000ff; stroke: #0000ff"/>
     <use xlink:href="#m42bcd54436" x="128.361607" y="162.245299" style="fill: #0000ff; stroke: #0000ff"/>
     <use xlink:href="#m42bcd54436" x="132.613228" y="135.363748" style="fill: #0000ff; stroke: #0000ff"/>
     <use xlink:href="#m42bcd54436" x="136.864848" y="102.881874" style="fill: #0000ff; stroke: #0000ff"/>
     <use xlink:href="#m42bcd54436" x="141.116468" y="80.480581" style="fill: #0000ff; stroke: #0000ff"/>
     <use xlink:href="#m42bcd54436" x="145.368088" y="51.358901" style="fill: #0000ff; stroke: #0000ff"/>
     <use xlink:href="#m42bcd54436" x="149.615439" y="37.918125" style="fill: #0000ff; stroke: #0000ff"/>
     <use xlink:href="#m42bcd54436" x="153.867059" y="176.806139" style="fill: #0000ff; stroke: #0000ff"/>
     <use xlink:href="#m42bcd54436" x="158.131486" y="313.454024" style="fill: #0000ff; stroke: #0000ff"/>
     <use xlink:href="#m42bcd54436" x="162.412986" y="205.92782" style="fill: #0000ff; stroke: #0000ff"/>
     <use xlink:href="#m42bcd54436" x="166.690219" y="239.529759" style="fill: #0000ff; stroke: #0000ff"/>
     <use xlink:href="#m42bcd54436" x="170.97172" y="263.051116" style="fill: #0000ff; stroke: #0000ff"/>
     <use xlink:href="#m42bcd54436" x="175.248952" y="282.092215" style="fill: #0000ff; stroke: #0000ff"/>
     <use xlink:href="#m42bcd54436" x="179.526184" y="297.77312" style="fill: #0000ff; stroke: #0000ff"/>
     <use xlink:href="#m42bcd54436" x="183.803417" y="310.093831" style="fill: #0000ff; stroke: #0000ff"/>
     <use xlink:href="#m42bcd54436" x="188.07638" y="320.174412" style="fill: #0000ff; stroke: #0000ff"/>
     <use xlink:href="#m42bcd54436" x="192.349344" y="328.014865" style="fill: #0000ff; stroke: #0000ff"/>
     <use xlink:href="#m42bcd54436" x="196.622307" y="333.615188" style="fill: #0000ff; stroke: #0000ff"/>
     <use xlink:href="#m42bcd54436" x="200.891002" y="338.095446" style="fill: #0000ff; stroke: #0000ff"/>
     <use xlink:href="#m42bcd54436" x="205.159697" y="340.284288" style="fill: #0000ff; stroke: #0000ff"/>
     <use xlink:href="#m42bcd54436" x="209.428392" y="340.255413" style="fill: #0000ff; stroke: #0000ff"/>
     <use xlink:href="#m42bcd54436" x="213.697087" y="338.095446" style="fill: #0000ff; stroke: #0000ff"/>
     <use xlink:href="#m42bcd54436" x="217.965782" y="333.615188" style="fill: #0000ff; stroke: #0000ff"/>
     <use xlink:href="#m42bcd54436" x="222.230208" y="328.014865" style="fill: #0000ff; stroke: #0000ff"/>
     <use xlink:href="#m42bcd54436" x="226.494634" y="317.934283" style="fill: #0000ff; stroke: #0000ff"/>
     <use xlink:href="#m42bcd54436" x="230.75906" y="311.213895" style="fill: #0000ff; stroke: #0000ff"/>
     <use xlink:href="#m42bcd54436" x="235.019218" y="298.893184" style="fill: #0000ff; stroke: #0000ff"/>
     <use xlink:href="#m42bcd54436" x="239.279375" y="285.452409" style="fill: #0000ff; stroke: #0000ff"/>
     <use xlink:href="#m42bcd54436" x="243.539533" y="270.891568" style="fill: #0000ff; stroke: #0000ff"/>
     <use xlink:href="#m42bcd54436" x="247.79969" y="254.090599" style="fill: #0000ff; stroke: #0000ff"/>
     <use xlink:href="#m42bcd54436" x="252.055579" y="250.730405" style="fill: #0000ff; stroke: #0000ff"/>
     <use xlink:href="#m42bcd54436" x="256.315736" y="274.251762" style="fill: #0000ff; stroke: #0000ff"/>
     <use xlink:href="#m42bcd54436" x="260.580163" y="333.615188" style="fill: #0000ff; stroke: #0000ff"/>
     <use xlink:href="#m42bcd54436" x="264.853126" y="293.292861" style="fill: #0000ff; stroke: #0000ff"/>
     <use xlink:href="#m42bcd54436" x="269.130358" y="291.052732" style="fill: #0000ff; stroke: #0000ff"/>
     <use xlink:href="#m42bcd54436" x="273.407591" y="304.493507" style="fill: #0000ff; stroke: #0000ff"/>
     <use xlink:href="#m42bcd54436" x="277.680554" y="316.814218" style="fill: #0000ff; stroke: #0000ff"/>
     <use xlink:href="#m42bcd54436" x="281.957787" y="325.774735" style="fill: #0000ff; stroke: #0000ff"/>
     <use xlink:href="#m42bcd54436" x="286.226481" y="332.495123" style="fill: #0000ff; stroke: #0000ff"/>
     <use xlink:href="#m42bcd54436" x="290.499445" y="336.975382" style="fill: #0000ff; stroke: #0000ff"/>
     <use xlink:href="#m42bcd54436" x="294.76814" y="339.765911" style="fill: #0000ff; stroke: #0000ff"/>
     <use xlink:href="#m42bcd54436" x="299.036835" y="340.275372" style="fill: #0000ff; stroke: #0000ff"/>
     <use xlink:href="#m42bcd54436" x="303.30553" y="339.215511" style="fill: #0000ff; stroke: #0000ff"/>
     <use xlink:href="#m42bcd54436" x="307.574225" y="334.735252" style="fill: #0000ff; stroke: #0000ff"/>
     <use xlink:href="#m42bcd54436" x="311.838651" y="330.254994" style="fill: #0000ff; stroke: #0000ff"/>
     <use xlink:href="#m42bcd54436" x="316.103077" y="322.414541" style="fill: #0000ff; stroke: #0000ff"/>
     <use xlink:href="#m42bcd54436" x="320.367503" y="313.454024" style="fill: #0000ff; stroke: #0000ff"/>
     <use xlink:href="#m42bcd54436" x="324.627661" y="302.253378" style="fill: #0000ff; stroke: #0000ff"/>
     <use xlink:href="#m42bcd54436" x="328.892087" y="300.013249" style="fill: #0000ff; stroke: #0000ff"/>
     <use xlink:href="#m42bcd54436" x="333.152244" y="286.572473" style="fill: #0000ff; stroke: #0000ff"/>
     <use xlink:href="#m42bcd54436" x="337.41667" y="340.232653" style="fill: #0000ff; stroke: #0000ff"/>
     <use xlink:href="#m42bcd54436" x="341.689634" y="303.373443" style="fill: #0000ff; stroke: #0000ff"/>
     <use xlink:href="#m42bcd54436" x="345.962598" y="315.694154" style="fill: #0000ff; stroke: #0000ff"/>
     <use xlink:href="#m42bcd54436" x="350.23983" y="316.814218" style="fill: #0000ff; stroke: #0000ff"/>
     <use xlink:href="#m42bcd54436" x="354.512793" y="325.774735" style="fill: #0000ff; stroke: #0000ff"/>
     <use xlink:href="#m42bcd54436" x="358.785757" y="332.495123" style="fill: #0000ff; stroke: #0000ff"/>
     <use xlink:href="#m42bcd54436" x="363.054452" y="336.975382" style="fill: #0000ff; stroke: #0000ff"/>
     <use xlink:href="#m42bcd54436" x="367.327415" y="339.707443" style="fill: #0000ff; stroke: #0000ff"/>
     <use xlink:href="#m42bcd54436" x="371.59611" y="340.318125" style="fill: #0000ff; stroke: #0000ff"/>
     <use xlink:href="#m42bcd54436" x="375.860536" y="339.215511" style="fill: #0000ff; stroke: #0000ff"/>
     <use xlink:href="#m42bcd54436" x="380.129231" y="335.855317" style="fill: #0000ff; stroke: #0000ff"/>
     <use xlink:href="#m42bcd54436" x="384.393658" y="330.254994" style="fill: #0000ff; stroke: #0000ff"/>
     <use xlink:href="#m42bcd54436" x="388.658084" y="323.534606" style="fill: #0000ff; stroke: #0000ff"/>
     <use xlink:href="#m42bcd54436" x="392.92251" y="314.574089" style="fill: #0000ff; stroke: #0000ff"/>
     <use xlink:href="#m42bcd54436" x="397.186936" y="316.814218" style="fill: #0000ff; stroke: #0000ff"/>
     <use xlink:href="#m42bcd54436" x="401.451362" y="313.454024" style="fill: #0000ff; stroke: #0000ff"/>
     <use xlink:href="#m42bcd54436" x="405.715788" y="335.855317" style="fill: #0000ff; stroke: #0000ff"/>
     <use xlink:href="#m42bcd54436" x="409.988752" y="314.574089" style="fill: #0000ff; stroke: #0000ff"/>
     <use xlink:href="#m42bcd54436" x="414.261716" y="324.654671" style="fill: #0000ff; stroke: #0000ff"/>
     <use xlink:href="#m42bcd54436" x="418.534679" y="326.8948" style="fill: #0000ff; stroke: #0000ff"/>
     <use xlink:href="#m42bcd54436" x="422.807643" y="332.495123" style="fill: #0000ff; stroke: #0000ff"/>
     <use xlink:href="#m42bcd54436" x="427.080606" y="336.975382" style="fill: #0000ff; stroke: #0000ff"/>
     <use xlink:href="#m42bcd54436" x="431.349301" y="339.765911" style="fill: #0000ff; stroke: #0000ff"/>
     <use xlink:href="#m42bcd54436" x="435.617996" y="340.275372" style="fill: #0000ff; stroke: #0000ff"/>
     <use xlink:href="#m42bcd54436" x="439.886691" y="339.215511" style="fill: #0000ff; stroke: #0000ff"/>
     <use xlink:href="#m42bcd54436" x="444.151117" y="335.855317" style="fill: #0000ff; stroke: #0000ff"/>
     <use xlink:href="#m42bcd54436" x="448.419812" y="330.254994" style="fill: #0000ff; stroke: #0000ff"/>
     <use xlink:href="#m42bcd54436" x="452.684238" y="323.534606" style="fill: #0000ff; stroke: #0000ff"/>
     <use xlink:href="#m42bcd54436" x="456.948664" y="324.654671" style="fill: #0000ff; stroke: #0000ff"/>
     <use xlink:href="#m42bcd54436" x="461.208822" y="308.973766" style="fill: #0000ff; stroke: #0000ff"/>
     <use xlink:href="#m42bcd54436" x="465.477517" y="336.975382" style="fill: #0000ff; stroke: #0000ff"/>
     <use xlink:href="#m42bcd54436" x="469.75048" y="320.174412" style="fill: #0000ff; stroke: #0000ff"/>
     <use xlink:href="#m42bcd54436" x="474.023444" y="329.134929" style="fill: #0000ff; stroke: #0000ff"/>
     <use xlink:href="#m42bcd54436" x="478.296407" y="330.254994" style="fill: #0000ff; stroke: #0000ff"/>
     <use xlink:href="#m42bcd54436" x="482.565102" y="335.855317" style="fill: #0000ff; stroke: #0000ff"/>
     <use xlink:href="#m42bcd54436" x="486.838066" y="339.215511" style="fill: #0000ff; stroke: #0000ff"/>
     <use xlink:href="#m42bcd54436" x="491.106761" y="340.292476" style="fill: #0000ff; stroke: #0000ff"/>
     <use xlink:href="#m42bcd54436" x="495.375456" y="339.736565" style="fill: #0000ff; stroke: #0000ff"/>
     <use xlink:href="#m42bcd54436" x="499.644151" y="336.975382" style="fill: #0000ff; stroke: #0000ff"/>
     <use xlink:href="#m42bcd54436" x="503.908577" y="332.495123" style="fill: #0000ff; stroke: #0000ff"/>
     <use xlink:href="#m42bcd54436" x="508.173003" y="331.375059" style="fill: #0000ff; stroke: #0000ff"/>
     <use xlink:href="#m42bcd54436" x="512.437429" y="325.774735" style="fill: #0000ff; stroke: #0000ff"/>
     <use xlink:href="#m42bcd54436" x="516.701855" y="325.774735" style="fill: #0000ff; stroke: #0000ff"/>
     <use xlink:href="#m42bcd54436" x="520.97055" y="334.735252" style="fill: #0000ff; stroke: #0000ff"/>
     <use xlink:href="#m42bcd54436" x="525.243514" y="325.774735" style="fill: #0000ff; stroke: #0000ff"/>
     <use xlink:href="#m42bcd54436" x="529.516477" y="332.495123" style="fill: #0000ff; stroke: #0000ff"/>
    </g>
   </g>
   <g id="matplotlib.axis_1">
    <g id="xtick_1">
     <g id="line2d_1">
      <path d="M 70.601897 355.438125 
L 70.601897 22.798125 
" clip-path="url(#p1a56b03869)" style="fill: none; stroke: #b0b0b0; stroke-opacity: 0.3; stroke-width: 0.8; stroke-linecap: square"/>
     </g>
     <g id="line2d_2">
      <defs>
       <path id="m36e60b08a7" d="M 0 0 
L 0 3.5 
" style="stroke: #000000; stroke-width: 0.8"/>
      </defs>
      <g>
       <use xlink:href="#m36e60b08a7" x="70.601897" y="355.438125" style="stroke: #000000; stroke-width: 0.8"/>
      </g>
     </g>
     <g id="text_1">
      <!-- 0 -->
      <g transform="translate(67.420647 370.036562) scale(0.1 -0.1)">
       <defs>
        <path id="DejaVuSans-30" d="M 2034 4250 
Q 1547 4250 1301 3770 
Q 1056 3291 1056 2328 
Q 1056 1369 1301 889 
Q 1547 409 2034 409 
Q 2525 409 2770 889 
Q 3016 1369 3016 2328 
Q 3016 3291 2770 3770 
Q 2525 4250 2034 4250 
z
M 2034 4750 
Q 2819 4750 3233 4129 
Q 3647 3509 3647 2328 
Q 3647 1150 3233 529 
Q 2819 -91 2034 -91 
Q 1250 -91 836 529 
Q 422 1150 422 2328 
Q 422 3509 836 4129 
Q 1250 4750 2034 4750 
z
" transform="scale(0.015625)"/>
       </defs>
       <use xlink:href="#DejaVuSans-30"/>
      </g>
     </g>
    </g>
    <g id="xtick_2">
     <g id="line2d_3">
      <path d="M 155.975795 355.438125 
L 155.975795 22.798125 
" clip-path="url(#p1a56b03869)" style="fill: none; stroke: #b0b0b0; stroke-opacity: 0.3; stroke-width: 0.8; stroke-linecap: square"/>
     </g>
     <g id="line2d_4">
      <g>
       <use xlink:href="#m36e60b08a7" x="155.975795" y="355.438125" style="stroke: #000000; stroke-width: 0.8"/>
      </g>
     </g>
     <g id="text_2">
      <!-- 2 -->
      <g transform="translate(152.794545 370.036562) scale(0.1 -0.1)">
       <defs>
        <path id="DejaVuSans-32" d="M 1228 531 
L 3431 531 
L 3431 0 
L 469 0 
L 469 531 
Q 828 903 1448 1529 
Q 2069 2156 2228 2338 
Q 2531 2678 2651 2914 
Q 2772 3150 2772 3378 
Q 2772 3750 2511 3984 
Q 2250 4219 1831 4219 
Q 1534 4219 1204 4116 
Q 875 4013 500 3803 
L 500 4441 
Q 881 4594 1212 4672 
Q 1544 4750 1819 4750 
Q 2544 4750 2975 4387 
Q 3406 4025 3406 3419 
Q 3406 3131 3298 2873 
Q 3191 2616 2906 2266 
Q 2828 2175 2409 1742 
Q 1991 1309 1228 531 
z
" transform="scale(0.015625)"/>
       </defs>
       <use xlink:href="#DejaVuSans-32"/>
      </g>
     </g>
    </g>
    <g id="xtick_3">
     <g id="line2d_5">
      <path d="M 241.349692 355.438125 
L 241.349692 22.798125 
" clip-path="url(#p1a56b03869)" style="fill: none; stroke: #b0b0b0; stroke-opacity: 0.3; stroke-width: 0.8; stroke-linecap: square"/>
     </g>
     <g id="line2d_6">
      <g>
       <use xlink:href="#m36e60b08a7" x="241.349692" y="355.438125" style="stroke: #000000; stroke-width: 0.8"/>
      </g>
     </g>
     <g id="text_3">
      <!-- 4 -->
      <g transform="translate(238.168442 370.036562) scale(0.1 -0.1)">
       <defs>
        <path id="DejaVuSans-34" d="M 2419 4116 
L 825 1625 
L 2419 1625 
L 2419 4116 
z
M 2253 4666 
L 3047 4666 
L 3047 1625 
L 3713 1625 
L 3713 1100 
L 3047 1100 
L 3047 0 
L 2419 0 
L 2419 1100 
L 313 1100 
L 313 1709 
L 2253 4666 
z
" transform="scale(0.015625)"/>
       </defs>
       <use xlink:href="#DejaVuSans-34"/>
      </g>
     </g>
    </g>
    <g id="xtick_4">
     <g id="line2d_7">
      <path d="M 326.72359 355.438125 
L 326.72359 22.798125 
" clip-path="url(#p1a56b03869)" style="fill: none; stroke: #b0b0b0; stroke-opacity: 0.3; stroke-width: 0.8; stroke-linecap: square"/>
     </g>
     <g id="line2d_8">
      <g>
       <use xlink:href="#m36e60b08a7" x="326.72359" y="355.438125" style="stroke: #000000; stroke-width: 0.8"/>
      </g>
     </g>
     <g id="text_4">
      <!-- 6 -->
      <g transform="translate(323.54234 370.036562) scale(0.1 -0.1)">
       <defs>
        <path id="DejaVuSans-36" d="M 2113 2584 
Q 1688 2584 1439 2293 
Q 1191 2003 1191 1497 
Q 1191 994 1439 701 
Q 1688 409 2113 409 
Q 2538 409 2786 701 
Q 3034 994 3034 1497 
Q 3034 2003 2786 2293 
Q 2538 2584 2113 2584 
z
M 3366 4563 
L 3366 3988 
Q 3128 4100 2886 4159 
Q 2644 4219 2406 4219 
Q 1781 4219 1451 3797 
Q 1122 3375 1075 2522 
Q 1259 2794 1537 2939 
Q 1816 3084 2150 3084 
Q 2853 3084 3261 2657 
Q 3669 2231 3669 1497 
Q 3669 778 3244 343 
Q 2819 -91 2113 -91 
Q 1303 -91 875 529 
Q 447 1150 447 2328 
Q 447 3434 972 4092 
Q 1497 4750 2381 4750 
Q 2619 4750 2861 4703 
Q 3103 4656 3366 4563 
z
" transform="scale(0.015625)"/>
       </defs>
       <use xlink:href="#DejaVuSans-36"/>
      </g>
     </g>
    </g>
    <g id="xtick_5">
     <g id="line2d_9">
      <path d="M 412.097487 355.438125 
L 412.097487 22.798125 
" clip-path="url(#p1a56b03869)" style="fill: none; stroke: #b0b0b0; stroke-opacity: 0.3; stroke-width: 0.8; stroke-linecap: square"/>
     </g>
     <g id="line2d_10">
      <g>
       <use xlink:href="#m36e60b08a7" x="412.097487" y="355.438125" style="stroke: #000000; stroke-width: 0.8"/>
      </g>
     </g>
     <g id="text_5">
      <!-- 8 -->
      <g transform="translate(408.916237 370.036562) scale(0.1 -0.1)">
       <defs>
        <path id="DejaVuSans-38" d="M 2034 2216 
Q 1584 2216 1326 1975 
Q 1069 1734 1069 1313 
Q 1069 891 1326 650 
Q 1584 409 2034 409 
Q 2484 409 2743 651 
Q 3003 894 3003 1313 
Q 3003 1734 2745 1975 
Q 2488 2216 2034 2216 
z
M 1403 2484 
Q 997 2584 770 2862 
Q 544 3141 544 3541 
Q 544 4100 942 4425 
Q 1341 4750 2034 4750 
Q 2731 4750 3128 4425 
Q 3525 4100 3525 3541 
Q 3525 3141 3298 2862 
Q 3072 2584 2669 2484 
Q 3125 2378 3379 2068 
Q 3634 1759 3634 1313 
Q 3634 634 3220 271 
Q 2806 -91 2034 -91 
Q 1263 -91 848 271 
Q 434 634 434 1313 
Q 434 1759 690 2068 
Q 947 2378 1403 2484 
z
M 1172 3481 
Q 1172 3119 1398 2916 
Q 1625 2713 2034 2713 
Q 2441 2713 2670 2916 
Q 2900 3119 2900 3481 
Q 2900 3844 2670 4047 
Q 2441 4250 2034 4250 
Q 1625 4250 1398 4047 
Q 1172 3844 1172 3481 
z
" transform="scale(0.015625)"/>
       </defs>
       <use xlink:href="#DejaVuSans-38"/>
      </g>
     </g>
    </g>
    <g id="xtick_6">
     <g id="line2d_11">
      <path d="M 497.471385 355.438125 
L 497.471385 22.798125 
" clip-path="url(#p1a56b03869)" style="fill: none; stroke: #b0b0b0; stroke-opacity: 0.3; stroke-width: 0.8; stroke-linecap: square"/>
     </g>
     <g id="line2d_12">
      <g>
       <use xlink:href="#m36e60b08a7" x="497.471385" y="355.438125" style="stroke: #000000; stroke-width: 0.8"/>
      </g>
     </g>
     <g id="text_6">
      <!-- 10 -->
      <g transform="translate(491.108885 370.036562) scale(0.1 -0.1)">
       <defs>
        <path id="DejaVuSans-31" d="M 794 531 
L 1825 531 
L 1825 4091 
L 703 3866 
L 703 4441 
L 1819 4666 
L 2450 4666 
L 2450 531 
L 3481 531 
L 3481 0 
L 794 0 
L 794 531 
z
" transform="scale(0.015625)"/>
       </defs>
       <use xlink:href="#DejaVuSans-31"/>
       <use xlink:href="#DejaVuSans-30" transform="translate(63.623047 0)"/>
      </g>
     </g>
    </g>
    <g id="text_7">
     <!-- t [s] -->
     <g transform="translate(291.188281 383.714687) scale(0.1 -0.1)">
      <defs>
       <path id="DejaVuSans-74" d="M 1172 4494 
L 1172 3500 
L 2356 3500 
L 2356 3053 
L 1172 3053 
L 1172 1153 
Q 1172 725 1289 603 
Q 1406 481 1766 481 
L 2356 481 
L 2356 0 
L 1766 0 
Q 1100 0 847 248 
Q 594 497 594 1153 
L 594 3053 
L 172 3053 
L 172 3500 
L 594 3500 
L 594 4494 
L 1172 4494 
z
" transform="scale(0.015625)"/>
       <path id="DejaVuSans-20" transform="scale(0.015625)"/>
       <path id="DejaVuSans-5b" d="M 550 4863 
L 1875 4863 
L 1875 4416 
L 1125 4416 
L 1125 -397 
L 1875 -397 
L 1875 -844 
L 550 -844 
L 550 4863 
z
" transform="scale(0.015625)"/>
       <path id="DejaVuSans-73" d="M 2834 3397 
L 2834 2853 
Q 2591 2978 2328 3040 
Q 2066 3103 1784 3103 
Q 1356 3103 1142 2972 
Q 928 2841 928 2578 
Q 928 2378 1081 2264 
Q 1234 2150 1697 2047 
L 1894 2003 
Q 2506 1872 2764 1633 
Q 3022 1394 3022 966 
Q 3022 478 2636 193 
Q 2250 -91 1575 -91 
Q 1294 -91 989 -36 
Q 684 19 347 128 
L 347 722 
Q 666 556 975 473 
Q 1284 391 1588 391 
Q 1994 391 2212 530 
Q 2431 669 2431 922 
Q 2431 1156 2273 1281 
Q 2116 1406 1581 1522 
L 1381 1569 
Q 847 1681 609 1914 
Q 372 2147 372 2553 
Q 372 3047 722 3315 
Q 1072 3584 1716 3584 
Q 2034 3584 2315 3537 
Q 2597 3491 2834 3397 
z
" transform="scale(0.015625)"/>
       <path id="DejaVuSans-5d" d="M 1947 4863 
L 1947 -844 
L 622 -844 
L 622 -397 
L 1369 -397 
L 1369 4416 
L 622 4416 
L 622 4863 
L 1947 4863 
z
" transform="scale(0.015625)"/>
      </defs>
      <use xlink:href="#DejaVuSans-74"/>
      <use xlink:href="#DejaVuSans-20" transform="translate(39.208984 0)"/>
      <use xlink:href="#DejaVuSans-5b" transform="translate(70.996094 0)"/>
      <use xlink:href="#DejaVuSans-73" transform="translate(110.009766 0)"/>
      <use xlink:href="#DejaVuSans-5d" transform="translate(162.109375 0)"/>
     </g>
    </g>
   </g>
   <g id="matplotlib.axis_2">
    <g id="ytick_1">
     <g id="line2d_13">
      <path d="M 50.14375 340.335576 
L 552.34375 340.335576 
" clip-path="url(#p1a56b03869)" style="fill: none; stroke: #b0b0b0; stroke-opacity: 0.3; stroke-width: 0.8; stroke-linecap: square"/>
     </g>
     <g id="line2d_14">
      <defs>
       <path id="m32afd5c0b2" d="M 0 0 
L -3.5 0 
" style="stroke: #000000; stroke-width: 0.8"/>
      </defs>
      <g>
       <use xlink:href="#m32afd5c0b2" x="50.14375" y="340.335576" style="stroke: #000000; stroke-width: 0.8"/>
      </g>
     </g>
     <g id="text_8">
      <!-- 0.00 -->
      <g transform="translate(20.878125 344.134794) scale(0.1 -0.1)">
       <defs>
        <path id="DejaVuSans-2e" d="M 684 794 
L 1344 794 
L 1344 0 
L 684 0 
L 684 794 
z
" transform="scale(0.015625)"/>
       </defs>
       <use xlink:href="#DejaVuSans-30"/>
       <use xlink:href="#DejaVuSans-2e" transform="translate(63.623047 0)"/>
       <use xlink:href="#DejaVuSans-30" transform="translate(95.410156 0)"/>
       <use xlink:href="#DejaVuSans-30" transform="translate(159.033203 0)"/>
      </g>
     </g>
    </g>
    <g id="ytick_2">
     <g id="line2d_15">
      <path d="M 50.14375 284.332344 
L 552.34375 284.332344 
" clip-path="url(#p1a56b03869)" style="fill: none; stroke: #b0b0b0; stroke-opacity: 0.3; stroke-width: 0.8; stroke-linecap: square"/>
     </g>
     <g id="line2d_16">
      <g>
       <use xlink:href="#m32afd5c0b2" x="50.14375" y="284.332344" style="stroke: #000000; stroke-width: 0.8"/>
      </g>
     </g>
     <g id="text_9">
      <!-- 0.05 -->
      <g transform="translate(20.878125 288.131563) scale(0.1 -0.1)">
       <defs>
        <path id="DejaVuSans-35" d="M 691 4666 
L 3169 4666 
L 3169 4134 
L 1269 4134 
L 1269 2991 
Q 1406 3038 1543 3061 
Q 1681 3084 1819 3084 
Q 2600 3084 3056 2656 
Q 3513 2228 3513 1497 
Q 3513 744 3044 326 
Q 2575 -91 1722 -91 
Q 1428 -91 1123 -41 
Q 819 9 494 109 
L 494 744 
Q 775 591 1075 516 
Q 1375 441 1709 441 
Q 2250 441 2565 725 
Q 2881 1009 2881 1497 
Q 2881 1984 2565 2268 
Q 2250 2553 1709 2553 
Q 1456 2553 1204 2497 
Q 953 2441 691 2322 
L 691 4666 
z
" transform="scale(0.015625)"/>
       </defs>
       <use xlink:href="#DejaVuSans-30"/>
       <use xlink:href="#DejaVuSans-2e" transform="translate(63.623047 0)"/>
       <use xlink:href="#DejaVuSans-30" transform="translate(95.410156 0)"/>
       <use xlink:href="#DejaVuSans-35" transform="translate(159.033203 0)"/>
      </g>
     </g>
    </g>
    <g id="ytick_3">
     <g id="line2d_17">
      <path d="M 50.14375 228.329112 
L 552.34375 228.329112 
" clip-path="url(#p1a56b03869)" style="fill: none; stroke: #b0b0b0; stroke-opacity: 0.3; stroke-width: 0.8; stroke-linecap: square"/>
     </g>
     <g id="line2d_18">
      <g>
       <use xlink:href="#m32afd5c0b2" x="50.14375" y="228.329112" style="stroke: #000000; stroke-width: 0.8"/>
      </g>
     </g>
     <g id="text_10">
      <!-- 0.10 -->
      <g transform="translate(20.878125 232.128331) scale(0.1 -0.1)">
       <use xlink:href="#DejaVuSans-30"/>
       <use xlink:href="#DejaVuSans-2e" transform="translate(63.623047 0)"/>
       <use xlink:href="#DejaVuSans-31" transform="translate(95.410156 0)"/>
       <use xlink:href="#DejaVuSans-30" transform="translate(159.033203 0)"/>
      </g>
     </g>
    </g>
    <g id="ytick_4">
     <g id="line2d_19">
      <path d="M 50.14375 172.325881 
L 552.34375 172.325881 
" clip-path="url(#p1a56b03869)" style="fill: none; stroke: #b0b0b0; stroke-opacity: 0.3; stroke-width: 0.8; stroke-linecap: square"/>
     </g>
     <g id="line2d_20">
      <g>
       <use xlink:href="#m32afd5c0b2" x="50.14375" y="172.325881" style="stroke: #000000; stroke-width: 0.8"/>
      </g>
     </g>
     <g id="text_11">
      <!-- 0.15 -->
      <g transform="translate(20.878125 176.1251) scale(0.1 -0.1)">
       <use xlink:href="#DejaVuSans-30"/>
       <use xlink:href="#DejaVuSans-2e" transform="translate(63.623047 0)"/>
       <use xlink:href="#DejaVuSans-31" transform="translate(95.410156 0)"/>
       <use xlink:href="#DejaVuSans-35" transform="translate(159.033203 0)"/>
      </g>
     </g>
    </g>
    <g id="ytick_5">
     <g id="line2d_21">
      <path d="M 50.14375 116.322649 
L 552.34375 116.322649 
" clip-path="url(#p1a56b03869)" style="fill: none; stroke: #b0b0b0; stroke-opacity: 0.3; stroke-width: 0.8; stroke-linecap: square"/>
     </g>
     <g id="line2d_22">
      <g>
       <use xlink:href="#m32afd5c0b2" x="50.14375" y="116.322649" style="stroke: #000000; stroke-width: 0.8"/>
      </g>
     </g>
     <g id="text_12">
      <!-- 0.20 -->
      <g transform="translate(20.878125 120.121868) scale(0.1 -0.1)">
       <use xlink:href="#DejaVuSans-30"/>
       <use xlink:href="#DejaVuSans-2e" transform="translate(63.623047 0)"/>
       <use xlink:href="#DejaVuSans-32" transform="translate(95.410156 0)"/>
       <use xlink:href="#DejaVuSans-30" transform="translate(159.033203 0)"/>
      </g>
     </g>
    </g>
    <g id="ytick_6">
     <g id="line2d_23">
      <path d="M 50.14375 60.319418 
L 552.34375 60.319418 
" clip-path="url(#p1a56b03869)" style="fill: none; stroke: #b0b0b0; stroke-opacity: 0.3; stroke-width: 0.8; stroke-linecap: square"/>
     </g>
     <g id="line2d_24">
      <g>
       <use xlink:href="#m32afd5c0b2" x="50.14375" y="60.319418" style="stroke: #000000; stroke-width: 0.8"/>
      </g>
     </g>
     <g id="text_13">
      <!-- 0.25 -->
      <g transform="translate(20.878125 64.118636) scale(0.1 -0.1)">
       <use xlink:href="#DejaVuSans-30"/>
       <use xlink:href="#DejaVuSans-2e" transform="translate(63.623047 0)"/>
       <use xlink:href="#DejaVuSans-32" transform="translate(95.410156 0)"/>
       <use xlink:href="#DejaVuSans-35" transform="translate(159.033203 0)"/>
      </g>
     </g>
    </g>
    <g id="text_14">
     <!-- T [J] -->
     <g transform="translate(14.798437 199.137656) rotate(-90) scale(0.1 -0.1)">
      <defs>
       <path id="DejaVuSans-54" d="M -19 4666 
L 3928 4666 
L 3928 4134 
L 2272 4134 
L 2272 0 
L 1638 0 
L 1638 4134 
L -19 4134 
L -19 4666 
z
" transform="scale(0.015625)"/>
       <path id="DejaVuSans-4a" d="M 628 4666 
L 1259 4666 
L 1259 325 
Q 1259 -519 939 -900 
Q 619 -1281 -91 -1281 
L -331 -1281 
L -331 -750 
L -134 -750 
Q 284 -750 456 -515 
Q 628 -281 628 325 
L 628 4666 
z
" transform="scale(0.015625)"/>
      </defs>
      <use xlink:href="#DejaVuSans-54"/>
      <use xlink:href="#DejaVuSans-20" transform="translate(61.083984 0)"/>
      <use xlink:href="#DejaVuSans-5b" transform="translate(92.871094 0)"/>
      <use xlink:href="#DejaVuSans-4a" transform="translate(131.884766 0)"/>
      <use xlink:href="#DejaVuSans-5d" transform="translate(161.376953 0)"/>
     </g>
    </g>
   </g>
   <g id="patch_3">
    <path d="M 50.14375 355.438125 
L 50.14375 22.798125 
" style="fill: none; stroke: #000000; stroke-width: 0.8; stroke-linejoin: miter; stroke-linecap: square"/>
   </g>
   <g id="patch_4">
    <path d="M 552.34375 355.438125 
L 552.34375 22.798125 
" style="fill: none; stroke: #000000; stroke-width: 0.8; stroke-linejoin: miter; stroke-linecap: square"/>
   </g>
   <g id="patch_5">
    <path d="M 50.14375 355.438125 
L 552.34375 355.438125 
" style="fill: none; stroke: #000000; stroke-width: 0.8; stroke-linejoin: miter; stroke-linecap: square"/>
   </g>
   <g id="patch_6">
    <path d="M 50.14375 22.798125 
L 552.34375 22.798125 
" style="fill: none; stroke: #000000; stroke-width: 0.8; stroke-linejoin: miter; stroke-linecap: square"/>
   </g>
   <g id="text_15">
    <!-- Měření kinetické energie T vozíček č. 2 -->
    <g transform="translate(184.630937 16.798125) scale(0.12 -0.12)">
     <defs>
      <path id="DejaVuSans-4d" d="M 628 4666 
L 1569 4666 
L 2759 1491 
L 3956 4666 
L 4897 4666 
L 4897 0 
L 4281 0 
L 4281 4097 
L 3078 897 
L 2444 897 
L 1241 4097 
L 1241 0 
L 628 0 
L 628 4666 
z
" transform="scale(0.015625)"/>
      <path id="DejaVuSans-11b" d="M 3597 1894 
L 3597 1613 
L 953 1613 
Q 991 1019 1311 708 
Q 1631 397 2203 397 
Q 2534 397 2845 478 
Q 3156 559 3463 722 
L 3463 178 
Q 3153 47 2828 -22 
Q 2503 -91 2169 -91 
Q 1331 -91 842 396 
Q 353 884 353 1716 
Q 353 2575 817 3079 
Q 1281 3584 2069 3584 
Q 2775 3584 3186 3129 
Q 3597 2675 3597 1894 
z
M 3022 2063 
Q 3016 2534 2758 2815 
Q 2500 3097 2075 3097 
Q 1594 3097 1305 2825 
Q 1016 2553 972 2059 
L 3022 2063 
z
M 1833 3944 
L 1067 5119 
L 1502 5119 
L 2064 4353 
L 2627 5119 
L 3061 5119 
L 2295 3944 
L 1833 3944 
z
" transform="scale(0.015625)"/>
      <path id="DejaVuSans-159" d="M 2631 2963 
Q 2534 3019 2420 3045 
Q 2306 3072 2169 3072 
Q 1681 3072 1420 2755 
Q 1159 2438 1159 1844 
L 1159 0 
L 581 0 
L 581 3500 
L 1159 3500 
L 1159 2956 
Q 1341 3275 1631 3429 
Q 1922 3584 2338 3584 
Q 2397 3584 2469 3576 
Q 2541 3569 2628 3553 
L 2631 2963 
z
M 1457 3944 
L 691 5119 
L 1126 5119 
L 1688 4353 
L 2251 5119 
L 2685 5119 
L 1919 3944 
L 1457 3944 
z
" transform="scale(0.015625)"/>
      <path id="DejaVuSans-65" d="M 3597 1894 
L 3597 1613 
L 953 1613 
Q 991 1019 1311 708 
Q 1631 397 2203 397 
Q 2534 397 2845 478 
Q 3156 559 3463 722 
L 3463 178 
Q 3153 47 2828 -22 
Q 2503 -91 2169 -91 
Q 1331 -91 842 396 
Q 353 884 353 1716 
Q 353 2575 817 3079 
Q 1281 3584 2069 3584 
Q 2775 3584 3186 3129 
Q 3597 2675 3597 1894 
z
M 3022 2063 
Q 3016 2534 2758 2815 
Q 2500 3097 2075 3097 
Q 1594 3097 1305 2825 
Q 1016 2553 972 2059 
L 3022 2063 
z
" transform="scale(0.015625)"/>
      <path id="DejaVuSans-6e" d="M 3513 2113 
L 3513 0 
L 2938 0 
L 2938 2094 
Q 2938 2591 2744 2837 
Q 2550 3084 2163 3084 
Q 1697 3084 1428 2787 
Q 1159 2491 1159 1978 
L 1159 0 
L 581 0 
L 581 3500 
L 1159 3500 
L 1159 2956 
Q 1366 3272 1645 3428 
Q 1925 3584 2291 3584 
Q 2894 3584 3203 3211 
Q 3513 2838 3513 2113 
z
" transform="scale(0.015625)"/>
      <path id="DejaVuSans-ed" d="M 1322 5119 
L 1944 5119 
L 926 3944 
L 447 3944 
L 1322 5119 
z
M 603 3500 
L 1178 3500 
L 1178 0 
L 603 0 
L 603 3500 
z
M 891 3584 
L 891 3584 
z
" transform="scale(0.015625)"/>
      <path id="DejaVuSans-6b" d="M 581 4863 
L 1159 4863 
L 1159 1991 
L 2875 3500 
L 3609 3500 
L 1753 1863 
L 3688 0 
L 2938 0 
L 1159 1709 
L 1159 0 
L 581 0 
L 581 4863 
z
" transform="scale(0.015625)"/>
      <path id="DejaVuSans-69" d="M 603 3500 
L 1178 3500 
L 1178 0 
L 603 0 
L 603 3500 
z
M 603 4863 
L 1178 4863 
L 1178 4134 
L 603 4134 
L 603 4863 
z
" transform="scale(0.015625)"/>
      <path id="DejaVuSans-63" d="M 3122 3366 
L 3122 2828 
Q 2878 2963 2633 3030 
Q 2388 3097 2138 3097 
Q 1578 3097 1268 2742 
Q 959 2388 959 1747 
Q 959 1106 1268 751 
Q 1578 397 2138 397 
Q 2388 397 2633 464 
Q 2878 531 3122 666 
L 3122 134 
Q 2881 22 2623 -34 
Q 2366 -91 2075 -91 
Q 1284 -91 818 406 
Q 353 903 353 1747 
Q 353 2603 823 3093 
Q 1294 3584 2113 3584 
Q 2378 3584 2631 3529 
Q 2884 3475 3122 3366 
z
" transform="scale(0.015625)"/>
      <path id="DejaVuSans-e9" d="M 3597 1894 
L 3597 1613 
L 953 1613 
Q 991 1019 1311 708 
Q 1631 397 2203 397 
Q 2534 397 2845 478 
Q 3156 559 3463 722 
L 3463 178 
Q 3153 47 2828 -22 
Q 2503 -91 2169 -91 
Q 1331 -91 842 396 
Q 353 884 353 1716 
Q 353 2575 817 3079 
Q 1281 3584 2069 3584 
Q 2775 3584 3186 3129 
Q 3597 2675 3597 1894 
z
M 3022 2063 
Q 3016 2534 2758 2815 
Q 2500 3097 2075 3097 
Q 1594 3097 1305 2825 
Q 1016 2553 972 2059 
L 3022 2063 
z
M 2466 5119 
L 3088 5119 
L 2070 3944 
L 1591 3944 
L 2466 5119 
z
" transform="scale(0.015625)"/>
      <path id="DejaVuSans-72" d="M 2631 2963 
Q 2534 3019 2420 3045 
Q 2306 3072 2169 3072 
Q 1681 3072 1420 2755 
Q 1159 2438 1159 1844 
L 1159 0 
L 581 0 
L 581 3500 
L 1159 3500 
L 1159 2956 
Q 1341 3275 1631 3429 
Q 1922 3584 2338 3584 
Q 2397 3584 2469 3576 
Q 2541 3569 2628 3553 
L 2631 2963 
z
" transform="scale(0.015625)"/>
      <path id="DejaVuSans-67" d="M 2906 1791 
Q 2906 2416 2648 2759 
Q 2391 3103 1925 3103 
Q 1463 3103 1205 2759 
Q 947 2416 947 1791 
Q 947 1169 1205 825 
Q 1463 481 1925 481 
Q 2391 481 2648 825 
Q 2906 1169 2906 1791 
z
M 3481 434 
Q 3481 -459 3084 -895 
Q 2688 -1331 1869 -1331 
Q 1566 -1331 1297 -1286 
Q 1028 -1241 775 -1147 
L 775 -588 
Q 1028 -725 1275 -790 
Q 1522 -856 1778 -856 
Q 2344 -856 2625 -561 
Q 2906 -266 2906 331 
L 2906 616 
Q 2728 306 2450 153 
Q 2172 0 1784 0 
Q 1141 0 747 490 
Q 353 981 353 1791 
Q 353 2603 747 3093 
Q 1141 3584 1784 3584 
Q 2172 3584 2450 3431 
Q 2728 3278 2906 2969 
L 2906 3500 
L 3481 3500 
L 3481 434 
z
" transform="scale(0.015625)"/>
      <path id="DejaVuSans-76" d="M 191 3500 
L 800 3500 
L 1894 563 
L 2988 3500 
L 3597 3500 
L 2284 0 
L 1503 0 
L 191 3500 
z
" transform="scale(0.015625)"/>
      <path id="DejaVuSans-6f" d="M 1959 3097 
Q 1497 3097 1228 2736 
Q 959 2375 959 1747 
Q 959 1119 1226 758 
Q 1494 397 1959 397 
Q 2419 397 2687 759 
Q 2956 1122 2956 1747 
Q 2956 2369 2687 2733 
Q 2419 3097 1959 3097 
z
M 1959 3584 
Q 2709 3584 3137 3096 
Q 3566 2609 3566 1747 
Q 3566 888 3137 398 
Q 2709 -91 1959 -91 
Q 1206 -91 779 398 
Q 353 888 353 1747 
Q 353 2609 779 3096 
Q 1206 3584 1959 3584 
z
" transform="scale(0.015625)"/>
      <path id="DejaVuSans-7a" d="M 353 3500 
L 3084 3500 
L 3084 2975 
L 922 459 
L 3084 459 
L 3084 0 
L 275 0 
L 275 525 
L 2438 3041 
L 353 3041 
L 353 3500 
z
" transform="scale(0.015625)"/>
      <path id="DejaVuSans-10d" d="M 3122 3366 
L 3122 2828 
Q 2878 2963 2633 3030 
Q 2388 3097 2138 3097 
Q 1578 3097 1268 2742 
Q 959 2388 959 1747 
Q 959 1106 1268 751 
Q 1578 397 2138 397 
Q 2388 397 2633 464 
Q 2878 531 3122 666 
L 3122 134 
Q 2881 22 2623 -34 
Q 2366 -91 2075 -91 
Q 1284 -91 818 406 
Q 353 903 353 1747 
Q 353 2603 823 3093 
Q 1294 3584 2113 3584 
Q 2378 3584 2631 3529 
Q 2884 3475 3122 3366 
z
M 1801 3944 
L 1035 5119 
L 1470 5119 
L 2032 4353 
L 2595 5119 
L 3029 5119 
L 2263 3944 
L 1801 3944 
z
" transform="scale(0.015625)"/>
     </defs>
     <use xlink:href="#DejaVuSans-4d"/>
     <use xlink:href="#DejaVuSans-11b" transform="translate(86.279297 0)"/>
     <use xlink:href="#DejaVuSans-159" transform="translate(147.802734 0)"/>
     <use xlink:href="#DejaVuSans-65" transform="translate(186.666016 0)"/>
     <use xlink:href="#DejaVuSans-6e" transform="translate(248.189453 0)"/>
     <use xlink:href="#DejaVuSans-ed" transform="translate(311.568359 0)"/>
     <use xlink:href="#DejaVuSans-20" transform="translate(339.351562 0)"/>
     <use xlink:href="#DejaVuSans-6b" transform="translate(371.138672 0)"/>
     <use xlink:href="#DejaVuSans-69" transform="translate(429.048828 0)"/>
     <use xlink:href="#DejaVuSans-6e" transform="translate(456.832031 0)"/>
     <use xlink:href="#DejaVuSans-65" transform="translate(520.210938 0)"/>
     <use xlink:href="#DejaVuSans-74" transform="translate(581.734375 0)"/>
     <use xlink:href="#DejaVuSans-69" transform="translate(620.943359 0)"/>
     <use xlink:href="#DejaVuSans-63" transform="translate(648.726562 0)"/>
     <use xlink:href="#DejaVuSans-6b" transform="translate(703.707031 0)"/>
     <use xlink:href="#DejaVuSans-e9" transform="translate(757.992188 0)"/>
     <use xlink:href="#DejaVuSans-20" transform="translate(819.515625 0)"/>
     <use xlink:href="#DejaVuSans-65" transform="translate(851.302734 0)"/>
     <use xlink:href="#DejaVuSans-6e" transform="translate(912.826172 0)"/>
     <use xlink:href="#DejaVuSans-65" transform="translate(976.205078 0)"/>
     <use xlink:href="#DejaVuSans-72" transform="translate(1037.728516 0)"/>
     <use xlink:href="#DejaVuSans-67" transform="translate(1077.091797 0)"/>
     <use xlink:href="#DejaVuSans-69" transform="translate(1140.568359 0)"/>
     <use xlink:href="#DejaVuSans-65" transform="translate(1168.351562 0)"/>
     <use xlink:href="#DejaVuSans-20" transform="translate(1229.875 0)"/>
     <use xlink:href="#DejaVuSans-54" transform="translate(1261.662109 0)"/>
     <use xlink:href="#DejaVuSans-20" transform="translate(1322.746094 0)"/>
     <use xlink:href="#DejaVuSans-76" transform="translate(1354.533203 0)"/>
     <use xlink:href="#DejaVuSans-6f" transform="translate(1413.712891 0)"/>
     <use xlink:href="#DejaVuSans-7a" transform="translate(1474.894531 0)"/>
     <use xlink:href="#DejaVuSans-ed" transform="translate(1527.384766 0)"/>
     <use xlink:href="#DejaVuSans-10d" transform="translate(1555.167969 0)"/>
     <use xlink:href="#DejaVuSans-65" transform="translate(1610.148438 0)"/>
     <use xlink:href="#DejaVuSans-6b" transform="translate(1671.671875 0)"/>
     <use xlink:href="#DejaVuSans-20" transform="translate(1729.582031 0)"/>
     <use xlink:href="#DejaVuSans-10d" transform="translate(1761.369141 0)"/>
     <use xlink:href="#DejaVuSans-2e" transform="translate(1816.349609 0)"/>
     <use xlink:href="#DejaVuSans-20" transform="translate(1848.136719 0)"/>
     <use xlink:href="#DejaVuSans-32" transform="translate(1879.923828 0)"/>
    </g>
   </g>
   <g id="legend_1">
    <g id="patch_7">
     <path d="M 435.632812 45.47625 
L 545.34375 45.47625 
Q 547.34375 45.47625 547.34375 43.47625 
L 547.34375 29.798125 
Q 547.34375 27.798125 545.34375 27.798125 
L 435.632812 27.798125 
Q 433.632812 27.798125 433.632812 29.798125 
L 433.632812 43.47625 
Q 433.632812 45.47625 435.632812 45.47625 
z
" style="fill: #ffffff; opacity: 0.8; stroke: #cccccc; stroke-linejoin: miter"/>
    </g>
    <g id="PathCollection_2">
     <g>
      <use xlink:href="#m42bcd54436" x="447.632812" y="36.771563" style="fill: #0000ff; stroke: #0000ff"/>
     </g>
    </g>
    <g id="text_16">
     <!-- Naměřená data -->
     <g transform="translate(465.632812 39.396563) scale(0.1 -0.1)">
      <defs>
       <path id="DejaVuSans-4e" d="M 628 4666 
L 1478 4666 
L 3547 763 
L 3547 4666 
L 4159 4666 
L 4159 0 
L 3309 0 
L 1241 3903 
L 1241 0 
L 628 0 
L 628 4666 
z
" transform="scale(0.015625)"/>
       <path id="DejaVuSans-61" d="M 2194 1759 
Q 1497 1759 1228 1600 
Q 959 1441 959 1056 
Q 959 750 1161 570 
Q 1363 391 1709 391 
Q 2188 391 2477 730 
Q 2766 1069 2766 1631 
L 2766 1759 
L 2194 1759 
z
M 3341 1997 
L 3341 0 
L 2766 0 
L 2766 531 
Q 2569 213 2275 61 
Q 1981 -91 1556 -91 
Q 1019 -91 701 211 
Q 384 513 384 1019 
Q 384 1609 779 1909 
Q 1175 2209 1959 2209 
L 2766 2209 
L 2766 2266 
Q 2766 2663 2505 2880 
Q 2244 3097 1772 3097 
Q 1472 3097 1187 3025 
Q 903 2953 641 2809 
L 641 3341 
Q 956 3463 1253 3523 
Q 1550 3584 1831 3584 
Q 2591 3584 2966 3190 
Q 3341 2797 3341 1997 
z
" transform="scale(0.015625)"/>
       <path id="DejaVuSans-6d" d="M 3328 2828 
Q 3544 3216 3844 3400 
Q 4144 3584 4550 3584 
Q 5097 3584 5394 3201 
Q 5691 2819 5691 2113 
L 5691 0 
L 5113 0 
L 5113 2094 
Q 5113 2597 4934 2840 
Q 4756 3084 4391 3084 
Q 3944 3084 3684 2787 
Q 3425 2491 3425 1978 
L 3425 0 
L 2847 0 
L 2847 2094 
Q 2847 2600 2669 2842 
Q 2491 3084 2119 3084 
Q 1678 3084 1418 2786 
Q 1159 2488 1159 1978 
L 1159 0 
L 581 0 
L 581 3500 
L 1159 3500 
L 1159 2956 
Q 1356 3278 1631 3431 
Q 1906 3584 2284 3584 
Q 2666 3584 2933 3390 
Q 3200 3197 3328 2828 
z
" transform="scale(0.015625)"/>
       <path id="DejaVuSans-e1" d="M 2194 1759 
Q 1497 1759 1228 1600 
Q 959 1441 959 1056 
Q 959 750 1161 570 
Q 1363 391 1709 391 
Q 2188 391 2477 730 
Q 2766 1069 2766 1631 
L 2766 1759 
L 2194 1759 
z
M 3341 1997 
L 3341 0 
L 2766 0 
L 2766 531 
Q 2569 213 2275 61 
Q 1981 -91 1556 -91 
Q 1019 -91 701 211 
Q 384 513 384 1019 
Q 384 1609 779 1909 
Q 1175 2209 1959 2209 
L 2766 2209 
L 2766 2266 
Q 2766 2663 2505 2880 
Q 2244 3097 1772 3097 
Q 1472 3097 1187 3025 
Q 903 2953 641 2809 
L 641 3341 
Q 956 3463 1253 3523 
Q 1550 3584 1831 3584 
Q 2591 3584 2966 3190 
Q 3341 2797 3341 1997 
z
M 2290 5119 
L 2912 5119 
L 1894 3944 
L 1415 3944 
L 2290 5119 
z
" transform="scale(0.015625)"/>
       <path id="DejaVuSans-64" d="M 2906 2969 
L 2906 4863 
L 3481 4863 
L 3481 0 
L 2906 0 
L 2906 525 
Q 2725 213 2448 61 
Q 2172 -91 1784 -91 
Q 1150 -91 751 415 
Q 353 922 353 1747 
Q 353 2572 751 3078 
Q 1150 3584 1784 3584 
Q 2172 3584 2448 3432 
Q 2725 3281 2906 2969 
z
M 947 1747 
Q 947 1113 1208 752 
Q 1469 391 1925 391 
Q 2381 391 2643 752 
Q 2906 1113 2906 1747 
Q 2906 2381 2643 2742 
Q 2381 3103 1925 3103 
Q 1469 3103 1208 2742 
Q 947 2381 947 1747 
z
" transform="scale(0.015625)"/>
      </defs>
      <use xlink:href="#DejaVuSans-4e"/>
      <use xlink:href="#DejaVuSans-61" transform="translate(74.804688 0)"/>
      <use xlink:href="#DejaVuSans-6d" transform="translate(136.083984 0)"/>
      <use xlink:href="#DejaVuSans-11b" transform="translate(233.496094 0)"/>
      <use xlink:href="#DejaVuSans-159" transform="translate(295.019531 0)"/>
      <use xlink:href="#DejaVuSans-65" transform="translate(333.882812 0)"/>
      <use xlink:href="#DejaVuSans-6e" transform="translate(395.40625 0)"/>
      <use xlink:href="#DejaVuSans-e1" transform="translate(458.785156 0)"/>
      <use xlink:href="#DejaVuSans-20" transform="translate(520.064453 0)"/>
      <use xlink:href="#DejaVuSans-64" transform="translate(551.851562 0)"/>
      <use xlink:href="#DejaVuSans-61" transform="translate(615.328125 0)"/>
      <use xlink:href="#DejaVuSans-74" transform="translate(676.607422 0)"/>
      <use xlink:href="#DejaVuSans-61" transform="translate(715.816406 0)"/>
     </g>
    </g>
   </g>
  </g>
 </g>
 <defs>
  <clipPath id="p1a56b03869">
   <rect x="50.14375" y="22.798125" width="502.2" height="332.64"/>
  </clipPath>
 </defs>
</svg>
