<?xml version="1.0" encoding="utf-8" standalone="no"?>
<!DOCTYPE svg PUBLIC "-//W3C//DTD SVG 1.1//EN"
  "http://www.w3.org/Graphics/SVG/1.1/DTD/svg11.dtd">
<svg xmlns:xlink="http://www.w3.org/1999/xlink" width="559.684956pt" height="392.994375pt" viewBox="0 0 559.684956 392.994375" xmlns="http://www.w3.org/2000/svg" version="1.1">
 <metadata>
  <rdf:RDF xmlns:dc="http://purl.org/dc/elements/1.1/" xmlns:cc="http://creativecommons.org/ns#" xmlns:rdf="http://www.w3.org/1999/02/22-rdf-syntax-ns#">
   <cc:Work>
    <dc:type rdf:resource="http://purl.org/dc/dcmitype/StillImage"/>
    <dc:date>2026-04-06T21:25:00.168895</dc:date>
    <dc:format>image/svg+xml</dc:format>
    <dc:creator>
     <cc:Agent>
      <dc:title>Matplotlib v3.10.8, https://matplotlib.org/</dc:title>
     </cc:Agent>
    </dc:creator>
   </cc:Work>
  </rdf:RDF>
 </metadata>
 <defs>
  <style type="text/css">*{stroke-linejoin: round; stroke-linecap: butt}</style>
 </defs>
 <g id="figure_1">
  <g id="patch_1">
   <path d="M 0 392.994375 
L 559.684956 392.994375 
L 559.684956 0 
L 0 0 
z
" style="fill: #ffffff"/>
  </g>
  <g id="axes_1">
   <g id="patch_2">
    <path d="M 50.14375 355.438125 
L 552.34375 355.438125 
L 552.34375 22.798125 
L 50.14375 22.798125 
z
" style="fill: #ffffff"/>
   </g>
   <g id="PathCollection_1">
    <defs>
     <path id="ma9e09bde1a" d="M 0 1.581139 
C 0.419323 1.581139 0.821528 1.41454 1.118034 1.118034 
C 1.41454 0.821528 1.581139 0.419323 1.581139 0 
C 1.581139 -0.419323 1.41454 -0.821528 1.118034 -1.118034 
C 0.821528 -1.41454 0.419323 -1.581139 0 -1.581139 
C -0.419323 -1.581139 -0.821528 -1.41454 -1.118034 -1.118034 
C -1.41454 -0.821528 -1.581139 -0.419323 -1.581139 0 
C -1.581139 0.419323 -1.41454 0.821528 -1.118034 1.118034 
C -0.821528 1.41454 -0.419323 1.581139 0 1.581139 
z
" style="stroke: #0000ff"/>
    </defs>
    <g clip-path="url(#ped8592a7b0)">
     <use xlink:href="#ma9e09bde1a" x="72.971023" y="49.960603" style="fill: #0000ff; stroke: #0000ff"/>
     <use xlink:href="#ma9e09bde1a" x="77.729183" y="49.960603" style="fill: #0000ff; stroke: #0000ff"/>
     <use xlink:href="#ma9e09bde1a" x="82.439761" y="48.62255" style="fill: #0000ff; stroke: #0000ff"/>
     <use xlink:href="#ma9e09bde1a" x="87.197921" y="51.298656" style="fill: #0000ff; stroke: #0000ff"/>
     <use xlink:href="#ma9e09bde1a" x="91.956081" y="53.974762" style="fill: #0000ff; stroke: #0000ff"/>
     <use xlink:href="#ma9e09bde1a" x="96.714241" y="52.636709" style="fill: #0000ff; stroke: #0000ff"/>
     <use xlink:href="#ma9e09bde1a" x="101.472401" y="48.62255" style="fill: #0000ff; stroke: #0000ff"/>
     <use xlink:href="#ma9e09bde1a" x="106.230561" y="48.62255" style="fill: #0000ff; stroke: #0000ff"/>
     <use xlink:href="#ma9e09bde1a" x="110.988721" y="37.918125" style="fill: #0000ff; stroke: #0000ff"/>
     <use xlink:href="#ma9e09bde1a" x="115.746881" y="41.932284" style="fill: #0000ff; stroke: #0000ff"/>
     <use xlink:href="#ma9e09bde1a" x="120.505041" y="49.960603" style="fill: #0000ff; stroke: #0000ff"/>
     <use xlink:href="#ma9e09bde1a" x="125.21562" y="56.650868" style="fill: #0000ff; stroke: #0000ff"/>
     <use xlink:href="#ma9e09bde1a" x="129.97378" y="57.988921" style="fill: #0000ff; stroke: #0000ff"/>
     <use xlink:href="#ma9e09bde1a" x="134.73194" y="60.665028" style="fill: #0000ff; stroke: #0000ff"/>
     <use xlink:href="#ma9e09bde1a" x="139.4901" y="94.116355" style="fill: #0000ff; stroke: #0000ff"/>
     <use xlink:href="#ma9e09bde1a" x="144.24826" y="60.665028" style="fill: #0000ff; stroke: #0000ff"/>
     <use xlink:href="#ma9e09bde1a" x="148.958838" y="66.01724" style="fill: #0000ff; stroke: #0000ff"/>
     <use xlink:href="#ma9e09bde1a" x="153.716998" y="67.355293" style="fill: #0000ff; stroke: #0000ff"/>
     <use xlink:href="#ma9e09bde1a" x="158.475158" y="71.369452" style="fill: #0000ff; stroke: #0000ff"/>
     <use xlink:href="#ma9e09bde1a" x="163.233318" y="76.721665" style="fill: #0000ff; stroke: #0000ff"/>
     <use xlink:href="#ma9e09bde1a" x="167.943897" y="82.073877" style="fill: #0000ff; stroke: #0000ff"/>
     <use xlink:href="#ma9e09bde1a" x="172.702057" y="86.088037" style="fill: #0000ff; stroke: #0000ff"/>
     <use xlink:href="#ma9e09bde1a" x="177.460217" y="90.102196" style="fill: #0000ff; stroke: #0000ff"/>
     <use xlink:href="#ma9e09bde1a" x="182.170795" y="95.454408" style="fill: #0000ff; stroke: #0000ff"/>
     <use xlink:href="#ma9e09bde1a" x="186.928955" y="100.806621" style="fill: #0000ff; stroke: #0000ff"/>
     <use xlink:href="#ma9e09bde1a" x="191.687115" y="142.286267" style="fill: #0000ff; stroke: #0000ff"/>
     <use xlink:href="#ma9e09bde1a" x="196.445275" y="313.557063" style="fill: #0000ff; stroke: #0000ff"/>
     <use xlink:href="#ma9e09bde1a" x="201.203435" y="242.640249" style="fill: #0000ff; stroke: #0000ff"/>
     <use xlink:href="#ma9e09bde1a" x="205.961595" y="225.245559" style="fill: #0000ff; stroke: #0000ff"/>
     <use xlink:href="#ma9e09bde1a" x="210.719755" y="226.583612" style="fill: #0000ff; stroke: #0000ff"/>
     <use xlink:href="#ma9e09bde1a" x="215.477916" y="231.935824" style="fill: #0000ff; stroke: #0000ff"/>
     <use xlink:href="#ma9e09bde1a" x="220.236076" y="234.61193" style="fill: #0000ff; stroke: #0000ff"/>
     <use xlink:href="#ma9e09bde1a" x="225.041817" y="237.288037" style="fill: #0000ff; stroke: #0000ff"/>
     <use xlink:href="#ma9e09bde1a" x="229.799977" y="237.288037" style="fill: #0000ff; stroke: #0000ff"/>
     <use xlink:href="#ma9e09bde1a" x="234.558137" y="239.964143" style="fill: #0000ff; stroke: #0000ff"/>
     <use xlink:href="#ma9e09bde1a" x="239.316297" y="239.964143" style="fill: #0000ff; stroke: #0000ff"/>
     <use xlink:href="#ma9e09bde1a" x="244.074457" y="241.302196" style="fill: #0000ff; stroke: #0000ff"/>
     <use xlink:href="#ma9e09bde1a" x="248.832617" y="241.302196" style="fill: #0000ff; stroke: #0000ff"/>
     <use xlink:href="#ma9e09bde1a" x="253.590777" y="242.640249" style="fill: #0000ff; stroke: #0000ff"/>
     <use xlink:href="#ma9e09bde1a" x="258.348937" y="242.640249" style="fill: #0000ff; stroke: #0000ff"/>
     <use xlink:href="#ma9e09bde1a" x="263.107097" y="242.640249" style="fill: #0000ff; stroke: #0000ff"/>
     <use xlink:href="#ma9e09bde1a" x="267.865257" y="242.640249" style="fill: #0000ff; stroke: #0000ff"/>
     <use xlink:href="#ma9e09bde1a" x="272.623417" y="242.640249" style="fill: #0000ff; stroke: #0000ff"/>
     <use xlink:href="#ma9e09bde1a" x="277.381577" y="242.640249" style="fill: #0000ff; stroke: #0000ff"/>
     <use xlink:href="#ma9e09bde1a" x="282.139737" y="243.978302" style="fill: #0000ff; stroke: #0000ff"/>
     <use xlink:href="#ma9e09bde1a" x="286.897898" y="243.978302" style="fill: #0000ff; stroke: #0000ff"/>
     <use xlink:href="#ma9e09bde1a" x="291.656058" y="245.316355" style="fill: #0000ff; stroke: #0000ff"/>
     <use xlink:href="#ma9e09bde1a" x="296.414218" y="245.316355" style="fill: #0000ff; stroke: #0000ff"/>
     <use xlink:href="#ma9e09bde1a" x="301.172378" y="246.654408" style="fill: #0000ff; stroke: #0000ff"/>
     <use xlink:href="#ma9e09bde1a" x="305.930538" y="247.992461" style="fill: #0000ff; stroke: #0000ff"/>
     <use xlink:href="#ma9e09bde1a" x="310.641116" y="247.992461" style="fill: #0000ff; stroke: #0000ff"/>
     <use xlink:href="#ma9e09bde1a" x="315.399276" y="249.330514" style="fill: #0000ff; stroke: #0000ff"/>
     <use xlink:href="#ma9e09bde1a" x="320.157436" y="252.006621" style="fill: #0000ff; stroke: #0000ff"/>
     <use xlink:href="#ma9e09bde1a" x="324.915596" y="253.344674" style="fill: #0000ff; stroke: #0000ff"/>
     <use xlink:href="#ma9e09bde1a" x="329.673756" y="269.401311" style="fill: #0000ff; stroke: #0000ff"/>
     <use xlink:href="#ma9e09bde1a" x="334.431916" y="284.119895" style="fill: #0000ff; stroke: #0000ff"/>
     <use xlink:href="#ma9e09bde1a" x="339.190076" y="326.937594" style="fill: #0000ff; stroke: #0000ff"/>
     <use xlink:href="#ma9e09bde1a" x="343.948236" y="293.486267" style="fill: #0000ff; stroke: #0000ff"/>
     <use xlink:href="#ma9e09bde1a" x="348.706396" y="290.81016" style="fill: #0000ff; stroke: #0000ff"/>
     <use xlink:href="#ma9e09bde1a" x="353.464556" y="285.457948" style="fill: #0000ff; stroke: #0000ff"/>
     <use xlink:href="#ma9e09bde1a" x="358.222716" y="286.796001" style="fill: #0000ff; stroke: #0000ff"/>
     <use xlink:href="#ma9e09bde1a" x="362.980876" y="288.134054" style="fill: #0000ff; stroke: #0000ff"/>
     <use xlink:href="#ma9e09bde1a" x="367.739036" y="289.472107" style="fill: #0000ff; stroke: #0000ff"/>
     <use xlink:href="#ma9e09bde1a" x="372.497196" y="289.472107" style="fill: #0000ff; stroke: #0000ff"/>
     <use xlink:href="#ma9e09bde1a" x="377.255356" y="290.81016" style="fill: #0000ff; stroke: #0000ff"/>
     <use xlink:href="#ma9e09bde1a" x="382.013516" y="290.81016" style="fill: #0000ff; stroke: #0000ff"/>
     <use xlink:href="#ma9e09bde1a" x="386.771676" y="290.81016" style="fill: #0000ff; stroke: #0000ff"/>
     <use xlink:href="#ma9e09bde1a" x="391.529837" y="290.81016" style="fill: #0000ff; stroke: #0000ff"/>
     <use xlink:href="#ma9e09bde1a" x="396.287997" y="290.81016" style="fill: #0000ff; stroke: #0000ff"/>
     <use xlink:href="#ma9e09bde1a" x="401.046157" y="290.81016" style="fill: #0000ff; stroke: #0000ff"/>
     <use xlink:href="#ma9e09bde1a" x="405.804317" y="290.81016" style="fill: #0000ff; stroke: #0000ff"/>
     <use xlink:href="#ma9e09bde1a" x="410.562477" y="292.148213" style="fill: #0000ff; stroke: #0000ff"/>
     <use xlink:href="#ma9e09bde1a" x="415.320637" y="293.486267" style="fill: #0000ff; stroke: #0000ff"/>
     <use xlink:href="#ma9e09bde1a" x="420.078797" y="293.486267" style="fill: #0000ff; stroke: #0000ff"/>
     <use xlink:href="#ma9e09bde1a" x="424.836957" y="294.82432" style="fill: #0000ff; stroke: #0000ff"/>
     <use xlink:href="#ma9e09bde1a" x="429.595117" y="304.190691" style="fill: #0000ff; stroke: #0000ff"/>
     <use xlink:href="#ma9e09bde1a" x="434.353277" y="300.176532" style="fill: #0000ff; stroke: #0000ff"/>
     <use xlink:href="#ma9e09bde1a" x="439.111437" y="328.275647" style="fill: #0000ff; stroke: #0000ff"/>
     <use xlink:href="#ma9e09bde1a" x="443.869597" y="316.233169" style="fill: #0000ff; stroke: #0000ff"/>
     <use xlink:href="#ma9e09bde1a" x="448.627757" y="314.895116" style="fill: #0000ff; stroke: #0000ff"/>
     <use xlink:href="#ma9e09bde1a" x="453.385917" y="313.557063" style="fill: #0000ff; stroke: #0000ff"/>
     <use xlink:href="#ma9e09bde1a" x="458.144077" y="312.21901" style="fill: #0000ff; stroke: #0000ff"/>
     <use xlink:href="#ma9e09bde1a" x="462.902237" y="310.880957" style="fill: #0000ff; stroke: #0000ff"/>
     <use xlink:href="#ma9e09bde1a" x="467.660397" y="312.21901" style="fill: #0000ff; stroke: #0000ff"/>
     <use xlink:href="#ma9e09bde1a" x="472.418557" y="312.21901" style="fill: #0000ff; stroke: #0000ff"/>
     <use xlink:href="#ma9e09bde1a" x="477.176717" y="312.21901" style="fill: #0000ff; stroke: #0000ff"/>
     <use xlink:href="#ma9e09bde1a" x="481.934877" y="312.21901" style="fill: #0000ff; stroke: #0000ff"/>
     <use xlink:href="#ma9e09bde1a" x="486.693037" y="312.21901" style="fill: #0000ff; stroke: #0000ff"/>
     <use xlink:href="#ma9e09bde1a" x="491.451197" y="312.21901" style="fill: #0000ff; stroke: #0000ff"/>
     <use xlink:href="#ma9e09bde1a" x="496.209357" y="312.21901" style="fill: #0000ff; stroke: #0000ff"/>
     <use xlink:href="#ma9e09bde1a" x="500.967517" y="313.557063" style="fill: #0000ff; stroke: #0000ff"/>
     <use xlink:href="#ma9e09bde1a" x="505.725677" y="316.233169" style="fill: #0000ff; stroke: #0000ff"/>
     <use xlink:href="#ma9e09bde1a" x="510.483837" y="318.909275" style="fill: #0000ff; stroke: #0000ff"/>
     <use xlink:href="#ma9e09bde1a" x="515.241997" y="316.233169" style="fill: #0000ff; stroke: #0000ff"/>
     <use xlink:href="#ma9e09bde1a" x="520.000157" y="340.318125" style="fill: #0000ff; stroke: #0000ff"/>
     <use xlink:href="#ma9e09bde1a" x="524.758317" y="325.599541" style="fill: #0000ff; stroke: #0000ff"/>
     <use xlink:href="#ma9e09bde1a" x="529.516477" y="321.585382" style="fill: #0000ff; stroke: #0000ff"/>
    </g>
   </g>
   <g id="matplotlib.axis_1">
    <g id="xtick_1">
     <g id="line2d_1">
      <path d="M 70.306453 355.438125 
L 70.306453 22.798125 
" clip-path="url(#ped8592a7b0)" style="fill: none; stroke: #b0b0b0; stroke-opacity: 0.3; stroke-width: 0.8; stroke-linecap: square"/>
     </g>
     <g id="line2d_2">
      <defs>
       <path id="m4cd44e4bcf" d="M 0 0 
L 0 3.5 
" style="stroke: #000000; stroke-width: 0.8"/>
      </defs>
      <g>
       <use xlink:href="#m4cd44e4bcf" x="70.306453" y="355.438125" style="stroke: #000000; stroke-width: 0.8"/>
      </g>
     </g>
     <g id="text_1">
      <!-- 0 -->
      <g transform="translate(67.125203 370.036562) scale(0.1 -0.1)">
       <defs>
        <path id="DejaVuSans-30" d="M 2034 4250 
Q 1547 4250 1301 3770 
Q 1056 3291 1056 2328 
Q 1056 1369 1301 889 
Q 1547 409 2034 409 
Q 2525 409 2770 889 
Q 3016 1369 3016 2328 
Q 3016 3291 2770 3770 
Q 2525 4250 2034 4250 
z
M 2034 4750 
Q 2819 4750 3233 4129 
Q 3647 3509 3647 2328 
Q 3647 1150 3233 529 
Q 2819 -91 2034 -91 
Q 1250 -91 836 529 
Q 422 1150 422 2328 
Q 422 3509 836 4129 
Q 1250 4750 2034 4750 
z
" transform="scale(0.015625)"/>
       </defs>
       <use xlink:href="#DejaVuSans-30"/>
      </g>
     </g>
    </g>
    <g id="xtick_2">
     <g id="line2d_3">
      <path d="M 165.469654 355.438125 
L 165.469654 22.798125 
" clip-path="url(#ped8592a7b0)" style="fill: none; stroke: #b0b0b0; stroke-opacity: 0.3; stroke-width: 0.8; stroke-linecap: square"/>
     </g>
     <g id="line2d_4">
      <g>
       <use xlink:href="#m4cd44e4bcf" x="165.469654" y="355.438125" style="stroke: #000000; stroke-width: 0.8"/>
      </g>
     </g>
     <g id="text_2">
      <!-- 2 -->
      <g transform="translate(162.288404 370.036562) scale(0.1 -0.1)">
       <defs>
        <path id="DejaVuSans-32" d="M 1228 531 
L 3431 531 
L 3431 0 
L 469 0 
L 469 531 
Q 828 903 1448 1529 
Q 2069 2156 2228 2338 
Q 2531 2678 2651 2914 
Q 2772 3150 2772 3378 
Q 2772 3750 2511 3984 
Q 2250 4219 1831 4219 
Q 1534 4219 1204 4116 
Q 875 4013 500 3803 
L 500 4441 
Q 881 4594 1212 4672 
Q 1544 4750 1819 4750 
Q 2544 4750 2975 4387 
Q 3406 4025 3406 3419 
Q 3406 3131 3298 2873 
Q 3191 2616 2906 2266 
Q 2828 2175 2409 1742 
Q 1991 1309 1228 531 
z
" transform="scale(0.015625)"/>
       </defs>
       <use xlink:href="#DejaVuSans-32"/>
      </g>
     </g>
    </g>
    <g id="xtick_3">
     <g id="line2d_5">
      <path d="M 260.632854 355.438125 
L 260.632854 22.798125 
" clip-path="url(#ped8592a7b0)" style="fill: none; stroke: #b0b0b0; stroke-opacity: 0.3; stroke-width: 0.8; stroke-linecap: square"/>
     </g>
     <g id="line2d_6">
      <g>
       <use xlink:href="#m4cd44e4bcf" x="260.632854" y="355.438125" style="stroke: #000000; stroke-width: 0.8"/>
      </g>
     </g>
     <g id="text_3">
      <!-- 4 -->
      <g transform="translate(257.451604 370.036562) scale(0.1 -0.1)">
       <defs>
        <path id="DejaVuSans-34" d="M 2419 4116 
L 825 1625 
L 2419 1625 
L 2419 4116 
z
M 2253 4666 
L 3047 4666 
L 3047 1625 
L 3713 1625 
L 3713 1100 
L 3047 1100 
L 3047 0 
L 2419 0 
L 2419 1100 
L 313 1100 
L 313 1709 
L 2253 4666 
z
" transform="scale(0.015625)"/>
       </defs>
       <use xlink:href="#DejaVuSans-34"/>
      </g>
     </g>
    </g>
    <g id="xtick_4">
     <g id="line2d_7">
      <path d="M 355.796055 355.438125 
L 355.796055 22.798125 
" clip-path="url(#ped8592a7b0)" style="fill: none; stroke: #b0b0b0; stroke-opacity: 0.3; stroke-width: 0.8; stroke-linecap: square"/>
     </g>
     <g id="line2d_8">
      <g>
       <use xlink:href="#m4cd44e4bcf" x="355.796055" y="355.438125" style="stroke: #000000; stroke-width: 0.8"/>
      </g>
     </g>
     <g id="text_4">
      <!-- 6 -->
      <g transform="translate(352.614805 370.036562) scale(0.1 -0.1)">
       <defs>
        <path id="DejaVuSans-36" d="M 2113 2584 
Q 1688 2584 1439 2293 
Q 1191 2003 1191 1497 
Q 1191 994 1439 701 
Q 1688 409 2113 409 
Q 2538 409 2786 701 
Q 3034 994 3034 1497 
Q 3034 2003 2786 2293 
Q 2538 2584 2113 2584 
z
M 3366 4563 
L 3366 3988 
Q 3128 4100 2886 4159 
Q 2644 4219 2406 4219 
Q 1781 4219 1451 3797 
Q 1122 3375 1075 2522 
Q 1259 2794 1537 2939 
Q 1816 3084 2150 3084 
Q 2853 3084 3261 2657 
Q 3669 2231 3669 1497 
Q 3669 778 3244 343 
Q 2819 -91 2113 -91 
Q 1303 -91 875 529 
Q 447 1150 447 2328 
Q 447 3434 972 4092 
Q 1497 4750 2381 4750 
Q 2619 4750 2861 4703 
Q 3103 4656 3366 4563 
z
" transform="scale(0.015625)"/>
       </defs>
       <use xlink:href="#DejaVuSans-36"/>
      </g>
     </g>
    </g>
    <g id="xtick_5">
     <g id="line2d_9">
      <path d="M 450.959255 355.438125 
L 450.959255 22.798125 
" clip-path="url(#ped8592a7b0)" style="fill: none; stroke: #b0b0b0; stroke-opacity: 0.3; stroke-width: 0.8; stroke-linecap: square"/>
     </g>
     <g id="line2d_10">
      <g>
       <use xlink:href="#m4cd44e4bcf" x="450.959255" y="355.438125" style="stroke: #000000; stroke-width: 0.8"/>
      </g>
     </g>
     <g id="text_5">
      <!-- 8 -->
      <g transform="translate(447.778005 370.036562) scale(0.1 -0.1)">
       <defs>
        <path id="DejaVuSans-38" d="M 2034 2216 
Q 1584 2216 1326 1975 
Q 1069 1734 1069 1313 
Q 1069 891 1326 650 
Q 1584 409 2034 409 
Q 2484 409 2743 651 
Q 3003 894 3003 1313 
Q 3003 1734 2745 1975 
Q 2488 2216 2034 2216 
z
M 1403 2484 
Q 997 2584 770 2862 
Q 544 3141 544 3541 
Q 544 4100 942 4425 
Q 1341 4750 2034 4750 
Q 2731 4750 3128 4425 
Q 3525 4100 3525 3541 
Q 3525 3141 3298 2862 
Q 3072 2584 2669 2484 
Q 3125 2378 3379 2068 
Q 3634 1759 3634 1313 
Q 3634 634 3220 271 
Q 2806 -91 2034 -91 
Q 1263 -91 848 271 
Q 434 634 434 1313 
Q 434 1759 690 2068 
Q 947 2378 1403 2484 
z
M 1172 3481 
Q 1172 3119 1398 2916 
Q 1625 2713 2034 2713 
Q 2441 2713 2670 2916 
Q 2900 3119 2900 3481 
Q 2900 3844 2670 4047 
Q 2441 4250 2034 4250 
Q 1625 4250 1398 4047 
Q 1172 3844 1172 3481 
z
" transform="scale(0.015625)"/>
       </defs>
       <use xlink:href="#DejaVuSans-38"/>
      </g>
     </g>
    </g>
    <g id="xtick_6">
     <g id="line2d_11">
      <path d="M 546.122456 355.438125 
L 546.122456 22.798125 
" clip-path="url(#ped8592a7b0)" style="fill: none; stroke: #b0b0b0; stroke-opacity: 0.3; stroke-width: 0.8; stroke-linecap: square"/>
     </g>
     <g id="line2d_12">
      <g>
       <use xlink:href="#m4cd44e4bcf" x="546.122456" y="355.438125" style="stroke: #000000; stroke-width: 0.8"/>
      </g>
     </g>
     <g id="text_6">
      <!-- 10 -->
      <g transform="translate(539.759956 370.036562) scale(0.1 -0.1)">
       <defs>
        <path id="DejaVuSans-31" d="M 794 531 
L 1825 531 
L 1825 4091 
L 703 3866 
L 703 4441 
L 1819 4666 
L 2450 4666 
L 2450 531 
L 3481 531 
L 3481 0 
L 794 0 
L 794 531 
z
" transform="scale(0.015625)"/>
       </defs>
       <use xlink:href="#DejaVuSans-31"/>
       <use xlink:href="#DejaVuSans-30" transform="translate(63.623047 0)"/>
      </g>
     </g>
    </g>
    <g id="text_7">
     <!-- t [s] -->
     <g transform="translate(291.188281 383.714687) scale(0.1 -0.1)">
      <defs>
       <path id="DejaVuSans-74" d="M 1172 4494 
L 1172 3500 
L 2356 3500 
L 2356 3053 
L 1172 3053 
L 1172 1153 
Q 1172 725 1289 603 
Q 1406 481 1766 481 
L 2356 481 
L 2356 0 
L 1766 0 
Q 1100 0 847 248 
Q 594 497 594 1153 
L 594 3053 
L 172 3053 
L 172 3500 
L 594 3500 
L 594 4494 
L 1172 4494 
z
" transform="scale(0.015625)"/>
       <path id="DejaVuSans-20" transform="scale(0.015625)"/>
       <path id="DejaVuSans-5b" d="M 550 4863 
L 1875 4863 
L 1875 4416 
L 1125 4416 
L 1125 -397 
L 1875 -397 
L 1875 -844 
L 550 -844 
L 550 4863 
z
" transform="scale(0.015625)"/>
       <path id="DejaVuSans-73" d="M 2834 3397 
L 2834 2853 
Q 2591 2978 2328 3040 
Q 2066 3103 1784 3103 
Q 1356 3103 1142 2972 
Q 928 2841 928 2578 
Q 928 2378 1081 2264 
Q 1234 2150 1697 2047 
L 1894 2003 
Q 2506 1872 2764 1633 
Q 3022 1394 3022 966 
Q 3022 478 2636 193 
Q 2250 -91 1575 -91 
Q 1294 -91 989 -36 
Q 684 19 347 128 
L 347 722 
Q 666 556 975 473 
Q 1284 391 1588 391 
Q 1994 391 2212 530 
Q 2431 669 2431 922 
Q 2431 1156 2273 1281 
Q 2116 1406 1581 1522 
L 1381 1569 
Q 847 1681 609 1914 
Q 372 2147 372 2553 
Q 372 3047 722 3315 
Q 1072 3584 1716 3584 
Q 2034 3584 2315 3537 
Q 2597 3491 2834 3397 
z
" transform="scale(0.015625)"/>
       <path id="DejaVuSans-5d" d="M 1947 4863 
L 1947 -844 
L 622 -844 
L 622 -397 
L 1369 -397 
L 1369 4416 
L 622 4416 
L 622 4863 
L 1947 4863 
z
" transform="scale(0.015625)"/>
      </defs>
      <use xlink:href="#DejaVuSans-74"/>
      <use xlink:href="#DejaVuSans-20" transform="translate(39.208984 0)"/>
      <use xlink:href="#DejaVuSans-5b" transform="translate(70.996094 0)"/>
      <use xlink:href="#DejaVuSans-73" transform="translate(110.009766 0)"/>
      <use xlink:href="#DejaVuSans-5d" transform="translate(162.109375 0)"/>
     </g>
    </g>
   </g>
   <g id="matplotlib.axis_2">
    <g id="ytick_1">
     <g id="line2d_13">
      <path d="M 50.14375 304.190691 
L 552.34375 304.190691 
" clip-path="url(#ped8592a7b0)" style="fill: none; stroke: #b0b0b0; stroke-opacity: 0.3; stroke-width: 0.8; stroke-linecap: square"/>
     </g>
     <g id="line2d_14">
      <defs>
       <path id="meced2239a7" d="M 0 0 
L -3.5 0 
" style="stroke: #000000; stroke-width: 0.8"/>
      </defs>
      <g>
       <use xlink:href="#meced2239a7" x="50.14375" y="304.190691" style="stroke: #000000; stroke-width: 0.8"/>
      </g>
     </g>
     <g id="text_8">
      <!-- 0.05 -->
      <g transform="translate(20.878125 307.98991) scale(0.1 -0.1)">
       <defs>
        <path id="DejaVuSans-2e" d="M 684 794 
L 1344 794 
L 1344 0 
L 684 0 
L 684 794 
z
" transform="scale(0.015625)"/>
        <path id="DejaVuSans-35" d="M 691 4666 
L 3169 4666 
L 3169 4134 
L 1269 4134 
L 1269 2991 
Q 1406 3038 1543 3061 
Q 1681 3084 1819 3084 
Q 2600 3084 3056 2656 
Q 3513 2228 3513 1497 
Q 3513 744 3044 326 
Q 2575 -91 1722 -91 
Q 1428 -91 1123 -41 
Q 819 9 494 109 
L 494 744 
Q 775 591 1075 516 
Q 1375 441 1709 441 
Q 2250 441 2565 725 
Q 2881 1009 2881 1497 
Q 2881 1984 2565 2268 
Q 2250 2553 1709 2553 
Q 1456 2553 1204 2497 
Q 953 2441 691 2322 
L 691 4666 
z
" transform="scale(0.015625)"/>
       </defs>
       <use xlink:href="#DejaVuSans-30"/>
       <use xlink:href="#DejaVuSans-2e" transform="translate(63.623047 0)"/>
       <use xlink:href="#DejaVuSans-30" transform="translate(95.410156 0)"/>
       <use xlink:href="#DejaVuSans-35" transform="translate(159.033203 0)"/>
      </g>
     </g>
    </g>
    <g id="ytick_2">
     <g id="line2d_15">
      <path d="M 50.14375 237.288037 
L 552.34375 237.288037 
" clip-path="url(#ped8592a7b0)" style="fill: none; stroke: #b0b0b0; stroke-opacity: 0.3; stroke-width: 0.8; stroke-linecap: square"/>
     </g>
     <g id="line2d_16">
      <g>
       <use xlink:href="#meced2239a7" x="50.14375" y="237.288037" style="stroke: #000000; stroke-width: 0.8"/>
      </g>
     </g>
     <g id="text_9">
      <!-- 0.10 -->
      <g transform="translate(20.878125 241.087255) scale(0.1 -0.1)">
       <use xlink:href="#DejaVuSans-30"/>
       <use xlink:href="#DejaVuSans-2e" transform="translate(63.623047 0)"/>
       <use xlink:href="#DejaVuSans-31" transform="translate(95.410156 0)"/>
       <use xlink:href="#DejaVuSans-30" transform="translate(159.033203 0)"/>
      </g>
     </g>
    </g>
    <g id="ytick_3">
     <g id="line2d_17">
      <path d="M 50.14375 170.385382 
L 552.34375 170.385382 
" clip-path="url(#ped8592a7b0)" style="fill: none; stroke: #b0b0b0; stroke-opacity: 0.3; stroke-width: 0.8; stroke-linecap: square"/>
     </g>
     <g id="line2d_18">
      <g>
       <use xlink:href="#meced2239a7" x="50.14375" y="170.385382" style="stroke: #000000; stroke-width: 0.8"/>
      </g>
     </g>
     <g id="text_10">
      <!-- 0.15 -->
      <g transform="translate(20.878125 174.1846) scale(0.1 -0.1)">
       <use xlink:href="#DejaVuSans-30"/>
       <use xlink:href="#DejaVuSans-2e" transform="translate(63.623047 0)"/>
       <use xlink:href="#DejaVuSans-31" transform="translate(95.410156 0)"/>
       <use xlink:href="#DejaVuSans-35" transform="translate(159.033203 0)"/>
      </g>
     </g>
    </g>
    <g id="ytick_4">
     <g id="line2d_19">
      <path d="M 50.14375 103.482727 
L 552.34375 103.482727 
" clip-path="url(#ped8592a7b0)" style="fill: none; stroke: #b0b0b0; stroke-opacity: 0.3; stroke-width: 0.8; stroke-linecap: square"/>
     </g>
     <g id="line2d_20">
      <g>
       <use xlink:href="#meced2239a7" x="50.14375" y="103.482727" style="stroke: #000000; stroke-width: 0.8"/>
      </g>
     </g>
     <g id="text_11">
      <!-- 0.20 -->
      <g transform="translate(20.878125 107.281946) scale(0.1 -0.1)">
       <use xlink:href="#DejaVuSans-30"/>
       <use xlink:href="#DejaVuSans-2e" transform="translate(63.623047 0)"/>
       <use xlink:href="#DejaVuSans-32" transform="translate(95.410156 0)"/>
       <use xlink:href="#DejaVuSans-30" transform="translate(159.033203 0)"/>
      </g>
     </g>
    </g>
    <g id="ytick_5">
     <g id="line2d_21">
      <path d="M 50.14375 36.580072 
L 552.34375 36.580072 
" clip-path="url(#ped8592a7b0)" style="fill: none; stroke: #b0b0b0; stroke-opacity: 0.3; stroke-width: 0.8; stroke-linecap: square"/>
     </g>
     <g id="line2d_22">
      <g>
       <use xlink:href="#meced2239a7" x="50.14375" y="36.580072" style="stroke: #000000; stroke-width: 0.8"/>
      </g>
     </g>
     <g id="text_12">
      <!-- 0.25 -->
      <g transform="translate(20.878125 40.379291) scale(0.1 -0.1)">
       <use xlink:href="#DejaVuSans-30"/>
       <use xlink:href="#DejaVuSans-2e" transform="translate(63.623047 0)"/>
       <use xlink:href="#DejaVuSans-32" transform="translate(95.410156 0)"/>
       <use xlink:href="#DejaVuSans-35" transform="translate(159.033203 0)"/>
      </g>
     </g>
    </g>
    <g id="text_13">
     <!-- E [J] -->
     <g transform="translate(14.798437 199.243125) rotate(-90) scale(0.1 -0.1)">
      <defs>
       <path id="DejaVuSans-45" d="M 628 4666 
L 3578 4666 
L 3578 4134 
L 1259 4134 
L 1259 2753 
L 3481 2753 
L 3481 2222 
L 1259 2222 
L 1259 531 
L 3634 531 
L 3634 0 
L 628 0 
L 628 4666 
z
" transform="scale(0.015625)"/>
       <path id="DejaVuSans-4a" d="M 628 4666 
L 1259 4666 
L 1259 325 
Q 1259 -519 939 -900 
Q 619 -1281 -91 -1281 
L -331 -1281 
L -331 -750 
L -134 -750 
Q 284 -750 456 -515 
Q 628 -281 628 325 
L 628 4666 
z
" transform="scale(0.015625)"/>
      </defs>
      <use xlink:href="#DejaVuSans-45"/>
      <use xlink:href="#DejaVuSans-20" transform="translate(63.183594 0)"/>
      <use xlink:href="#DejaVuSans-5b" transform="translate(94.970703 0)"/>
      <use xlink:href="#DejaVuSans-4a" transform="translate(133.984375 0)"/>
      <use xlink:href="#DejaVuSans-5d" transform="translate(163.476562 0)"/>
     </g>
    </g>
   </g>
   <g id="patch_3">
    <path d="M 50.14375 355.438125 
L 50.14375 22.798125 
" style="fill: none; stroke: #000000; stroke-width: 0.8; stroke-linejoin: miter; stroke-linecap: square"/>
   </g>
   <g id="patch_4">
    <path d="M 552.34375 355.438125 
L 552.34375 22.798125 
" style="fill: none; stroke: #000000; stroke-width: 0.8; stroke-linejoin: miter; stroke-linecap: square"/>
   </g>
   <g id="patch_5">
    <path d="M 50.14375 355.438125 
L 552.34375 355.438125 
" style="fill: none; stroke: #000000; stroke-width: 0.8; stroke-linejoin: miter; stroke-linecap: square"/>
   </g>
   <g id="patch_6">
    <path d="M 50.14375 22.798125 
L 552.34375 22.798125 
" style="fill: none; stroke: #000000; stroke-width: 0.8; stroke-linejoin: miter; stroke-linecap: square"/>
   </g>
   <g id="text_14">
    <!-- Měření celkové energie E vozíček č. 1 -->
    <g transform="translate(188.577812 16.798125) scale(0.12 -0.12)">
     <defs>
      <path id="DejaVuSans-4d" d="M 628 4666 
L 1569 4666 
L 2759 1491 
L 3956 4666 
L 4897 4666 
L 4897 0 
L 4281 0 
L 4281 4097 
L 3078 897 
L 2444 897 
L 1241 4097 
L 1241 0 
L 628 0 
L 628 4666 
z
" transform="scale(0.015625)"/>
      <path id="DejaVuSans-11b" d="M 3597 1894 
L 3597 1613 
L 953 1613 
Q 991 1019 1311 708 
Q 1631 397 2203 397 
Q 2534 397 2845 478 
Q 3156 559 3463 722 
L 3463 178 
Q 3153 47 2828 -22 
Q 2503 -91 2169 -91 
Q 1331 -91 842 396 
Q 353 884 353 1716 
Q 353 2575 817 3079 
Q 1281 3584 2069 3584 
Q 2775 3584 3186 3129 
Q 3597 2675 3597 1894 
z
M 3022 2063 
Q 3016 2534 2758 2815 
Q 2500 3097 2075 3097 
Q 1594 3097 1305 2825 
Q 1016 2553 972 2059 
L 3022 2063 
z
M 1833 3944 
L 1067 5119 
L 1502 5119 
L 2064 4353 
L 2627 5119 
L 3061 5119 
L 2295 3944 
L 1833 3944 
z
" transform="scale(0.015625)"/>
      <path id="DejaVuSans-159" d="M 2631 2963 
Q 2534 3019 2420 3045 
Q 2306 3072 2169 3072 
Q 1681 3072 1420 2755 
Q 1159 2438 1159 1844 
L 1159 0 
L 581 0 
L 581 3500 
L 1159 3500 
L 1159 2956 
Q 1341 3275 1631 3429 
Q 1922 3584 2338 3584 
Q 2397 3584 2469 3576 
Q 2541 3569 2628 3553 
L 2631 2963 
z
M 1457 3944 
L 691 5119 
L 1126 5119 
L 1688 4353 
L 2251 5119 
L 2685 5119 
L 1919 3944 
L 1457 3944 
z
" transform="scale(0.015625)"/>
      <path id="DejaVuSans-65" d="M 3597 1894 
L 3597 1613 
L 953 1613 
Q 991 1019 1311 708 
Q 1631 397 2203 397 
Q 2534 397 2845 478 
Q 3156 559 3463 722 
L 3463 178 
Q 3153 47 2828 -22 
Q 2503 -91 2169 -91 
Q 1331 -91 842 396 
Q 353 884 353 1716 
Q 353 2575 817 3079 
Q 1281 3584 2069 3584 
Q 2775 3584 3186 3129 
Q 3597 2675 3597 1894 
z
M 3022 2063 
Q 3016 2534 2758 2815 
Q 2500 3097 2075 3097 
Q 1594 3097 1305 2825 
Q 1016 2553 972 2059 
L 3022 2063 
z
" transform="scale(0.015625)"/>
      <path id="DejaVuSans-6e" d="M 3513 2113 
L 3513 0 
L 2938 0 
L 2938 2094 
Q 2938 2591 2744 2837 
Q 2550 3084 2163 3084 
Q 1697 3084 1428 2787 
Q 1159 2491 1159 1978 
L 1159 0 
L 581 0 
L 581 3500 
L 1159 3500 
L 1159 2956 
Q 1366 3272 1645 3428 
Q 1925 3584 2291 3584 
Q 2894 3584 3203 3211 
Q 3513 2838 3513 2113 
z
" transform="scale(0.015625)"/>
      <path id="DejaVuSans-ed" d="M 1322 5119 
L 1944 5119 
L 926 3944 
L 447 3944 
L 1322 5119 
z
M 603 3500 
L 1178 3500 
L 1178 0 
L 603 0 
L 603 3500 
z
M 891 3584 
L 891 3584 
z
" transform="scale(0.015625)"/>
      <path id="DejaVuSans-63" d="M 3122 3366 
L 3122 2828 
Q 2878 2963 2633 3030 
Q 2388 3097 2138 3097 
Q 1578 3097 1268 2742 
Q 959 2388 959 1747 
Q 959 1106 1268 751 
Q 1578 397 2138 397 
Q 2388 397 2633 464 
Q 2878 531 3122 666 
L 3122 134 
Q 2881 22 2623 -34 
Q 2366 -91 2075 -91 
Q 1284 -91 818 406 
Q 353 903 353 1747 
Q 353 2603 823 3093 
Q 1294 3584 2113 3584 
Q 2378 3584 2631 3529 
Q 2884 3475 3122 3366 
z
" transform="scale(0.015625)"/>
      <path id="DejaVuSans-6c" d="M 603 4863 
L 1178 4863 
L 1178 0 
L 603 0 
L 603 4863 
z
" transform="scale(0.015625)"/>
      <path id="DejaVuSans-6b" d="M 581 4863 
L 1159 4863 
L 1159 1991 
L 2875 3500 
L 3609 3500 
L 1753 1863 
L 3688 0 
L 2938 0 
L 1159 1709 
L 1159 0 
L 581 0 
L 581 4863 
z
" transform="scale(0.015625)"/>
      <path id="DejaVuSans-6f" d="M 1959 3097 
Q 1497 3097 1228 2736 
Q 959 2375 959 1747 
Q 959 1119 1226 758 
Q 1494 397 1959 397 
Q 2419 397 2687 759 
Q 2956 1122 2956 1747 
Q 2956 2369 2687 2733 
Q 2419 3097 1959 3097 
z
M 1959 3584 
Q 2709 3584 3137 3096 
Q 3566 2609 3566 1747 
Q 3566 888 3137 398 
Q 2709 -91 1959 -91 
Q 1206 -91 779 398 
Q 353 888 353 1747 
Q 353 2609 779 3096 
Q 1206 3584 1959 3584 
z
" transform="scale(0.015625)"/>
      <path id="DejaVuSans-76" d="M 191 3500 
L 800 3500 
L 1894 563 
L 2988 3500 
L 3597 3500 
L 2284 0 
L 1503 0 
L 191 3500 
z
" transform="scale(0.015625)"/>
      <path id="DejaVuSans-e9" d="M 3597 1894 
L 3597 1613 
L 953 1613 
Q 991 1019 1311 708 
Q 1631 397 2203 397 
Q 2534 397 2845 478 
Q 3156 559 3463 722 
L 3463 178 
Q 3153 47 2828 -22 
Q 2503 -91 2169 -91 
Q 1331 -91 842 396 
Q 353 884 353 1716 
Q 353 2575 817 3079 
Q 1281 3584 2069 3584 
Q 2775 3584 3186 3129 
Q 3597 2675 3597 1894 
z
M 3022 2063 
Q 3016 2534 2758 2815 
Q 2500 3097 2075 3097 
Q 1594 3097 1305 2825 
Q 1016 2553 972 2059 
L 3022 2063 
z
M 2466 5119 
L 3088 5119 
L 2070 3944 
L 1591 3944 
L 2466 5119 
z
" transform="scale(0.015625)"/>
      <path id="DejaVuSans-72" d="M 2631 2963 
Q 2534 3019 2420 3045 
Q 2306 3072 2169 3072 
Q 1681 3072 1420 2755 
Q 1159 2438 1159 1844 
L 1159 0 
L 581 0 
L 581 3500 
L 1159 3500 
L 1159 2956 
Q 1341 3275 1631 3429 
Q 1922 3584 2338 3584 
Q 2397 3584 2469 3576 
Q 2541 3569 2628 3553 
L 2631 2963 
z
" transform="scale(0.015625)"/>
      <path id="DejaVuSans-67" d="M 2906 1791 
Q 2906 2416 2648 2759 
Q 2391 3103 1925 3103 
Q 1463 3103 1205 2759 
Q 947 2416 947 1791 
Q 947 1169 1205 825 
Q 1463 481 1925 481 
Q 2391 481 2648 825 
Q 2906 1169 2906 1791 
z
M 3481 434 
Q 3481 -459 3084 -895 
Q 2688 -1331 1869 -1331 
Q 1566 -1331 1297 -1286 
Q 1028 -1241 775 -1147 
L 775 -588 
Q 1028 -725 1275 -790 
Q 1522 -856 1778 -856 
Q 2344 -856 2625 -561 
Q 2906 -266 2906 331 
L 2906 616 
Q 2728 306 2450 153 
Q 2172 0 1784 0 
Q 1141 0 747 490 
Q 353 981 353 1791 
Q 353 2603 747 3093 
Q 1141 3584 1784 3584 
Q 2172 3584 2450 3431 
Q 2728 3278 2906 2969 
L 2906 3500 
L 3481 3500 
L 3481 434 
z
" transform="scale(0.015625)"/>
      <path id="DejaVuSans-69" d="M 603 3500 
L 1178 3500 
L 1178 0 
L 603 0 
L 603 3500 
z
M 603 4863 
L 1178 4863 
L 1178 4134 
L 603 4134 
L 603 4863 
z
" transform="scale(0.015625)"/>
      <path id="DejaVuSans-7a" d="M 353 3500 
L 3084 3500 
L 3084 2975 
L 922 459 
L 3084 459 
L 3084 0 
L 275 0 
L 275 525 
L 2438 3041 
L 353 3041 
L 353 3500 
z
" transform="scale(0.015625)"/>
      <path id="DejaVuSans-10d" d="M 3122 3366 
L 3122 2828 
Q 2878 2963 2633 3030 
Q 2388 3097 2138 3097 
Q 1578 3097 1268 2742 
Q 959 2388 959 1747 
Q 959 1106 1268 751 
Q 1578 397 2138 397 
Q 2388 397 2633 464 
Q 2878 531 3122 666 
L 3122 134 
Q 2881 22 2623 -34 
Q 2366 -91 2075 -91 
Q 1284 -91 818 406 
Q 353 903 353 1747 
Q 353 2603 823 3093 
Q 1294 3584 2113 3584 
Q 2378 3584 2631 3529 
Q 2884 3475 3122 3366 
z
M 1801 3944 
L 1035 5119 
L 1470 5119 
L 2032 4353 
L 2595 5119 
L 3029 5119 
L 2263 3944 
L 1801 3944 
z
" transform="scale(0.015625)"/>
     </defs>
     <use xlink:href="#DejaVuSans-4d"/>
     <use xlink:href="#DejaVuSans-11b" transform="translate(86.279297 0)"/>
     <use xlink:href="#DejaVuSans-159" transform="translate(147.802734 0)"/>
     <use xlink:href="#DejaVuSans-65" transform="translate(186.666016 0)"/>
     <use xlink:href="#DejaVuSans-6e" transform="translate(248.189453 0)"/>
     <use xlink:href="#DejaVuSans-ed" transform="translate(311.568359 0)"/>
     <use xlink:href="#DejaVuSans-20" transform="translate(339.351562 0)"/>
     <use xlink:href="#DejaVuSans-63" transform="translate(371.138672 0)"/>
     <use xlink:href="#DejaVuSans-65" transform="translate(426.119141 0)"/>
     <use xlink:href="#DejaVuSans-6c" transform="translate(487.642578 0)"/>
     <use xlink:href="#DejaVuSans-6b" transform="translate(515.425781 0)"/>
     <use xlink:href="#DejaVuSans-6f" transform="translate(569.710938 0)"/>
     <use xlink:href="#DejaVuSans-76" transform="translate(630.892578 0)"/>
     <use xlink:href="#DejaVuSans-e9" transform="translate(690.072266 0)"/>
     <use xlink:href="#DejaVuSans-20" transform="translate(751.595703 0)"/>
     <use xlink:href="#DejaVuSans-65" transform="translate(783.382812 0)"/>
     <use xlink:href="#DejaVuSans-6e" transform="translate(844.90625 0)"/>
     <use xlink:href="#DejaVuSans-65" transform="translate(908.285156 0)"/>
     <use xlink:href="#DejaVuSans-72" transform="translate(969.808594 0)"/>
     <use xlink:href="#DejaVuSans-67" transform="translate(1009.171875 0)"/>
     <use xlink:href="#DejaVuSans-69" transform="translate(1072.648438 0)"/>
     <use xlink:href="#DejaVuSans-65" transform="translate(1100.431641 0)"/>
     <use xlink:href="#DejaVuSans-20" transform="translate(1161.955078 0)"/>
     <use xlink:href="#DejaVuSans-45" transform="translate(1193.742188 0)"/>
     <use xlink:href="#DejaVuSans-20" transform="translate(1256.925781 0)"/>
     <use xlink:href="#DejaVuSans-76" transform="translate(1288.712891 0)"/>
     <use xlink:href="#DejaVuSans-6f" transform="translate(1347.892578 0)"/>
     <use xlink:href="#DejaVuSans-7a" transform="translate(1409.074219 0)"/>
     <use xlink:href="#DejaVuSans-ed" transform="translate(1461.564453 0)"/>
     <use xlink:href="#DejaVuSans-10d" transform="translate(1489.347656 0)"/>
     <use xlink:href="#DejaVuSans-65" transform="translate(1544.328125 0)"/>
     <use xlink:href="#DejaVuSans-6b" transform="translate(1605.851562 0)"/>
     <use xlink:href="#DejaVuSans-20" transform="translate(1663.761719 0)"/>
     <use xlink:href="#DejaVuSans-10d" transform="translate(1695.548828 0)"/>
     <use xlink:href="#DejaVuSans-2e" transform="translate(1750.529297 0)"/>
     <use xlink:href="#DejaVuSans-20" transform="translate(1782.316406 0)"/>
     <use xlink:href="#DejaVuSans-31" transform="translate(1814.103516 0)"/>
    </g>
   </g>
   <g id="legend_1">
    <g id="patch_7">
     <path d="M 435.632812 45.47625 
L 545.34375 45.47625 
Q 547.34375 45.47625 547.34375 43.47625 
L 547.34375 29.798125 
Q 547.34375 27.798125 545.34375 27.798125 
L 435.632812 27.798125 
Q 433.632812 27.798125 433.632812 29.798125 
L 433.632812 43.47625 
Q 433.632812 45.47625 435.632812 45.47625 
z
" style="fill: #ffffff; opacity: 0.8; stroke: #cccccc; stroke-linejoin: miter"/>
    </g>
    <g id="PathCollection_2">
     <g>
      <use xlink:href="#ma9e09bde1a" x="447.632812" y="36.771563" style="fill: #0000ff; stroke: #0000ff"/>
     </g>
    </g>
    <g id="text_15">
     <!-- Naměřená data -->
     <g transform="translate(465.632812 39.396563) scale(0.1 -0.1)">
      <defs>
       <path id="DejaVuSans-4e" d="M 628 4666 
L 1478 4666 
L 3547 763 
L 3547 4666 
L 4159 4666 
L 4159 0 
L 3309 0 
L 1241 3903 
L 1241 0 
L 628 0 
L 628 4666 
z
" transform="scale(0.015625)"/>
       <path id="DejaVuSans-61" d="M 2194 1759 
Q 1497 1759 1228 1600 
Q 959 1441 959 1056 
Q 959 750 1161 570 
Q 1363 391 1709 391 
Q 2188 391 2477 730 
Q 2766 1069 2766 1631 
L 2766 1759 
L 2194 1759 
z
M 3341 1997 
L 3341 0 
L 2766 0 
L 2766 531 
Q 2569 213 2275 61 
Q 1981 -91 1556 -91 
Q 1019 -91 701 211 
Q 384 513 384 1019 
Q 384 1609 779 1909 
Q 1175 2209 1959 2209 
L 2766 2209 
L 2766 2266 
Q 2766 2663 2505 2880 
Q 2244 3097 1772 3097 
Q 1472 3097 1187 3025 
Q 903 2953 641 2809 
L 641 3341 
Q 956 3463 1253 3523 
Q 1550 3584 1831 3584 
Q 2591 3584 2966 3190 
Q 3341 2797 3341 1997 
z
" transform="scale(0.015625)"/>
       <path id="DejaVuSans-6d" d="M 3328 2828 
Q 3544 3216 3844 3400 
Q 4144 3584 4550 3584 
Q 5097 3584 5394 3201 
Q 5691 2819 5691 2113 
L 5691 0 
L 5113 0 
L 5113 2094 
Q 5113 2597 4934 2840 
Q 4756 3084 4391 3084 
Q 3944 3084 3684 2787 
Q 3425 2491 3425 1978 
L 3425 0 
L 2847 0 
L 2847 2094 
Q 2847 2600 2669 2842 
Q 2491 3084 2119 3084 
Q 1678 3084 1418 2786 
Q 1159 2488 1159 1978 
L 1159 0 
L 581 0 
L 581 3500 
L 1159 3500 
L 1159 2956 
Q 1356 3278 1631 3431 
Q 1906 3584 2284 3584 
Q 2666 3584 2933 3390 
Q 3200 3197 3328 2828 
z
" transform="scale(0.015625)"/>
       <path id="DejaVuSans-e1" d="M 2194 1759 
Q 1497 1759 1228 1600 
Q 959 1441 959 1056 
Q 959 750 1161 570 
Q 1363 391 1709 391 
Q 2188 391 2477 730 
Q 2766 1069 2766 1631 
L 2766 1759 
L 2194 1759 
z
M 3341 1997 
L 3341 0 
L 2766 0 
L 2766 531 
Q 2569 213 2275 61 
Q 1981 -91 1556 -91 
Q 1019 -91 701 211 
Q 384 513 384 1019 
Q 384 1609 779 1909 
Q 1175 2209 1959 2209 
L 2766 2209 
L 2766 2266 
Q 2766 2663 2505 2880 
Q 2244 3097 1772 3097 
Q 1472 3097 1187 3025 
Q 903 2953 641 2809 
L 641 3341 
Q 956 3463 1253 3523 
Q 1550 3584 1831 3584 
Q 2591 3584 2966 3190 
Q 3341 2797 3341 1997 
z
M 2290 5119 
L 2912 5119 
L 1894 3944 
L 1415 3944 
L 2290 5119 
z
" transform="scale(0.015625)"/>
       <path id="DejaVuSans-64" d="M 2906 2969 
L 2906 4863 
L 3481 4863 
L 3481 0 
L 2906 0 
L 2906 525 
Q 2725 213 2448 61 
Q 2172 -91 1784 -91 
Q 1150 -91 751 415 
Q 353 922 353 1747 
Q 353 2572 751 3078 
Q 1150 3584 1784 3584 
Q 2172 3584 2448 3432 
Q 2725 3281 2906 2969 
z
M 947 1747 
Q 947 1113 1208 752 
Q 1469 391 1925 391 
Q 2381 391 2643 752 
Q 2906 1113 2906 1747 
Q 2906 2381 2643 2742 
Q 2381 3103 1925 3103 
Q 1469 3103 1208 2742 
Q 947 2381 947 1747 
z
" transform="scale(0.015625)"/>
      </defs>
      <use xlink:href="#DejaVuSans-4e"/>
      <use xlink:href="#DejaVuSans-61" transform="translate(74.804688 0)"/>
      <use xlink:href="#DejaVuSans-6d" transform="translate(136.083984 0)"/>
      <use xlink:href="#DejaVuSans-11b" transform="translate(233.496094 0)"/>
      <use xlink:href="#DejaVuSans-159" transform="translate(295.019531 0)"/>
      <use xlink:href="#DejaVuSans-65" transform="translate(333.882812 0)"/>
      <use xlink:href="#DejaVuSans-6e" transform="translate(395.40625 0)"/>
      <use xlink:href="#DejaVuSans-e1" transform="translate(458.785156 0)"/>
      <use xlink:href="#DejaVuSans-20" transform="translate(520.064453 0)"/>
      <use xlink:href="#DejaVuSans-64" transform="translate(551.851562 0)"/>
      <use xlink:href="#DejaVuSans-61" transform="translate(615.328125 0)"/>
      <use xlink:href="#DejaVuSans-74" transform="translate(676.607422 0)"/>
      <use xlink:href="#DejaVuSans-61" transform="translate(715.816406 0)"/>
     </g>
    </g>
   </g>
  </g>
 </g>
 <defs>
  <clipPath id="ped8592a7b0">
   <rect x="50.14375" y="22.798125" width="502.2" height="332.64"/>
  </clipPath>
 </defs>
</svg>
