<?xml version="1.0" encoding="utf-8" standalone="no"?>
<!DOCTYPE svg PUBLIC "-//W3C//DTD SVG 1.1//EN"
  "http://www.w3.org/Graphics/SVG/1.1/DTD/svg11.dtd">
<svg xmlns:xlink="http://www.w3.org/1999/xlink" width="553.18125pt" height="392.994375pt" viewBox="0 0 553.18125 392.994375" xmlns="http://www.w3.org/2000/svg" version="1.1">
 <metadata>
  <rdf:RDF xmlns:dc="http://purl.org/dc/elements/1.1/" xmlns:cc="http://creativecommons.org/ns#" xmlns:rdf="http://www.w3.org/1999/02/22-rdf-syntax-ns#">
   <cc:Work>
    <dc:type rdf:resource="http://purl.org/dc/dcmitype/StillImage"/>
    <dc:date>2026-04-08T17:23:37.479992</dc:date>
    <dc:format>image/svg+xml</dc:format>
    <dc:creator>
     <cc:Agent>
      <dc:title>Matplotlib v3.10.8, https://matplotlib.org/</dc:title>
     </cc:Agent>
    </dc:creator>
   </cc:Work>
  </rdf:RDF>
 </metadata>
 <defs>
  <style type="text/css">*{stroke-linejoin: round; stroke-linecap: butt}</style>
 </defs>
 <g id="figure_1">
  <g id="patch_1">
   <path d="M 0 392.994375 
L 553.18125 392.994375 
L 553.18125 0 
L 0 0 
z
" style="fill: #ffffff"/>
  </g>
  <g id="axes_1">
   <g id="patch_2">
    <path d="M 43.78125 355.438125 
L 545.98125 355.438125 
L 545.98125 22.798125 
L 43.78125 22.798125 
z
" style="fill: #ffffff"/>
   </g>
   <g id="PathCollection_1">
    <defs>
     <path id="m3380b4750e" d="M 0 1.581139 
C 0.419323 1.581139 0.821528 1.41454 1.118034 1.118034 
C 1.41454 0.821528 1.581139 0.419323 1.581139 0 
C 1.581139 -0.419323 1.41454 -0.821528 1.118034 -1.118034 
C 0.821528 -1.41454 0.419323 -1.581139 0 -1.581139 
C -0.419323 -1.581139 -0.821528 -1.41454 -1.118034 -1.118034 
C -1.41454 -0.821528 -1.581139 -0.419323 -1.581139 0 
C -1.581139 0.419323 -1.41454 0.821528 -1.118034 1.118034 
C -0.821528 1.41454 -0.419323 1.581139 0 1.581139 
z
" style="stroke: #0000ff"/>
    </defs>
    <g clip-path="url(#pad5a9c0584)">
     <use xlink:href="#m3380b4750e" x="66.608523" y="37.918125" style="fill: #0000ff; stroke: #0000ff"/>
     <use xlink:href="#m3380b4750e" x="71.126446" y="41.845398" style="fill: #0000ff; stroke: #0000ff"/>
     <use xlink:href="#m3380b4750e" x="75.648892" y="42.499943" style="fill: #0000ff; stroke: #0000ff"/>
     <use xlink:href="#m3380b4750e" x="80.166816" y="49.045398" style="fill: #0000ff; stroke: #0000ff"/>
     <use xlink:href="#m3380b4750e" x="84.68474" y="57.554489" style="fill: #0000ff; stroke: #0000ff"/>
     <use xlink:href="#m3380b4750e" x="89.198141" y="68.681761" style="fill: #0000ff; stroke: #0000ff"/>
     <use xlink:href="#m3380b4750e" x="93.70702" y="81.77267" style="fill: #0000ff; stroke: #0000ff"/>
     <use xlink:href="#m3380b4750e" x="102.7293" y="113.845398" style="fill: #0000ff; stroke: #0000ff"/>
     <use xlink:href="#m3380b4750e" x="107.238178" y="132.17267" style="fill: #0000ff; stroke: #0000ff"/>
     <use xlink:href="#m3380b4750e" x="111.747057" y="153.118125" style="fill: #0000ff; stroke: #0000ff"/>
     <use xlink:href="#m3380b4750e" x="116.251413" y="176.681761" style="fill: #0000ff; stroke: #0000ff"/>
     <use xlink:href="#m3380b4750e" x="120.751247" y="201.554489" style="fill: #0000ff; stroke: #0000ff"/>
     <use xlink:href="#m3380b4750e" x="125.255604" y="227.081761" style="fill: #0000ff; stroke: #0000ff"/>
     <use xlink:href="#m3380b4750e" x="129.755437" y="255.227216" style="fill: #0000ff; stroke: #0000ff"/>
     <use xlink:href="#m3380b4750e" x="134.255271" y="285.990852" style="fill: #0000ff; stroke: #0000ff"/>
     <use xlink:href="#m3380b4750e" x="138.755105" y="317.409034" style="fill: #0000ff; stroke: #0000ff"/>
     <use xlink:href="#m3380b4750e" x="143.263984" y="336.390852" style="fill: #0000ff; stroke: #0000ff"/>
     <use xlink:href="#m3380b4750e" x="147.790952" y="330.499943" style="fill: #0000ff; stroke: #0000ff"/>
     <use xlink:href="#m3380b4750e" x="152.326966" y="309.554489" style="fill: #0000ff; stroke: #0000ff"/>
     <use xlink:href="#m3380b4750e" x="156.862979" y="290.57267" style="fill: #0000ff; stroke: #0000ff"/>
     <use xlink:href="#m3380b4750e" x="161.398993" y="274.209034" style="fill: #0000ff; stroke: #0000ff"/>
     <use xlink:href="#m3380b4750e" x="165.935006" y="259.154489" style="fill: #0000ff; stroke: #0000ff"/>
     <use xlink:href="#m3380b4750e" x="170.466497" y="246.718125" style="fill: #0000ff; stroke: #0000ff"/>
     <use xlink:href="#m3380b4750e" x="174.997988" y="236.245398" style="fill: #0000ff; stroke: #0000ff"/>
     <use xlink:href="#m3380b4750e" x="179.524957" y="228.390852" style="fill: #0000ff; stroke: #0000ff"/>
     <use xlink:href="#m3380b4750e" x="184.051925" y="222.499943" style="fill: #0000ff; stroke: #0000ff"/>
     <use xlink:href="#m3380b4750e" x="188.578894" y="218.57267" style="fill: #0000ff; stroke: #0000ff"/>
     <use xlink:href="#m3380b4750e" x="193.10134" y="217.26358" style="fill: #0000ff; stroke: #0000ff"/>
     <use xlink:href="#m3380b4750e" x="197.623786" y="217.26358" style="fill: #0000ff; stroke: #0000ff"/>
     <use xlink:href="#m3380b4750e" x="202.141709" y="219.881761" style="fill: #0000ff; stroke: #0000ff"/>
     <use xlink:href="#m3380b4750e" x="206.664155" y="224.46358" style="fill: #0000ff; stroke: #0000ff"/>
     <use xlink:href="#m3380b4750e" x="211.182079" y="230.354489" style="fill: #0000ff; stroke: #0000ff"/>
     <use xlink:href="#m3380b4750e" x="215.69548" y="239.518125" style="fill: #0000ff; stroke: #0000ff"/>
     <use xlink:href="#m3380b4750e" x="220.208881" y="250.645398" style="fill: #0000ff; stroke: #0000ff"/>
     <use xlink:href="#m3380b4750e" x="224.722283" y="263.736307" style="fill: #0000ff; stroke: #0000ff"/>
     <use xlink:href="#m3380b4750e" x="229.235684" y="278.790852" style="fill: #0000ff; stroke: #0000ff"/>
     <use xlink:href="#m3380b4750e" x="233.744563" y="295.154489" style="fill: #0000ff; stroke: #0000ff"/>
     <use xlink:href="#m3380b4750e" x="238.253441" y="314.136307" style="fill: #0000ff; stroke: #0000ff"/>
     <use xlink:href="#m3380b4750e" x="242.757798" y="334.427216" style="fill: #0000ff; stroke: #0000ff"/>
     <use xlink:href="#m3380b4750e" x="247.275721" y="340.318125" style="fill: #0000ff; stroke: #0000ff"/>
     <use xlink:href="#m3380b4750e" x="251.807212" y="329.190852" style="fill: #0000ff; stroke: #0000ff"/>
     <use xlink:href="#m3380b4750e" x="256.338703" y="318.06358" style="fill: #0000ff; stroke: #0000ff"/>
     <use xlink:href="#m3380b4750e" x="260.865672" y="310.209034" style="fill: #0000ff; stroke: #0000ff"/>
     <use xlink:href="#m3380b4750e" x="265.39264" y="304.97267" style="fill: #0000ff; stroke: #0000ff"/>
     <use xlink:href="#m3380b4750e" x="269.919609" y="302.354489" style="fill: #0000ff; stroke: #0000ff"/>
     <use xlink:href="#m3380b4750e" x="274.442055" y="301.045398" style="fill: #0000ff; stroke: #0000ff"/>
     <use xlink:href="#m3380b4750e" x="278.959979" y="302.354489" style="fill: #0000ff; stroke: #0000ff"/>
     <use xlink:href="#m3380b4750e" x="283.482425" y="306.281761" style="fill: #0000ff; stroke: #0000ff"/>
     <use xlink:href="#m3380b4750e" x="288.000348" y="311.518125" style="fill: #0000ff; stroke: #0000ff"/>
     <use xlink:href="#m3380b4750e" x="292.518272" y="319.37267" style="fill: #0000ff; stroke: #0000ff"/>
     <use xlink:href="#m3380b4750e" x="297.031673" y="328.536307" style="fill: #0000ff; stroke: #0000ff"/>
     <use xlink:href="#m3380b4750e" x="301.545074" y="339.66358" style="fill: #0000ff; stroke: #0000ff"/>
     <use xlink:href="#m3380b4750e" x="306.06752" y="339.66358" style="fill: #0000ff; stroke: #0000ff"/>
     <use xlink:href="#m3380b4750e" x="310.599011" y="330.499943" style="fill: #0000ff; stroke: #0000ff"/>
     <use xlink:href="#m3380b4750e" x="315.12598" y="323.299943" style="fill: #0000ff; stroke: #0000ff"/>
     <use xlink:href="#m3380b4750e" x="319.652948" y="318.06358" style="fill: #0000ff; stroke: #0000ff"/>
     <use xlink:href="#m3380b4750e" x="324.175395" y="314.790852" style="fill: #0000ff; stroke: #0000ff"/>
     <use xlink:href="#m3380b4750e" x="328.702363" y="314.136307" style="fill: #0000ff; stroke: #0000ff"/>
     <use xlink:href="#m3380b4750e" x="333.220287" y="314.790852" style="fill: #0000ff; stroke: #0000ff"/>
     <use xlink:href="#m3380b4750e" x="337.742733" y="318.06358" style="fill: #0000ff; stroke: #0000ff"/>
     <use xlink:href="#m3380b4750e" x="342.260656" y="323.299943" style="fill: #0000ff; stroke: #0000ff"/>
     <use xlink:href="#m3380b4750e" x="346.77858" y="330.499943" style="fill: #0000ff; stroke: #0000ff"/>
     <use xlink:href="#m3380b4750e" x="351.291981" y="339.009034" style="fill: #0000ff; stroke: #0000ff"/>
     <use xlink:href="#m3380b4750e" x="355.814427" y="339.66358" style="fill: #0000ff; stroke: #0000ff"/>
     <use xlink:href="#m3380b4750e" x="360.345918" y="332.46358" style="fill: #0000ff; stroke: #0000ff"/>
     <use xlink:href="#m3380b4750e" x="364.872887" y="325.918125" style="fill: #0000ff; stroke: #0000ff"/>
     <use xlink:href="#m3380b4750e" x="369.395333" y="321.990852" style="fill: #0000ff; stroke: #0000ff"/>
     <use xlink:href="#m3380b4750e" x="373.922301" y="320.027216" style="fill: #0000ff; stroke: #0000ff"/>
     <use xlink:href="#m3380b4750e" x="378.444748" y="320.027216" style="fill: #0000ff; stroke: #0000ff"/>
     <use xlink:href="#m3380b4750e" x="382.962671" y="321.990852" style="fill: #0000ff; stroke: #0000ff"/>
     <use xlink:href="#m3380b4750e" x="387.485117" y="325.918125" style="fill: #0000ff; stroke: #0000ff"/>
     <use xlink:href="#m3380b4750e" x="392.003041" y="332.46358" style="fill: #0000ff; stroke: #0000ff"/>
     <use xlink:href="#m3380b4750e" x="396.516442" y="339.66358" style="fill: #0000ff; stroke: #0000ff"/>
     <use xlink:href="#m3380b4750e" x="401.038888" y="339.66358" style="fill: #0000ff; stroke: #0000ff"/>
     <use xlink:href="#m3380b4750e" x="405.570379" y="332.46358" style="fill: #0000ff; stroke: #0000ff"/>
     <use xlink:href="#m3380b4750e" x="410.092825" y="327.227216" style="fill: #0000ff; stroke: #0000ff"/>
     <use xlink:href="#m3380b4750e" x="414.619794" y="323.954489" style="fill: #0000ff; stroke: #0000ff"/>
     <use xlink:href="#m3380b4750e" x="419.14224" y="323.299943" style="fill: #0000ff; stroke: #0000ff"/>
     <use xlink:href="#m3380b4750e" x="423.664686" y="323.954489" style="fill: #0000ff; stroke: #0000ff"/>
     <use xlink:href="#m3380b4750e" x="428.18261" y="327.227216" style="fill: #0000ff; stroke: #0000ff"/>
     <use xlink:href="#m3380b4750e" x="432.700533" y="332.46358" style="fill: #0000ff; stroke: #0000ff"/>
     <use xlink:href="#m3380b4750e" x="437.218457" y="339.66358" style="fill: #0000ff; stroke: #0000ff"/>
     <use xlink:href="#m3380b4750e" x="441.740903" y="339.66358" style="fill: #0000ff; stroke: #0000ff"/>
     <use xlink:href="#m3380b4750e" x="446.267871" y="333.118125" style="fill: #0000ff; stroke: #0000ff"/>
     <use xlink:href="#m3380b4750e" x="450.79484" y="328.536307" style="fill: #0000ff; stroke: #0000ff"/>
     <use xlink:href="#m3380b4750e" x="455.321808" y="325.918125" style="fill: #0000ff; stroke: #0000ff"/>
     <use xlink:href="#m3380b4750e" x="459.844255" y="325.26358" style="fill: #0000ff; stroke: #0000ff"/>
     <use xlink:href="#m3380b4750e" x="464.362178" y="327.227216" style="fill: #0000ff; stroke: #0000ff"/>
     <use xlink:href="#m3380b4750e" x="468.884624" y="330.499943" style="fill: #0000ff; stroke: #0000ff"/>
     <use xlink:href="#m3380b4750e" x="473.402548" y="336.390852" style="fill: #0000ff; stroke: #0000ff"/>
     <use xlink:href="#m3380b4750e" x="477.920472" y="339.66358" style="fill: #0000ff; stroke: #0000ff"/>
     <use xlink:href="#m3380b4750e" x="482.44744" y="336.390852" style="fill: #0000ff; stroke: #0000ff"/>
     <use xlink:href="#m3380b4750e" x="486.974409" y="331.154489" style="fill: #0000ff; stroke: #0000ff"/>
     <use xlink:href="#m3380b4750e" x="491.496855" y="328.536307" style="fill: #0000ff; stroke: #0000ff"/>
     <use xlink:href="#m3380b4750e" x="496.019301" y="327.227216" style="fill: #0000ff; stroke: #0000ff"/>
     <use xlink:href="#m3380b4750e" x="500.541747" y="328.536307" style="fill: #0000ff; stroke: #0000ff"/>
     <use xlink:href="#m3380b4750e" x="505.064193" y="331.809034" style="fill: #0000ff; stroke: #0000ff"/>
     <use xlink:href="#m3380b4750e" x="509.582117" y="337.045398" style="fill: #0000ff; stroke: #0000ff"/>
     <use xlink:href="#m3380b4750e" x="514.10004" y="339.66358" style="fill: #0000ff; stroke: #0000ff"/>
     <use xlink:href="#m3380b4750e" x="518.627009" y="336.390852" style="fill: #0000ff; stroke: #0000ff"/>
     <use xlink:href="#m3380b4750e" x="523.153977" y="331.809034" style="fill: #0000ff; stroke: #0000ff"/>
    </g>
   </g>
   <g id="matplotlib.axis_1">
    <g id="xtick_1">
     <g id="line2d_1">
      <path d="M 66.359788 355.438125 
L 66.359788 22.798125 
" clip-path="url(#pad5a9c0584)" style="fill: none; stroke: #b0b0b0; stroke-opacity: 0.3; stroke-width: 0.8; stroke-linecap: square"/>
     </g>
     <g id="line2d_2">
      <defs>
       <path id="mf6ef578285" d="M 0 0 
L 0 3.5 
" style="stroke: #000000; stroke-width: 0.8"/>
      </defs>
      <g>
       <use xlink:href="#mf6ef578285" x="66.359788" y="355.438125" style="stroke: #000000; stroke-width: 0.8"/>
      </g>
     </g>
     <g id="text_1">
      <!-- 0 -->
      <g transform="translate(63.178538 370.036562) scale(0.1 -0.1)">
       <defs>
        <path id="DejaVuSans-30" d="M 2034 4250 
Q 1547 4250 1301 3770 
Q 1056 3291 1056 2328 
Q 1056 1369 1301 889 
Q 1547 409 2034 409 
Q 2525 409 2770 889 
Q 3016 1369 3016 2328 
Q 3016 3291 2770 3770 
Q 2525 4250 2034 4250 
z
M 2034 4750 
Q 2819 4750 3233 4129 
Q 3647 3509 3647 2328 
Q 3647 1150 3233 529 
Q 2819 -91 2034 -91 
Q 1250 -91 836 529 
Q 422 1150 422 2328 
Q 422 3509 836 4129 
Q 1250 4750 2034 4750 
z
" transform="scale(0.015625)"/>
       </defs>
       <use xlink:href="#DejaVuSans-30"/>
      </g>
     </g>
    </g>
    <g id="xtick_2">
     <g id="line2d_3">
      <path d="M 156.80871 355.438125 
L 156.80871 22.798125 
" clip-path="url(#pad5a9c0584)" style="fill: none; stroke: #b0b0b0; stroke-opacity: 0.3; stroke-width: 0.8; stroke-linecap: square"/>
     </g>
     <g id="line2d_4">
      <g>
       <use xlink:href="#mf6ef578285" x="156.80871" y="355.438125" style="stroke: #000000; stroke-width: 0.8"/>
      </g>
     </g>
     <g id="text_2">
      <!-- 2 -->
      <g transform="translate(153.62746 370.036562) scale(0.1 -0.1)">
       <defs>
        <path id="DejaVuSans-32" d="M 1228 531 
L 3431 531 
L 3431 0 
L 469 0 
L 469 531 
Q 828 903 1448 1529 
Q 2069 2156 2228 2338 
Q 2531 2678 2651 2914 
Q 2772 3150 2772 3378 
Q 2772 3750 2511 3984 
Q 2250 4219 1831 4219 
Q 1534 4219 1204 4116 
Q 875 4013 500 3803 
L 500 4441 
Q 881 4594 1212 4672 
Q 1544 4750 1819 4750 
Q 2544 4750 2975 4387 
Q 3406 4025 3406 3419 
Q 3406 3131 3298 2873 
Q 3191 2616 2906 2266 
Q 2828 2175 2409 1742 
Q 1991 1309 1228 531 
z
" transform="scale(0.015625)"/>
       </defs>
       <use xlink:href="#DejaVuSans-32"/>
      </g>
     </g>
    </g>
    <g id="xtick_3">
     <g id="line2d_5">
      <path d="M 247.257632 355.438125 
L 247.257632 22.798125 
" clip-path="url(#pad5a9c0584)" style="fill: none; stroke: #b0b0b0; stroke-opacity: 0.3; stroke-width: 0.8; stroke-linecap: square"/>
     </g>
     <g id="line2d_6">
      <g>
       <use xlink:href="#mf6ef578285" x="247.257632" y="355.438125" style="stroke: #000000; stroke-width: 0.8"/>
      </g>
     </g>
     <g id="text_3">
      <!-- 4 -->
      <g transform="translate(244.076382 370.036562) scale(0.1 -0.1)">
       <defs>
        <path id="DejaVuSans-34" d="M 2419 4116 
L 825 1625 
L 2419 1625 
L 2419 4116 
z
M 2253 4666 
L 3047 4666 
L 3047 1625 
L 3713 1625 
L 3713 1100 
L 3047 1100 
L 3047 0 
L 2419 0 
L 2419 1100 
L 313 1100 
L 313 1709 
L 2253 4666 
z
" transform="scale(0.015625)"/>
       </defs>
       <use xlink:href="#DejaVuSans-34"/>
      </g>
     </g>
    </g>
    <g id="xtick_4">
     <g id="line2d_7">
      <path d="M 337.706553 355.438125 
L 337.706553 22.798125 
" clip-path="url(#pad5a9c0584)" style="fill: none; stroke: #b0b0b0; stroke-opacity: 0.3; stroke-width: 0.8; stroke-linecap: square"/>
     </g>
     <g id="line2d_8">
      <g>
       <use xlink:href="#mf6ef578285" x="337.706553" y="355.438125" style="stroke: #000000; stroke-width: 0.8"/>
      </g>
     </g>
     <g id="text_4">
      <!-- 6 -->
      <g transform="translate(334.525303 370.036562) scale(0.1 -0.1)">
       <defs>
        <path id="DejaVuSans-36" d="M 2113 2584 
Q 1688 2584 1439 2293 
Q 1191 2003 1191 1497 
Q 1191 994 1439 701 
Q 1688 409 2113 409 
Q 2538 409 2786 701 
Q 3034 994 3034 1497 
Q 3034 2003 2786 2293 
Q 2538 2584 2113 2584 
z
M 3366 4563 
L 3366 3988 
Q 3128 4100 2886 4159 
Q 2644 4219 2406 4219 
Q 1781 4219 1451 3797 
Q 1122 3375 1075 2522 
Q 1259 2794 1537 2939 
Q 1816 3084 2150 3084 
Q 2853 3084 3261 2657 
Q 3669 2231 3669 1497 
Q 3669 778 3244 343 
Q 2819 -91 2113 -91 
Q 1303 -91 875 529 
Q 447 1150 447 2328 
Q 447 3434 972 4092 
Q 1497 4750 2381 4750 
Q 2619 4750 2861 4703 
Q 3103 4656 3366 4563 
z
" transform="scale(0.015625)"/>
       </defs>
       <use xlink:href="#DejaVuSans-36"/>
      </g>
     </g>
    </g>
    <g id="xtick_5">
     <g id="line2d_9">
      <path d="M 428.155475 355.438125 
L 428.155475 22.798125 
" clip-path="url(#pad5a9c0584)" style="fill: none; stroke: #b0b0b0; stroke-opacity: 0.3; stroke-width: 0.8; stroke-linecap: square"/>
     </g>
     <g id="line2d_10">
      <g>
       <use xlink:href="#mf6ef578285" x="428.155475" y="355.438125" style="stroke: #000000; stroke-width: 0.8"/>
      </g>
     </g>
     <g id="text_5">
      <!-- 8 -->
      <g transform="translate(424.974225 370.036562) scale(0.1 -0.1)">
       <defs>
        <path id="DejaVuSans-38" d="M 2034 2216 
Q 1584 2216 1326 1975 
Q 1069 1734 1069 1313 
Q 1069 891 1326 650 
Q 1584 409 2034 409 
Q 2484 409 2743 651 
Q 3003 894 3003 1313 
Q 3003 1734 2745 1975 
Q 2488 2216 2034 2216 
z
M 1403 2484 
Q 997 2584 770 2862 
Q 544 3141 544 3541 
Q 544 4100 942 4425 
Q 1341 4750 2034 4750 
Q 2731 4750 3128 4425 
Q 3525 4100 3525 3541 
Q 3525 3141 3298 2862 
Q 3072 2584 2669 2484 
Q 3125 2378 3379 2068 
Q 3634 1759 3634 1313 
Q 3634 634 3220 271 
Q 2806 -91 2034 -91 
Q 1263 -91 848 271 
Q 434 634 434 1313 
Q 434 1759 690 2068 
Q 947 2378 1403 2484 
z
M 1172 3481 
Q 1172 3119 1398 2916 
Q 1625 2713 2034 2713 
Q 2441 2713 2670 2916 
Q 2900 3119 2900 3481 
Q 2900 3844 2670 4047 
Q 2441 4250 2034 4250 
Q 1625 4250 1398 4047 
Q 1172 3844 1172 3481 
z
" transform="scale(0.015625)"/>
       </defs>
       <use xlink:href="#DejaVuSans-38"/>
      </g>
     </g>
    </g>
    <g id="xtick_6">
     <g id="line2d_11">
      <path d="M 518.604397 355.438125 
L 518.604397 22.798125 
" clip-path="url(#pad5a9c0584)" style="fill: none; stroke: #b0b0b0; stroke-opacity: 0.3; stroke-width: 0.8; stroke-linecap: square"/>
     </g>
     <g id="line2d_12">
      <g>
       <use xlink:href="#mf6ef578285" x="518.604397" y="355.438125" style="stroke: #000000; stroke-width: 0.8"/>
      </g>
     </g>
     <g id="text_6">
      <!-- 10 -->
      <g transform="translate(512.241897 370.036562) scale(0.1 -0.1)">
       <defs>
        <path id="DejaVuSans-31" d="M 794 531 
L 1825 531 
L 1825 4091 
L 703 3866 
L 703 4441 
L 1819 4666 
L 2450 4666 
L 2450 531 
L 3481 531 
L 3481 0 
L 794 0 
L 794 531 
z
" transform="scale(0.015625)"/>
       </defs>
       <use xlink:href="#DejaVuSans-31"/>
       <use xlink:href="#DejaVuSans-30" transform="translate(63.623047 0)"/>
      </g>
     </g>
    </g>
    <g id="text_7">
     <!-- t [s] -->
     <g transform="translate(284.825781 383.714687) scale(0.1 -0.1)">
      <defs>
       <path id="DejaVuSans-74" d="M 1172 4494 
L 1172 3500 
L 2356 3500 
L 2356 3053 
L 1172 3053 
L 1172 1153 
Q 1172 725 1289 603 
Q 1406 481 1766 481 
L 2356 481 
L 2356 0 
L 1766 0 
Q 1100 0 847 248 
Q 594 497 594 1153 
L 594 3053 
L 172 3053 
L 172 3500 
L 594 3500 
L 594 4494 
L 1172 4494 
z
" transform="scale(0.015625)"/>
       <path id="DejaVuSans-20" transform="scale(0.015625)"/>
       <path id="DejaVuSans-5b" d="M 550 4863 
L 1875 4863 
L 1875 4416 
L 1125 4416 
L 1125 -397 
L 1875 -397 
L 1875 -844 
L 550 -844 
L 550 4863 
z
" transform="scale(0.015625)"/>
       <path id="DejaVuSans-73" d="M 2834 3397 
L 2834 2853 
Q 2591 2978 2328 3040 
Q 2066 3103 1784 3103 
Q 1356 3103 1142 2972 
Q 928 2841 928 2578 
Q 928 2378 1081 2264 
Q 1234 2150 1697 2047 
L 1894 2003 
Q 2506 1872 2764 1633 
Q 3022 1394 3022 966 
Q 3022 478 2636 193 
Q 2250 -91 1575 -91 
Q 1294 -91 989 -36 
Q 684 19 347 128 
L 347 722 
Q 666 556 975 473 
Q 1284 391 1588 391 
Q 1994 391 2212 530 
Q 2431 669 2431 922 
Q 2431 1156 2273 1281 
Q 2116 1406 1581 1522 
L 1381 1569 
Q 847 1681 609 1914 
Q 372 2147 372 2553 
Q 372 3047 722 3315 
Q 1072 3584 1716 3584 
Q 2034 3584 2315 3537 
Q 2597 3491 2834 3397 
z
" transform="scale(0.015625)"/>
       <path id="DejaVuSans-5d" d="M 1947 4863 
L 1947 -844 
L 622 -844 
L 622 -397 
L 1369 -397 
L 1369 4416 
L 622 4416 
L 622 4863 
L 1947 4863 
z
" transform="scale(0.015625)"/>
      </defs>
      <use xlink:href="#DejaVuSans-74"/>
      <use xlink:href="#DejaVuSans-20" transform="translate(39.208984 0)"/>
      <use xlink:href="#DejaVuSans-5b" transform="translate(70.996094 0)"/>
      <use xlink:href="#DejaVuSans-73" transform="translate(110.009766 0)"/>
      <use xlink:href="#DejaVuSans-5d" transform="translate(162.109375 0)"/>
     </g>
    </g>
   </g>
   <g id="matplotlib.axis_2">
    <g id="ytick_1">
     <g id="line2d_13">
      <path d="M 43.78125 299.736307 
L 545.98125 299.736307 
" clip-path="url(#pad5a9c0584)" style="fill: none; stroke: #b0b0b0; stroke-opacity: 0.3; stroke-width: 0.8; stroke-linecap: square"/>
     </g>
     <g id="line2d_14">
      <defs>
       <path id="mfb3819cb52" d="M 0 0 
L -3.5 0 
" style="stroke: #000000; stroke-width: 0.8"/>
      </defs>
      <g>
       <use xlink:href="#mfb3819cb52" x="43.78125" y="299.736307" style="stroke: #000000; stroke-width: 0.8"/>
      </g>
     </g>
     <g id="text_8">
      <!-- 0.1 -->
      <g transform="translate(20.878125 303.535526) scale(0.1 -0.1)">
       <defs>
        <path id="DejaVuSans-2e" d="M 684 794 
L 1344 794 
L 1344 0 
L 684 0 
L 684 794 
z
" transform="scale(0.015625)"/>
       </defs>
       <use xlink:href="#DejaVuSans-30"/>
       <use xlink:href="#DejaVuSans-2e" transform="translate(63.623047 0)"/>
       <use xlink:href="#DejaVuSans-31" transform="translate(95.410156 0)"/>
      </g>
     </g>
    </g>
    <g id="ytick_2">
     <g id="line2d_15">
      <path d="M 43.78125 234.281761 
L 545.98125 234.281761 
" clip-path="url(#pad5a9c0584)" style="fill: none; stroke: #b0b0b0; stroke-opacity: 0.3; stroke-width: 0.8; stroke-linecap: square"/>
     </g>
     <g id="line2d_16">
      <g>
       <use xlink:href="#mfb3819cb52" x="43.78125" y="234.281761" style="stroke: #000000; stroke-width: 0.8"/>
      </g>
     </g>
     <g id="text_9">
      <!-- 0.2 -->
      <g transform="translate(20.878125 238.08098) scale(0.1 -0.1)">
       <use xlink:href="#DejaVuSans-30"/>
       <use xlink:href="#DejaVuSans-2e" transform="translate(63.623047 0)"/>
       <use xlink:href="#DejaVuSans-32" transform="translate(95.410156 0)"/>
      </g>
     </g>
    </g>
    <g id="ytick_3">
     <g id="line2d_17">
      <path d="M 43.78125 168.827216 
L 545.98125 168.827216 
" clip-path="url(#pad5a9c0584)" style="fill: none; stroke: #b0b0b0; stroke-opacity: 0.3; stroke-width: 0.8; stroke-linecap: square"/>
     </g>
     <g id="line2d_18">
      <g>
       <use xlink:href="#mfb3819cb52" x="43.78125" y="168.827216" style="stroke: #000000; stroke-width: 0.8"/>
      </g>
     </g>
     <g id="text_10">
      <!-- 0.3 -->
      <g transform="translate(20.878125 172.626435) scale(0.1 -0.1)">
       <defs>
        <path id="DejaVuSans-33" d="M 2597 2516 
Q 3050 2419 3304 2112 
Q 3559 1806 3559 1356 
Q 3559 666 3084 287 
Q 2609 -91 1734 -91 
Q 1441 -91 1130 -33 
Q 819 25 488 141 
L 488 750 
Q 750 597 1062 519 
Q 1375 441 1716 441 
Q 2309 441 2620 675 
Q 2931 909 2931 1356 
Q 2931 1769 2642 2001 
Q 2353 2234 1838 2234 
L 1294 2234 
L 1294 2753 
L 1863 2753 
Q 2328 2753 2575 2939 
Q 2822 3125 2822 3475 
Q 2822 3834 2567 4026 
Q 2313 4219 1838 4219 
Q 1578 4219 1281 4162 
Q 984 4106 628 3988 
L 628 4550 
Q 988 4650 1302 4700 
Q 1616 4750 1894 4750 
Q 2613 4750 3031 4423 
Q 3450 4097 3450 3541 
Q 3450 3153 3228 2886 
Q 3006 2619 2597 2516 
z
" transform="scale(0.015625)"/>
       </defs>
       <use xlink:href="#DejaVuSans-30"/>
       <use xlink:href="#DejaVuSans-2e" transform="translate(63.623047 0)"/>
       <use xlink:href="#DejaVuSans-33" transform="translate(95.410156 0)"/>
      </g>
     </g>
    </g>
    <g id="ytick_4">
     <g id="line2d_19">
      <path d="M 43.78125 103.37267 
L 545.98125 103.37267 
" clip-path="url(#pad5a9c0584)" style="fill: none; stroke: #b0b0b0; stroke-opacity: 0.3; stroke-width: 0.8; stroke-linecap: square"/>
     </g>
     <g id="line2d_20">
      <g>
       <use xlink:href="#mfb3819cb52" x="43.78125" y="103.37267" style="stroke: #000000; stroke-width: 0.8"/>
      </g>
     </g>
     <g id="text_11">
      <!-- 0.4 -->
      <g transform="translate(20.878125 107.171889) scale(0.1 -0.1)">
       <use xlink:href="#DejaVuSans-30"/>
       <use xlink:href="#DejaVuSans-2e" transform="translate(63.623047 0)"/>
       <use xlink:href="#DejaVuSans-34" transform="translate(95.410156 0)"/>
      </g>
     </g>
    </g>
    <g id="ytick_5">
     <g id="line2d_21">
      <path d="M 43.78125 37.918125 
L 545.98125 37.918125 
" clip-path="url(#pad5a9c0584)" style="fill: none; stroke: #b0b0b0; stroke-opacity: 0.3; stroke-width: 0.8; stroke-linecap: square"/>
     </g>
     <g id="line2d_22">
      <g>
       <use xlink:href="#mfb3819cb52" x="43.78125" y="37.918125" style="stroke: #000000; stroke-width: 0.8"/>
      </g>
     </g>
     <g id="text_12">
      <!-- 0.5 -->
      <g transform="translate(20.878125 41.717344) scale(0.1 -0.1)">
       <defs>
        <path id="DejaVuSans-35" d="M 691 4666 
L 3169 4666 
L 3169 4134 
L 1269 4134 
L 1269 2991 
Q 1406 3038 1543 3061 
Q 1681 3084 1819 3084 
Q 2600 3084 3056 2656 
Q 3513 2228 3513 1497 
Q 3513 744 3044 326 
Q 2575 -91 1722 -91 
Q 1428 -91 1123 -41 
Q 819 9 494 109 
L 494 744 
Q 775 591 1075 516 
Q 1375 441 1709 441 
Q 2250 441 2565 725 
Q 2881 1009 2881 1497 
Q 2881 1984 2565 2268 
Q 2250 2553 1709 2553 
Q 1456 2553 1204 2497 
Q 953 2441 691 2322 
L 691 4666 
z
" transform="scale(0.015625)"/>
       </defs>
       <use xlink:href="#DejaVuSans-30"/>
       <use xlink:href="#DejaVuSans-2e" transform="translate(63.623047 0)"/>
       <use xlink:href="#DejaVuSans-35" transform="translate(95.410156 0)"/>
      </g>
     </g>
    </g>
    <g id="text_13">
     <!-- U [J] -->
     <g transform="translate(14.798438 199.743125) rotate(-90) scale(0.1 -0.1)">
      <defs>
       <path id="DejaVuSans-55" d="M 556 4666 
L 1191 4666 
L 1191 1831 
Q 1191 1081 1462 751 
Q 1734 422 2344 422 
Q 2950 422 3222 751 
Q 3494 1081 3494 1831 
L 3494 4666 
L 4128 4666 
L 4128 1753 
Q 4128 841 3676 375 
Q 3225 -91 2344 -91 
Q 1459 -91 1007 375 
Q 556 841 556 1753 
L 556 4666 
z
" transform="scale(0.015625)"/>
       <path id="DejaVuSans-4a" d="M 628 4666 
L 1259 4666 
L 1259 325 
Q 1259 -519 939 -900 
Q 619 -1281 -91 -1281 
L -331 -1281 
L -331 -750 
L -134 -750 
Q 284 -750 456 -515 
Q 628 -281 628 325 
L 628 4666 
z
" transform="scale(0.015625)"/>
      </defs>
      <use xlink:href="#DejaVuSans-55"/>
      <use xlink:href="#DejaVuSans-20" transform="translate(73.193359 0)"/>
      <use xlink:href="#DejaVuSans-5b" transform="translate(104.980469 0)"/>
      <use xlink:href="#DejaVuSans-4a" transform="translate(143.994141 0)"/>
      <use xlink:href="#DejaVuSans-5d" transform="translate(173.486328 0)"/>
     </g>
    </g>
   </g>
   <g id="patch_3">
    <path d="M 43.78125 355.438125 
L 43.78125 22.798125 
" style="fill: none; stroke: #000000; stroke-width: 0.8; stroke-linejoin: miter; stroke-linecap: square"/>
   </g>
   <g id="patch_4">
    <path d="M 545.98125 355.438125 
L 545.98125 22.798125 
" style="fill: none; stroke: #000000; stroke-width: 0.8; stroke-linejoin: miter; stroke-linecap: square"/>
   </g>
   <g id="patch_5">
    <path d="M 43.78125 355.438125 
L 545.98125 355.438125 
" style="fill: none; stroke: #000000; stroke-width: 0.8; stroke-linejoin: miter; stroke-linecap: square"/>
   </g>
   <g id="patch_6">
    <path d="M 43.78125 22.798125 
L 545.98125 22.798125 
" style="fill: none; stroke: #000000; stroke-width: 0.8; stroke-linejoin: miter; stroke-linecap: square"/>
   </g>
   <g id="text_14">
    <!-- Měření potenciální energie U vozíček č. 3 -->
    <g transform="translate(171.338438 16.798125) scale(0.12 -0.12)">
     <defs>
      <path id="DejaVuSans-4d" d="M 628 4666 
L 1569 4666 
L 2759 1491 
L 3956 4666 
L 4897 4666 
L 4897 0 
L 4281 0 
L 4281 4097 
L 3078 897 
L 2444 897 
L 1241 4097 
L 1241 0 
L 628 0 
L 628 4666 
z
" transform="scale(0.015625)"/>
      <path id="DejaVuSans-11b" d="M 3597 1894 
L 3597 1613 
L 953 1613 
Q 991 1019 1311 708 
Q 1631 397 2203 397 
Q 2534 397 2845 478 
Q 3156 559 3463 722 
L 3463 178 
Q 3153 47 2828 -22 
Q 2503 -91 2169 -91 
Q 1331 -91 842 396 
Q 353 884 353 1716 
Q 353 2575 817 3079 
Q 1281 3584 2069 3584 
Q 2775 3584 3186 3129 
Q 3597 2675 3597 1894 
z
M 3022 2063 
Q 3016 2534 2758 2815 
Q 2500 3097 2075 3097 
Q 1594 3097 1305 2825 
Q 1016 2553 972 2059 
L 3022 2063 
z
M 1833 3944 
L 1067 5119 
L 1502 5119 
L 2064 4353 
L 2627 5119 
L 3061 5119 
L 2295 3944 
L 1833 3944 
z
" transform="scale(0.015625)"/>
      <path id="DejaVuSans-159" d="M 2631 2963 
Q 2534 3019 2420 3045 
Q 2306 3072 2169 3072 
Q 1681 3072 1420 2755 
Q 1159 2438 1159 1844 
L 1159 0 
L 581 0 
L 581 3500 
L 1159 3500 
L 1159 2956 
Q 1341 3275 1631 3429 
Q 1922 3584 2338 3584 
Q 2397 3584 2469 3576 
Q 2541 3569 2628 3553 
L 2631 2963 
z
M 1457 3944 
L 691 5119 
L 1126 5119 
L 1688 4353 
L 2251 5119 
L 2685 5119 
L 1919 3944 
L 1457 3944 
z
" transform="scale(0.015625)"/>
      <path id="DejaVuSans-65" d="M 3597 1894 
L 3597 1613 
L 953 1613 
Q 991 1019 1311 708 
Q 1631 397 2203 397 
Q 2534 397 2845 478 
Q 3156 559 3463 722 
L 3463 178 
Q 3153 47 2828 -22 
Q 2503 -91 2169 -91 
Q 1331 -91 842 396 
Q 353 884 353 1716 
Q 353 2575 817 3079 
Q 1281 3584 2069 3584 
Q 2775 3584 3186 3129 
Q 3597 2675 3597 1894 
z
M 3022 2063 
Q 3016 2534 2758 2815 
Q 2500 3097 2075 3097 
Q 1594 3097 1305 2825 
Q 1016 2553 972 2059 
L 3022 2063 
z
" transform="scale(0.015625)"/>
      <path id="DejaVuSans-6e" d="M 3513 2113 
L 3513 0 
L 2938 0 
L 2938 2094 
Q 2938 2591 2744 2837 
Q 2550 3084 2163 3084 
Q 1697 3084 1428 2787 
Q 1159 2491 1159 1978 
L 1159 0 
L 581 0 
L 581 3500 
L 1159 3500 
L 1159 2956 
Q 1366 3272 1645 3428 
Q 1925 3584 2291 3584 
Q 2894 3584 3203 3211 
Q 3513 2838 3513 2113 
z
" transform="scale(0.015625)"/>
      <path id="DejaVuSans-ed" d="M 1322 5119 
L 1944 5119 
L 926 3944 
L 447 3944 
L 1322 5119 
z
M 603 3500 
L 1178 3500 
L 1178 0 
L 603 0 
L 603 3500 
z
M 891 3584 
L 891 3584 
z
" transform="scale(0.015625)"/>
      <path id="DejaVuSans-70" d="M 1159 525 
L 1159 -1331 
L 581 -1331 
L 581 3500 
L 1159 3500 
L 1159 2969 
Q 1341 3281 1617 3432 
Q 1894 3584 2278 3584 
Q 2916 3584 3314 3078 
Q 3713 2572 3713 1747 
Q 3713 922 3314 415 
Q 2916 -91 2278 -91 
Q 1894 -91 1617 61 
Q 1341 213 1159 525 
z
M 3116 1747 
Q 3116 2381 2855 2742 
Q 2594 3103 2138 3103 
Q 1681 3103 1420 2742 
Q 1159 2381 1159 1747 
Q 1159 1113 1420 752 
Q 1681 391 2138 391 
Q 2594 391 2855 752 
Q 3116 1113 3116 1747 
z
" transform="scale(0.015625)"/>
      <path id="DejaVuSans-6f" d="M 1959 3097 
Q 1497 3097 1228 2736 
Q 959 2375 959 1747 
Q 959 1119 1226 758 
Q 1494 397 1959 397 
Q 2419 397 2687 759 
Q 2956 1122 2956 1747 
Q 2956 2369 2687 2733 
Q 2419 3097 1959 3097 
z
M 1959 3584 
Q 2709 3584 3137 3096 
Q 3566 2609 3566 1747 
Q 3566 888 3137 398 
Q 2709 -91 1959 -91 
Q 1206 -91 779 398 
Q 353 888 353 1747 
Q 353 2609 779 3096 
Q 1206 3584 1959 3584 
z
" transform="scale(0.015625)"/>
      <path id="DejaVuSans-63" d="M 3122 3366 
L 3122 2828 
Q 2878 2963 2633 3030 
Q 2388 3097 2138 3097 
Q 1578 3097 1268 2742 
Q 959 2388 959 1747 
Q 959 1106 1268 751 
Q 1578 397 2138 397 
Q 2388 397 2633 464 
Q 2878 531 3122 666 
L 3122 134 
Q 2881 22 2623 -34 
Q 2366 -91 2075 -91 
Q 1284 -91 818 406 
Q 353 903 353 1747 
Q 353 2603 823 3093 
Q 1294 3584 2113 3584 
Q 2378 3584 2631 3529 
Q 2884 3475 3122 3366 
z
" transform="scale(0.015625)"/>
      <path id="DejaVuSans-69" d="M 603 3500 
L 1178 3500 
L 1178 0 
L 603 0 
L 603 3500 
z
M 603 4863 
L 1178 4863 
L 1178 4134 
L 603 4134 
L 603 4863 
z
" transform="scale(0.015625)"/>
      <path id="DejaVuSans-e1" d="M 2194 1759 
Q 1497 1759 1228 1600 
Q 959 1441 959 1056 
Q 959 750 1161 570 
Q 1363 391 1709 391 
Q 2188 391 2477 730 
Q 2766 1069 2766 1631 
L 2766 1759 
L 2194 1759 
z
M 3341 1997 
L 3341 0 
L 2766 0 
L 2766 531 
Q 2569 213 2275 61 
Q 1981 -91 1556 -91 
Q 1019 -91 701 211 
Q 384 513 384 1019 
Q 384 1609 779 1909 
Q 1175 2209 1959 2209 
L 2766 2209 
L 2766 2266 
Q 2766 2663 2505 2880 
Q 2244 3097 1772 3097 
Q 1472 3097 1187 3025 
Q 903 2953 641 2809 
L 641 3341 
Q 956 3463 1253 3523 
Q 1550 3584 1831 3584 
Q 2591 3584 2966 3190 
Q 3341 2797 3341 1997 
z
M 2290 5119 
L 2912 5119 
L 1894 3944 
L 1415 3944 
L 2290 5119 
z
" transform="scale(0.015625)"/>
      <path id="DejaVuSans-6c" d="M 603 4863 
L 1178 4863 
L 1178 0 
L 603 0 
L 603 4863 
z
" transform="scale(0.015625)"/>
      <path id="DejaVuSans-72" d="M 2631 2963 
Q 2534 3019 2420 3045 
Q 2306 3072 2169 3072 
Q 1681 3072 1420 2755 
Q 1159 2438 1159 1844 
L 1159 0 
L 581 0 
L 581 3500 
L 1159 3500 
L 1159 2956 
Q 1341 3275 1631 3429 
Q 1922 3584 2338 3584 
Q 2397 3584 2469 3576 
Q 2541 3569 2628 3553 
L 2631 2963 
z
" transform="scale(0.015625)"/>
      <path id="DejaVuSans-67" d="M 2906 1791 
Q 2906 2416 2648 2759 
Q 2391 3103 1925 3103 
Q 1463 3103 1205 2759 
Q 947 2416 947 1791 
Q 947 1169 1205 825 
Q 1463 481 1925 481 
Q 2391 481 2648 825 
Q 2906 1169 2906 1791 
z
M 3481 434 
Q 3481 -459 3084 -895 
Q 2688 -1331 1869 -1331 
Q 1566 -1331 1297 -1286 
Q 1028 -1241 775 -1147 
L 775 -588 
Q 1028 -725 1275 -790 
Q 1522 -856 1778 -856 
Q 2344 -856 2625 -561 
Q 2906 -266 2906 331 
L 2906 616 
Q 2728 306 2450 153 
Q 2172 0 1784 0 
Q 1141 0 747 490 
Q 353 981 353 1791 
Q 353 2603 747 3093 
Q 1141 3584 1784 3584 
Q 2172 3584 2450 3431 
Q 2728 3278 2906 2969 
L 2906 3500 
L 3481 3500 
L 3481 434 
z
" transform="scale(0.015625)"/>
      <path id="DejaVuSans-76" d="M 191 3500 
L 800 3500 
L 1894 563 
L 2988 3500 
L 3597 3500 
L 2284 0 
L 1503 0 
L 191 3500 
z
" transform="scale(0.015625)"/>
      <path id="DejaVuSans-7a" d="M 353 3500 
L 3084 3500 
L 3084 2975 
L 922 459 
L 3084 459 
L 3084 0 
L 275 0 
L 275 525 
L 2438 3041 
L 353 3041 
L 353 3500 
z
" transform="scale(0.015625)"/>
      <path id="DejaVuSans-10d" d="M 3122 3366 
L 3122 2828 
Q 2878 2963 2633 3030 
Q 2388 3097 2138 3097 
Q 1578 3097 1268 2742 
Q 959 2388 959 1747 
Q 959 1106 1268 751 
Q 1578 397 2138 397 
Q 2388 397 2633 464 
Q 2878 531 3122 666 
L 3122 134 
Q 2881 22 2623 -34 
Q 2366 -91 2075 -91 
Q 1284 -91 818 406 
Q 353 903 353 1747 
Q 353 2603 823 3093 
Q 1294 3584 2113 3584 
Q 2378 3584 2631 3529 
Q 2884 3475 3122 3366 
z
M 1801 3944 
L 1035 5119 
L 1470 5119 
L 2032 4353 
L 2595 5119 
L 3029 5119 
L 2263 3944 
L 1801 3944 
z
" transform="scale(0.015625)"/>
      <path id="DejaVuSans-6b" d="M 581 4863 
L 1159 4863 
L 1159 1991 
L 2875 3500 
L 3609 3500 
L 1753 1863 
L 3688 0 
L 2938 0 
L 1159 1709 
L 1159 0 
L 581 0 
L 581 4863 
z
" transform="scale(0.015625)"/>
     </defs>
     <use xlink:href="#DejaVuSans-4d"/>
     <use xlink:href="#DejaVuSans-11b" transform="translate(86.279297 0)"/>
     <use xlink:href="#DejaVuSans-159" transform="translate(147.802734 0)"/>
     <use xlink:href="#DejaVuSans-65" transform="translate(186.666016 0)"/>
     <use xlink:href="#DejaVuSans-6e" transform="translate(248.189453 0)"/>
     <use xlink:href="#DejaVuSans-ed" transform="translate(311.568359 0)"/>
     <use xlink:href="#DejaVuSans-20" transform="translate(339.351562 0)"/>
     <use xlink:href="#DejaVuSans-70" transform="translate(371.138672 0)"/>
     <use xlink:href="#DejaVuSans-6f" transform="translate(434.615234 0)"/>
     <use xlink:href="#DejaVuSans-74" transform="translate(495.796875 0)"/>
     <use xlink:href="#DejaVuSans-65" transform="translate(535.005859 0)"/>
     <use xlink:href="#DejaVuSans-6e" transform="translate(596.529297 0)"/>
     <use xlink:href="#DejaVuSans-63" transform="translate(659.908203 0)"/>
     <use xlink:href="#DejaVuSans-69" transform="translate(714.888672 0)"/>
     <use xlink:href="#DejaVuSans-e1" transform="translate(742.671875 0)"/>
     <use xlink:href="#DejaVuSans-6c" transform="translate(803.951172 0)"/>
     <use xlink:href="#DejaVuSans-6e" transform="translate(831.734375 0)"/>
     <use xlink:href="#DejaVuSans-ed" transform="translate(895.113281 0)"/>
     <use xlink:href="#DejaVuSans-20" transform="translate(922.896484 0)"/>
     <use xlink:href="#DejaVuSans-65" transform="translate(954.683594 0)"/>
     <use xlink:href="#DejaVuSans-6e" transform="translate(1016.207031 0)"/>
     <use xlink:href="#DejaVuSans-65" transform="translate(1079.585938 0)"/>
     <use xlink:href="#DejaVuSans-72" transform="translate(1141.109375 0)"/>
     <use xlink:href="#DejaVuSans-67" transform="translate(1180.472656 0)"/>
     <use xlink:href="#DejaVuSans-69" transform="translate(1243.949219 0)"/>
     <use xlink:href="#DejaVuSans-65" transform="translate(1271.732422 0)"/>
     <use xlink:href="#DejaVuSans-20" transform="translate(1333.255859 0)"/>
     <use xlink:href="#DejaVuSans-55" transform="translate(1365.042969 0)"/>
     <use xlink:href="#DejaVuSans-20" transform="translate(1438.236328 0)"/>
     <use xlink:href="#DejaVuSans-76" transform="translate(1470.023438 0)"/>
     <use xlink:href="#DejaVuSans-6f" transform="translate(1529.203125 0)"/>
     <use xlink:href="#DejaVuSans-7a" transform="translate(1590.384766 0)"/>
     <use xlink:href="#DejaVuSans-ed" transform="translate(1642.875 0)"/>
     <use xlink:href="#DejaVuSans-10d" transform="translate(1670.658203 0)"/>
     <use xlink:href="#DejaVuSans-65" transform="translate(1725.638672 0)"/>
     <use xlink:href="#DejaVuSans-6b" transform="translate(1787.162109 0)"/>
     <use xlink:href="#DejaVuSans-20" transform="translate(1845.072266 0)"/>
     <use xlink:href="#DejaVuSans-10d" transform="translate(1876.859375 0)"/>
     <use xlink:href="#DejaVuSans-2e" transform="translate(1931.839844 0)"/>
     <use xlink:href="#DejaVuSans-20" transform="translate(1963.626953 0)"/>
     <use xlink:href="#DejaVuSans-33" transform="translate(1995.414062 0)"/>
    </g>
   </g>
   <g id="legend_1">
    <g id="patch_7">
     <path d="M 429.270313 45.47625 
L 538.98125 45.47625 
Q 540.98125 45.47625 540.98125 43.47625 
L 540.98125 29.798125 
Q 540.98125 27.798125 538.98125 27.798125 
L 429.270313 27.798125 
Q 427.270313 27.798125 427.270313 29.798125 
L 427.270313 43.47625 
Q 427.270313 45.47625 429.270313 45.47625 
z
" style="fill: #ffffff; opacity: 0.8; stroke: #cccccc; stroke-linejoin: miter"/>
    </g>
    <g id="PathCollection_2">
     <g>
      <use xlink:href="#m3380b4750e" x="441.270313" y="36.771563" style="fill: #0000ff; stroke: #0000ff"/>
     </g>
    </g>
    <g id="text_15">
     <!-- Naměřená data -->
     <g transform="translate(459.270313 39.396563) scale(0.1 -0.1)">
      <defs>
       <path id="DejaVuSans-4e" d="M 628 4666 
L 1478 4666 
L 3547 763 
L 3547 4666 
L 4159 4666 
L 4159 0 
L 3309 0 
L 1241 3903 
L 1241 0 
L 628 0 
L 628 4666 
z
" transform="scale(0.015625)"/>
       <path id="DejaVuSans-61" d="M 2194 1759 
Q 1497 1759 1228 1600 
Q 959 1441 959 1056 
Q 959 750 1161 570 
Q 1363 391 1709 391 
Q 2188 391 2477 730 
Q 2766 1069 2766 1631 
L 2766 1759 
L 2194 1759 
z
M 3341 1997 
L 3341 0 
L 2766 0 
L 2766 531 
Q 2569 213 2275 61 
Q 1981 -91 1556 -91 
Q 1019 -91 701 211 
Q 384 513 384 1019 
Q 384 1609 779 1909 
Q 1175 2209 1959 2209 
L 2766 2209 
L 2766 2266 
Q 2766 2663 2505 2880 
Q 2244 3097 1772 3097 
Q 1472 3097 1187 3025 
Q 903 2953 641 2809 
L 641 3341 
Q 956 3463 1253 3523 
Q 1550 3584 1831 3584 
Q 2591 3584 2966 3190 
Q 3341 2797 3341 1997 
z
" transform="scale(0.015625)"/>
       <path id="DejaVuSans-6d" d="M 3328 2828 
Q 3544 3216 3844 3400 
Q 4144 3584 4550 3584 
Q 5097 3584 5394 3201 
Q 5691 2819 5691 2113 
L 5691 0 
L 5113 0 
L 5113 2094 
Q 5113 2597 4934 2840 
Q 4756 3084 4391 3084 
Q 3944 3084 3684 2787 
Q 3425 2491 3425 1978 
L 3425 0 
L 2847 0 
L 2847 2094 
Q 2847 2600 2669 2842 
Q 2491 3084 2119 3084 
Q 1678 3084 1418 2786 
Q 1159 2488 1159 1978 
L 1159 0 
L 581 0 
L 581 3500 
L 1159 3500 
L 1159 2956 
Q 1356 3278 1631 3431 
Q 1906 3584 2284 3584 
Q 2666 3584 2933 3390 
Q 3200 3197 3328 2828 
z
" transform="scale(0.015625)"/>
       <path id="DejaVuSans-64" d="M 2906 2969 
L 2906 4863 
L 3481 4863 
L 3481 0 
L 2906 0 
L 2906 525 
Q 2725 213 2448 61 
Q 2172 -91 1784 -91 
Q 1150 -91 751 415 
Q 353 922 353 1747 
Q 353 2572 751 3078 
Q 1150 3584 1784 3584 
Q 2172 3584 2448 3432 
Q 2725 3281 2906 2969 
z
M 947 1747 
Q 947 1113 1208 752 
Q 1469 391 1925 391 
Q 2381 391 2643 752 
Q 2906 1113 2906 1747 
Q 2906 2381 2643 2742 
Q 2381 3103 1925 3103 
Q 1469 3103 1208 2742 
Q 947 2381 947 1747 
z
" transform="scale(0.015625)"/>
      </defs>
      <use xlink:href="#DejaVuSans-4e"/>
      <use xlink:href="#DejaVuSans-61" transform="translate(74.804688 0)"/>
      <use xlink:href="#DejaVuSans-6d" transform="translate(136.083984 0)"/>
      <use xlink:href="#DejaVuSans-11b" transform="translate(233.496094 0)"/>
      <use xlink:href="#DejaVuSans-159" transform="translate(295.019531 0)"/>
      <use xlink:href="#DejaVuSans-65" transform="translate(333.882812 0)"/>
      <use xlink:href="#DejaVuSans-6e" transform="translate(395.40625 0)"/>
      <use xlink:href="#DejaVuSans-e1" transform="translate(458.785156 0)"/>
      <use xlink:href="#DejaVuSans-20" transform="translate(520.064453 0)"/>
      <use xlink:href="#DejaVuSans-64" transform="translate(551.851562 0)"/>
      <use xlink:href="#DejaVuSans-61" transform="translate(615.328125 0)"/>
      <use xlink:href="#DejaVuSans-74" transform="translate(676.607422 0)"/>
      <use xlink:href="#DejaVuSans-61" transform="translate(715.816406 0)"/>
     </g>
    </g>
   </g>
  </g>
 </g>
 <defs>
  <clipPath id="pad5a9c0584">
   <rect x="43.78125" y="22.798125" width="502.2" height="332.64"/>
  </clipPath>
 </defs>
</svg>
