<?xml version="1.0" encoding="utf-8" standalone="no"?>
<!DOCTYPE svg PUBLIC "-//W3C//DTD SVG 1.1//EN"
  "http://www.w3.org/Graphics/SVG/1.1/DTD/svg11.dtd">
<svg xmlns:xlink="http://www.w3.org/1999/xlink" width="559.703815pt" height="392.994375pt" viewBox="0 0 559.703815 392.994375" xmlns="http://www.w3.org/2000/svg" version="1.1">
 <metadata>
  <rdf:RDF xmlns:dc="http://purl.org/dc/elements/1.1/" xmlns:cc="http://creativecommons.org/ns#" xmlns:rdf="http://www.w3.org/1999/02/22-rdf-syntax-ns#">
   <cc:Work>
    <dc:type rdf:resource="http://purl.org/dc/dcmitype/StillImage"/>
    <dc:date>2026-04-07T23:13:19.794997</dc:date>
    <dc:format>image/svg+xml</dc:format>
    <dc:creator>
     <cc:Agent>
      <dc:title>Matplotlib v3.10.8, https://matplotlib.org/</dc:title>
     </cc:Agent>
    </dc:creator>
   </cc:Work>
  </rdf:RDF>
 </metadata>
 <defs>
  <style type="text/css">*{stroke-linejoin: round; stroke-linecap: butt}</style>
 </defs>
 <g id="figure_1">
  <g id="patch_1">
   <path d="M 0 392.994375 
L 559.703815 392.994375 
L 559.703815 0 
L 0 0 
z
" style="fill: #ffffff"/>
  </g>
  <g id="axes_1">
   <g id="patch_2">
    <path d="M 50.14375 355.438125 
L 552.34375 355.438125 
L 552.34375 22.798125 
L 50.14375 22.798125 
z
" style="fill: #ffffff"/>
   </g>
   <g id="PathCollection_1">
    <defs>
     <path id="m55b94cca9c" d="M 0 1.581139 
C 0.419323 1.581139 0.821528 1.41454 1.118034 1.118034 
C 1.41454 0.821528 1.581139 0.419323 1.581139 0 
C 1.581139 -0.419323 1.41454 -0.821528 1.118034 -1.118034 
C 0.821528 -1.41454 0.419323 -1.581139 0 -1.581139 
C -0.419323 -1.581139 -0.821528 -1.41454 -1.118034 -1.118034 
C -1.41454 -0.821528 -1.581139 -0.419323 -1.581139 0 
C -1.581139 0.419323 -1.41454 0.821528 -1.118034 1.118034 
C -0.821528 1.41454 -0.419323 1.581139 0 1.581139 
z
" style="stroke: #0000ff"/>
    </defs>
    <g clip-path="url(#p9e6d96c2e6)">
     <use xlink:href="#m55b94cca9c" x="72.971023" y="340.218188" style="fill: #0000ff; stroke: #0000ff"/>
     <use xlink:href="#m55b94cca9c" x="77.729133" y="340.138144" style="fill: #0000ff; stroke: #0000ff"/>
     <use xlink:href="#m55b94cca9c" x="82.487244" y="334.449263" style="fill: #0000ff; stroke: #0000ff"/>
     <use xlink:href="#m55b94cca9c" x="87.240596" y="334.449263" style="fill: #0000ff; stroke: #0000ff"/>
     <use xlink:href="#m55b94cca9c" x="91.998706" y="334.449263" style="fill: #0000ff; stroke: #0000ff"/>
     <use xlink:href="#m55b94cca9c" x="96.752059" y="326.594134" style="fill: #0000ff; stroke: #0000ff"/>
     <use xlink:href="#m55b94cca9c" x="101.505411" y="314.811439" style="fill: #0000ff; stroke: #0000ff"/>
     <use xlink:href="#m55b94cca9c" x="106.258763" y="306.95631" style="fill: #0000ff; stroke: #0000ff"/>
     <use xlink:href="#m55b94cca9c" x="111.012116" y="277.499574" style="fill: #0000ff; stroke: #0000ff"/>
     <use xlink:href="#m55b94cca9c" x="115.76071" y="269.644445" style="fill: #0000ff; stroke: #0000ff"/>
     <use xlink:href="#m55b94cca9c" x="120.514062" y="265.71688" style="fill: #0000ff; stroke: #0000ff"/>
     <use xlink:href="#m55b94cca9c" x="125.262656" y="261.789315" style="fill: #0000ff; stroke: #0000ff"/>
     <use xlink:href="#m55b94cca9c" x="130.011251" y="248.042839" style="fill: #0000ff; stroke: #0000ff"/>
     <use xlink:href="#m55b94cca9c" x="134.759845" y="234.296362" style="fill: #0000ff; stroke: #0000ff"/>
     <use xlink:href="#m55b94cca9c" x="139.508439" y="269.644445" style="fill: #0000ff; stroke: #0000ff"/>
     <use xlink:href="#m55b94cca9c" x="144.257033" y="202.875844" style="fill: #0000ff; stroke: #0000ff"/>
     <use xlink:href="#m55b94cca9c" x="149.005628" y="189.129368" style="fill: #0000ff; stroke: #0000ff"/>
     <use xlink:href="#m55b94cca9c" x="153.749464" y="171.455326" style="fill: #0000ff; stroke: #0000ff"/>
     <use xlink:href="#m55b94cca9c" x="158.498058" y="153.781285" style="fill: #0000ff; stroke: #0000ff"/>
     <use xlink:href="#m55b94cca9c" x="163.241894" y="136.107244" style="fill: #0000ff; stroke: #0000ff"/>
     <use xlink:href="#m55b94cca9c" x="167.98573" y="118.433202" style="fill: #0000ff; stroke: #0000ff"/>
     <use xlink:href="#m55b94cca9c" x="172.729566" y="100.759161" style="fill: #0000ff; stroke: #0000ff"/>
     <use xlink:href="#m55b94cca9c" x="177.473402" y="79.157555" style="fill: #0000ff; stroke: #0000ff"/>
     <use xlink:href="#m55b94cca9c" x="182.21248" y="59.519731" style="fill: #0000ff; stroke: #0000ff"/>
     <use xlink:href="#m55b94cca9c" x="186.956316" y="37.918125" style="fill: #0000ff; stroke: #0000ff"/>
     <use xlink:href="#m55b94cca9c" x="191.700152" y="69.338643" style="fill: #0000ff; stroke: #0000ff"/>
     <use xlink:href="#m55b94cca9c" x="196.443989" y="301.064963" style="fill: #0000ff; stroke: #0000ff"/>
     <use xlink:href="#m55b94cca9c" x="201.206857" y="200.912062" style="fill: #0000ff; stroke: #0000ff"/>
     <use xlink:href="#m55b94cca9c" x="205.974484" y="195.020715" style="fill: #0000ff; stroke: #0000ff"/>
     <use xlink:href="#m55b94cca9c" x="210.746869" y="218.586103" style="fill: #0000ff; stroke: #0000ff"/>
     <use xlink:href="#m55b94cca9c" x="215.514495" y="244.115274" style="fill: #0000ff; stroke: #0000ff"/>
     <use xlink:href="#m55b94cca9c" x="220.282122" y="265.71688" style="fill: #0000ff; stroke: #0000ff"/>
     <use xlink:href="#m55b94cca9c" x="225.04499" y="281.427139" style="fill: #0000ff; stroke: #0000ff"/>
     <use xlink:href="#m55b94cca9c" x="229.812617" y="295.173616" style="fill: #0000ff; stroke: #0000ff"/>
     <use xlink:href="#m55b94cca9c" x="234.575486" y="308.920092" style="fill: #0000ff; stroke: #0000ff"/>
     <use xlink:href="#m55b94cca9c" x="239.338354" y="318.739004" style="fill: #0000ff; stroke: #0000ff"/>
     <use xlink:href="#m55b94cca9c" x="244.101223" y="326.594134" style="fill: #0000ff; stroke: #0000ff"/>
     <use xlink:href="#m55b94cca9c" x="248.859333" y="332.485481" style="fill: #0000ff; stroke: #0000ff"/>
     <use xlink:href="#m55b94cca9c" x="253.622202" y="336.413046" style="fill: #0000ff; stroke: #0000ff"/>
     <use xlink:href="#m55b94cca9c" x="258.380312" y="339.815495" style="fill: #0000ff; stroke: #0000ff"/>
     <use xlink:href="#m55b94cca9c" x="263.138423" y="340.300628" style="fill: #0000ff; stroke: #0000ff"/>
     <use xlink:href="#m55b94cca9c" x="267.896533" y="339.485383" style="fill: #0000ff; stroke: #0000ff"/>
     <use xlink:href="#m55b94cca9c" x="272.654643" y="338.376828" style="fill: #0000ff; stroke: #0000ff"/>
     <use xlink:href="#m55b94cca9c" x="277.407996" y="334.449263" style="fill: #0000ff; stroke: #0000ff"/>
     <use xlink:href="#m55b94cca9c" x="282.166106" y="330.521698" style="fill: #0000ff; stroke: #0000ff"/>
     <use xlink:href="#m55b94cca9c" x="286.919459" y="326.594134" style="fill: #0000ff; stroke: #0000ff"/>
     <use xlink:href="#m55b94cca9c" x="291.672811" y="318.739004" style="fill: #0000ff; stroke: #0000ff"/>
     <use xlink:href="#m55b94cca9c" x="296.426163" y="312.847657" style="fill: #0000ff; stroke: #0000ff"/>
     <use xlink:href="#m55b94cca9c" x="301.179516" y="304.992528" style="fill: #0000ff; stroke: #0000ff"/>
     <use xlink:href="#m55b94cca9c" x="305.932868" y="295.173616" style="fill: #0000ff; stroke: #0000ff"/>
     <use xlink:href="#m55b94cca9c" x="310.681462" y="283.390922" style="fill: #0000ff; stroke: #0000ff"/>
     <use xlink:href="#m55b94cca9c" x="315.434814" y="271.608227" style="fill: #0000ff; stroke: #0000ff"/>
     <use xlink:href="#m55b94cca9c" x="320.183409" y="261.789315" style="fill: #0000ff; stroke: #0000ff"/>
     <use xlink:href="#m55b94cca9c" x="324.932003" y="246.079056" style="fill: #0000ff; stroke: #0000ff"/>
     <use xlink:href="#m55b94cca9c" x="329.680597" y="253.934186" style="fill: #0000ff; stroke: #0000ff"/>
     <use xlink:href="#m55b94cca9c" x="334.433949" y="261.789315" style="fill: #0000ff; stroke: #0000ff"/>
     <use xlink:href="#m55b94cca9c" x="339.187302" y="320.702787" style="fill: #0000ff; stroke: #0000ff"/>
     <use xlink:href="#m55b94cca9c" x="343.95017" y="281.427139" style="fill: #0000ff; stroke: #0000ff"/>
     <use xlink:href="#m55b94cca9c" x="348.717797" y="289.282269" style="fill: #0000ff; stroke: #0000ff"/>
     <use xlink:href="#m55b94cca9c" x="353.480665" y="293.209833" style="fill: #0000ff; stroke: #0000ff"/>
     <use xlink:href="#m55b94cca9c" x="358.248292" y="306.95631" style="fill: #0000ff; stroke: #0000ff"/>
     <use xlink:href="#m55b94cca9c" x="363.011161" y="318.739004" style="fill: #0000ff; stroke: #0000ff"/>
     <use xlink:href="#m55b94cca9c" x="367.769271" y="326.594134" style="fill: #0000ff; stroke: #0000ff"/>
     <use xlink:href="#m55b94cca9c" x="372.53214" y="332.485481" style="fill: #0000ff; stroke: #0000ff"/>
     <use xlink:href="#m55b94cca9c" x="377.295008" y="336.413046" style="fill: #0000ff; stroke: #0000ff"/>
     <use xlink:href="#m55b94cca9c" x="382.053119" y="339.660749" style="fill: #0000ff; stroke: #0000ff"/>
     <use xlink:href="#m55b94cca9c" x="386.811229" y="340.318125" style="fill: #0000ff; stroke: #0000ff"/>
     <use xlink:href="#m55b94cca9c" x="391.569339" y="339.530943" style="fill: #0000ff; stroke: #0000ff"/>
     <use xlink:href="#m55b94cca9c" x="396.322692" y="338.376828" style="fill: #0000ff; stroke: #0000ff"/>
     <use xlink:href="#m55b94cca9c" x="401.080802" y="334.449263" style="fill: #0000ff; stroke: #0000ff"/>
     <use xlink:href="#m55b94cca9c" x="405.838913" y="330.521698" style="fill: #0000ff; stroke: #0000ff"/>
     <use xlink:href="#m55b94cca9c" x="410.592265" y="324.630351" style="fill: #0000ff; stroke: #0000ff"/>
     <use xlink:href="#m55b94cca9c" x="415.345617" y="318.739004" style="fill: #0000ff; stroke: #0000ff"/>
     <use xlink:href="#m55b94cca9c" x="420.09897" y="312.847657" style="fill: #0000ff; stroke: #0000ff"/>
     <use xlink:href="#m55b94cca9c" x="424.852322" y="303.028745" style="fill: #0000ff; stroke: #0000ff"/>
     <use xlink:href="#m55b94cca9c" x="429.605674" y="306.95631" style="fill: #0000ff; stroke: #0000ff"/>
     <use xlink:href="#m55b94cca9c" x="434.354269" y="289.282269" style="fill: #0000ff; stroke: #0000ff"/>
     <use xlink:href="#m55b94cca9c" x="439.107621" y="322.666569" style="fill: #0000ff; stroke: #0000ff"/>
     <use xlink:href="#m55b94cca9c" x="443.865731" y="304.992528" style="fill: #0000ff; stroke: #0000ff"/>
     <use xlink:href="#m55b94cca9c" x="448.6286" y="314.811439" style="fill: #0000ff; stroke: #0000ff"/>
     <use xlink:href="#m55b94cca9c" x="453.391468" y="318.739004" style="fill: #0000ff; stroke: #0000ff"/>
     <use xlink:href="#m55b94cca9c" x="458.154337" y="324.630351" style="fill: #0000ff; stroke: #0000ff"/>
     <use xlink:href="#m55b94cca9c" x="462.917205" y="330.521698" style="fill: #0000ff; stroke: #0000ff"/>
     <use xlink:href="#m55b94cca9c" x="467.680074" y="336.413046" style="fill: #0000ff; stroke: #0000ff"/>
     <use xlink:href="#m55b94cca9c" x="472.438184" y="338.716955" style="fill: #0000ff; stroke: #0000ff"/>
     <use xlink:href="#m55b94cca9c" x="477.196295" y="340.265044" style="fill: #0000ff; stroke: #0000ff"/>
     <use xlink:href="#m55b94cca9c" x="481.954405" y="340.090817" style="fill: #0000ff; stroke: #0000ff"/>
     <use xlink:href="#m55b94cca9c" x="486.712516" y="338.518417" style="fill: #0000ff; stroke: #0000ff"/>
     <use xlink:href="#m55b94cca9c" x="491.470626" y="336.413046" style="fill: #0000ff; stroke: #0000ff"/>
     <use xlink:href="#m55b94cca9c" x="496.223979" y="332.485481" style="fill: #0000ff; stroke: #0000ff"/>
     <use xlink:href="#m55b94cca9c" x="500.977331" y="326.594134" style="fill: #0000ff; stroke: #0000ff"/>
     <use xlink:href="#m55b94cca9c" x="505.735441" y="324.630351" style="fill: #0000ff; stroke: #0000ff"/>
     <use xlink:href="#m55b94cca9c" x="510.488794" y="322.666569" style="fill: #0000ff; stroke: #0000ff"/>
     <use xlink:href="#m55b94cca9c" x="515.242146" y="310.883875" style="fill: #0000ff; stroke: #0000ff"/>
     <use xlink:href="#m55b94cca9c" x="519.995498" y="339.815299" style="fill: #0000ff; stroke: #0000ff"/>
     <use xlink:href="#m55b94cca9c" x="524.758367" y="320.702787" style="fill: #0000ff; stroke: #0000ff"/>
     <use xlink:href="#m55b94cca9c" x="529.516477" y="322.666569" style="fill: #0000ff; stroke: #0000ff"/>
    </g>
   </g>
   <g id="matplotlib.axis_1">
    <g id="xtick_1">
     <g id="line2d_1">
      <path d="M 70.330271 355.438125 
L 70.330271 22.798125 
" clip-path="url(#p9e6d96c2e6)" style="fill: none; stroke: #b0b0b0; stroke-opacity: 0.3; stroke-width: 0.8; stroke-linecap: square"/>
     </g>
     <g id="line2d_2">
      <defs>
       <path id="m47002da820" d="M 0 0 
L 0 3.5 
" style="stroke: #000000; stroke-width: 0.8"/>
      </defs>
      <g>
       <use xlink:href="#m47002da820" x="70.330271" y="355.438125" style="stroke: #000000; stroke-width: 0.8"/>
      </g>
     </g>
     <g id="text_1">
      <!-- 0 -->
      <g transform="translate(67.149021 370.036562) scale(0.1 -0.1)">
       <defs>
        <path id="DejaVuSans-30" d="M 2034 4250 
Q 1547 4250 1301 3770 
Q 1056 3291 1056 2328 
Q 1056 1369 1301 889 
Q 1547 409 2034 409 
Q 2525 409 2770 889 
Q 3016 1369 3016 2328 
Q 3016 3291 2770 3770 
Q 2525 4250 2034 4250 
z
M 2034 4750 
Q 2819 4750 3233 4129 
Q 3647 3509 3647 2328 
Q 3647 1150 3233 529 
Q 2819 -91 2034 -91 
Q 1250 -91 836 529 
Q 422 1150 422 2328 
Q 422 3509 836 4129 
Q 1250 4750 2034 4750 
z
" transform="scale(0.015625)"/>
       </defs>
       <use xlink:href="#DejaVuSans-30"/>
      </g>
     </g>
    </g>
    <g id="xtick_2">
     <g id="line2d_3">
      <path d="M 165.49248 355.438125 
L 165.49248 22.798125 
" clip-path="url(#p9e6d96c2e6)" style="fill: none; stroke: #b0b0b0; stroke-opacity: 0.3; stroke-width: 0.8; stroke-linecap: square"/>
     </g>
     <g id="line2d_4">
      <g>
       <use xlink:href="#m47002da820" x="165.49248" y="355.438125" style="stroke: #000000; stroke-width: 0.8"/>
      </g>
     </g>
     <g id="text_2">
      <!-- 2 -->
      <g transform="translate(162.31123 370.036562) scale(0.1 -0.1)">
       <defs>
        <path id="DejaVuSans-32" d="M 1228 531 
L 3431 531 
L 3431 0 
L 469 0 
L 469 531 
Q 828 903 1448 1529 
Q 2069 2156 2228 2338 
Q 2531 2678 2651 2914 
Q 2772 3150 2772 3378 
Q 2772 3750 2511 3984 
Q 2250 4219 1831 4219 
Q 1534 4219 1204 4116 
Q 875 4013 500 3803 
L 500 4441 
Q 881 4594 1212 4672 
Q 1544 4750 1819 4750 
Q 2544 4750 2975 4387 
Q 3406 4025 3406 3419 
Q 3406 3131 3298 2873 
Q 3191 2616 2906 2266 
Q 2828 2175 2409 1742 
Q 1991 1309 1228 531 
z
" transform="scale(0.015625)"/>
       </defs>
       <use xlink:href="#DejaVuSans-32"/>
      </g>
     </g>
    </g>
    <g id="xtick_3">
     <g id="line2d_5">
      <path d="M 260.654689 355.438125 
L 260.654689 22.798125 
" clip-path="url(#p9e6d96c2e6)" style="fill: none; stroke: #b0b0b0; stroke-opacity: 0.3; stroke-width: 0.8; stroke-linecap: square"/>
     </g>
     <g id="line2d_6">
      <g>
       <use xlink:href="#m47002da820" x="260.654689" y="355.438125" style="stroke: #000000; stroke-width: 0.8"/>
      </g>
     </g>
     <g id="text_3">
      <!-- 4 -->
      <g transform="translate(257.473439 370.036562) scale(0.1 -0.1)">
       <defs>
        <path id="DejaVuSans-34" d="M 2419 4116 
L 825 1625 
L 2419 1625 
L 2419 4116 
z
M 2253 4666 
L 3047 4666 
L 3047 1625 
L 3713 1625 
L 3713 1100 
L 3047 1100 
L 3047 0 
L 2419 0 
L 2419 1100 
L 313 1100 
L 313 1709 
L 2253 4666 
z
" transform="scale(0.015625)"/>
       </defs>
       <use xlink:href="#DejaVuSans-34"/>
      </g>
     </g>
    </g>
    <g id="xtick_4">
     <g id="line2d_7">
      <path d="M 355.816898 355.438125 
L 355.816898 22.798125 
" clip-path="url(#p9e6d96c2e6)" style="fill: none; stroke: #b0b0b0; stroke-opacity: 0.3; stroke-width: 0.8; stroke-linecap: square"/>
     </g>
     <g id="line2d_8">
      <g>
       <use xlink:href="#m47002da820" x="355.816898" y="355.438125" style="stroke: #000000; stroke-width: 0.8"/>
      </g>
     </g>
     <g id="text_4">
      <!-- 6 -->
      <g transform="translate(352.635648 370.036562) scale(0.1 -0.1)">
       <defs>
        <path id="DejaVuSans-36" d="M 2113 2584 
Q 1688 2584 1439 2293 
Q 1191 2003 1191 1497 
Q 1191 994 1439 701 
Q 1688 409 2113 409 
Q 2538 409 2786 701 
Q 3034 994 3034 1497 
Q 3034 2003 2786 2293 
Q 2538 2584 2113 2584 
z
M 3366 4563 
L 3366 3988 
Q 3128 4100 2886 4159 
Q 2644 4219 2406 4219 
Q 1781 4219 1451 3797 
Q 1122 3375 1075 2522 
Q 1259 2794 1537 2939 
Q 1816 3084 2150 3084 
Q 2853 3084 3261 2657 
Q 3669 2231 3669 1497 
Q 3669 778 3244 343 
Q 2819 -91 2113 -91 
Q 1303 -91 875 529 
Q 447 1150 447 2328 
Q 447 3434 972 4092 
Q 1497 4750 2381 4750 
Q 2619 4750 2861 4703 
Q 3103 4656 3366 4563 
z
" transform="scale(0.015625)"/>
       </defs>
       <use xlink:href="#DejaVuSans-36"/>
      </g>
     </g>
    </g>
    <g id="xtick_5">
     <g id="line2d_9">
      <path d="M 450.979106 355.438125 
L 450.979106 22.798125 
" clip-path="url(#p9e6d96c2e6)" style="fill: none; stroke: #b0b0b0; stroke-opacity: 0.3; stroke-width: 0.8; stroke-linecap: square"/>
     </g>
     <g id="line2d_10">
      <g>
       <use xlink:href="#m47002da820" x="450.979106" y="355.438125" style="stroke: #000000; stroke-width: 0.8"/>
      </g>
     </g>
     <g id="text_5">
      <!-- 8 -->
      <g transform="translate(447.797856 370.036562) scale(0.1 -0.1)">
       <defs>
        <path id="DejaVuSans-38" d="M 2034 2216 
Q 1584 2216 1326 1975 
Q 1069 1734 1069 1313 
Q 1069 891 1326 650 
Q 1584 409 2034 409 
Q 2484 409 2743 651 
Q 3003 894 3003 1313 
Q 3003 1734 2745 1975 
Q 2488 2216 2034 2216 
z
M 1403 2484 
Q 997 2584 770 2862 
Q 544 3141 544 3541 
Q 544 4100 942 4425 
Q 1341 4750 2034 4750 
Q 2731 4750 3128 4425 
Q 3525 4100 3525 3541 
Q 3525 3141 3298 2862 
Q 3072 2584 2669 2484 
Q 3125 2378 3379 2068 
Q 3634 1759 3634 1313 
Q 3634 634 3220 271 
Q 2806 -91 2034 -91 
Q 1263 -91 848 271 
Q 434 634 434 1313 
Q 434 1759 690 2068 
Q 947 2378 1403 2484 
z
M 1172 3481 
Q 1172 3119 1398 2916 
Q 1625 2713 2034 2713 
Q 2441 2713 2670 2916 
Q 2900 3119 2900 3481 
Q 2900 3844 2670 4047 
Q 2441 4250 2034 4250 
Q 1625 4250 1398 4047 
Q 1172 3844 1172 3481 
z
" transform="scale(0.015625)"/>
       </defs>
       <use xlink:href="#DejaVuSans-38"/>
      </g>
     </g>
    </g>
    <g id="xtick_6">
     <g id="line2d_11">
      <path d="M 546.141315 355.438125 
L 546.141315 22.798125 
" clip-path="url(#p9e6d96c2e6)" style="fill: none; stroke: #b0b0b0; stroke-opacity: 0.3; stroke-width: 0.8; stroke-linecap: square"/>
     </g>
     <g id="line2d_12">
      <g>
       <use xlink:href="#m47002da820" x="546.141315" y="355.438125" style="stroke: #000000; stroke-width: 0.8"/>
      </g>
     </g>
     <g id="text_6">
      <!-- 10 -->
      <g transform="translate(539.778815 370.036562) scale(0.1 -0.1)">
       <defs>
        <path id="DejaVuSans-31" d="M 794 531 
L 1825 531 
L 1825 4091 
L 703 3866 
L 703 4441 
L 1819 4666 
L 2450 4666 
L 2450 531 
L 3481 531 
L 3481 0 
L 794 0 
L 794 531 
z
" transform="scale(0.015625)"/>
       </defs>
       <use xlink:href="#DejaVuSans-31"/>
       <use xlink:href="#DejaVuSans-30" transform="translate(63.623047 0)"/>
      </g>
     </g>
    </g>
    <g id="text_7">
     <!-- t [s] -->
     <g transform="translate(291.188281 383.714687) scale(0.1 -0.1)">
      <defs>
       <path id="DejaVuSans-74" d="M 1172 4494 
L 1172 3500 
L 2356 3500 
L 2356 3053 
L 1172 3053 
L 1172 1153 
Q 1172 725 1289 603 
Q 1406 481 1766 481 
L 2356 481 
L 2356 0 
L 1766 0 
Q 1100 0 847 248 
Q 594 497 594 1153 
L 594 3053 
L 172 3053 
L 172 3500 
L 594 3500 
L 594 4494 
L 1172 4494 
z
" transform="scale(0.015625)"/>
       <path id="DejaVuSans-20" transform="scale(0.015625)"/>
       <path id="DejaVuSans-5b" d="M 550 4863 
L 1875 4863 
L 1875 4416 
L 1125 4416 
L 1125 -397 
L 1875 -397 
L 1875 -844 
L 550 -844 
L 550 4863 
z
" transform="scale(0.015625)"/>
       <path id="DejaVuSans-73" d="M 2834 3397 
L 2834 2853 
Q 2591 2978 2328 3040 
Q 2066 3103 1784 3103 
Q 1356 3103 1142 2972 
Q 928 2841 928 2578 
Q 928 2378 1081 2264 
Q 1234 2150 1697 2047 
L 1894 2003 
Q 2506 1872 2764 1633 
Q 3022 1394 3022 966 
Q 3022 478 2636 193 
Q 2250 -91 1575 -91 
Q 1294 -91 989 -36 
Q 684 19 347 128 
L 347 722 
Q 666 556 975 473 
Q 1284 391 1588 391 
Q 1994 391 2212 530 
Q 2431 669 2431 922 
Q 2431 1156 2273 1281 
Q 2116 1406 1581 1522 
L 1381 1569 
Q 847 1681 609 1914 
Q 372 2147 372 2553 
Q 372 3047 722 3315 
Q 1072 3584 1716 3584 
Q 2034 3584 2315 3537 
Q 2597 3491 2834 3397 
z
" transform="scale(0.015625)"/>
       <path id="DejaVuSans-5d" d="M 1947 4863 
L 1947 -844 
L 622 -844 
L 622 -397 
L 1369 -397 
L 1369 4416 
L 622 4416 
L 622 4863 
L 1947 4863 
z
" transform="scale(0.015625)"/>
      </defs>
      <use xlink:href="#DejaVuSans-74"/>
      <use xlink:href="#DejaVuSans-20" transform="translate(39.208984 0)"/>
      <use xlink:href="#DejaVuSans-5b" transform="translate(70.996094 0)"/>
      <use xlink:href="#DejaVuSans-73" transform="translate(110.009766 0)"/>
      <use xlink:href="#DejaVuSans-5d" transform="translate(162.109375 0)"/>
     </g>
    </g>
   </g>
   <g id="matplotlib.axis_2">
    <g id="ytick_1">
     <g id="line2d_13">
      <path d="M 50.14375 340.34061 
L 552.34375 340.34061 
" clip-path="url(#p9e6d96c2e6)" style="fill: none; stroke: #b0b0b0; stroke-opacity: 0.3; stroke-width: 0.8; stroke-linecap: square"/>
     </g>
     <g id="line2d_14">
      <defs>
       <path id="mf03efc9ed3" d="M 0 0 
L -3.5 0 
" style="stroke: #000000; stroke-width: 0.8"/>
      </defs>
      <g>
       <use xlink:href="#mf03efc9ed3" x="50.14375" y="340.34061" style="stroke: #000000; stroke-width: 0.8"/>
      </g>
     </g>
     <g id="text_8">
      <!-- 0.00 -->
      <g transform="translate(20.878125 344.139829) scale(0.1 -0.1)">
       <defs>
        <path id="DejaVuSans-2e" d="M 684 794 
L 1344 794 
L 1344 0 
L 684 0 
L 684 794 
z
" transform="scale(0.015625)"/>
       </defs>
       <use xlink:href="#DejaVuSans-30"/>
       <use xlink:href="#DejaVuSans-2e" transform="translate(63.623047 0)"/>
       <use xlink:href="#DejaVuSans-30" transform="translate(95.410156 0)"/>
       <use xlink:href="#DejaVuSans-30" transform="translate(159.033203 0)"/>
      </g>
     </g>
    </g>
    <g id="ytick_2">
     <g id="line2d_15">
      <path d="M 50.14375 301.064963 
L 552.34375 301.064963 
" clip-path="url(#p9e6d96c2e6)" style="fill: none; stroke: #b0b0b0; stroke-opacity: 0.3; stroke-width: 0.8; stroke-linecap: square"/>
     </g>
     <g id="line2d_16">
      <g>
       <use xlink:href="#mf03efc9ed3" x="50.14375" y="301.064963" style="stroke: #000000; stroke-width: 0.8"/>
      </g>
     </g>
     <g id="text_9">
      <!-- 0.02 -->
      <g transform="translate(20.878125 304.864182) scale(0.1 -0.1)">
       <use xlink:href="#DejaVuSans-30"/>
       <use xlink:href="#DejaVuSans-2e" transform="translate(63.623047 0)"/>
       <use xlink:href="#DejaVuSans-30" transform="translate(95.410156 0)"/>
       <use xlink:href="#DejaVuSans-32" transform="translate(159.033203 0)"/>
      </g>
     </g>
    </g>
    <g id="ytick_3">
     <g id="line2d_17">
      <path d="M 50.14375 261.789315 
L 552.34375 261.789315 
" clip-path="url(#p9e6d96c2e6)" style="fill: none; stroke: #b0b0b0; stroke-opacity: 0.3; stroke-width: 0.8; stroke-linecap: square"/>
     </g>
     <g id="line2d_18">
      <g>
       <use xlink:href="#mf03efc9ed3" x="50.14375" y="261.789315" style="stroke: #000000; stroke-width: 0.8"/>
      </g>
     </g>
     <g id="text_10">
      <!-- 0.04 -->
      <g transform="translate(20.878125 265.588534) scale(0.1 -0.1)">
       <use xlink:href="#DejaVuSans-30"/>
       <use xlink:href="#DejaVuSans-2e" transform="translate(63.623047 0)"/>
       <use xlink:href="#DejaVuSans-30" transform="translate(95.410156 0)"/>
       <use xlink:href="#DejaVuSans-34" transform="translate(159.033203 0)"/>
      </g>
     </g>
    </g>
    <g id="ytick_4">
     <g id="line2d_19">
      <path d="M 50.14375 222.513668 
L 552.34375 222.513668 
" clip-path="url(#p9e6d96c2e6)" style="fill: none; stroke: #b0b0b0; stroke-opacity: 0.3; stroke-width: 0.8; stroke-linecap: square"/>
     </g>
     <g id="line2d_20">
      <g>
       <use xlink:href="#mf03efc9ed3" x="50.14375" y="222.513668" style="stroke: #000000; stroke-width: 0.8"/>
      </g>
     </g>
     <g id="text_11">
      <!-- 0.06 -->
      <g transform="translate(20.878125 226.312887) scale(0.1 -0.1)">
       <use xlink:href="#DejaVuSans-30"/>
       <use xlink:href="#DejaVuSans-2e" transform="translate(63.623047 0)"/>
       <use xlink:href="#DejaVuSans-30" transform="translate(95.410156 0)"/>
       <use xlink:href="#DejaVuSans-36" transform="translate(159.033203 0)"/>
      </g>
     </g>
    </g>
    <g id="ytick_5">
     <g id="line2d_21">
      <path d="M 50.14375 183.238021 
L 552.34375 183.238021 
" clip-path="url(#p9e6d96c2e6)" style="fill: none; stroke: #b0b0b0; stroke-opacity: 0.3; stroke-width: 0.8; stroke-linecap: square"/>
     </g>
     <g id="line2d_22">
      <g>
       <use xlink:href="#mf03efc9ed3" x="50.14375" y="183.238021" style="stroke: #000000; stroke-width: 0.8"/>
      </g>
     </g>
     <g id="text_12">
      <!-- 0.08 -->
      <g transform="translate(20.878125 187.037239) scale(0.1 -0.1)">
       <use xlink:href="#DejaVuSans-30"/>
       <use xlink:href="#DejaVuSans-2e" transform="translate(63.623047 0)"/>
       <use xlink:href="#DejaVuSans-30" transform="translate(95.410156 0)"/>
       <use xlink:href="#DejaVuSans-38" transform="translate(159.033203 0)"/>
      </g>
     </g>
    </g>
    <g id="ytick_6">
     <g id="line2d_23">
      <path d="M 50.14375 143.962373 
L 552.34375 143.962373 
" clip-path="url(#p9e6d96c2e6)" style="fill: none; stroke: #b0b0b0; stroke-opacity: 0.3; stroke-width: 0.8; stroke-linecap: square"/>
     </g>
     <g id="line2d_24">
      <g>
       <use xlink:href="#mf03efc9ed3" x="50.14375" y="143.962373" style="stroke: #000000; stroke-width: 0.8"/>
      </g>
     </g>
     <g id="text_13">
      <!-- 0.10 -->
      <g transform="translate(20.878125 147.761592) scale(0.1 -0.1)">
       <use xlink:href="#DejaVuSans-30"/>
       <use xlink:href="#DejaVuSans-2e" transform="translate(63.623047 0)"/>
       <use xlink:href="#DejaVuSans-31" transform="translate(95.410156 0)"/>
       <use xlink:href="#DejaVuSans-30" transform="translate(159.033203 0)"/>
      </g>
     </g>
    </g>
    <g id="ytick_7">
     <g id="line2d_25">
      <path d="M 50.14375 104.686726 
L 552.34375 104.686726 
" clip-path="url(#p9e6d96c2e6)" style="fill: none; stroke: #b0b0b0; stroke-opacity: 0.3; stroke-width: 0.8; stroke-linecap: square"/>
     </g>
     <g id="line2d_26">
      <g>
       <use xlink:href="#mf03efc9ed3" x="50.14375" y="104.686726" style="stroke: #000000; stroke-width: 0.8"/>
      </g>
     </g>
     <g id="text_14">
      <!-- 0.12 -->
      <g transform="translate(20.878125 108.485944) scale(0.1 -0.1)">
       <use xlink:href="#DejaVuSans-30"/>
       <use xlink:href="#DejaVuSans-2e" transform="translate(63.623047 0)"/>
       <use xlink:href="#DejaVuSans-31" transform="translate(95.410156 0)"/>
       <use xlink:href="#DejaVuSans-32" transform="translate(159.033203 0)"/>
      </g>
     </g>
    </g>
    <g id="ytick_8">
     <g id="line2d_27">
      <path d="M 50.14375 65.411078 
L 552.34375 65.411078 
" clip-path="url(#p9e6d96c2e6)" style="fill: none; stroke: #b0b0b0; stroke-opacity: 0.3; stroke-width: 0.8; stroke-linecap: square"/>
     </g>
     <g id="line2d_28">
      <g>
       <use xlink:href="#mf03efc9ed3" x="50.14375" y="65.411078" style="stroke: #000000; stroke-width: 0.8"/>
      </g>
     </g>
     <g id="text_15">
      <!-- 0.14 -->
      <g transform="translate(20.878125 69.210297) scale(0.1 -0.1)">
       <use xlink:href="#DejaVuSans-30"/>
       <use xlink:href="#DejaVuSans-2e" transform="translate(63.623047 0)"/>
       <use xlink:href="#DejaVuSans-31" transform="translate(95.410156 0)"/>
       <use xlink:href="#DejaVuSans-34" transform="translate(159.033203 0)"/>
      </g>
     </g>
    </g>
    <g id="ytick_9">
     <g id="line2d_29">
      <path d="M 50.14375 26.135431 
L 552.34375 26.135431 
" clip-path="url(#p9e6d96c2e6)" style="fill: none; stroke: #b0b0b0; stroke-opacity: 0.3; stroke-width: 0.8; stroke-linecap: square"/>
     </g>
     <g id="line2d_30">
      <g>
       <use xlink:href="#mf03efc9ed3" x="50.14375" y="26.135431" style="stroke: #000000; stroke-width: 0.8"/>
      </g>
     </g>
     <g id="text_16">
      <!-- 0.16 -->
      <g transform="translate(20.878125 29.93465) scale(0.1 -0.1)">
       <use xlink:href="#DejaVuSans-30"/>
       <use xlink:href="#DejaVuSans-2e" transform="translate(63.623047 0)"/>
       <use xlink:href="#DejaVuSans-31" transform="translate(95.410156 0)"/>
       <use xlink:href="#DejaVuSans-36" transform="translate(159.033203 0)"/>
      </g>
     </g>
    </g>
    <g id="text_17">
     <!-- T [J] -->
     <g transform="translate(14.798437 199.137656) rotate(-90) scale(0.1 -0.1)">
      <defs>
       <path id="DejaVuSans-54" d="M -19 4666 
L 3928 4666 
L 3928 4134 
L 2272 4134 
L 2272 0 
L 1638 0 
L 1638 4134 
L -19 4134 
L -19 4666 
z
" transform="scale(0.015625)"/>
       <path id="DejaVuSans-4a" d="M 628 4666 
L 1259 4666 
L 1259 325 
Q 1259 -519 939 -900 
Q 619 -1281 -91 -1281 
L -331 -1281 
L -331 -750 
L -134 -750 
Q 284 -750 456 -515 
Q 628 -281 628 325 
L 628 4666 
z
" transform="scale(0.015625)"/>
      </defs>
      <use xlink:href="#DejaVuSans-54"/>
      <use xlink:href="#DejaVuSans-20" transform="translate(61.083984 0)"/>
      <use xlink:href="#DejaVuSans-5b" transform="translate(92.871094 0)"/>
      <use xlink:href="#DejaVuSans-4a" transform="translate(131.884766 0)"/>
      <use xlink:href="#DejaVuSans-5d" transform="translate(161.376953 0)"/>
     </g>
    </g>
   </g>
   <g id="patch_3">
    <path d="M 50.14375 355.438125 
L 50.14375 22.798125 
" style="fill: none; stroke: #000000; stroke-width: 0.8; stroke-linejoin: miter; stroke-linecap: square"/>
   </g>
   <g id="patch_4">
    <path d="M 552.34375 355.438125 
L 552.34375 22.798125 
" style="fill: none; stroke: #000000; stroke-width: 0.8; stroke-linejoin: miter; stroke-linecap: square"/>
   </g>
   <g id="patch_5">
    <path d="M 50.14375 355.438125 
L 552.34375 355.438125 
" style="fill: none; stroke: #000000; stroke-width: 0.8; stroke-linejoin: miter; stroke-linecap: square"/>
   </g>
   <g id="patch_6">
    <path d="M 50.14375 22.798125 
L 552.34375 22.798125 
" style="fill: none; stroke: #000000; stroke-width: 0.8; stroke-linejoin: miter; stroke-linecap: square"/>
   </g>
   <g id="text_18">
    <!-- Měření kinetické energie T vozíček č. 1 -->
    <g transform="translate(184.630937 16.798125) scale(0.12 -0.12)">
     <defs>
      <path id="DejaVuSans-4d" d="M 628 4666 
L 1569 4666 
L 2759 1491 
L 3956 4666 
L 4897 4666 
L 4897 0 
L 4281 0 
L 4281 4097 
L 3078 897 
L 2444 897 
L 1241 4097 
L 1241 0 
L 628 0 
L 628 4666 
z
" transform="scale(0.015625)"/>
      <path id="DejaVuSans-11b" d="M 3597 1894 
L 3597 1613 
L 953 1613 
Q 991 1019 1311 708 
Q 1631 397 2203 397 
Q 2534 397 2845 478 
Q 3156 559 3463 722 
L 3463 178 
Q 3153 47 2828 -22 
Q 2503 -91 2169 -91 
Q 1331 -91 842 396 
Q 353 884 353 1716 
Q 353 2575 817 3079 
Q 1281 3584 2069 3584 
Q 2775 3584 3186 3129 
Q 3597 2675 3597 1894 
z
M 3022 2063 
Q 3016 2534 2758 2815 
Q 2500 3097 2075 3097 
Q 1594 3097 1305 2825 
Q 1016 2553 972 2059 
L 3022 2063 
z
M 1833 3944 
L 1067 5119 
L 1502 5119 
L 2064 4353 
L 2627 5119 
L 3061 5119 
L 2295 3944 
L 1833 3944 
z
" transform="scale(0.015625)"/>
      <path id="DejaVuSans-159" d="M 2631 2963 
Q 2534 3019 2420 3045 
Q 2306 3072 2169 3072 
Q 1681 3072 1420 2755 
Q 1159 2438 1159 1844 
L 1159 0 
L 581 0 
L 581 3500 
L 1159 3500 
L 1159 2956 
Q 1341 3275 1631 3429 
Q 1922 3584 2338 3584 
Q 2397 3584 2469 3576 
Q 2541 3569 2628 3553 
L 2631 2963 
z
M 1457 3944 
L 691 5119 
L 1126 5119 
L 1688 4353 
L 2251 5119 
L 2685 5119 
L 1919 3944 
L 1457 3944 
z
" transform="scale(0.015625)"/>
      <path id="DejaVuSans-65" d="M 3597 1894 
L 3597 1613 
L 953 1613 
Q 991 1019 1311 708 
Q 1631 397 2203 397 
Q 2534 397 2845 478 
Q 3156 559 3463 722 
L 3463 178 
Q 3153 47 2828 -22 
Q 2503 -91 2169 -91 
Q 1331 -91 842 396 
Q 353 884 353 1716 
Q 353 2575 817 3079 
Q 1281 3584 2069 3584 
Q 2775 3584 3186 3129 
Q 3597 2675 3597 1894 
z
M 3022 2063 
Q 3016 2534 2758 2815 
Q 2500 3097 2075 3097 
Q 1594 3097 1305 2825 
Q 1016 2553 972 2059 
L 3022 2063 
z
" transform="scale(0.015625)"/>
      <path id="DejaVuSans-6e" d="M 3513 2113 
L 3513 0 
L 2938 0 
L 2938 2094 
Q 2938 2591 2744 2837 
Q 2550 3084 2163 3084 
Q 1697 3084 1428 2787 
Q 1159 2491 1159 1978 
L 1159 0 
L 581 0 
L 581 3500 
L 1159 3500 
L 1159 2956 
Q 1366 3272 1645 3428 
Q 1925 3584 2291 3584 
Q 2894 3584 3203 3211 
Q 3513 2838 3513 2113 
z
" transform="scale(0.015625)"/>
      <path id="DejaVuSans-ed" d="M 1322 5119 
L 1944 5119 
L 926 3944 
L 447 3944 
L 1322 5119 
z
M 603 3500 
L 1178 3500 
L 1178 0 
L 603 0 
L 603 3500 
z
M 891 3584 
L 891 3584 
z
" transform="scale(0.015625)"/>
      <path id="DejaVuSans-6b" d="M 581 4863 
L 1159 4863 
L 1159 1991 
L 2875 3500 
L 3609 3500 
L 1753 1863 
L 3688 0 
L 2938 0 
L 1159 1709 
L 1159 0 
L 581 0 
L 581 4863 
z
" transform="scale(0.015625)"/>
      <path id="DejaVuSans-69" d="M 603 3500 
L 1178 3500 
L 1178 0 
L 603 0 
L 603 3500 
z
M 603 4863 
L 1178 4863 
L 1178 4134 
L 603 4134 
L 603 4863 
z
" transform="scale(0.015625)"/>
      <path id="DejaVuSans-63" d="M 3122 3366 
L 3122 2828 
Q 2878 2963 2633 3030 
Q 2388 3097 2138 3097 
Q 1578 3097 1268 2742 
Q 959 2388 959 1747 
Q 959 1106 1268 751 
Q 1578 397 2138 397 
Q 2388 397 2633 464 
Q 2878 531 3122 666 
L 3122 134 
Q 2881 22 2623 -34 
Q 2366 -91 2075 -91 
Q 1284 -91 818 406 
Q 353 903 353 1747 
Q 353 2603 823 3093 
Q 1294 3584 2113 3584 
Q 2378 3584 2631 3529 
Q 2884 3475 3122 3366 
z
" transform="scale(0.015625)"/>
      <path id="DejaVuSans-e9" d="M 3597 1894 
L 3597 1613 
L 953 1613 
Q 991 1019 1311 708 
Q 1631 397 2203 397 
Q 2534 397 2845 478 
Q 3156 559 3463 722 
L 3463 178 
Q 3153 47 2828 -22 
Q 2503 -91 2169 -91 
Q 1331 -91 842 396 
Q 353 884 353 1716 
Q 353 2575 817 3079 
Q 1281 3584 2069 3584 
Q 2775 3584 3186 3129 
Q 3597 2675 3597 1894 
z
M 3022 2063 
Q 3016 2534 2758 2815 
Q 2500 3097 2075 3097 
Q 1594 3097 1305 2825 
Q 1016 2553 972 2059 
L 3022 2063 
z
M 2466 5119 
L 3088 5119 
L 2070 3944 
L 1591 3944 
L 2466 5119 
z
" transform="scale(0.015625)"/>
      <path id="DejaVuSans-72" d="M 2631 2963 
Q 2534 3019 2420 3045 
Q 2306 3072 2169 3072 
Q 1681 3072 1420 2755 
Q 1159 2438 1159 1844 
L 1159 0 
L 581 0 
L 581 3500 
L 1159 3500 
L 1159 2956 
Q 1341 3275 1631 3429 
Q 1922 3584 2338 3584 
Q 2397 3584 2469 3576 
Q 2541 3569 2628 3553 
L 2631 2963 
z
" transform="scale(0.015625)"/>
      <path id="DejaVuSans-67" d="M 2906 1791 
Q 2906 2416 2648 2759 
Q 2391 3103 1925 3103 
Q 1463 3103 1205 2759 
Q 947 2416 947 1791 
Q 947 1169 1205 825 
Q 1463 481 1925 481 
Q 2391 481 2648 825 
Q 2906 1169 2906 1791 
z
M 3481 434 
Q 3481 -459 3084 -895 
Q 2688 -1331 1869 -1331 
Q 1566 -1331 1297 -1286 
Q 1028 -1241 775 -1147 
L 775 -588 
Q 1028 -725 1275 -790 
Q 1522 -856 1778 -856 
Q 2344 -856 2625 -561 
Q 2906 -266 2906 331 
L 2906 616 
Q 2728 306 2450 153 
Q 2172 0 1784 0 
Q 1141 0 747 490 
Q 353 981 353 1791 
Q 353 2603 747 3093 
Q 1141 3584 1784 3584 
Q 2172 3584 2450 3431 
Q 2728 3278 2906 2969 
L 2906 3500 
L 3481 3500 
L 3481 434 
z
" transform="scale(0.015625)"/>
      <path id="DejaVuSans-76" d="M 191 3500 
L 800 3500 
L 1894 563 
L 2988 3500 
L 3597 3500 
L 2284 0 
L 1503 0 
L 191 3500 
z
" transform="scale(0.015625)"/>
      <path id="DejaVuSans-6f" d="M 1959 3097 
Q 1497 3097 1228 2736 
Q 959 2375 959 1747 
Q 959 1119 1226 758 
Q 1494 397 1959 397 
Q 2419 397 2687 759 
Q 2956 1122 2956 1747 
Q 2956 2369 2687 2733 
Q 2419 3097 1959 3097 
z
M 1959 3584 
Q 2709 3584 3137 3096 
Q 3566 2609 3566 1747 
Q 3566 888 3137 398 
Q 2709 -91 1959 -91 
Q 1206 -91 779 398 
Q 353 888 353 1747 
Q 353 2609 779 3096 
Q 1206 3584 1959 3584 
z
" transform="scale(0.015625)"/>
      <path id="DejaVuSans-7a" d="M 353 3500 
L 3084 3500 
L 3084 2975 
L 922 459 
L 3084 459 
L 3084 0 
L 275 0 
L 275 525 
L 2438 3041 
L 353 3041 
L 353 3500 
z
" transform="scale(0.015625)"/>
      <path id="DejaVuSans-10d" d="M 3122 3366 
L 3122 2828 
Q 2878 2963 2633 3030 
Q 2388 3097 2138 3097 
Q 1578 3097 1268 2742 
Q 959 2388 959 1747 
Q 959 1106 1268 751 
Q 1578 397 2138 397 
Q 2388 397 2633 464 
Q 2878 531 3122 666 
L 3122 134 
Q 2881 22 2623 -34 
Q 2366 -91 2075 -91 
Q 1284 -91 818 406 
Q 353 903 353 1747 
Q 353 2603 823 3093 
Q 1294 3584 2113 3584 
Q 2378 3584 2631 3529 
Q 2884 3475 3122 3366 
z
M 1801 3944 
L 1035 5119 
L 1470 5119 
L 2032 4353 
L 2595 5119 
L 3029 5119 
L 2263 3944 
L 1801 3944 
z
" transform="scale(0.015625)"/>
     </defs>
     <use xlink:href="#DejaVuSans-4d"/>
     <use xlink:href="#DejaVuSans-11b" transform="translate(86.279297 0)"/>
     <use xlink:href="#DejaVuSans-159" transform="translate(147.802734 0)"/>
     <use xlink:href="#DejaVuSans-65" transform="translate(186.666016 0)"/>
     <use xlink:href="#DejaVuSans-6e" transform="translate(248.189453 0)"/>
     <use xlink:href="#DejaVuSans-ed" transform="translate(311.568359 0)"/>
     <use xlink:href="#DejaVuSans-20" transform="translate(339.351562 0)"/>
     <use xlink:href="#DejaVuSans-6b" transform="translate(371.138672 0)"/>
     <use xlink:href="#DejaVuSans-69" transform="translate(429.048828 0)"/>
     <use xlink:href="#DejaVuSans-6e" transform="translate(456.832031 0)"/>
     <use xlink:href="#DejaVuSans-65" transform="translate(520.210938 0)"/>
     <use xlink:href="#DejaVuSans-74" transform="translate(581.734375 0)"/>
     <use xlink:href="#DejaVuSans-69" transform="translate(620.943359 0)"/>
     <use xlink:href="#DejaVuSans-63" transform="translate(648.726562 0)"/>
     <use xlink:href="#DejaVuSans-6b" transform="translate(703.707031 0)"/>
     <use xlink:href="#DejaVuSans-e9" transform="translate(757.992188 0)"/>
     <use xlink:href="#DejaVuSans-20" transform="translate(819.515625 0)"/>
     <use xlink:href="#DejaVuSans-65" transform="translate(851.302734 0)"/>
     <use xlink:href="#DejaVuSans-6e" transform="translate(912.826172 0)"/>
     <use xlink:href="#DejaVuSans-65" transform="translate(976.205078 0)"/>
     <use xlink:href="#DejaVuSans-72" transform="translate(1037.728516 0)"/>
     <use xlink:href="#DejaVuSans-67" transform="translate(1077.091797 0)"/>
     <use xlink:href="#DejaVuSans-69" transform="translate(1140.568359 0)"/>
     <use xlink:href="#DejaVuSans-65" transform="translate(1168.351562 0)"/>
     <use xlink:href="#DejaVuSans-20" transform="translate(1229.875 0)"/>
     <use xlink:href="#DejaVuSans-54" transform="translate(1261.662109 0)"/>
     <use xlink:href="#DejaVuSans-20" transform="translate(1322.746094 0)"/>
     <use xlink:href="#DejaVuSans-76" transform="translate(1354.533203 0)"/>
     <use xlink:href="#DejaVuSans-6f" transform="translate(1413.712891 0)"/>
     <use xlink:href="#DejaVuSans-7a" transform="translate(1474.894531 0)"/>
     <use xlink:href="#DejaVuSans-ed" transform="translate(1527.384766 0)"/>
     <use xlink:href="#DejaVuSans-10d" transform="translate(1555.167969 0)"/>
     <use xlink:href="#DejaVuSans-65" transform="translate(1610.148438 0)"/>
     <use xlink:href="#DejaVuSans-6b" transform="translate(1671.671875 0)"/>
     <use xlink:href="#DejaVuSans-20" transform="translate(1729.582031 0)"/>
     <use xlink:href="#DejaVuSans-10d" transform="translate(1761.369141 0)"/>
     <use xlink:href="#DejaVuSans-2e" transform="translate(1816.349609 0)"/>
     <use xlink:href="#DejaVuSans-20" transform="translate(1848.136719 0)"/>
     <use xlink:href="#DejaVuSans-31" transform="translate(1879.923828 0)"/>
    </g>
   </g>
   <g id="legend_1">
    <g id="patch_7">
     <path d="M 435.632812 45.47625 
L 545.34375 45.47625 
Q 547.34375 45.47625 547.34375 43.47625 
L 547.34375 29.798125 
Q 547.34375 27.798125 545.34375 27.798125 
L 435.632812 27.798125 
Q 433.632812 27.798125 433.632812 29.798125 
L 433.632812 43.47625 
Q 433.632812 45.47625 435.632812 45.47625 
z
" style="fill: #ffffff; opacity: 0.8; stroke: #cccccc; stroke-linejoin: miter"/>
    </g>
    <g id="PathCollection_2">
     <g>
      <use xlink:href="#m55b94cca9c" x="447.632812" y="36.771563" style="fill: #0000ff; stroke: #0000ff"/>
     </g>
    </g>
    <g id="text_19">
     <!-- Naměřená data -->
     <g transform="translate(465.632812 39.396563) scale(0.1 -0.1)">
      <defs>
       <path id="DejaVuSans-4e" d="M 628 4666 
L 1478 4666 
L 3547 763 
L 3547 4666 
L 4159 4666 
L 4159 0 
L 3309 0 
L 1241 3903 
L 1241 0 
L 628 0 
L 628 4666 
z
" transform="scale(0.015625)"/>
       <path id="DejaVuSans-61" d="M 2194 1759 
Q 1497 1759 1228 1600 
Q 959 1441 959 1056 
Q 959 750 1161 570 
Q 1363 391 1709 391 
Q 2188 391 2477 730 
Q 2766 1069 2766 1631 
L 2766 1759 
L 2194 1759 
z
M 3341 1997 
L 3341 0 
L 2766 0 
L 2766 531 
Q 2569 213 2275 61 
Q 1981 -91 1556 -91 
Q 1019 -91 701 211 
Q 384 513 384 1019 
Q 384 1609 779 1909 
Q 1175 2209 1959 2209 
L 2766 2209 
L 2766 2266 
Q 2766 2663 2505 2880 
Q 2244 3097 1772 3097 
Q 1472 3097 1187 3025 
Q 903 2953 641 2809 
L 641 3341 
Q 956 3463 1253 3523 
Q 1550 3584 1831 3584 
Q 2591 3584 2966 3190 
Q 3341 2797 3341 1997 
z
" transform="scale(0.015625)"/>
       <path id="DejaVuSans-6d" d="M 3328 2828 
Q 3544 3216 3844 3400 
Q 4144 3584 4550 3584 
Q 5097 3584 5394 3201 
Q 5691 2819 5691 2113 
L 5691 0 
L 5113 0 
L 5113 2094 
Q 5113 2597 4934 2840 
Q 4756 3084 4391 3084 
Q 3944 3084 3684 2787 
Q 3425 2491 3425 1978 
L 3425 0 
L 2847 0 
L 2847 2094 
Q 2847 2600 2669 2842 
Q 2491 3084 2119 3084 
Q 1678 3084 1418 2786 
Q 1159 2488 1159 1978 
L 1159 0 
L 581 0 
L 581 3500 
L 1159 3500 
L 1159 2956 
Q 1356 3278 1631 3431 
Q 1906 3584 2284 3584 
Q 2666 3584 2933 3390 
Q 3200 3197 3328 2828 
z
" transform="scale(0.015625)"/>
       <path id="DejaVuSans-e1" d="M 2194 1759 
Q 1497 1759 1228 1600 
Q 959 1441 959 1056 
Q 959 750 1161 570 
Q 1363 391 1709 391 
Q 2188 391 2477 730 
Q 2766 1069 2766 1631 
L 2766 1759 
L 2194 1759 
z
M 3341 1997 
L 3341 0 
L 2766 0 
L 2766 531 
Q 2569 213 2275 61 
Q 1981 -91 1556 -91 
Q 1019 -91 701 211 
Q 384 513 384 1019 
Q 384 1609 779 1909 
Q 1175 2209 1959 2209 
L 2766 2209 
L 2766 2266 
Q 2766 2663 2505 2880 
Q 2244 3097 1772 3097 
Q 1472 3097 1187 3025 
Q 903 2953 641 2809 
L 641 3341 
Q 956 3463 1253 3523 
Q 1550 3584 1831 3584 
Q 2591 3584 2966 3190 
Q 3341 2797 3341 1997 
z
M 2290 5119 
L 2912 5119 
L 1894 3944 
L 1415 3944 
L 2290 5119 
z
" transform="scale(0.015625)"/>
       <path id="DejaVuSans-64" d="M 2906 2969 
L 2906 4863 
L 3481 4863 
L 3481 0 
L 2906 0 
L 2906 525 
Q 2725 213 2448 61 
Q 2172 -91 1784 -91 
Q 1150 -91 751 415 
Q 353 922 353 1747 
Q 353 2572 751 3078 
Q 1150 3584 1784 3584 
Q 2172 3584 2448 3432 
Q 2725 3281 2906 2969 
z
M 947 1747 
Q 947 1113 1208 752 
Q 1469 391 1925 391 
Q 2381 391 2643 752 
Q 2906 1113 2906 1747 
Q 2906 2381 2643 2742 
Q 2381 3103 1925 3103 
Q 1469 3103 1208 2742 
Q 947 2381 947 1747 
z
" transform="scale(0.015625)"/>
      </defs>
      <use xlink:href="#DejaVuSans-4e"/>
      <use xlink:href="#DejaVuSans-61" transform="translate(74.804688 0)"/>
      <use xlink:href="#DejaVuSans-6d" transform="translate(136.083984 0)"/>
      <use xlink:href="#DejaVuSans-11b" transform="translate(233.496094 0)"/>
      <use xlink:href="#DejaVuSans-159" transform="translate(295.019531 0)"/>
      <use xlink:href="#DejaVuSans-65" transform="translate(333.882812 0)"/>
      <use xlink:href="#DejaVuSans-6e" transform="translate(395.40625 0)"/>
      <use xlink:href="#DejaVuSans-e1" transform="translate(458.785156 0)"/>
      <use xlink:href="#DejaVuSans-20" transform="translate(520.064453 0)"/>
      <use xlink:href="#DejaVuSans-64" transform="translate(551.851562 0)"/>
      <use xlink:href="#DejaVuSans-61" transform="translate(615.328125 0)"/>
      <use xlink:href="#DejaVuSans-74" transform="translate(676.607422 0)"/>
      <use xlink:href="#DejaVuSans-61" transform="translate(715.816406 0)"/>
     </g>
    </g>
   </g>
  </g>
 </g>
 <defs>
  <clipPath id="p9e6d96c2e6">
   <rect x="50.14375" y="22.798125" width="502.2" height="332.64"/>
  </clipPath>
 </defs>
</svg>
