<?xml version="1.0" encoding="utf-8" standalone="no"?>
<!DOCTYPE svg PUBLIC "-//W3C//DTD SVG 1.1//EN"
  "http://www.w3.org/Graphics/SVG/1.1/DTD/svg11.dtd">
<svg xmlns:xlink="http://www.w3.org/1999/xlink" width="559.54375pt" height="392.994375pt" viewBox="0 0 559.54375 392.994375" xmlns="http://www.w3.org/2000/svg" version="1.1">
 <metadata>
  <rdf:RDF xmlns:dc="http://purl.org/dc/elements/1.1/" xmlns:cc="http://creativecommons.org/ns#" xmlns:rdf="http://www.w3.org/1999/02/22-rdf-syntax-ns#">
   <cc:Work>
    <dc:type rdf:resource="http://purl.org/dc/dcmitype/StillImage"/>
    <dc:date>2026-04-06T21:25:00.687204</dc:date>
    <dc:format>image/svg+xml</dc:format>
    <dc:creator>
     <cc:Agent>
      <dc:title>Matplotlib v3.10.8, https://matplotlib.org/</dc:title>
     </cc:Agent>
    </dc:creator>
   </cc:Work>
  </rdf:RDF>
 </metadata>
 <defs>
  <style type="text/css">*{stroke-linejoin: round; stroke-linecap: butt}</style>
 </defs>
 <g id="figure_1">
  <g id="patch_1">
   <path d="M 0 392.994375 
L 559.54375 392.994375 
L 559.54375 0 
L 0 0 
z
" style="fill: #ffffff"/>
  </g>
  <g id="axes_1">
   <g id="patch_2">
    <path d="M 50.14375 355.438125 
L 552.34375 355.438125 
L 552.34375 22.798125 
L 50.14375 22.798125 
z
" style="fill: #ffffff"/>
   </g>
   <g id="PathCollection_1">
    <defs>
     <path id="m78812e4a21" d="M 0 1.581139 
C 0.419323 1.581139 0.821528 1.41454 1.118034 1.118034 
C 1.41454 0.821528 1.581139 0.419323 1.581139 0 
C 1.581139 -0.419323 1.41454 -0.821528 1.118034 -1.118034 
C 0.821528 -1.41454 0.419323 -1.581139 0 -1.581139 
C -0.419323 -1.581139 -0.821528 -1.41454 -1.118034 -1.118034 
C -1.41454 -0.821528 -1.581139 -0.419323 -1.581139 0 
C -1.581139 0.419323 -1.41454 0.821528 -1.118034 1.118034 
C -0.821528 1.41454 -0.419323 1.581139 0 1.581139 
z
" style="stroke: #0000ff"/>
    </defs>
    <g clip-path="url(#p4efd70e679)">
     <use xlink:href="#m78812e4a21" x="72.971023" y="37.918125" style="fill: #0000ff; stroke: #0000ff"/>
     <use xlink:href="#m78812e4a21" x="77.680007" y="37.918125" style="fill: #0000ff; stroke: #0000ff"/>
     <use xlink:href="#m78812e4a21" x="82.388992" y="39.29267" style="fill: #0000ff; stroke: #0000ff"/>
     <use xlink:href="#m78812e4a21" x="87.097976" y="42.041761" style="fill: #0000ff; stroke: #0000ff"/>
     <use xlink:href="#m78812e4a21" x="91.802251" y="44.790852" style="fill: #0000ff; stroke: #0000ff"/>
     <use xlink:href="#m78812e4a21" x="96.511236" y="47.539943" style="fill: #0000ff; stroke: #0000ff"/>
     <use xlink:href="#m78812e4a21" x="101.215511" y="51.66358" style="fill: #0000ff; stroke: #0000ff"/>
     <use xlink:href="#m78812e4a21" x="105.919787" y="57.161761" style="fill: #0000ff; stroke: #0000ff"/>
     <use xlink:href="#m78812e4a21" x="110.624062" y="64.034489" style="fill: #0000ff; stroke: #0000ff"/>
     <use xlink:href="#m78812e4a21" x="115.323628" y="73.656307" style="fill: #0000ff; stroke: #0000ff"/>
     <use xlink:href="#m78812e4a21" x="120.023195" y="84.65267" style="fill: #0000ff; stroke: #0000ff"/>
     <use xlink:href="#m78812e4a21" x="124.72747" y="94.274489" style="fill: #0000ff; stroke: #0000ff"/>
     <use xlink:href="#m78812e4a21" x="129.427037" y="105.270852" style="fill: #0000ff; stroke: #0000ff"/>
     <use xlink:href="#m78812e4a21" x="134.126603" y="116.267216" style="fill: #0000ff; stroke: #0000ff"/>
     <use xlink:href="#m78812e4a21" x="138.826169" y="128.638125" style="fill: #0000ff; stroke: #0000ff"/>
     <use xlink:href="#m78812e4a21" x="143.525736" y="138.259943" style="fill: #0000ff; stroke: #0000ff"/>
     <use xlink:href="#m78812e4a21" x="148.225302" y="153.379943" style="fill: #0000ff; stroke: #0000ff"/>
     <use xlink:href="#m78812e4a21" x="152.92016" y="167.125398" style="fill: #0000ff; stroke: #0000ff"/>
     <use xlink:href="#m78812e4a21" x="157.619726" y="183.619943" style="fill: #0000ff; stroke: #0000ff"/>
     <use xlink:href="#m78812e4a21" x="162.314584" y="198.739943" style="fill: #0000ff; stroke: #0000ff"/>
     <use xlink:href="#m78812e4a21" x="167.009441" y="216.609034" style="fill: #0000ff; stroke: #0000ff"/>
     <use xlink:href="#m78812e4a21" x="171.704298" y="234.478125" style="fill: #0000ff; stroke: #0000ff"/>
     <use xlink:href="#m78812e4a21" x="176.399156" y="252.347216" style="fill: #0000ff; stroke: #0000ff"/>
     <use xlink:href="#m78812e4a21" x="181.094013" y="271.590852" style="fill: #0000ff; stroke: #0000ff"/>
     <use xlink:href="#m78812e4a21" x="185.788871" y="292.209034" style="fill: #0000ff; stroke: #0000ff"/>
     <use xlink:href="#m78812e4a21" x="190.479019" y="312.827216" style="fill: #0000ff; stroke: #0000ff"/>
     <use xlink:href="#m78812e4a21" x="195.173877" y="332.070852" style="fill: #0000ff; stroke: #0000ff"/>
     <use xlink:href="#m78812e4a21" x="199.878152" y="340.318125" style="fill: #0000ff; stroke: #0000ff"/>
     <use xlink:href="#m78812e4a21" x="204.596554" y="325.198125" style="fill: #0000ff; stroke: #0000ff"/>
     <use xlink:href="#m78812e4a21" x="209.314957" y="311.45267" style="fill: #0000ff; stroke: #0000ff"/>
     <use xlink:href="#m78812e4a21" x="214.038068" y="297.707216" style="fill: #0000ff; stroke: #0000ff"/>
     <use xlink:href="#m78812e4a21" x="218.75647" y="286.710852" style="fill: #0000ff; stroke: #0000ff"/>
     <use xlink:href="#m78812e4a21" x="223.470164" y="275.714489" style="fill: #0000ff; stroke: #0000ff"/>
     <use xlink:href="#m78812e4a21" x="228.188566" y="266.09267" style="fill: #0000ff; stroke: #0000ff"/>
     <use xlink:href="#m78812e4a21" x="232.90226" y="257.845398" style="fill: #0000ff; stroke: #0000ff"/>
     <use xlink:href="#m78812e4a21" x="237.615953" y="252.347216" style="fill: #0000ff; stroke: #0000ff"/>
     <use xlink:href="#m78812e4a21" x="242.329646" y="245.474489" style="fill: #0000ff; stroke: #0000ff"/>
     <use xlink:href="#m78812e4a21" x="247.04334" y="241.350852" style="fill: #0000ff; stroke: #0000ff"/>
     <use xlink:href="#m78812e4a21" x="251.757033" y="238.601761" style="fill: #0000ff; stroke: #0000ff"/>
     <use xlink:href="#m78812e4a21" x="256.466017" y="235.85267" style="fill: #0000ff; stroke: #0000ff"/>
     <use xlink:href="#m78812e4a21" x="261.175002" y="235.85267" style="fill: #0000ff; stroke: #0000ff"/>
     <use xlink:href="#m78812e4a21" x="265.883986" y="235.85267" style="fill: #0000ff; stroke: #0000ff"/>
     <use xlink:href="#m78812e4a21" x="270.592971" y="237.227216" style="fill: #0000ff; stroke: #0000ff"/>
     <use xlink:href="#m78812e4a21" x="275.301955" y="238.601761" style="fill: #0000ff; stroke: #0000ff"/>
     <use xlink:href="#m78812e4a21" x="280.00623" y="241.350852" style="fill: #0000ff; stroke: #0000ff"/>
     <use xlink:href="#m78812e4a21" x="284.710506" y="245.474489" style="fill: #0000ff; stroke: #0000ff"/>
     <use xlink:href="#m78812e4a21" x="289.41949" y="249.598125" style="fill: #0000ff; stroke: #0000ff"/>
     <use xlink:href="#m78812e4a21" x="294.123766" y="255.096307" style="fill: #0000ff; stroke: #0000ff"/>
     <use xlink:href="#m78812e4a21" x="298.828041" y="261.969034" style="fill: #0000ff; stroke: #0000ff"/>
     <use xlink:href="#m78812e4a21" x="303.532316" y="268.841761" style="fill: #0000ff; stroke: #0000ff"/>
     <use xlink:href="#m78812e4a21" x="308.231883" y="277.089034" style="fill: #0000ff; stroke: #0000ff"/>
     <use xlink:href="#m78812e4a21" x="312.936158" y="285.336307" style="fill: #0000ff; stroke: #0000ff"/>
     <use xlink:href="#m78812e4a21" x="317.635725" y="294.958125" style="fill: #0000ff; stroke: #0000ff"/>
     <use xlink:href="#m78812e4a21" x="322.335291" y="305.954489" style="fill: #0000ff; stroke: #0000ff"/>
     <use xlink:href="#m78812e4a21" x="327.034858" y="318.325398" style="fill: #0000ff; stroke: #0000ff"/>
     <use xlink:href="#m78812e4a21" x="331.739133" y="329.321761" style="fill: #0000ff; stroke: #0000ff"/>
     <use xlink:href="#m78812e4a21" x="336.438699" y="338.94358" style="fill: #0000ff; stroke: #0000ff"/>
     <use xlink:href="#m78812e4a21" x="341.152393" y="334.819943" style="fill: #0000ff; stroke: #0000ff"/>
     <use xlink:href="#m78812e4a21" x="345.866086" y="325.198125" style="fill: #0000ff; stroke: #0000ff"/>
     <use xlink:href="#m78812e4a21" x="350.584488" y="316.950852" style="fill: #0000ff; stroke: #0000ff"/>
     <use xlink:href="#m78812e4a21" x="355.298182" y="308.70358" style="fill: #0000ff; stroke: #0000ff"/>
     <use xlink:href="#m78812e4a21" x="360.011875" y="301.830852" style="fill: #0000ff; stroke: #0000ff"/>
     <use xlink:href="#m78812e4a21" x="364.725569" y="296.33267" style="fill: #0000ff; stroke: #0000ff"/>
     <use xlink:href="#m78812e4a21" x="369.439262" y="290.834489" style="fill: #0000ff; stroke: #0000ff"/>
     <use xlink:href="#m78812e4a21" x="374.148246" y="288.085398" style="fill: #0000ff; stroke: #0000ff"/>
     <use xlink:href="#m78812e4a21" x="378.86194" y="285.336307" style="fill: #0000ff; stroke: #0000ff"/>
     <use xlink:href="#m78812e4a21" x="383.570924" y="285.336307" style="fill: #0000ff; stroke: #0000ff"/>
     <use xlink:href="#m78812e4a21" x="388.279908" y="285.336307" style="fill: #0000ff; stroke: #0000ff"/>
     <use xlink:href="#m78812e4a21" x="392.988893" y="286.710852" style="fill: #0000ff; stroke: #0000ff"/>
     <use xlink:href="#m78812e4a21" x="397.693168" y="288.085398" style="fill: #0000ff; stroke: #0000ff"/>
     <use xlink:href="#m78812e4a21" x="402.402153" y="290.834489" style="fill: #0000ff; stroke: #0000ff"/>
     <use xlink:href="#m78812e4a21" x="407.106428" y="294.958125" style="fill: #0000ff; stroke: #0000ff"/>
     <use xlink:href="#m78812e4a21" x="411.810703" y="299.081761" style="fill: #0000ff; stroke: #0000ff"/>
     <use xlink:href="#m78812e4a21" x="416.514979" y="304.579943" style="fill: #0000ff; stroke: #0000ff"/>
     <use xlink:href="#m78812e4a21" x="421.219254" y="311.45267" style="fill: #0000ff; stroke: #0000ff"/>
     <use xlink:href="#m78812e4a21" x="425.92353" y="318.325398" style="fill: #0000ff; stroke: #0000ff"/>
     <use xlink:href="#m78812e4a21" x="430.627805" y="325.198125" style="fill: #0000ff; stroke: #0000ff"/>
     <use xlink:href="#m78812e4a21" x="435.33208" y="333.445398" style="fill: #0000ff; stroke: #0000ff"/>
     <use xlink:href="#m78812e4a21" x="440.036356" y="338.94358" style="fill: #0000ff; stroke: #0000ff"/>
     <use xlink:href="#m78812e4a21" x="444.750049" y="332.070852" style="fill: #0000ff; stroke: #0000ff"/>
     <use xlink:href="#m78812e4a21" x="449.463743" y="325.198125" style="fill: #0000ff; stroke: #0000ff"/>
     <use xlink:href="#m78812e4a21" x="454.177436" y="319.699943" style="fill: #0000ff; stroke: #0000ff"/>
     <use xlink:href="#m78812e4a21" x="458.891129" y="315.576307" style="fill: #0000ff; stroke: #0000ff"/>
     <use xlink:href="#m78812e4a21" x="463.600114" y="311.45267" style="fill: #0000ff; stroke: #0000ff"/>
     <use xlink:href="#m78812e4a21" x="468.313807" y="308.70358" style="fill: #0000ff; stroke: #0000ff"/>
     <use xlink:href="#m78812e4a21" x="473.022792" y="307.329034" style="fill: #0000ff; stroke: #0000ff"/>
     <use xlink:href="#m78812e4a21" x="477.731776" y="307.329034" style="fill: #0000ff; stroke: #0000ff"/>
     <use xlink:href="#m78812e4a21" x="482.44076" y="307.329034" style="fill: #0000ff; stroke: #0000ff"/>
     <use xlink:href="#m78812e4a21" x="487.149745" y="310.078125" style="fill: #0000ff; stroke: #0000ff"/>
     <use xlink:href="#m78812e4a21" x="491.85402" y="311.45267" style="fill: #0000ff; stroke: #0000ff"/>
     <use xlink:href="#m78812e4a21" x="496.563005" y="315.576307" style="fill: #0000ff; stroke: #0000ff"/>
     <use xlink:href="#m78812e4a21" x="501.26728" y="319.699943" style="fill: #0000ff; stroke: #0000ff"/>
     <use xlink:href="#m78812e4a21" x="505.971555" y="325.198125" style="fill: #0000ff; stroke: #0000ff"/>
     <use xlink:href="#m78812e4a21" x="510.675831" y="329.321761" style="fill: #0000ff; stroke: #0000ff"/>
     <use xlink:href="#m78812e4a21" x="515.380106" y="336.194489" style="fill: #0000ff; stroke: #0000ff"/>
     <use xlink:href="#m78812e4a21" x="520.089091" y="337.569034" style="fill: #0000ff; stroke: #0000ff"/>
     <use xlink:href="#m78812e4a21" x="524.802784" y="332.070852" style="fill: #0000ff; stroke: #0000ff"/>
     <use xlink:href="#m78812e4a21" x="529.516477" y="326.57267" style="fill: #0000ff; stroke: #0000ff"/>
    </g>
   </g>
   <g id="matplotlib.axis_1">
    <g id="xtick_1">
     <g id="line2d_1">
      <path d="M 72.712029 355.438125 
L 72.712029 22.798125 
" clip-path="url(#p4efd70e679)" style="fill: none; stroke: #b0b0b0; stroke-opacity: 0.3; stroke-width: 0.8; stroke-linecap: square"/>
     </g>
     <g id="line2d_2">
      <defs>
       <path id="mdaad460299" d="M 0 0 
L 0 3.5 
" style="stroke: #000000; stroke-width: 0.8"/>
      </defs>
      <g>
       <use xlink:href="#mdaad460299" x="72.712029" y="355.438125" style="stroke: #000000; stroke-width: 0.8"/>
      </g>
     </g>
     <g id="text_1">
      <!-- 0 -->
      <g transform="translate(69.530779 370.036562) scale(0.1 -0.1)">
       <defs>
        <path id="DejaVuSans-30" d="M 2034 4250 
Q 1547 4250 1301 3770 
Q 1056 3291 1056 2328 
Q 1056 1369 1301 889 
Q 1547 409 2034 409 
Q 2525 409 2770 889 
Q 3016 1369 3016 2328 
Q 3016 3291 2770 3770 
Q 2525 4250 2034 4250 
z
M 2034 4750 
Q 2819 4750 3233 4129 
Q 3647 3509 3647 2328 
Q 3647 1150 3233 529 
Q 2819 -91 2034 -91 
Q 1250 -91 836 529 
Q 422 1150 422 2328 
Q 422 3509 836 4129 
Q 1250 4750 2034 4750 
z
" transform="scale(0.015625)"/>
       </defs>
       <use xlink:href="#DejaVuSans-30"/>
      </g>
     </g>
    </g>
    <g id="xtick_2">
     <g id="line2d_3">
      <path d="M 166.891716 355.438125 
L 166.891716 22.798125 
" clip-path="url(#p4efd70e679)" style="fill: none; stroke: #b0b0b0; stroke-opacity: 0.3; stroke-width: 0.8; stroke-linecap: square"/>
     </g>
     <g id="line2d_4">
      <g>
       <use xlink:href="#mdaad460299" x="166.891716" y="355.438125" style="stroke: #000000; stroke-width: 0.8"/>
      </g>
     </g>
     <g id="text_2">
      <!-- 2 -->
      <g transform="translate(163.710466 370.036562) scale(0.1 -0.1)">
       <defs>
        <path id="DejaVuSans-32" d="M 1228 531 
L 3431 531 
L 3431 0 
L 469 0 
L 469 531 
Q 828 903 1448 1529 
Q 2069 2156 2228 2338 
Q 2531 2678 2651 2914 
Q 2772 3150 2772 3378 
Q 2772 3750 2511 3984 
Q 2250 4219 1831 4219 
Q 1534 4219 1204 4116 
Q 875 4013 500 3803 
L 500 4441 
Q 881 4594 1212 4672 
Q 1544 4750 1819 4750 
Q 2544 4750 2975 4387 
Q 3406 4025 3406 3419 
Q 3406 3131 3298 2873 
Q 3191 2616 2906 2266 
Q 2828 2175 2409 1742 
Q 1991 1309 1228 531 
z
" transform="scale(0.015625)"/>
       </defs>
       <use xlink:href="#DejaVuSans-32"/>
      </g>
     </g>
    </g>
    <g id="xtick_3">
     <g id="line2d_5">
      <path d="M 261.071404 355.438125 
L 261.071404 22.798125 
" clip-path="url(#p4efd70e679)" style="fill: none; stroke: #b0b0b0; stroke-opacity: 0.3; stroke-width: 0.8; stroke-linecap: square"/>
     </g>
     <g id="line2d_6">
      <g>
       <use xlink:href="#mdaad460299" x="261.071404" y="355.438125" style="stroke: #000000; stroke-width: 0.8"/>
      </g>
     </g>
     <g id="text_3">
      <!-- 4 -->
      <g transform="translate(257.890154 370.036562) scale(0.1 -0.1)">
       <defs>
        <path id="DejaVuSans-34" d="M 2419 4116 
L 825 1625 
L 2419 1625 
L 2419 4116 
z
M 2253 4666 
L 3047 4666 
L 3047 1625 
L 3713 1625 
L 3713 1100 
L 3047 1100 
L 3047 0 
L 2419 0 
L 2419 1100 
L 313 1100 
L 313 1709 
L 2253 4666 
z
" transform="scale(0.015625)"/>
       </defs>
       <use xlink:href="#DejaVuSans-34"/>
      </g>
     </g>
    </g>
    <g id="xtick_4">
     <g id="line2d_7">
      <path d="M 355.251092 355.438125 
L 355.251092 22.798125 
" clip-path="url(#p4efd70e679)" style="fill: none; stroke: #b0b0b0; stroke-opacity: 0.3; stroke-width: 0.8; stroke-linecap: square"/>
     </g>
     <g id="line2d_8">
      <g>
       <use xlink:href="#mdaad460299" x="355.251092" y="355.438125" style="stroke: #000000; stroke-width: 0.8"/>
      </g>
     </g>
     <g id="text_4">
      <!-- 6 -->
      <g transform="translate(352.069842 370.036562) scale(0.1 -0.1)">
       <defs>
        <path id="DejaVuSans-36" d="M 2113 2584 
Q 1688 2584 1439 2293 
Q 1191 2003 1191 1497 
Q 1191 994 1439 701 
Q 1688 409 2113 409 
Q 2538 409 2786 701 
Q 3034 994 3034 1497 
Q 3034 2003 2786 2293 
Q 2538 2584 2113 2584 
z
M 3366 4563 
L 3366 3988 
Q 3128 4100 2886 4159 
Q 2644 4219 2406 4219 
Q 1781 4219 1451 3797 
Q 1122 3375 1075 2522 
Q 1259 2794 1537 2939 
Q 1816 3084 2150 3084 
Q 2853 3084 3261 2657 
Q 3669 2231 3669 1497 
Q 3669 778 3244 343 
Q 2819 -91 2113 -91 
Q 1303 -91 875 529 
Q 447 1150 447 2328 
Q 447 3434 972 4092 
Q 1497 4750 2381 4750 
Q 2619 4750 2861 4703 
Q 3103 4656 3366 4563 
z
" transform="scale(0.015625)"/>
       </defs>
       <use xlink:href="#DejaVuSans-36"/>
      </g>
     </g>
    </g>
    <g id="xtick_5">
     <g id="line2d_9">
      <path d="M 449.43078 355.438125 
L 449.43078 22.798125 
" clip-path="url(#p4efd70e679)" style="fill: none; stroke: #b0b0b0; stroke-opacity: 0.3; stroke-width: 0.8; stroke-linecap: square"/>
     </g>
     <g id="line2d_10">
      <g>
       <use xlink:href="#mdaad460299" x="449.43078" y="355.438125" style="stroke: #000000; stroke-width: 0.8"/>
      </g>
     </g>
     <g id="text_5">
      <!-- 8 -->
      <g transform="translate(446.24953 370.036562) scale(0.1 -0.1)">
       <defs>
        <path id="DejaVuSans-38" d="M 2034 2216 
Q 1584 2216 1326 1975 
Q 1069 1734 1069 1313 
Q 1069 891 1326 650 
Q 1584 409 2034 409 
Q 2484 409 2743 651 
Q 3003 894 3003 1313 
Q 3003 1734 2745 1975 
Q 2488 2216 2034 2216 
z
M 1403 2484 
Q 997 2584 770 2862 
Q 544 3141 544 3541 
Q 544 4100 942 4425 
Q 1341 4750 2034 4750 
Q 2731 4750 3128 4425 
Q 3525 4100 3525 3541 
Q 3525 3141 3298 2862 
Q 3072 2584 2669 2484 
Q 3125 2378 3379 2068 
Q 3634 1759 3634 1313 
Q 3634 634 3220 271 
Q 2806 -91 2034 -91 
Q 1263 -91 848 271 
Q 434 634 434 1313 
Q 434 1759 690 2068 
Q 947 2378 1403 2484 
z
M 1172 3481 
Q 1172 3119 1398 2916 
Q 1625 2713 2034 2713 
Q 2441 2713 2670 2916 
Q 2900 3119 2900 3481 
Q 2900 3844 2670 4047 
Q 2441 4250 2034 4250 
Q 1625 4250 1398 4047 
Q 1172 3844 1172 3481 
z
" transform="scale(0.015625)"/>
       </defs>
       <use xlink:href="#DejaVuSans-38"/>
      </g>
     </g>
    </g>
    <g id="xtick_6">
     <g id="line2d_11">
      <path d="M 543.610468 355.438125 
L 543.610468 22.798125 
" clip-path="url(#p4efd70e679)" style="fill: none; stroke: #b0b0b0; stroke-opacity: 0.3; stroke-width: 0.8; stroke-linecap: square"/>
     </g>
     <g id="line2d_12">
      <g>
       <use xlink:href="#mdaad460299" x="543.610468" y="355.438125" style="stroke: #000000; stroke-width: 0.8"/>
      </g>
     </g>
     <g id="text_6">
      <!-- 10 -->
      <g transform="translate(537.247968 370.036562) scale(0.1 -0.1)">
       <defs>
        <path id="DejaVuSans-31" d="M 794 531 
L 1825 531 
L 1825 4091 
L 703 3866 
L 703 4441 
L 1819 4666 
L 2450 4666 
L 2450 531 
L 3481 531 
L 3481 0 
L 794 0 
L 794 531 
z
" transform="scale(0.015625)"/>
       </defs>
       <use xlink:href="#DejaVuSans-31"/>
       <use xlink:href="#DejaVuSans-30" transform="translate(63.623047 0)"/>
      </g>
     </g>
    </g>
    <g id="text_7">
     <!-- t [s] -->
     <g transform="translate(291.188281 383.714687) scale(0.1 -0.1)">
      <defs>
       <path id="DejaVuSans-74" d="M 1172 4494 
L 1172 3500 
L 2356 3500 
L 2356 3053 
L 1172 3053 
L 1172 1153 
Q 1172 725 1289 603 
Q 1406 481 1766 481 
L 2356 481 
L 2356 0 
L 1766 0 
Q 1100 0 847 248 
Q 594 497 594 1153 
L 594 3053 
L 172 3053 
L 172 3500 
L 594 3500 
L 594 4494 
L 1172 4494 
z
" transform="scale(0.015625)"/>
       <path id="DejaVuSans-20" transform="scale(0.015625)"/>
       <path id="DejaVuSans-5b" d="M 550 4863 
L 1875 4863 
L 1875 4416 
L 1125 4416 
L 1125 -397 
L 1875 -397 
L 1875 -844 
L 550 -844 
L 550 4863 
z
" transform="scale(0.015625)"/>
       <path id="DejaVuSans-73" d="M 2834 3397 
L 2834 2853 
Q 2591 2978 2328 3040 
Q 2066 3103 1784 3103 
Q 1356 3103 1142 2972 
Q 928 2841 928 2578 
Q 928 2378 1081 2264 
Q 1234 2150 1697 2047 
L 1894 2003 
Q 2506 1872 2764 1633 
Q 3022 1394 3022 966 
Q 3022 478 2636 193 
Q 2250 -91 1575 -91 
Q 1294 -91 989 -36 
Q 684 19 347 128 
L 347 722 
Q 666 556 975 473 
Q 1284 391 1588 391 
Q 1994 391 2212 530 
Q 2431 669 2431 922 
Q 2431 1156 2273 1281 
Q 2116 1406 1581 1522 
L 1381 1569 
Q 847 1681 609 1914 
Q 372 2147 372 2553 
Q 372 3047 722 3315 
Q 1072 3584 1716 3584 
Q 2034 3584 2315 3537 
Q 2597 3491 2834 3397 
z
" transform="scale(0.015625)"/>
       <path id="DejaVuSans-5d" d="M 1947 4863 
L 1947 -844 
L 622 -844 
L 622 -397 
L 1369 -397 
L 1369 4416 
L 622 4416 
L 622 4863 
L 1947 4863 
z
" transform="scale(0.015625)"/>
      </defs>
      <use xlink:href="#DejaVuSans-74"/>
      <use xlink:href="#DejaVuSans-20" transform="translate(39.208984 0)"/>
      <use xlink:href="#DejaVuSans-5b" transform="translate(70.996094 0)"/>
      <use xlink:href="#DejaVuSans-73" transform="translate(110.009766 0)"/>
      <use xlink:href="#DejaVuSans-5d" transform="translate(162.109375 0)"/>
     </g>
    </g>
   </g>
   <g id="matplotlib.axis_2">
    <g id="ytick_1">
     <g id="line2d_13">
      <path d="M 50.14375 299.081761 
L 552.34375 299.081761 
" clip-path="url(#p4efd70e679)" style="fill: none; stroke: #b0b0b0; stroke-opacity: 0.3; stroke-width: 0.8; stroke-linecap: square"/>
     </g>
     <g id="line2d_14">
      <defs>
       <path id="me9ef960781" d="M 0 0 
L -3.5 0 
" style="stroke: #000000; stroke-width: 0.8"/>
      </defs>
      <g>
       <use xlink:href="#me9ef960781" x="50.14375" y="299.081761" style="stroke: #000000; stroke-width: 0.8"/>
      </g>
     </g>
     <g id="text_8">
      <!-- 0.05 -->
      <g transform="translate(20.878125 302.88098) scale(0.1 -0.1)">
       <defs>
        <path id="DejaVuSans-2e" d="M 684 794 
L 1344 794 
L 1344 0 
L 684 0 
L 684 794 
z
" transform="scale(0.015625)"/>
        <path id="DejaVuSans-35" d="M 691 4666 
L 3169 4666 
L 3169 4134 
L 1269 4134 
L 1269 2991 
Q 1406 3038 1543 3061 
Q 1681 3084 1819 3084 
Q 2600 3084 3056 2656 
Q 3513 2228 3513 1497 
Q 3513 744 3044 326 
Q 2575 -91 1722 -91 
Q 1428 -91 1123 -41 
Q 819 9 494 109 
L 494 744 
Q 775 591 1075 516 
Q 1375 441 1709 441 
Q 2250 441 2565 725 
Q 2881 1009 2881 1497 
Q 2881 1984 2565 2268 
Q 2250 2553 1709 2553 
Q 1456 2553 1204 2497 
Q 953 2441 691 2322 
L 691 4666 
z
" transform="scale(0.015625)"/>
       </defs>
       <use xlink:href="#DejaVuSans-30"/>
       <use xlink:href="#DejaVuSans-2e" transform="translate(63.623047 0)"/>
       <use xlink:href="#DejaVuSans-30" transform="translate(95.410156 0)"/>
       <use xlink:href="#DejaVuSans-35" transform="translate(159.033203 0)"/>
      </g>
     </g>
    </g>
    <g id="ytick_2">
     <g id="line2d_15">
      <path d="M 50.14375 230.354489 
L 552.34375 230.354489 
" clip-path="url(#p4efd70e679)" style="fill: none; stroke: #b0b0b0; stroke-opacity: 0.3; stroke-width: 0.8; stroke-linecap: square"/>
     </g>
     <g id="line2d_16">
      <g>
       <use xlink:href="#me9ef960781" x="50.14375" y="230.354489" style="stroke: #000000; stroke-width: 0.8"/>
      </g>
     </g>
     <g id="text_9">
      <!-- 0.10 -->
      <g transform="translate(20.878125 234.153707) scale(0.1 -0.1)">
       <use xlink:href="#DejaVuSans-30"/>
       <use xlink:href="#DejaVuSans-2e" transform="translate(63.623047 0)"/>
       <use xlink:href="#DejaVuSans-31" transform="translate(95.410156 0)"/>
       <use xlink:href="#DejaVuSans-30" transform="translate(159.033203 0)"/>
      </g>
     </g>
    </g>
    <g id="ytick_3">
     <g id="line2d_17">
      <path d="M 50.14375 161.627216 
L 552.34375 161.627216 
" clip-path="url(#p4efd70e679)" style="fill: none; stroke: #b0b0b0; stroke-opacity: 0.3; stroke-width: 0.8; stroke-linecap: square"/>
     </g>
     <g id="line2d_18">
      <g>
       <use xlink:href="#me9ef960781" x="50.14375" y="161.627216" style="stroke: #000000; stroke-width: 0.8"/>
      </g>
     </g>
     <g id="text_10">
      <!-- 0.15 -->
      <g transform="translate(20.878125 165.426435) scale(0.1 -0.1)">
       <use xlink:href="#DejaVuSans-30"/>
       <use xlink:href="#DejaVuSans-2e" transform="translate(63.623047 0)"/>
       <use xlink:href="#DejaVuSans-31" transform="translate(95.410156 0)"/>
       <use xlink:href="#DejaVuSans-35" transform="translate(159.033203 0)"/>
      </g>
     </g>
    </g>
    <g id="ytick_4">
     <g id="line2d_19">
      <path d="M 50.14375 92.899943 
L 552.34375 92.899943 
" clip-path="url(#p4efd70e679)" style="fill: none; stroke: #b0b0b0; stroke-opacity: 0.3; stroke-width: 0.8; stroke-linecap: square"/>
     </g>
     <g id="line2d_20">
      <g>
       <use xlink:href="#me9ef960781" x="50.14375" y="92.899943" style="stroke: #000000; stroke-width: 0.8"/>
      </g>
     </g>
     <g id="text_11">
      <!-- 0.20 -->
      <g transform="translate(20.878125 96.699162) scale(0.1 -0.1)">
       <use xlink:href="#DejaVuSans-30"/>
       <use xlink:href="#DejaVuSans-2e" transform="translate(63.623047 0)"/>
       <use xlink:href="#DejaVuSans-32" transform="translate(95.410156 0)"/>
       <use xlink:href="#DejaVuSans-30" transform="translate(159.033203 0)"/>
      </g>
     </g>
    </g>
    <g id="ytick_5">
     <g id="line2d_21">
      <path d="M 50.14375 24.17267 
L 552.34375 24.17267 
" clip-path="url(#p4efd70e679)" style="fill: none; stroke: #b0b0b0; stroke-opacity: 0.3; stroke-width: 0.8; stroke-linecap: square"/>
     </g>
     <g id="line2d_22">
      <g>
       <use xlink:href="#me9ef960781" x="50.14375" y="24.17267" style="stroke: #000000; stroke-width: 0.8"/>
      </g>
     </g>
     <g id="text_12">
      <!-- 0.25 -->
      <g transform="translate(20.878125 27.971889) scale(0.1 -0.1)">
       <use xlink:href="#DejaVuSans-30"/>
       <use xlink:href="#DejaVuSans-2e" transform="translate(63.623047 0)"/>
       <use xlink:href="#DejaVuSans-32" transform="translate(95.410156 0)"/>
       <use xlink:href="#DejaVuSans-35" transform="translate(159.033203 0)"/>
      </g>
     </g>
    </g>
    <g id="text_13">
     <!-- U [J] -->
     <g transform="translate(14.798437 199.743125) rotate(-90) scale(0.1 -0.1)">
      <defs>
       <path id="DejaVuSans-55" d="M 556 4666 
L 1191 4666 
L 1191 1831 
Q 1191 1081 1462 751 
Q 1734 422 2344 422 
Q 2950 422 3222 751 
Q 3494 1081 3494 1831 
L 3494 4666 
L 4128 4666 
L 4128 1753 
Q 4128 841 3676 375 
Q 3225 -91 2344 -91 
Q 1459 -91 1007 375 
Q 556 841 556 1753 
L 556 4666 
z
" transform="scale(0.015625)"/>
       <path id="DejaVuSans-4a" d="M 628 4666 
L 1259 4666 
L 1259 325 
Q 1259 -519 939 -900 
Q 619 -1281 -91 -1281 
L -331 -1281 
L -331 -750 
L -134 -750 
Q 284 -750 456 -515 
Q 628 -281 628 325 
L 628 4666 
z
" transform="scale(0.015625)"/>
      </defs>
      <use xlink:href="#DejaVuSans-55"/>
      <use xlink:href="#DejaVuSans-20" transform="translate(73.193359 0)"/>
      <use xlink:href="#DejaVuSans-5b" transform="translate(104.980469 0)"/>
      <use xlink:href="#DejaVuSans-4a" transform="translate(143.994141 0)"/>
      <use xlink:href="#DejaVuSans-5d" transform="translate(173.486328 0)"/>
     </g>
    </g>
   </g>
   <g id="patch_3">
    <path d="M 50.14375 355.438125 
L 50.14375 22.798125 
" style="fill: none; stroke: #000000; stroke-width: 0.8; stroke-linejoin: miter; stroke-linecap: square"/>
   </g>
   <g id="patch_4">
    <path d="M 552.34375 355.438125 
L 552.34375 22.798125 
" style="fill: none; stroke: #000000; stroke-width: 0.8; stroke-linejoin: miter; stroke-linecap: square"/>
   </g>
   <g id="patch_5">
    <path d="M 50.14375 355.438125 
L 552.34375 355.438125 
" style="fill: none; stroke: #000000; stroke-width: 0.8; stroke-linejoin: miter; stroke-linecap: square"/>
   </g>
   <g id="patch_6">
    <path d="M 50.14375 22.798125 
L 552.34375 22.798125 
" style="fill: none; stroke: #000000; stroke-width: 0.8; stroke-linejoin: miter; stroke-linecap: square"/>
   </g>
   <g id="text_14">
    <!-- Měření potenciální energie U vozíček č. 1 -->
    <g transform="translate(177.700937 16.798125) scale(0.12 -0.12)">
     <defs>
      <path id="DejaVuSans-4d" d="M 628 4666 
L 1569 4666 
L 2759 1491 
L 3956 4666 
L 4897 4666 
L 4897 0 
L 4281 0 
L 4281 4097 
L 3078 897 
L 2444 897 
L 1241 4097 
L 1241 0 
L 628 0 
L 628 4666 
z
" transform="scale(0.015625)"/>
      <path id="DejaVuSans-11b" d="M 3597 1894 
L 3597 1613 
L 953 1613 
Q 991 1019 1311 708 
Q 1631 397 2203 397 
Q 2534 397 2845 478 
Q 3156 559 3463 722 
L 3463 178 
Q 3153 47 2828 -22 
Q 2503 -91 2169 -91 
Q 1331 -91 842 396 
Q 353 884 353 1716 
Q 353 2575 817 3079 
Q 1281 3584 2069 3584 
Q 2775 3584 3186 3129 
Q 3597 2675 3597 1894 
z
M 3022 2063 
Q 3016 2534 2758 2815 
Q 2500 3097 2075 3097 
Q 1594 3097 1305 2825 
Q 1016 2553 972 2059 
L 3022 2063 
z
M 1833 3944 
L 1067 5119 
L 1502 5119 
L 2064 4353 
L 2627 5119 
L 3061 5119 
L 2295 3944 
L 1833 3944 
z
" transform="scale(0.015625)"/>
      <path id="DejaVuSans-159" d="M 2631 2963 
Q 2534 3019 2420 3045 
Q 2306 3072 2169 3072 
Q 1681 3072 1420 2755 
Q 1159 2438 1159 1844 
L 1159 0 
L 581 0 
L 581 3500 
L 1159 3500 
L 1159 2956 
Q 1341 3275 1631 3429 
Q 1922 3584 2338 3584 
Q 2397 3584 2469 3576 
Q 2541 3569 2628 3553 
L 2631 2963 
z
M 1457 3944 
L 691 5119 
L 1126 5119 
L 1688 4353 
L 2251 5119 
L 2685 5119 
L 1919 3944 
L 1457 3944 
z
" transform="scale(0.015625)"/>
      <path id="DejaVuSans-65" d="M 3597 1894 
L 3597 1613 
L 953 1613 
Q 991 1019 1311 708 
Q 1631 397 2203 397 
Q 2534 397 2845 478 
Q 3156 559 3463 722 
L 3463 178 
Q 3153 47 2828 -22 
Q 2503 -91 2169 -91 
Q 1331 -91 842 396 
Q 353 884 353 1716 
Q 353 2575 817 3079 
Q 1281 3584 2069 3584 
Q 2775 3584 3186 3129 
Q 3597 2675 3597 1894 
z
M 3022 2063 
Q 3016 2534 2758 2815 
Q 2500 3097 2075 3097 
Q 1594 3097 1305 2825 
Q 1016 2553 972 2059 
L 3022 2063 
z
" transform="scale(0.015625)"/>
      <path id="DejaVuSans-6e" d="M 3513 2113 
L 3513 0 
L 2938 0 
L 2938 2094 
Q 2938 2591 2744 2837 
Q 2550 3084 2163 3084 
Q 1697 3084 1428 2787 
Q 1159 2491 1159 1978 
L 1159 0 
L 581 0 
L 581 3500 
L 1159 3500 
L 1159 2956 
Q 1366 3272 1645 3428 
Q 1925 3584 2291 3584 
Q 2894 3584 3203 3211 
Q 3513 2838 3513 2113 
z
" transform="scale(0.015625)"/>
      <path id="DejaVuSans-ed" d="M 1322 5119 
L 1944 5119 
L 926 3944 
L 447 3944 
L 1322 5119 
z
M 603 3500 
L 1178 3500 
L 1178 0 
L 603 0 
L 603 3500 
z
M 891 3584 
L 891 3584 
z
" transform="scale(0.015625)"/>
      <path id="DejaVuSans-70" d="M 1159 525 
L 1159 -1331 
L 581 -1331 
L 581 3500 
L 1159 3500 
L 1159 2969 
Q 1341 3281 1617 3432 
Q 1894 3584 2278 3584 
Q 2916 3584 3314 3078 
Q 3713 2572 3713 1747 
Q 3713 922 3314 415 
Q 2916 -91 2278 -91 
Q 1894 -91 1617 61 
Q 1341 213 1159 525 
z
M 3116 1747 
Q 3116 2381 2855 2742 
Q 2594 3103 2138 3103 
Q 1681 3103 1420 2742 
Q 1159 2381 1159 1747 
Q 1159 1113 1420 752 
Q 1681 391 2138 391 
Q 2594 391 2855 752 
Q 3116 1113 3116 1747 
z
" transform="scale(0.015625)"/>
      <path id="DejaVuSans-6f" d="M 1959 3097 
Q 1497 3097 1228 2736 
Q 959 2375 959 1747 
Q 959 1119 1226 758 
Q 1494 397 1959 397 
Q 2419 397 2687 759 
Q 2956 1122 2956 1747 
Q 2956 2369 2687 2733 
Q 2419 3097 1959 3097 
z
M 1959 3584 
Q 2709 3584 3137 3096 
Q 3566 2609 3566 1747 
Q 3566 888 3137 398 
Q 2709 -91 1959 -91 
Q 1206 -91 779 398 
Q 353 888 353 1747 
Q 353 2609 779 3096 
Q 1206 3584 1959 3584 
z
" transform="scale(0.015625)"/>
      <path id="DejaVuSans-63" d="M 3122 3366 
L 3122 2828 
Q 2878 2963 2633 3030 
Q 2388 3097 2138 3097 
Q 1578 3097 1268 2742 
Q 959 2388 959 1747 
Q 959 1106 1268 751 
Q 1578 397 2138 397 
Q 2388 397 2633 464 
Q 2878 531 3122 666 
L 3122 134 
Q 2881 22 2623 -34 
Q 2366 -91 2075 -91 
Q 1284 -91 818 406 
Q 353 903 353 1747 
Q 353 2603 823 3093 
Q 1294 3584 2113 3584 
Q 2378 3584 2631 3529 
Q 2884 3475 3122 3366 
z
" transform="scale(0.015625)"/>
      <path id="DejaVuSans-69" d="M 603 3500 
L 1178 3500 
L 1178 0 
L 603 0 
L 603 3500 
z
M 603 4863 
L 1178 4863 
L 1178 4134 
L 603 4134 
L 603 4863 
z
" transform="scale(0.015625)"/>
      <path id="DejaVuSans-e1" d="M 2194 1759 
Q 1497 1759 1228 1600 
Q 959 1441 959 1056 
Q 959 750 1161 570 
Q 1363 391 1709 391 
Q 2188 391 2477 730 
Q 2766 1069 2766 1631 
L 2766 1759 
L 2194 1759 
z
M 3341 1997 
L 3341 0 
L 2766 0 
L 2766 531 
Q 2569 213 2275 61 
Q 1981 -91 1556 -91 
Q 1019 -91 701 211 
Q 384 513 384 1019 
Q 384 1609 779 1909 
Q 1175 2209 1959 2209 
L 2766 2209 
L 2766 2266 
Q 2766 2663 2505 2880 
Q 2244 3097 1772 3097 
Q 1472 3097 1187 3025 
Q 903 2953 641 2809 
L 641 3341 
Q 956 3463 1253 3523 
Q 1550 3584 1831 3584 
Q 2591 3584 2966 3190 
Q 3341 2797 3341 1997 
z
M 2290 5119 
L 2912 5119 
L 1894 3944 
L 1415 3944 
L 2290 5119 
z
" transform="scale(0.015625)"/>
      <path id="DejaVuSans-6c" d="M 603 4863 
L 1178 4863 
L 1178 0 
L 603 0 
L 603 4863 
z
" transform="scale(0.015625)"/>
      <path id="DejaVuSans-72" d="M 2631 2963 
Q 2534 3019 2420 3045 
Q 2306 3072 2169 3072 
Q 1681 3072 1420 2755 
Q 1159 2438 1159 1844 
L 1159 0 
L 581 0 
L 581 3500 
L 1159 3500 
L 1159 2956 
Q 1341 3275 1631 3429 
Q 1922 3584 2338 3584 
Q 2397 3584 2469 3576 
Q 2541 3569 2628 3553 
L 2631 2963 
z
" transform="scale(0.015625)"/>
      <path id="DejaVuSans-67" d="M 2906 1791 
Q 2906 2416 2648 2759 
Q 2391 3103 1925 3103 
Q 1463 3103 1205 2759 
Q 947 2416 947 1791 
Q 947 1169 1205 825 
Q 1463 481 1925 481 
Q 2391 481 2648 825 
Q 2906 1169 2906 1791 
z
M 3481 434 
Q 3481 -459 3084 -895 
Q 2688 -1331 1869 -1331 
Q 1566 -1331 1297 -1286 
Q 1028 -1241 775 -1147 
L 775 -588 
Q 1028 -725 1275 -790 
Q 1522 -856 1778 -856 
Q 2344 -856 2625 -561 
Q 2906 -266 2906 331 
L 2906 616 
Q 2728 306 2450 153 
Q 2172 0 1784 0 
Q 1141 0 747 490 
Q 353 981 353 1791 
Q 353 2603 747 3093 
Q 1141 3584 1784 3584 
Q 2172 3584 2450 3431 
Q 2728 3278 2906 2969 
L 2906 3500 
L 3481 3500 
L 3481 434 
z
" transform="scale(0.015625)"/>
      <path id="DejaVuSans-76" d="M 191 3500 
L 800 3500 
L 1894 563 
L 2988 3500 
L 3597 3500 
L 2284 0 
L 1503 0 
L 191 3500 
z
" transform="scale(0.015625)"/>
      <path id="DejaVuSans-7a" d="M 353 3500 
L 3084 3500 
L 3084 2975 
L 922 459 
L 3084 459 
L 3084 0 
L 275 0 
L 275 525 
L 2438 3041 
L 353 3041 
L 353 3500 
z
" transform="scale(0.015625)"/>
      <path id="DejaVuSans-10d" d="M 3122 3366 
L 3122 2828 
Q 2878 2963 2633 3030 
Q 2388 3097 2138 3097 
Q 1578 3097 1268 2742 
Q 959 2388 959 1747 
Q 959 1106 1268 751 
Q 1578 397 2138 397 
Q 2388 397 2633 464 
Q 2878 531 3122 666 
L 3122 134 
Q 2881 22 2623 -34 
Q 2366 -91 2075 -91 
Q 1284 -91 818 406 
Q 353 903 353 1747 
Q 353 2603 823 3093 
Q 1294 3584 2113 3584 
Q 2378 3584 2631 3529 
Q 2884 3475 3122 3366 
z
M 1801 3944 
L 1035 5119 
L 1470 5119 
L 2032 4353 
L 2595 5119 
L 3029 5119 
L 2263 3944 
L 1801 3944 
z
" transform="scale(0.015625)"/>
      <path id="DejaVuSans-6b" d="M 581 4863 
L 1159 4863 
L 1159 1991 
L 2875 3500 
L 3609 3500 
L 1753 1863 
L 3688 0 
L 2938 0 
L 1159 1709 
L 1159 0 
L 581 0 
L 581 4863 
z
" transform="scale(0.015625)"/>
     </defs>
     <use xlink:href="#DejaVuSans-4d"/>
     <use xlink:href="#DejaVuSans-11b" transform="translate(86.279297 0)"/>
     <use xlink:href="#DejaVuSans-159" transform="translate(147.802734 0)"/>
     <use xlink:href="#DejaVuSans-65" transform="translate(186.666016 0)"/>
     <use xlink:href="#DejaVuSans-6e" transform="translate(248.189453 0)"/>
     <use xlink:href="#DejaVuSans-ed" transform="translate(311.568359 0)"/>
     <use xlink:href="#DejaVuSans-20" transform="translate(339.351562 0)"/>
     <use xlink:href="#DejaVuSans-70" transform="translate(371.138672 0)"/>
     <use xlink:href="#DejaVuSans-6f" transform="translate(434.615234 0)"/>
     <use xlink:href="#DejaVuSans-74" transform="translate(495.796875 0)"/>
     <use xlink:href="#DejaVuSans-65" transform="translate(535.005859 0)"/>
     <use xlink:href="#DejaVuSans-6e" transform="translate(596.529297 0)"/>
     <use xlink:href="#DejaVuSans-63" transform="translate(659.908203 0)"/>
     <use xlink:href="#DejaVuSans-69" transform="translate(714.888672 0)"/>
     <use xlink:href="#DejaVuSans-e1" transform="translate(742.671875 0)"/>
     <use xlink:href="#DejaVuSans-6c" transform="translate(803.951172 0)"/>
     <use xlink:href="#DejaVuSans-6e" transform="translate(831.734375 0)"/>
     <use xlink:href="#DejaVuSans-ed" transform="translate(895.113281 0)"/>
     <use xlink:href="#DejaVuSans-20" transform="translate(922.896484 0)"/>
     <use xlink:href="#DejaVuSans-65" transform="translate(954.683594 0)"/>
     <use xlink:href="#DejaVuSans-6e" transform="translate(1016.207031 0)"/>
     <use xlink:href="#DejaVuSans-65" transform="translate(1079.585938 0)"/>
     <use xlink:href="#DejaVuSans-72" transform="translate(1141.109375 0)"/>
     <use xlink:href="#DejaVuSans-67" transform="translate(1180.472656 0)"/>
     <use xlink:href="#DejaVuSans-69" transform="translate(1243.949219 0)"/>
     <use xlink:href="#DejaVuSans-65" transform="translate(1271.732422 0)"/>
     <use xlink:href="#DejaVuSans-20" transform="translate(1333.255859 0)"/>
     <use xlink:href="#DejaVuSans-55" transform="translate(1365.042969 0)"/>
     <use xlink:href="#DejaVuSans-20" transform="translate(1438.236328 0)"/>
     <use xlink:href="#DejaVuSans-76" transform="translate(1470.023438 0)"/>
     <use xlink:href="#DejaVuSans-6f" transform="translate(1529.203125 0)"/>
     <use xlink:href="#DejaVuSans-7a" transform="translate(1590.384766 0)"/>
     <use xlink:href="#DejaVuSans-ed" transform="translate(1642.875 0)"/>
     <use xlink:href="#DejaVuSans-10d" transform="translate(1670.658203 0)"/>
     <use xlink:href="#DejaVuSans-65" transform="translate(1725.638672 0)"/>
     <use xlink:href="#DejaVuSans-6b" transform="translate(1787.162109 0)"/>
     <use xlink:href="#DejaVuSans-20" transform="translate(1845.072266 0)"/>
     <use xlink:href="#DejaVuSans-10d" transform="translate(1876.859375 0)"/>
     <use xlink:href="#DejaVuSans-2e" transform="translate(1931.839844 0)"/>
     <use xlink:href="#DejaVuSans-20" transform="translate(1963.626953 0)"/>
     <use xlink:href="#DejaVuSans-31" transform="translate(1995.414062 0)"/>
    </g>
   </g>
   <g id="legend_1">
    <g id="patch_7">
     <path d="M 435.632812 45.47625 
L 545.34375 45.47625 
Q 547.34375 45.47625 547.34375 43.47625 
L 547.34375 29.798125 
Q 547.34375 27.798125 545.34375 27.798125 
L 435.632812 27.798125 
Q 433.632812 27.798125 433.632812 29.798125 
L 433.632812 43.47625 
Q 433.632812 45.47625 435.632812 45.47625 
z
" style="fill: #ffffff; opacity: 0.8; stroke: #cccccc; stroke-linejoin: miter"/>
    </g>
    <g id="PathCollection_2">
     <g>
      <use xlink:href="#m78812e4a21" x="447.632812" y="36.771563" style="fill: #0000ff; stroke: #0000ff"/>
     </g>
    </g>
    <g id="text_15">
     <!-- Naměřená data -->
     <g transform="translate(465.632812 39.396563) scale(0.1 -0.1)">
      <defs>
       <path id="DejaVuSans-4e" d="M 628 4666 
L 1478 4666 
L 3547 763 
L 3547 4666 
L 4159 4666 
L 4159 0 
L 3309 0 
L 1241 3903 
L 1241 0 
L 628 0 
L 628 4666 
z
" transform="scale(0.015625)"/>
       <path id="DejaVuSans-61" d="M 2194 1759 
Q 1497 1759 1228 1600 
Q 959 1441 959 1056 
Q 959 750 1161 570 
Q 1363 391 1709 391 
Q 2188 391 2477 730 
Q 2766 1069 2766 1631 
L 2766 1759 
L 2194 1759 
z
M 3341 1997 
L 3341 0 
L 2766 0 
L 2766 531 
Q 2569 213 2275 61 
Q 1981 -91 1556 -91 
Q 1019 -91 701 211 
Q 384 513 384 1019 
Q 384 1609 779 1909 
Q 1175 2209 1959 2209 
L 2766 2209 
L 2766 2266 
Q 2766 2663 2505 2880 
Q 2244 3097 1772 3097 
Q 1472 3097 1187 3025 
Q 903 2953 641 2809 
L 641 3341 
Q 956 3463 1253 3523 
Q 1550 3584 1831 3584 
Q 2591 3584 2966 3190 
Q 3341 2797 3341 1997 
z
" transform="scale(0.015625)"/>
       <path id="DejaVuSans-6d" d="M 3328 2828 
Q 3544 3216 3844 3400 
Q 4144 3584 4550 3584 
Q 5097 3584 5394 3201 
Q 5691 2819 5691 2113 
L 5691 0 
L 5113 0 
L 5113 2094 
Q 5113 2597 4934 2840 
Q 4756 3084 4391 3084 
Q 3944 3084 3684 2787 
Q 3425 2491 3425 1978 
L 3425 0 
L 2847 0 
L 2847 2094 
Q 2847 2600 2669 2842 
Q 2491 3084 2119 3084 
Q 1678 3084 1418 2786 
Q 1159 2488 1159 1978 
L 1159 0 
L 581 0 
L 581 3500 
L 1159 3500 
L 1159 2956 
Q 1356 3278 1631 3431 
Q 1906 3584 2284 3584 
Q 2666 3584 2933 3390 
Q 3200 3197 3328 2828 
z
" transform="scale(0.015625)"/>
       <path id="DejaVuSans-64" d="M 2906 2969 
L 2906 4863 
L 3481 4863 
L 3481 0 
L 2906 0 
L 2906 525 
Q 2725 213 2448 61 
Q 2172 -91 1784 -91 
Q 1150 -91 751 415 
Q 353 922 353 1747 
Q 353 2572 751 3078 
Q 1150 3584 1784 3584 
Q 2172 3584 2448 3432 
Q 2725 3281 2906 2969 
z
M 947 1747 
Q 947 1113 1208 752 
Q 1469 391 1925 391 
Q 2381 391 2643 752 
Q 2906 1113 2906 1747 
Q 2906 2381 2643 2742 
Q 2381 3103 1925 3103 
Q 1469 3103 1208 2742 
Q 947 2381 947 1747 
z
" transform="scale(0.015625)"/>
      </defs>
      <use xlink:href="#DejaVuSans-4e"/>
      <use xlink:href="#DejaVuSans-61" transform="translate(74.804688 0)"/>
      <use xlink:href="#DejaVuSans-6d" transform="translate(136.083984 0)"/>
      <use xlink:href="#DejaVuSans-11b" transform="translate(233.496094 0)"/>
      <use xlink:href="#DejaVuSans-159" transform="translate(295.019531 0)"/>
      <use xlink:href="#DejaVuSans-65" transform="translate(333.882812 0)"/>
      <use xlink:href="#DejaVuSans-6e" transform="translate(395.40625 0)"/>
      <use xlink:href="#DejaVuSans-e1" transform="translate(458.785156 0)"/>
      <use xlink:href="#DejaVuSans-20" transform="translate(520.064453 0)"/>
      <use xlink:href="#DejaVuSans-64" transform="translate(551.851562 0)"/>
      <use xlink:href="#DejaVuSans-61" transform="translate(615.328125 0)"/>
      <use xlink:href="#DejaVuSans-74" transform="translate(676.607422 0)"/>
      <use xlink:href="#DejaVuSans-61" transform="translate(715.816406 0)"/>
     </g>
    </g>
   </g>
  </g>
 </g>
 <defs>
  <clipPath id="p4efd70e679">
   <rect x="50.14375" y="22.798125" width="502.2" height="332.64"/>
  </clipPath>
 </defs>
</svg>
