<?xml version="1.0" encoding="utf-8" standalone="no"?>
<!DOCTYPE svg PUBLIC "-//W3C//DTD SVG 1.1//EN"
  "http://www.w3.org/Graphics/SVG/1.1/DTD/svg11.dtd">
<svg xmlns:xlink="http://www.w3.org/1999/xlink" width="553.18125pt" height="393.71625pt" viewBox="0 0 553.18125 393.71625" xmlns="http://www.w3.org/2000/svg" version="1.1">
 <metadata>
  <rdf:RDF xmlns:dc="http://purl.org/dc/elements/1.1/" xmlns:cc="http://creativecommons.org/ns#" xmlns:rdf="http://www.w3.org/1999/02/22-rdf-syntax-ns#">
   <cc:Work>
    <dc:type rdf:resource="http://purl.org/dc/dcmitype/StillImage"/>
    <dc:date>2026-03-29T22:04:09.114837</dc:date>
    <dc:format>image/svg+xml</dc:format>
    <dc:creator>
     <cc:Agent>
      <dc:title>Matplotlib v3.6.3, https://matplotlib.org/</dc:title>
     </cc:Agent>
    </dc:creator>
   </cc:Work>
  </rdf:RDF>
 </metadata>
 <defs>
  <style type="text/css">*{stroke-linejoin: round; stroke-linecap: butt}</style>
 </defs>
 <g id="figure_1">
  <g id="patch_1">
   <path d="M 0 393.71625 
L 553.18125 393.71625 
L 553.18125 0 
L 0 0 
z
" style="fill: #ffffff"/>
  </g>
  <g id="axes_1">
   <g id="patch_2">
    <path d="M 43.78125 355.438125 
L 545.98125 355.438125 
L 545.98125 22.798125 
L 43.78125 22.798125 
z
" style="fill: #ffffff"/>
   </g>
   <g id="PathCollection_1">
    <defs>
     <path id="m8055b6152e" d="M 0 1.581139 
C 0.419323 1.581139 0.821528 1.41454 1.118034 1.118034 
C 1.41454 0.821528 1.581139 0.419323 1.581139 0 
C 1.581139 -0.419323 1.41454 -0.821528 1.118034 -1.118034 
C 0.821528 -1.41454 0.419323 -1.581139 0 -1.581139 
C -0.419323 -1.581139 -0.821528 -1.41454 -1.118034 -1.118034 
C -1.41454 -0.821528 -1.581139 -0.419323 -1.581139 0 
C -1.581139 0.419323 -1.41454 0.821528 -1.118034 1.118034 
C -0.821528 1.41454 -0.419323 1.581139 0 1.581139 
z
" style="stroke: #0000ff"/>
    </defs>
    <g clip-path="url(#p8a7421681d)">
     <use xlink:href="#m8055b6152e" x="321.426063" y="162.377186" style="fill: #0000ff; stroke: #0000ff"/>
     <use xlink:href="#m8055b6152e" x="321.426063" y="163.199163" style="fill: #0000ff; stroke: #0000ff"/>
     <use xlink:href="#m8055b6152e" x="321.426063" y="163.199163" style="fill: #0000ff; stroke: #0000ff"/>
     <use xlink:href="#m8055b6152e" x="320.628595" y="165.706598" style="fill: #0000ff; stroke: #0000ff"/>
     <use xlink:href="#m8055b6152e" x="319.831664" y="164.858527" style="fill: #0000ff; stroke: #0000ff"/>
     <use xlink:href="#m8055b6152e" x="318.239414" y="169.035748" style="fill: #0000ff; stroke: #0000ff"/>
     <use xlink:href="#m8055b6152e" x="315.061341" y="170.726779" style="fill: #0000ff; stroke: #0000ff"/>
     <use xlink:href="#m8055b6152e" x="311.891811" y="175.697445" style="fill: #0000ff; stroke: #0000ff"/>
     <use xlink:href="#m8055b6152e" x="307.153455" y="179.206858" style="fill: #0000ff; stroke: #0000ff"/>
     <use xlink:href="#m8055b6152e" x="302.434126" y="182.547762" style="fill: #0000ff; stroke: #0000ff"/>
     <use xlink:href="#m8055b6152e" x="296.952136" y="189.245824" style="fill: #0000ff; stroke: #0000ff"/>
     <use xlink:href="#m8055b6152e" x="290.718295" y="192.605141" style="fill: #0000ff; stroke: #0000ff"/>
     <use xlink:href="#m8055b6152e" x="284.517573" y="198.403846" style="fill: #0000ff; stroke: #0000ff"/>
     <use xlink:href="#m8055b6152e" x="276.812846" y="205.832416" style="fill: #0000ff; stroke: #0000ff"/>
     <use xlink:href="#m8055b6152e" x="269.922067" y="210.185645" style="fill: #0000ff; stroke: #0000ff"/>
     <use xlink:href="#m8055b6152e" x="262.31349" y="215.987179" style="fill: #0000ff; stroke: #0000ff"/>
     <use xlink:href="#m8055b6152e" x="254.754797" y="221.799408" style="fill: #0000ff; stroke: #0000ff"/>
     <use xlink:href="#m8055b6152e" x="247.245499" y="226.498202" style="fill: #0000ff; stroke: #0000ff"/>
     <use xlink:href="#m8055b6152e" x="239.041747" y="231.300718" style="fill: #0000ff; stroke: #0000ff"/>
     <use xlink:href="#m8055b6152e" x="230.896546" y="239.578926" style="fill: #0000ff; stroke: #0000ff"/>
     <use xlink:href="#m8055b6152e" x="222.809271" y="243.097144" style="fill: #0000ff; stroke: #0000ff"/>
     <use xlink:href="#m8055b6152e" x="214.779306" y="249.04916" style="fill: #0000ff; stroke: #0000ff"/>
     <use xlink:href="#m8055b6152e" x="206.083994" y="255.528456" style="fill: #0000ff; stroke: #0000ff"/>
     <use xlink:href="#m8055b6152e" x="197.455387" y="258.910099" style="fill: #0000ff; stroke: #0000ff"/>
     <use xlink:href="#m8055b6152e" x="189.603776" y="263.813008" style="fill: #0000ff; stroke: #0000ff"/>
     <use xlink:href="#m8055b6152e" x="181.100893" y="268.71718" style="fill: #0000ff; stroke: #0000ff"/>
     <use xlink:href="#m8055b6152e" x="173.36327" y="273.888049" style="fill: #0000ff; stroke: #0000ff"/>
     <use xlink:href="#m8055b6152e" x="164.983384" y="277.899405" style="fill: #0000ff; stroke: #0000ff"/>
     <use xlink:href="#m8055b6152e" x="158.048389" y="282.855167" style="fill: #0000ff; stroke: #0000ff"/>
     <use xlink:href="#m8055b6152e" x="150.470027" y="286.713639" style="fill: #0000ff; stroke: #0000ff"/>
     <use xlink:href="#m8055b6152e" x="143.625741" y="290.620154" style="fill: #0000ff; stroke: #0000ff"/>
     <use xlink:href="#m8055b6152e" x="136.824026" y="294.577334" style="fill: #0000ff; stroke: #0000ff"/>
     <use xlink:href="#m8055b6152e" x="129.390836" y="297.122531" style="fill: #0000ff; stroke: #0000ff"/>
     <use xlink:href="#m8055b6152e" x="123.346728" y="302.956726" style="fill: #0000ff; stroke: #0000ff"/>
     <use xlink:href="#m8055b6152e" x="116.670369" y="306.623024" style="fill: #0000ff; stroke: #0000ff"/>
     <use xlink:href="#m8055b6152e" x="110.696724" y="309.220376" style="fill: #0000ff; stroke: #0000ff"/>
     <use xlink:href="#m8055b6152e" x="104.097973" y="313.400259" style="fill: #0000ff; stroke: #0000ff"/>
     <use xlink:href="#m8055b6152e" x="98.848008" y="316.603144" style="fill: #0000ff; stroke: #0000ff"/>
     <use xlink:href="#m8055b6152e" x="92.972395" y="320.314065" style="fill: #0000ff; stroke: #0000ff"/>
     <use xlink:href="#m8055b6152e" x="87.128923" y="321.965183" style="fill: #0000ff; stroke: #0000ff"/>
     <use xlink:href="#m8055b6152e" x="81.961496" y="324.66502" style="fill: #0000ff; stroke: #0000ff"/>
     <use xlink:href="#m8055b6152e" x="76.819074" y="327.378266" style="fill: #0000ff; stroke: #0000ff"/>
     <use xlink:href="#m8055b6152e" x="71.701476" y="331.843046" style="fill: #0000ff; stroke: #0000ff"/>
     <use xlink:href="#m8055b6152e" x="66.608523" y="333.958421" style="fill: #0000ff; stroke: #0000ff"/>
    </g>
   </g>
   <g id="matplotlib.axis_1">
    <g id="xtick_1">
     <g id="line2d_1">
      <path d="M 59.750781 355.438125 
L 59.750781 22.798125 
" clip-path="url(#p8a7421681d)" style="fill: none; stroke: #b0b0b0; stroke-opacity: 0.3; stroke-width: 0.8; stroke-linecap: square"/>
     </g>
     <g id="line2d_2">
      <defs>
       <path id="m7ff1820508" d="M 0 0 
L 0 3.5 
" style="stroke: #000000; stroke-width: 0.8"/>
      </defs>
      <g>
       <use xlink:href="#m7ff1820508" x="59.750781" y="355.438125" style="stroke: #000000; stroke-width: 0.8"/>
      </g>
     </g>
     <g id="text_1">
      <!-- 0.0030 -->
      <g transform="translate(42.255469 370.036562) scale(0.1 -0.1)">
       <defs>
        <path id="DejaVuSans-30" d="M 2034 4250 
Q 1547 4250 1301 3770 
Q 1056 3291 1056 2328 
Q 1056 1369 1301 889 
Q 1547 409 2034 409 
Q 2525 409 2770 889 
Q 3016 1369 3016 2328 
Q 3016 3291 2770 3770 
Q 2525 4250 2034 4250 
z
M 2034 4750 
Q 2819 4750 3233 4129 
Q 3647 3509 3647 2328 
Q 3647 1150 3233 529 
Q 2819 -91 2034 -91 
Q 1250 -91 836 529 
Q 422 1150 422 2328 
Q 422 3509 836 4129 
Q 1250 4750 2034 4750 
z
" transform="scale(0.015625)"/>
        <path id="DejaVuSans-2e" d="M 684 794 
L 1344 794 
L 1344 0 
L 684 0 
L 684 794 
z
" transform="scale(0.015625)"/>
        <path id="DejaVuSans-33" d="M 2597 2516 
Q 3050 2419 3304 2112 
Q 3559 1806 3559 1356 
Q 3559 666 3084 287 
Q 2609 -91 1734 -91 
Q 1441 -91 1130 -33 
Q 819 25 488 141 
L 488 750 
Q 750 597 1062 519 
Q 1375 441 1716 441 
Q 2309 441 2620 675 
Q 2931 909 2931 1356 
Q 2931 1769 2642 2001 
Q 2353 2234 1838 2234 
L 1294 2234 
L 1294 2753 
L 1863 2753 
Q 2328 2753 2575 2939 
Q 2822 3125 2822 3475 
Q 2822 3834 2567 4026 
Q 2313 4219 1838 4219 
Q 1578 4219 1281 4162 
Q 984 4106 628 3988 
L 628 4550 
Q 988 4650 1302 4700 
Q 1616 4750 1894 4750 
Q 2613 4750 3031 4423 
Q 3450 4097 3450 3541 
Q 3450 3153 3228 2886 
Q 3006 2619 2597 2516 
z
" transform="scale(0.015625)"/>
       </defs>
       <use xlink:href="#DejaVuSans-30"/>
       <use xlink:href="#DejaVuSans-2e" x="63.623047"/>
       <use xlink:href="#DejaVuSans-30" x="95.410156"/>
       <use xlink:href="#DejaVuSans-30" x="159.033203"/>
       <use xlink:href="#DejaVuSans-33" x="222.65625"/>
       <use xlink:href="#DejaVuSans-30" x="286.279297"/>
      </g>
     </g>
    </g>
    <g id="xtick_2">
     <g id="line2d_3">
      <path d="M 129.858 355.438125 
L 129.858 22.798125 
" clip-path="url(#p8a7421681d)" style="fill: none; stroke: #b0b0b0; stroke-opacity: 0.3; stroke-width: 0.8; stroke-linecap: square"/>
     </g>
     <g id="line2d_4">
      <g>
       <use xlink:href="#m7ff1820508" x="129.858" y="355.438125" style="stroke: #000000; stroke-width: 0.8"/>
      </g>
     </g>
     <g id="text_2">
      <!-- 0.0031 -->
      <g transform="translate(112.362687 370.036562) scale(0.1 -0.1)">
       <defs>
        <path id="DejaVuSans-31" d="M 794 531 
L 1825 531 
L 1825 4091 
L 703 3866 
L 703 4441 
L 1819 4666 
L 2450 4666 
L 2450 531 
L 3481 531 
L 3481 0 
L 794 0 
L 794 531 
z
" transform="scale(0.015625)"/>
       </defs>
       <use xlink:href="#DejaVuSans-30"/>
       <use xlink:href="#DejaVuSans-2e" x="63.623047"/>
       <use xlink:href="#DejaVuSans-30" x="95.410156"/>
       <use xlink:href="#DejaVuSans-30" x="159.033203"/>
       <use xlink:href="#DejaVuSans-33" x="222.65625"/>
       <use xlink:href="#DejaVuSans-31" x="286.279297"/>
      </g>
     </g>
    </g>
    <g id="xtick_3">
     <g id="line2d_5">
      <path d="M 199.965218 355.438125 
L 199.965218 22.798125 
" clip-path="url(#p8a7421681d)" style="fill: none; stroke: #b0b0b0; stroke-opacity: 0.3; stroke-width: 0.8; stroke-linecap: square"/>
     </g>
     <g id="line2d_6">
      <g>
       <use xlink:href="#m7ff1820508" x="199.965218" y="355.438125" style="stroke: #000000; stroke-width: 0.8"/>
      </g>
     </g>
     <g id="text_3">
      <!-- 0.0032 -->
      <g transform="translate(182.469906 370.036562) scale(0.1 -0.1)">
       <defs>
        <path id="DejaVuSans-32" d="M 1228 531 
L 3431 531 
L 3431 0 
L 469 0 
L 469 531 
Q 828 903 1448 1529 
Q 2069 2156 2228 2338 
Q 2531 2678 2651 2914 
Q 2772 3150 2772 3378 
Q 2772 3750 2511 3984 
Q 2250 4219 1831 4219 
Q 1534 4219 1204 4116 
Q 875 4013 500 3803 
L 500 4441 
Q 881 4594 1212 4672 
Q 1544 4750 1819 4750 
Q 2544 4750 2975 4387 
Q 3406 4025 3406 3419 
Q 3406 3131 3298 2873 
Q 3191 2616 2906 2266 
Q 2828 2175 2409 1742 
Q 1991 1309 1228 531 
z
" transform="scale(0.015625)"/>
       </defs>
       <use xlink:href="#DejaVuSans-30"/>
       <use xlink:href="#DejaVuSans-2e" x="63.623047"/>
       <use xlink:href="#DejaVuSans-30" x="95.410156"/>
       <use xlink:href="#DejaVuSans-30" x="159.033203"/>
       <use xlink:href="#DejaVuSans-33" x="222.65625"/>
       <use xlink:href="#DejaVuSans-32" x="286.279297"/>
      </g>
     </g>
    </g>
    <g id="xtick_4">
     <g id="line2d_7">
      <path d="M 270.072437 355.438125 
L 270.072437 22.798125 
" clip-path="url(#p8a7421681d)" style="fill: none; stroke: #b0b0b0; stroke-opacity: 0.3; stroke-width: 0.8; stroke-linecap: square"/>
     </g>
     <g id="line2d_8">
      <g>
       <use xlink:href="#m7ff1820508" x="270.072437" y="355.438125" style="stroke: #000000; stroke-width: 0.8"/>
      </g>
     </g>
     <g id="text_4">
      <!-- 0.0033 -->
      <g transform="translate(252.577124 370.036562) scale(0.1 -0.1)">
       <use xlink:href="#DejaVuSans-30"/>
       <use xlink:href="#DejaVuSans-2e" x="63.623047"/>
       <use xlink:href="#DejaVuSans-30" x="95.410156"/>
       <use xlink:href="#DejaVuSans-30" x="159.033203"/>
       <use xlink:href="#DejaVuSans-33" x="222.65625"/>
       <use xlink:href="#DejaVuSans-33" x="286.279297"/>
      </g>
     </g>
    </g>
    <g id="xtick_5">
     <g id="line2d_9">
      <path d="M 340.179655 355.438125 
L 340.179655 22.798125 
" clip-path="url(#p8a7421681d)" style="fill: none; stroke: #b0b0b0; stroke-opacity: 0.3; stroke-width: 0.8; stroke-linecap: square"/>
     </g>
     <g id="line2d_10">
      <g>
       <use xlink:href="#m7ff1820508" x="340.179655" y="355.438125" style="stroke: #000000; stroke-width: 0.8"/>
      </g>
     </g>
     <g id="text_5">
      <!-- 0.0034 -->
      <g transform="translate(322.684343 370.036562) scale(0.1 -0.1)">
       <defs>
        <path id="DejaVuSans-34" d="M 2419 4116 
L 825 1625 
L 2419 1625 
L 2419 4116 
z
M 2253 4666 
L 3047 4666 
L 3047 1625 
L 3713 1625 
L 3713 1100 
L 3047 1100 
L 3047 0 
L 2419 0 
L 2419 1100 
L 313 1100 
L 313 1709 
L 2253 4666 
z
" transform="scale(0.015625)"/>
       </defs>
       <use xlink:href="#DejaVuSans-30"/>
       <use xlink:href="#DejaVuSans-2e" x="63.623047"/>
       <use xlink:href="#DejaVuSans-30" x="95.410156"/>
       <use xlink:href="#DejaVuSans-30" x="159.033203"/>
       <use xlink:href="#DejaVuSans-33" x="222.65625"/>
       <use xlink:href="#DejaVuSans-34" x="286.279297"/>
      </g>
     </g>
    </g>
    <g id="xtick_6">
     <g id="line2d_11">
      <path d="M 410.286874 355.438125 
L 410.286874 22.798125 
" clip-path="url(#p8a7421681d)" style="fill: none; stroke: #b0b0b0; stroke-opacity: 0.3; stroke-width: 0.8; stroke-linecap: square"/>
     </g>
     <g id="line2d_12">
      <g>
       <use xlink:href="#m7ff1820508" x="410.286874" y="355.438125" style="stroke: #000000; stroke-width: 0.8"/>
      </g>
     </g>
     <g id="text_6">
      <!-- 0.0035 -->
      <g transform="translate(392.791561 370.036562) scale(0.1 -0.1)">
       <defs>
        <path id="DejaVuSans-35" d="M 691 4666 
L 3169 4666 
L 3169 4134 
L 1269 4134 
L 1269 2991 
Q 1406 3038 1543 3061 
Q 1681 3084 1819 3084 
Q 2600 3084 3056 2656 
Q 3513 2228 3513 1497 
Q 3513 744 3044 326 
Q 2575 -91 1722 -91 
Q 1428 -91 1123 -41 
Q 819 9 494 109 
L 494 744 
Q 775 591 1075 516 
Q 1375 441 1709 441 
Q 2250 441 2565 725 
Q 2881 1009 2881 1497 
Q 2881 1984 2565 2268 
Q 2250 2553 1709 2553 
Q 1456 2553 1204 2497 
Q 953 2441 691 2322 
L 691 4666 
z
" transform="scale(0.015625)"/>
       </defs>
       <use xlink:href="#DejaVuSans-30"/>
       <use xlink:href="#DejaVuSans-2e" x="63.623047"/>
       <use xlink:href="#DejaVuSans-30" x="95.410156"/>
       <use xlink:href="#DejaVuSans-30" x="159.033203"/>
       <use xlink:href="#DejaVuSans-33" x="222.65625"/>
       <use xlink:href="#DejaVuSans-35" x="286.279297"/>
      </g>
     </g>
    </g>
    <g id="xtick_7">
     <g id="line2d_13">
      <path d="M 480.394092 355.438125 
L 480.394092 22.798125 
" clip-path="url(#p8a7421681d)" style="fill: none; stroke: #b0b0b0; stroke-opacity: 0.3; stroke-width: 0.8; stroke-linecap: square"/>
     </g>
     <g id="line2d_14">
      <g>
       <use xlink:href="#m7ff1820508" x="480.394092" y="355.438125" style="stroke: #000000; stroke-width: 0.8"/>
      </g>
     </g>
     <g id="text_7">
      <!-- 0.0036 -->
      <g transform="translate(462.89878 370.036562) scale(0.1 -0.1)">
       <defs>
        <path id="DejaVuSans-36" d="M 2113 2584 
Q 1688 2584 1439 2293 
Q 1191 2003 1191 1497 
Q 1191 994 1439 701 
Q 1688 409 2113 409 
Q 2538 409 2786 701 
Q 3034 994 3034 1497 
Q 3034 2003 2786 2293 
Q 2538 2584 2113 2584 
z
M 3366 4563 
L 3366 3988 
Q 3128 4100 2886 4159 
Q 2644 4219 2406 4219 
Q 1781 4219 1451 3797 
Q 1122 3375 1075 2522 
Q 1259 2794 1537 2939 
Q 1816 3084 2150 3084 
Q 2853 3084 3261 2657 
Q 3669 2231 3669 1497 
Q 3669 778 3244 343 
Q 2819 -91 2113 -91 
Q 1303 -91 875 529 
Q 447 1150 447 2328 
Q 447 3434 972 4092 
Q 1497 4750 2381 4750 
Q 2619 4750 2861 4703 
Q 3103 4656 3366 4563 
z
" transform="scale(0.015625)"/>
       </defs>
       <use xlink:href="#DejaVuSans-30"/>
       <use xlink:href="#DejaVuSans-2e" x="63.623047"/>
       <use xlink:href="#DejaVuSans-30" x="95.410156"/>
       <use xlink:href="#DejaVuSans-30" x="159.033203"/>
       <use xlink:href="#DejaVuSans-33" x="222.65625"/>
       <use xlink:href="#DejaVuSans-36" x="286.279297"/>
      </g>
     </g>
    </g>
    <g id="text_8">
     <!-- 1/T [$K^{-1}$] -->
     <g transform="translate(272.53125 384.436562) scale(0.1 -0.1)">
      <defs>
       <path id="DejaVuSans-2f" d="M 1625 4666 
L 2156 4666 
L 531 -594 
L 0 -594 
L 1625 4666 
z
" transform="scale(0.015625)"/>
       <path id="DejaVuSans-54" d="M -19 4666 
L 3928 4666 
L 3928 4134 
L 2272 4134 
L 2272 0 
L 1638 0 
L 1638 4134 
L -19 4134 
L -19 4666 
z
" transform="scale(0.015625)"/>
       <path id="DejaVuSans-20" transform="scale(0.015625)"/>
       <path id="DejaVuSans-5b" d="M 550 4863 
L 1875 4863 
L 1875 4416 
L 1125 4416 
L 1125 -397 
L 1875 -397 
L 1875 -844 
L 550 -844 
L 550 4863 
z
" transform="scale(0.015625)"/>
       <path id="DejaVuSans-Oblique-4b" d="M 1081 4666 
L 1716 4666 
L 1331 2700 
L 3781 4666 
L 4622 4666 
L 1850 2438 
L 3878 0 
L 3109 0 
L 1247 2272 
L 806 0 
L 172 0 
L 1081 4666 
z
" transform="scale(0.015625)"/>
       <path id="DejaVuSans-2212" d="M 678 2272 
L 4684 2272 
L 4684 1741 
L 678 1741 
L 678 2272 
z
" transform="scale(0.015625)"/>
       <path id="DejaVuSans-5d" d="M 1947 4863 
L 1947 -844 
L 622 -844 
L 622 -397 
L 1369 -397 
L 1369 4416 
L 622 4416 
L 622 4863 
L 1947 4863 
z
" transform="scale(0.015625)"/>
      </defs>
      <use xlink:href="#DejaVuSans-31" transform="translate(0 0.684375)"/>
      <use xlink:href="#DejaVuSans-2f" transform="translate(63.623047 0.684375)"/>
      <use xlink:href="#DejaVuSans-54" transform="translate(97.314453 0.684375)"/>
      <use xlink:href="#DejaVuSans-20" transform="translate(158.398438 0.684375)"/>
      <use xlink:href="#DejaVuSans-5b" transform="translate(190.185547 0.684375)"/>
      <use xlink:href="#DejaVuSans-Oblique-4b" transform="translate(229.199219 0.684375)"/>
      <use xlink:href="#DejaVuSans-2212" transform="translate(301.792161 38.965625) scale(0.7)"/>
      <use xlink:href="#DejaVuSans-31" transform="translate(360.444505 38.965625) scale(0.7)"/>
      <use xlink:href="#DejaVuSans-5d" transform="translate(407.715013 0.684375)"/>
     </g>
    </g>
   </g>
   <g id="matplotlib.axis_2">
    <g id="ytick_1">
     <g id="line2d_15">
      <path d="M 43.78125 298.469045 
L 545.98125 298.469045 
" clip-path="url(#p8a7421681d)" style="fill: none; stroke: #b0b0b0; stroke-opacity: 0.3; stroke-width: 0.8; stroke-linecap: square"/>
     </g>
     <g id="line2d_16">
      <defs>
       <path id="m9a75049cab" d="M 0 0 
L -3.5 0 
" style="stroke: #000000; stroke-width: 0.8"/>
      </defs>
      <g>
       <use xlink:href="#m9a75049cab" x="43.78125" y="298.469045" style="stroke: #000000; stroke-width: 0.8"/>
      </g>
     </g>
     <g id="text_9">
      <!-- 5.5 -->
      <g transform="translate(20.878125 302.268263) scale(0.1 -0.1)">
       <use xlink:href="#DejaVuSans-35"/>
       <use xlink:href="#DejaVuSans-2e" x="63.623047"/>
       <use xlink:href="#DejaVuSans-35" x="95.410156"/>
      </g>
     </g>
    </g>
    <g id="ytick_2">
     <g id="line2d_17">
      <path d="M 43.78125 232.012404 
L 545.98125 232.012404 
" clip-path="url(#p8a7421681d)" style="fill: none; stroke: #b0b0b0; stroke-opacity: 0.3; stroke-width: 0.8; stroke-linecap: square"/>
     </g>
     <g id="line2d_18">
      <g>
       <use xlink:href="#m9a75049cab" x="43.78125" y="232.012404" style="stroke: #000000; stroke-width: 0.8"/>
      </g>
     </g>
     <g id="text_10">
      <!-- 6.0 -->
      <g transform="translate(20.878125 235.811623) scale(0.1 -0.1)">
       <use xlink:href="#DejaVuSans-36"/>
       <use xlink:href="#DejaVuSans-2e" x="63.623047"/>
       <use xlink:href="#DejaVuSans-30" x="95.410156"/>
      </g>
     </g>
    </g>
    <g id="ytick_3">
     <g id="line2d_19">
      <path d="M 43.78125 165.555763 
L 545.98125 165.555763 
" clip-path="url(#p8a7421681d)" style="fill: none; stroke: #b0b0b0; stroke-opacity: 0.3; stroke-width: 0.8; stroke-linecap: square"/>
     </g>
     <g id="line2d_20">
      <g>
       <use xlink:href="#m9a75049cab" x="43.78125" y="165.555763" style="stroke: #000000; stroke-width: 0.8"/>
      </g>
     </g>
     <g id="text_11">
      <!-- 6.5 -->
      <g transform="translate(20.878125 169.354982) scale(0.1 -0.1)">
       <use xlink:href="#DejaVuSans-36"/>
       <use xlink:href="#DejaVuSans-2e" x="63.623047"/>
       <use xlink:href="#DejaVuSans-35" x="95.410156"/>
      </g>
     </g>
    </g>
    <g id="ytick_4">
     <g id="line2d_21">
      <path d="M 43.78125 99.099122 
L 545.98125 99.099122 
" clip-path="url(#p8a7421681d)" style="fill: none; stroke: #b0b0b0; stroke-opacity: 0.3; stroke-width: 0.8; stroke-linecap: square"/>
     </g>
     <g id="line2d_22">
      <g>
       <use xlink:href="#m9a75049cab" x="43.78125" y="99.099122" style="stroke: #000000; stroke-width: 0.8"/>
      </g>
     </g>
     <g id="text_12">
      <!-- 7.0 -->
      <g transform="translate(20.878125 102.898341) scale(0.1 -0.1)">
       <defs>
        <path id="DejaVuSans-37" d="M 525 4666 
L 3525 4666 
L 3525 4397 
L 1831 0 
L 1172 0 
L 2766 4134 
L 525 4134 
L 525 4666 
z
" transform="scale(0.015625)"/>
       </defs>
       <use xlink:href="#DejaVuSans-37"/>
       <use xlink:href="#DejaVuSans-2e" x="63.623047"/>
       <use xlink:href="#DejaVuSans-30" x="95.410156"/>
      </g>
     </g>
    </g>
    <g id="ytick_5">
     <g id="line2d_23">
      <path d="M 43.78125 32.642482 
L 545.98125 32.642482 
" clip-path="url(#p8a7421681d)" style="fill: none; stroke: #b0b0b0; stroke-opacity: 0.3; stroke-width: 0.8; stroke-linecap: square"/>
     </g>
     <g id="line2d_24">
      <g>
       <use xlink:href="#m9a75049cab" x="43.78125" y="32.642482" style="stroke: #000000; stroke-width: 0.8"/>
      </g>
     </g>
     <g id="text_13">
      <!-- 7.5 -->
      <g transform="translate(20.878125 36.441701) scale(0.1 -0.1)">
       <use xlink:href="#DejaVuSans-37"/>
       <use xlink:href="#DejaVuSans-2e" x="63.623047"/>
       <use xlink:href="#DejaVuSans-35" x="95.410156"/>
      </g>
     </g>
    </g>
    <g id="text_14">
     <!-- ln (R / $\Omega$) [-] -->
     <g transform="translate(14.798438 218.668125) rotate(-90) scale(0.1 -0.1)">
      <defs>
       <path id="DejaVuSans-6c" d="M 603 4863 
L 1178 4863 
L 1178 0 
L 603 0 
L 603 4863 
z
" transform="scale(0.015625)"/>
       <path id="DejaVuSans-6e" d="M 3513 2113 
L 3513 0 
L 2938 0 
L 2938 2094 
Q 2938 2591 2744 2837 
Q 2550 3084 2163 3084 
Q 1697 3084 1428 2787 
Q 1159 2491 1159 1978 
L 1159 0 
L 581 0 
L 581 3500 
L 1159 3500 
L 1159 2956 
Q 1366 3272 1645 3428 
Q 1925 3584 2291 3584 
Q 2894 3584 3203 3211 
Q 3513 2838 3513 2113 
z
" transform="scale(0.015625)"/>
       <path id="DejaVuSans-28" d="M 1984 4856 
Q 1566 4138 1362 3434 
Q 1159 2731 1159 2009 
Q 1159 1288 1364 580 
Q 1569 -128 1984 -844 
L 1484 -844 
Q 1016 -109 783 600 
Q 550 1309 550 2009 
Q 550 2706 781 3412 
Q 1013 4119 1484 4856 
L 1984 4856 
z
" transform="scale(0.015625)"/>
       <path id="DejaVuSans-52" d="M 2841 2188 
Q 3044 2119 3236 1894 
Q 3428 1669 3622 1275 
L 4263 0 
L 3584 0 
L 2988 1197 
Q 2756 1666 2539 1819 
Q 2322 1972 1947 1972 
L 1259 1972 
L 1259 0 
L 628 0 
L 628 4666 
L 2053 4666 
Q 2853 4666 3247 4331 
Q 3641 3997 3641 3322 
Q 3641 2881 3436 2590 
Q 3231 2300 2841 2188 
z
M 1259 4147 
L 1259 2491 
L 2053 2491 
Q 2509 2491 2742 2702 
Q 2975 2913 2975 3322 
Q 2975 3731 2742 3939 
Q 2509 4147 2053 4147 
L 1259 4147 
z
" transform="scale(0.015625)"/>
       <path id="DejaVuSans-3a9" d="M 4647 556 
L 4647 0 
L 2772 0 
L 2772 556 
Q 3325 859 3634 1378 
Q 3944 1897 3944 2528 
Q 3944 3278 3531 3731 
Q 3119 4184 2444 4184 
Q 1769 4184 1355 3729 
Q 941 3275 941 2528 
Q 941 1897 1250 1378 
Q 1563 859 2119 556 
L 2119 0 
L 244 0 
L 244 556 
L 1241 556 
Q 747 991 519 1456 
Q 294 1922 294 2497 
Q 294 3491 894 4106 
Q 1491 4722 2444 4722 
Q 3391 4722 3994 4106 
Q 4594 3494 4594 2528 
Q 4594 1922 4372 1459 
Q 4150 997 3647 556 
L 4647 556 
z
" transform="scale(0.015625)"/>
       <path id="DejaVuSans-29" d="M 513 4856 
L 1013 4856 
Q 1481 4119 1714 3412 
Q 1947 2706 1947 2009 
Q 1947 1309 1714 600 
Q 1481 -109 1013 -844 
L 513 -844 
Q 928 -128 1133 580 
Q 1338 1288 1338 2009 
Q 1338 2731 1133 3434 
Q 928 4138 513 4856 
z
" transform="scale(0.015625)"/>
       <path id="DejaVuSans-2d" d="M 313 2009 
L 1997 2009 
L 1997 1497 
L 313 1497 
L 313 2009 
z
" transform="scale(0.015625)"/>
      </defs>
      <use xlink:href="#DejaVuSans-6c" transform="translate(0 0.015625)"/>
      <use xlink:href="#DejaVuSans-6e" transform="translate(27.783203 0.015625)"/>
      <use xlink:href="#DejaVuSans-20" transform="translate(91.162109 0.015625)"/>
      <use xlink:href="#DejaVuSans-28" transform="translate(122.949219 0.015625)"/>
      <use xlink:href="#DejaVuSans-52" transform="translate(161.962891 0.015625)"/>
      <use xlink:href="#DejaVuSans-20" transform="translate(231.445312 0.015625)"/>
      <use xlink:href="#DejaVuSans-2f" transform="translate(263.232422 0.015625)"/>
      <use xlink:href="#DejaVuSans-20" transform="translate(296.923828 0.015625)"/>
      <use xlink:href="#DejaVuSans-3a9" transform="translate(328.710938 0.015625)"/>
      <use xlink:href="#DejaVuSans-29" transform="translate(405.126953 0.015625)"/>
      <use xlink:href="#DejaVuSans-20" transform="translate(444.140625 0.015625)"/>
      <use xlink:href="#DejaVuSans-5b" transform="translate(475.927734 0.015625)"/>
      <use xlink:href="#DejaVuSans-2d" transform="translate(514.941406 0.015625)"/>
      <use xlink:href="#DejaVuSans-5d" transform="translate(551.025391 0.015625)"/>
     </g>
    </g>
   </g>
   <g id="line2d_25">
    <path d="M 523.153977 355.438125 
L 523.153977 22.798125 
" clip-path="url(#p8a7421681d)" style="fill: none; stroke-dasharray: 1.5,2.475; stroke-dashoffset: 0; stroke: #008000; stroke-width: 1.5"/>
   </g>
   <g id="line2d_26">
    <path d="M 66.608523 340.318125 
L 71.220093 337.26358 
L 75.831663 334.209034 
L 80.443233 331.154489 
L 85.054804 328.099943 
L 89.666374 325.045398 
L 94.277944 321.990852 
L 98.889514 318.936307 
L 103.501085 315.881761 
L 108.112655 312.827216 
L 112.724225 309.77267 
L 117.335795 306.718125 
L 121.947366 303.66358 
L 126.558936 300.609034 
L 131.170506 297.554489 
L 135.782076 294.499943 
L 140.393647 291.445398 
L 145.005217 288.390852 
L 149.616787 285.336307 
L 154.228357 282.281761 
L 158.839928 279.227216 
L 163.451498 276.17267 
L 168.063068 273.118125 
L 172.674638 270.06358 
L 177.286209 267.009034 
L 181.897779 263.954489 
L 186.509349 260.899943 
L 191.120919 257.845398 
L 195.73249 254.790852 
L 200.34406 251.736307 
L 204.95563 248.681761 
L 209.5672 245.627216 
L 214.178771 242.57267 
L 218.790341 239.518125 
L 223.401911 236.46358 
L 228.013481 233.409034 
L 232.625052 230.354489 
L 237.236622 227.299943 
L 241.848192 224.245398 
L 246.459762 221.190852 
L 251.071333 218.136307 
L 255.682903 215.081761 
L 260.294473 212.027216 
L 264.906043 208.97267 
L 269.517614 205.918125 
L 274.129184 202.86358 
L 278.740754 199.809034 
L 283.352324 196.754489 
L 287.963895 193.699943 
L 292.575465 190.645398 
L 297.187035 187.590852 
L 301.798605 184.536307 
L 306.410176 181.481761 
L 311.021746 178.427216 
L 315.633316 175.37267 
L 320.244886 172.318125 
L 324.856457 169.26358 
L 329.468027 166.209034 
L 334.079597 163.154489 
L 338.691167 160.099943 
L 343.302738 157.045398 
L 347.914308 153.990852 
L 352.525878 150.936307 
L 357.137448 147.881761 
L 361.749019 144.827216 
L 366.360589 141.77267 
L 370.972159 138.718125 
L 375.583729 135.66358 
L 380.1953 132.609034 
L 384.80687 129.554489 
L 389.41844 126.499943 
L 394.03001 123.445398 
L 398.641581 120.390852 
L 403.253151 117.336307 
L 407.864721 114.281761 
L 412.476291 111.227216 
L 417.087862 108.17267 
L 421.699432 105.118125 
L 426.311002 102.06358 
L 430.922572 99.009034 
L 435.534143 95.954489 
L 440.145713 92.899943 
L 444.757283 89.845398 
L 449.368853 86.790852 
L 453.980424 83.736307 
L 458.591994 80.681761 
L 463.203564 77.627216 
L 467.815134 74.57267 
L 472.426705 71.518125 
L 477.038275 68.46358 
L 481.649845 65.409034 
L 486.261415 62.354489 
L 490.872986 59.299943 
L 495.484556 56.245398 
L 500.096126 53.190852 
L 504.707696 50.136307 
L 509.319267 47.081761 
L 513.930837 44.027216 
L 518.542407 40.97267 
L 523.153977 37.918125 
" clip-path="url(#p8a7421681d)" style="fill: none; stroke: #ff0000; stroke-width: 1.5; stroke-linecap: square"/>
   </g>
   <g id="patch_3">
    <path d="M 43.78125 355.438125 
L 43.78125 22.798125 
" style="fill: none; stroke: #000000; stroke-width: 0.8; stroke-linejoin: miter; stroke-linecap: square"/>
   </g>
   <g id="patch_4">
    <path d="M 545.98125 355.438125 
L 545.98125 22.798125 
" style="fill: none; stroke: #000000; stroke-width: 0.8; stroke-linejoin: miter; stroke-linecap: square"/>
   </g>
   <g id="patch_5">
    <path d="M 43.78125 355.438125 
L 545.98125 355.438125 
" style="fill: none; stroke: #000000; stroke-width: 0.8; stroke-linejoin: miter; stroke-linecap: square"/>
   </g>
   <g id="patch_6">
    <path d="M 43.78125 22.798125 
L 545.98125 22.798125 
" style="fill: none; stroke: #000000; stroke-width: 0.8; stroke-linejoin: miter; stroke-linecap: square"/>
   </g>
   <g id="text_15">
    <!-- Změřené hodnoty 1/T a ln R s lineárním fitem -->
    <g transform="translate(158.01 16.798125) scale(0.12 -0.12)">
     <defs>
      <path id="DejaVuSans-5a" d="M 359 4666 
L 4025 4666 
L 4025 4184 
L 1075 531 
L 4097 531 
L 4097 0 
L 288 0 
L 288 481 
L 3238 4134 
L 359 4134 
L 359 4666 
z
" transform="scale(0.015625)"/>
      <path id="DejaVuSans-6d" d="M 3328 2828 
Q 3544 3216 3844 3400 
Q 4144 3584 4550 3584 
Q 5097 3584 5394 3201 
Q 5691 2819 5691 2113 
L 5691 0 
L 5113 0 
L 5113 2094 
Q 5113 2597 4934 2840 
Q 4756 3084 4391 3084 
Q 3944 3084 3684 2787 
Q 3425 2491 3425 1978 
L 3425 0 
L 2847 0 
L 2847 2094 
Q 2847 2600 2669 2842 
Q 2491 3084 2119 3084 
Q 1678 3084 1418 2786 
Q 1159 2488 1159 1978 
L 1159 0 
L 581 0 
L 581 3500 
L 1159 3500 
L 1159 2956 
Q 1356 3278 1631 3431 
Q 1906 3584 2284 3584 
Q 2666 3584 2933 3390 
Q 3200 3197 3328 2828 
z
" transform="scale(0.015625)"/>
      <path id="DejaVuSans-11b" d="M 3597 1894 
L 3597 1613 
L 953 1613 
Q 991 1019 1311 708 
Q 1631 397 2203 397 
Q 2534 397 2845 478 
Q 3156 559 3463 722 
L 3463 178 
Q 3153 47 2828 -22 
Q 2503 -91 2169 -91 
Q 1331 -91 842 396 
Q 353 884 353 1716 
Q 353 2575 817 3079 
Q 1281 3584 2069 3584 
Q 2775 3584 3186 3129 
Q 3597 2675 3597 1894 
z
M 3022 2063 
Q 3016 2534 2758 2815 
Q 2500 3097 2075 3097 
Q 1594 3097 1305 2825 
Q 1016 2553 972 2059 
L 3022 2063 
z
M 1831 3928 
L 1066 5103 
L 1500 5103 
L 2063 4337 
L 2625 5103 
L 3059 5103 
L 2294 3928 
L 1831 3928 
z
" transform="scale(0.015625)"/>
      <path id="DejaVuSans-159" d="M 2631 2963 
Q 2534 3019 2420 3045 
Q 2306 3072 2169 3072 
Q 1681 3072 1420 2755 
Q 1159 2438 1159 1844 
L 1159 0 
L 581 0 
L 581 3500 
L 1159 3500 
L 1159 2956 
Q 1341 3275 1631 3429 
Q 1922 3584 2338 3584 
Q 2397 3584 2469 3576 
Q 2541 3569 2628 3553 
L 2631 2963 
z
M 1453 3944 
L 688 5119 
L 1122 5119 
L 1684 4353 
L 2247 5119 
L 2681 5119 
L 1916 3944 
L 1453 3944 
z
" transform="scale(0.015625)"/>
      <path id="DejaVuSans-65" d="M 3597 1894 
L 3597 1613 
L 953 1613 
Q 991 1019 1311 708 
Q 1631 397 2203 397 
Q 2534 397 2845 478 
Q 3156 559 3463 722 
L 3463 178 
Q 3153 47 2828 -22 
Q 2503 -91 2169 -91 
Q 1331 -91 842 396 
Q 353 884 353 1716 
Q 353 2575 817 3079 
Q 1281 3584 2069 3584 
Q 2775 3584 3186 3129 
Q 3597 2675 3597 1894 
z
M 3022 2063 
Q 3016 2534 2758 2815 
Q 2500 3097 2075 3097 
Q 1594 3097 1305 2825 
Q 1016 2553 972 2059 
L 3022 2063 
z
" transform="scale(0.015625)"/>
      <path id="DejaVuSans-e9" d="M 3597 1894 
L 3597 1613 
L 953 1613 
Q 991 1019 1311 708 
Q 1631 397 2203 397 
Q 2534 397 2845 478 
Q 3156 559 3463 722 
L 3463 178 
Q 3153 47 2828 -22 
Q 2503 -91 2169 -91 
Q 1331 -91 842 396 
Q 353 884 353 1716 
Q 353 2575 817 3079 
Q 1281 3584 2069 3584 
Q 2775 3584 3186 3129 
Q 3597 2675 3597 1894 
z
M 3022 2063 
Q 3016 2534 2758 2815 
Q 2500 3097 2075 3097 
Q 1594 3097 1305 2825 
Q 1016 2553 972 2059 
L 3022 2063 
z
M 2469 5119 
L 3091 5119 
L 2072 3944 
L 1594 3944 
L 2469 5119 
z
" transform="scale(0.015625)"/>
      <path id="DejaVuSans-68" d="M 3513 2113 
L 3513 0 
L 2938 0 
L 2938 2094 
Q 2938 2591 2744 2837 
Q 2550 3084 2163 3084 
Q 1697 3084 1428 2787 
Q 1159 2491 1159 1978 
L 1159 0 
L 581 0 
L 581 4863 
L 1159 4863 
L 1159 2956 
Q 1366 3272 1645 3428 
Q 1925 3584 2291 3584 
Q 2894 3584 3203 3211 
Q 3513 2838 3513 2113 
z
" transform="scale(0.015625)"/>
      <path id="DejaVuSans-6f" d="M 1959 3097 
Q 1497 3097 1228 2736 
Q 959 2375 959 1747 
Q 959 1119 1226 758 
Q 1494 397 1959 397 
Q 2419 397 2687 759 
Q 2956 1122 2956 1747 
Q 2956 2369 2687 2733 
Q 2419 3097 1959 3097 
z
M 1959 3584 
Q 2709 3584 3137 3096 
Q 3566 2609 3566 1747 
Q 3566 888 3137 398 
Q 2709 -91 1959 -91 
Q 1206 -91 779 398 
Q 353 888 353 1747 
Q 353 2609 779 3096 
Q 1206 3584 1959 3584 
z
" transform="scale(0.015625)"/>
      <path id="DejaVuSans-64" d="M 2906 2969 
L 2906 4863 
L 3481 4863 
L 3481 0 
L 2906 0 
L 2906 525 
Q 2725 213 2448 61 
Q 2172 -91 1784 -91 
Q 1150 -91 751 415 
Q 353 922 353 1747 
Q 353 2572 751 3078 
Q 1150 3584 1784 3584 
Q 2172 3584 2448 3432 
Q 2725 3281 2906 2969 
z
M 947 1747 
Q 947 1113 1208 752 
Q 1469 391 1925 391 
Q 2381 391 2643 752 
Q 2906 1113 2906 1747 
Q 2906 2381 2643 2742 
Q 2381 3103 1925 3103 
Q 1469 3103 1208 2742 
Q 947 2381 947 1747 
z
" transform="scale(0.015625)"/>
      <path id="DejaVuSans-74" d="M 1172 4494 
L 1172 3500 
L 2356 3500 
L 2356 3053 
L 1172 3053 
L 1172 1153 
Q 1172 725 1289 603 
Q 1406 481 1766 481 
L 2356 481 
L 2356 0 
L 1766 0 
Q 1100 0 847 248 
Q 594 497 594 1153 
L 594 3053 
L 172 3053 
L 172 3500 
L 594 3500 
L 594 4494 
L 1172 4494 
z
" transform="scale(0.015625)"/>
      <path id="DejaVuSans-79" d="M 2059 -325 
Q 1816 -950 1584 -1140 
Q 1353 -1331 966 -1331 
L 506 -1331 
L 506 -850 
L 844 -850 
Q 1081 -850 1212 -737 
Q 1344 -625 1503 -206 
L 1606 56 
L 191 3500 
L 800 3500 
L 1894 763 
L 2988 3500 
L 3597 3500 
L 2059 -325 
z
" transform="scale(0.015625)"/>
      <path id="DejaVuSans-61" d="M 2194 1759 
Q 1497 1759 1228 1600 
Q 959 1441 959 1056 
Q 959 750 1161 570 
Q 1363 391 1709 391 
Q 2188 391 2477 730 
Q 2766 1069 2766 1631 
L 2766 1759 
L 2194 1759 
z
M 3341 1997 
L 3341 0 
L 2766 0 
L 2766 531 
Q 2569 213 2275 61 
Q 1981 -91 1556 -91 
Q 1019 -91 701 211 
Q 384 513 384 1019 
Q 384 1609 779 1909 
Q 1175 2209 1959 2209 
L 2766 2209 
L 2766 2266 
Q 2766 2663 2505 2880 
Q 2244 3097 1772 3097 
Q 1472 3097 1187 3025 
Q 903 2953 641 2809 
L 641 3341 
Q 956 3463 1253 3523 
Q 1550 3584 1831 3584 
Q 2591 3584 2966 3190 
Q 3341 2797 3341 1997 
z
" transform="scale(0.015625)"/>
      <path id="DejaVuSans-73" d="M 2834 3397 
L 2834 2853 
Q 2591 2978 2328 3040 
Q 2066 3103 1784 3103 
Q 1356 3103 1142 2972 
Q 928 2841 928 2578 
Q 928 2378 1081 2264 
Q 1234 2150 1697 2047 
L 1894 2003 
Q 2506 1872 2764 1633 
Q 3022 1394 3022 966 
Q 3022 478 2636 193 
Q 2250 -91 1575 -91 
Q 1294 -91 989 -36 
Q 684 19 347 128 
L 347 722 
Q 666 556 975 473 
Q 1284 391 1588 391 
Q 1994 391 2212 530 
Q 2431 669 2431 922 
Q 2431 1156 2273 1281 
Q 2116 1406 1581 1522 
L 1381 1569 
Q 847 1681 609 1914 
Q 372 2147 372 2553 
Q 372 3047 722 3315 
Q 1072 3584 1716 3584 
Q 2034 3584 2315 3537 
Q 2597 3491 2834 3397 
z
" transform="scale(0.015625)"/>
      <path id="DejaVuSans-69" d="M 603 3500 
L 1178 3500 
L 1178 0 
L 603 0 
L 603 3500 
z
M 603 4863 
L 1178 4863 
L 1178 4134 
L 603 4134 
L 603 4863 
z
" transform="scale(0.015625)"/>
      <path id="DejaVuSans-e1" d="M 2194 1759 
Q 1497 1759 1228 1600 
Q 959 1441 959 1056 
Q 959 750 1161 570 
Q 1363 391 1709 391 
Q 2188 391 2477 730 
Q 2766 1069 2766 1631 
L 2766 1759 
L 2194 1759 
z
M 3341 1997 
L 3341 0 
L 2766 0 
L 2766 531 
Q 2569 213 2275 61 
Q 1981 -91 1556 -91 
Q 1019 -91 701 211 
Q 384 513 384 1019 
Q 384 1609 779 1909 
Q 1175 2209 1959 2209 
L 2766 2209 
L 2766 2266 
Q 2766 2663 2505 2880 
Q 2244 3097 1772 3097 
Q 1472 3097 1187 3025 
Q 903 2953 641 2809 
L 641 3341 
Q 956 3463 1253 3523 
Q 1550 3584 1831 3584 
Q 2591 3584 2966 3190 
Q 3341 2797 3341 1997 
z
M 2291 5119 
L 2913 5119 
L 1894 3944 
L 1416 3944 
L 2291 5119 
z
" transform="scale(0.015625)"/>
      <path id="DejaVuSans-72" d="M 2631 2963 
Q 2534 3019 2420 3045 
Q 2306 3072 2169 3072 
Q 1681 3072 1420 2755 
Q 1159 2438 1159 1844 
L 1159 0 
L 581 0 
L 581 3500 
L 1159 3500 
L 1159 2956 
Q 1341 3275 1631 3429 
Q 1922 3584 2338 3584 
Q 2397 3584 2469 3576 
Q 2541 3569 2628 3553 
L 2631 2963 
z
" transform="scale(0.015625)"/>
      <path id="DejaVuSans-ed" d="M 1325 5119 
L 1947 5119 
L 928 3944 
L 450 3944 
L 1325 5119 
z
M 603 3500 
L 1178 3500 
L 1178 0 
L 603 0 
L 603 3500 
z
M 891 3584 
L 891 3584 
z
" transform="scale(0.015625)"/>
      <path id="DejaVuSans-66" d="M 2375 4863 
L 2375 4384 
L 1825 4384 
Q 1516 4384 1395 4259 
Q 1275 4134 1275 3809 
L 1275 3500 
L 2222 3500 
L 2222 3053 
L 1275 3053 
L 1275 0 
L 697 0 
L 697 3053 
L 147 3053 
L 147 3500 
L 697 3500 
L 697 3744 
Q 697 4328 969 4595 
Q 1241 4863 1831 4863 
L 2375 4863 
z
" transform="scale(0.015625)"/>
     </defs>
     <use xlink:href="#DejaVuSans-5a"/>
     <use xlink:href="#DejaVuSans-6d" x="68.505859"/>
     <use xlink:href="#DejaVuSans-11b" x="165.917969"/>
     <use xlink:href="#DejaVuSans-159" x="227.441406"/>
     <use xlink:href="#DejaVuSans-65" x="266.304688"/>
     <use xlink:href="#DejaVuSans-6e" x="327.828125"/>
     <use xlink:href="#DejaVuSans-e9" x="391.207031"/>
     <use xlink:href="#DejaVuSans-20" x="452.730469"/>
     <use xlink:href="#DejaVuSans-68" x="484.517578"/>
     <use xlink:href="#DejaVuSans-6f" x="547.896484"/>
     <use xlink:href="#DejaVuSans-64" x="609.078125"/>
     <use xlink:href="#DejaVuSans-6e" x="672.554688"/>
     <use xlink:href="#DejaVuSans-6f" x="735.933594"/>
     <use xlink:href="#DejaVuSans-74" x="797.115234"/>
     <use xlink:href="#DejaVuSans-79" x="836.324219"/>
     <use xlink:href="#DejaVuSans-20" x="895.503906"/>
     <use xlink:href="#DejaVuSans-31" x="927.291016"/>
     <use xlink:href="#DejaVuSans-2f" x="990.914062"/>
     <use xlink:href="#DejaVuSans-54" x="1024.605469"/>
     <use xlink:href="#DejaVuSans-20" x="1085.689453"/>
     <use xlink:href="#DejaVuSans-61" x="1117.476562"/>
     <use xlink:href="#DejaVuSans-20" x="1178.755859"/>
     <use xlink:href="#DejaVuSans-6c" x="1210.542969"/>
     <use xlink:href="#DejaVuSans-6e" x="1238.326172"/>
     <use xlink:href="#DejaVuSans-20" x="1301.705078"/>
     <use xlink:href="#DejaVuSans-52" x="1333.492188"/>
     <use xlink:href="#DejaVuSans-20" x="1402.974609"/>
     <use xlink:href="#DejaVuSans-73" x="1434.761719"/>
     <use xlink:href="#DejaVuSans-20" x="1486.861328"/>
     <use xlink:href="#DejaVuSans-6c" x="1518.648438"/>
     <use xlink:href="#DejaVuSans-69" x="1546.431641"/>
     <use xlink:href="#DejaVuSans-6e" x="1574.214844"/>
     <use xlink:href="#DejaVuSans-65" x="1637.59375"/>
     <use xlink:href="#DejaVuSans-e1" x="1699.117188"/>
     <use xlink:href="#DejaVuSans-72" x="1760.396484"/>
     <use xlink:href="#DejaVuSans-6e" x="1799.759766"/>
     <use xlink:href="#DejaVuSans-ed" x="1863.138672"/>
     <use xlink:href="#DejaVuSans-6d" x="1890.921875"/>
     <use xlink:href="#DejaVuSans-20" x="1988.333984"/>
     <use xlink:href="#DejaVuSans-66" x="2020.121094"/>
     <use xlink:href="#DejaVuSans-69" x="2055.326172"/>
     <use xlink:href="#DejaVuSans-74" x="2083.109375"/>
     <use xlink:href="#DejaVuSans-65" x="2122.318359"/>
     <use xlink:href="#DejaVuSans-6d" x="2183.841797"/>
    </g>
   </g>
   <g id="legend_1">
    <g id="patch_7">
     <path d="M 50.78125 75.2325 
L 276.992188 75.2325 
Q 278.992188 75.2325 278.992188 73.2325 
L 278.992188 29.798125 
Q 278.992188 27.798125 276.992188 27.798125 
L 50.78125 27.798125 
Q 48.78125 27.798125 48.78125 29.798125 
L 48.78125 73.2325 
Q 48.78125 75.2325 50.78125 75.2325 
z
" style="fill: #ffffff; opacity: 0.8; stroke: #cccccc; stroke-linejoin: miter"/>
    </g>
    <g id="PathCollection_2">
     <g>
      <use xlink:href="#m8055b6152e" x="62.78125" y="36.771562" style="fill: #0000ff; stroke: #0000ff"/>
     </g>
    </g>
    <g id="text_16">
     <!-- Naměřená data -->
     <g transform="translate(80.78125 39.396562) scale(0.1 -0.1)">
      <defs>
       <path id="DejaVuSans-4e" d="M 628 4666 
L 1478 4666 
L 3547 763 
L 3547 4666 
L 4159 4666 
L 4159 0 
L 3309 0 
L 1241 3903 
L 1241 0 
L 628 0 
L 628 4666 
z
" transform="scale(0.015625)"/>
      </defs>
      <use xlink:href="#DejaVuSans-4e"/>
      <use xlink:href="#DejaVuSans-61" x="74.804688"/>
      <use xlink:href="#DejaVuSans-6d" x="136.083984"/>
      <use xlink:href="#DejaVuSans-11b" x="233.496094"/>
      <use xlink:href="#DejaVuSans-159" x="295.019531"/>
      <use xlink:href="#DejaVuSans-65" x="333.882812"/>
      <use xlink:href="#DejaVuSans-6e" x="395.40625"/>
      <use xlink:href="#DejaVuSans-e1" x="458.785156"/>
      <use xlink:href="#DejaVuSans-20" x="520.064453"/>
      <use xlink:href="#DejaVuSans-64" x="551.851562"/>
      <use xlink:href="#DejaVuSans-61" x="615.328125"/>
      <use xlink:href="#DejaVuSans-74" x="676.607422"/>
      <use xlink:href="#DejaVuSans-61" x="715.816406"/>
     </g>
    </g>
    <g id="line2d_27">
     <path d="M 52.78125 50.574687 
L 62.78125 50.574687 
L 72.78125 50.574687 
" style="fill: none; stroke-dasharray: 1.5,2.475; stroke-dashoffset: 0; stroke: #008000; stroke-width: 1.5"/>
    </g>
    <g id="text_17">
     <!-- Hranice 0°C -->
     <g transform="translate(80.78125 54.074687) scale(0.1 -0.1)">
      <defs>
       <path id="DejaVuSans-48" d="M 628 4666 
L 1259 4666 
L 1259 2753 
L 3553 2753 
L 3553 4666 
L 4184 4666 
L 4184 0 
L 3553 0 
L 3553 2222 
L 1259 2222 
L 1259 0 
L 628 0 
L 628 4666 
z
" transform="scale(0.015625)"/>
       <path id="DejaVuSans-63" d="M 3122 3366 
L 3122 2828 
Q 2878 2963 2633 3030 
Q 2388 3097 2138 3097 
Q 1578 3097 1268 2742 
Q 959 2388 959 1747 
Q 959 1106 1268 751 
Q 1578 397 2138 397 
Q 2388 397 2633 464 
Q 2878 531 3122 666 
L 3122 134 
Q 2881 22 2623 -34 
Q 2366 -91 2075 -91 
Q 1284 -91 818 406 
Q 353 903 353 1747 
Q 353 2603 823 3093 
Q 1294 3584 2113 3584 
Q 2378 3584 2631 3529 
Q 2884 3475 3122 3366 
z
" transform="scale(0.015625)"/>
       <path id="DejaVuSans-b0" d="M 1600 4347 
Q 1350 4347 1178 4173 
Q 1006 4000 1006 3750 
Q 1006 3503 1178 3333 
Q 1350 3163 1600 3163 
Q 1850 3163 2022 3333 
Q 2194 3503 2194 3750 
Q 2194 3997 2020 4172 
Q 1847 4347 1600 4347 
z
M 1600 4750 
Q 1800 4750 1984 4673 
Q 2169 4597 2303 4453 
Q 2447 4313 2519 4134 
Q 2591 3956 2591 3750 
Q 2591 3338 2302 3052 
Q 2013 2766 1594 2766 
Q 1172 2766 890 3047 
Q 609 3328 609 3750 
Q 609 4169 896 4459 
Q 1184 4750 1600 4750 
z
" transform="scale(0.015625)"/>
       <path id="DejaVuSans-43" d="M 4122 4306 
L 4122 3641 
Q 3803 3938 3442 4084 
Q 3081 4231 2675 4231 
Q 1875 4231 1450 3742 
Q 1025 3253 1025 2328 
Q 1025 1406 1450 917 
Q 1875 428 2675 428 
Q 3081 428 3442 575 
Q 3803 722 4122 1019 
L 4122 359 
Q 3791 134 3420 21 
Q 3050 -91 2638 -91 
Q 1578 -91 968 557 
Q 359 1206 359 2328 
Q 359 3453 968 4101 
Q 1578 4750 2638 4750 
Q 3056 4750 3426 4639 
Q 3797 4528 4122 4306 
z
" transform="scale(0.015625)"/>
      </defs>
      <use xlink:href="#DejaVuSans-48"/>
      <use xlink:href="#DejaVuSans-72" x="75.195312"/>
      <use xlink:href="#DejaVuSans-61" x="116.308594"/>
      <use xlink:href="#DejaVuSans-6e" x="177.587891"/>
      <use xlink:href="#DejaVuSans-69" x="240.966797"/>
      <use xlink:href="#DejaVuSans-63" x="268.75"/>
      <use xlink:href="#DejaVuSans-65" x="323.730469"/>
      <use xlink:href="#DejaVuSans-20" x="385.253906"/>
      <use xlink:href="#DejaVuSans-30" x="417.041016"/>
      <use xlink:href="#DejaVuSans-b0" x="480.664062"/>
      <use xlink:href="#DejaVuSans-43" x="530.664062"/>
     </g>
    </g>
    <g id="line2d_28">
     <path d="M 52.78125 65.652812 
L 62.78125 65.652812 
L 72.78125 65.652812 
" style="fill: none; stroke: #ff0000; stroke-width: 1.5; stroke-linecap: square"/>
    </g>
    <g id="text_18">
     <!-- Lineární fit (y = 3493.75 * 1/T + -5.33) -->
     <g transform="translate(80.78125 69.152812) scale(0.1 -0.1)">
      <defs>
       <path id="DejaVuSans-4c" d="M 628 4666 
L 1259 4666 
L 1259 531 
L 3531 531 
L 3531 0 
L 628 0 
L 628 4666 
z
" transform="scale(0.015625)"/>
       <path id="DejaVuSans-3d" d="M 678 2906 
L 4684 2906 
L 4684 2381 
L 678 2381 
L 678 2906 
z
M 678 1631 
L 4684 1631 
L 4684 1100 
L 678 1100 
L 678 1631 
z
" transform="scale(0.015625)"/>
       <path id="DejaVuSans-39" d="M 703 97 
L 703 672 
Q 941 559 1184 500 
Q 1428 441 1663 441 
Q 2288 441 2617 861 
Q 2947 1281 2994 2138 
Q 2813 1869 2534 1725 
Q 2256 1581 1919 1581 
Q 1219 1581 811 2004 
Q 403 2428 403 3163 
Q 403 3881 828 4315 
Q 1253 4750 1959 4750 
Q 2769 4750 3195 4129 
Q 3622 3509 3622 2328 
Q 3622 1225 3098 567 
Q 2575 -91 1691 -91 
Q 1453 -91 1209 -44 
Q 966 3 703 97 
z
M 1959 2075 
Q 2384 2075 2632 2365 
Q 2881 2656 2881 3163 
Q 2881 3666 2632 3958 
Q 2384 4250 1959 4250 
Q 1534 4250 1286 3958 
Q 1038 3666 1038 3163 
Q 1038 2656 1286 2365 
Q 1534 2075 1959 2075 
z
" transform="scale(0.015625)"/>
       <path id="DejaVuSans-2a" d="M 3009 3897 
L 1888 3291 
L 3009 2681 
L 2828 2375 
L 1778 3009 
L 1778 1831 
L 1422 1831 
L 1422 3009 
L 372 2375 
L 191 2681 
L 1313 3291 
L 191 3897 
L 372 4206 
L 1422 3572 
L 1422 4750 
L 1778 4750 
L 1778 3572 
L 2828 4206 
L 3009 3897 
z
" transform="scale(0.015625)"/>
       <path id="DejaVuSans-2b" d="M 2944 4013 
L 2944 2272 
L 4684 2272 
L 4684 1741 
L 2944 1741 
L 2944 0 
L 2419 0 
L 2419 1741 
L 678 1741 
L 678 2272 
L 2419 2272 
L 2419 4013 
L 2944 4013 
z
" transform="scale(0.015625)"/>
      </defs>
      <use xlink:href="#DejaVuSans-4c"/>
      <use xlink:href="#DejaVuSans-69" x="55.712891"/>
      <use xlink:href="#DejaVuSans-6e" x="83.496094"/>
      <use xlink:href="#DejaVuSans-65" x="146.875"/>
      <use xlink:href="#DejaVuSans-e1" x="208.398438"/>
      <use xlink:href="#DejaVuSans-72" x="269.677734"/>
      <use xlink:href="#DejaVuSans-6e" x="309.041016"/>
      <use xlink:href="#DejaVuSans-ed" x="372.419922"/>
      <use xlink:href="#DejaVuSans-20" x="400.203125"/>
      <use xlink:href="#DejaVuSans-66" x="431.990234"/>
      <use xlink:href="#DejaVuSans-69" x="467.195312"/>
      <use xlink:href="#DejaVuSans-74" x="494.978516"/>
      <use xlink:href="#DejaVuSans-20" x="534.1875"/>
      <use xlink:href="#DejaVuSans-28" x="565.974609"/>
      <use xlink:href="#DejaVuSans-79" x="604.988281"/>
      <use xlink:href="#DejaVuSans-20" x="664.167969"/>
      <use xlink:href="#DejaVuSans-3d" x="695.955078"/>
      <use xlink:href="#DejaVuSans-20" x="779.744141"/>
      <use xlink:href="#DejaVuSans-33" x="811.53125"/>
      <use xlink:href="#DejaVuSans-34" x="875.154297"/>
      <use xlink:href="#DejaVuSans-39" x="938.777344"/>
      <use xlink:href="#DejaVuSans-33" x="1002.400391"/>
      <use xlink:href="#DejaVuSans-2e" x="1066.023438"/>
      <use xlink:href="#DejaVuSans-37" x="1097.810547"/>
      <use xlink:href="#DejaVuSans-35" x="1161.433594"/>
      <use xlink:href="#DejaVuSans-20" x="1225.056641"/>
      <use xlink:href="#DejaVuSans-2a" x="1256.84375"/>
      <use xlink:href="#DejaVuSans-20" x="1306.84375"/>
      <use xlink:href="#DejaVuSans-31" x="1338.630859"/>
      <use xlink:href="#DejaVuSans-2f" x="1402.253906"/>
      <use xlink:href="#DejaVuSans-54" x="1435.945312"/>
      <use xlink:href="#DejaVuSans-20" x="1497.029297"/>
      <use xlink:href="#DejaVuSans-2b" x="1528.816406"/>
      <use xlink:href="#DejaVuSans-20" x="1612.605469"/>
      <use xlink:href="#DejaVuSans-2d" x="1644.392578"/>
      <use xlink:href="#DejaVuSans-35" x="1680.476562"/>
      <use xlink:href="#DejaVuSans-2e" x="1744.099609"/>
      <use xlink:href="#DejaVuSans-33" x="1775.886719"/>
      <use xlink:href="#DejaVuSans-33" x="1839.509766"/>
      <use xlink:href="#DejaVuSans-29" x="1903.132812"/>
     </g>
    </g>
   </g>
  </g>
 </g>
 <defs>
  <clipPath id="p8a7421681d">
   <rect x="43.78125" y="22.798125" width="502.2" height="332.64"/>
  </clipPath>
 </defs>
</svg>
