<?xml version="1.0" encoding="utf-8" standalone="no"?>
<!DOCTYPE svg PUBLIC "-//W3C//DTD SVG 1.1//EN"
  "http://www.w3.org/Graphics/SVG/1.1/DTD/svg11.dtd">
<svg xmlns:xlink="http://www.w3.org/1999/xlink" width="577.48125pt" height="392.99625pt" viewBox="0 0 577.48125 392.99625" xmlns="http://www.w3.org/2000/svg" version="1.1">
 <metadata>
  <rdf:RDF xmlns:dc="http://purl.org/dc/elements/1.1/" xmlns:cc="http://creativecommons.org/ns#" xmlns:rdf="http://www.w3.org/1999/02/22-rdf-syntax-ns#">
   <cc:Work>
    <dc:type rdf:resource="http://purl.org/dc/dcmitype/StillImage"/>
    <dc:date>2026-03-23T18:27:54.124047</dc:date>
    <dc:format>image/svg+xml</dc:format>
    <dc:creator>
     <cc:Agent>
      <dc:title>Matplotlib v3.10.8, https://matplotlib.org/</dc:title>
     </cc:Agent>
    </dc:creator>
   </cc:Work>
  </rdf:RDF>
 </metadata>
 <defs>
  <style type="text/css">*{stroke-linejoin: round; stroke-linecap: butt}</style>
 </defs>
 <g id="figure_1">
  <g id="patch_1">
   <path d="M 0 392.99625 
L 577.48125 392.99625 
L 577.48125 0 
L 0 0 
z
" style="fill: #ffffff"/>
  </g>
  <g id="axes_1">
   <g id="patch_2">
    <path d="M 43.78125 355.44 
L 545.98125 355.44 
L 545.98125 22.8 
L 43.78125 22.8 
z
" style="fill: #ffffff"/>
   </g>
   <g id="matplotlib.axis_1">
    <g id="xtick_1">
     <g id="line2d_1">
      <path d="M 66.608523 355.44 
L 66.608523 22.8 
" clip-path="url(#p941f095e84)" style="fill: none; stroke: #b0b0b0; stroke-opacity: 0.3; stroke-width: 0.8; stroke-linecap: square"/>
     </g>
     <g id="line2d_2">
      <defs>
       <path id="m449ce021d9" d="M 0 0 
L 0 3.5 
" style="stroke: #000000; stroke-width: 0.8"/>
      </defs>
      <g>
       <use xlink:href="#m449ce021d9" x="66.608523" y="355.44" style="stroke: #000000; stroke-width: 0.8"/>
      </g>
     </g>
     <g id="text_1">
      <!-- 0 -->
      <g transform="translate(63.427273 370.038437) scale(0.1 -0.1)">
       <defs>
        <path id="DejaVuSans-30" d="M 2034 4250 
Q 1547 4250 1301 3770 
Q 1056 3291 1056 2328 
Q 1056 1369 1301 889 
Q 1547 409 2034 409 
Q 2525 409 2770 889 
Q 3016 1369 3016 2328 
Q 3016 3291 2770 3770 
Q 2525 4250 2034 4250 
z
M 2034 4750 
Q 2819 4750 3233 4129 
Q 3647 3509 3647 2328 
Q 3647 1150 3233 529 
Q 2819 -91 2034 -91 
Q 1250 -91 836 529 
Q 422 1150 422 2328 
Q 422 3509 836 4129 
Q 1250 4750 2034 4750 
z
" transform="scale(0.015625)"/>
       </defs>
       <use xlink:href="#DejaVuSans-30"/>
      </g>
     </g>
    </g>
    <g id="xtick_2">
     <g id="line2d_3">
      <path d="M 89.435795 355.44 
L 89.435795 22.8 
" clip-path="url(#p941f095e84)" style="fill: none; stroke: #b0b0b0; stroke-opacity: 0.3; stroke-width: 0.8; stroke-linecap: square"/>
     </g>
     <g id="line2d_4">
      <g>
       <use xlink:href="#m449ce021d9" x="89.435795" y="355.44" style="stroke: #000000; stroke-width: 0.8"/>
      </g>
     </g>
     <g id="text_2">
      <!-- 30 -->
      <g transform="translate(83.073295 370.038437) scale(0.1 -0.1)">
       <defs>
        <path id="DejaVuSans-33" d="M 2597 2516 
Q 3050 2419 3304 2112 
Q 3559 1806 3559 1356 
Q 3559 666 3084 287 
Q 2609 -91 1734 -91 
Q 1441 -91 1130 -33 
Q 819 25 488 141 
L 488 750 
Q 750 597 1062 519 
Q 1375 441 1716 441 
Q 2309 441 2620 675 
Q 2931 909 2931 1356 
Q 2931 1769 2642 2001 
Q 2353 2234 1838 2234 
L 1294 2234 
L 1294 2753 
L 1863 2753 
Q 2328 2753 2575 2939 
Q 2822 3125 2822 3475 
Q 2822 3834 2567 4026 
Q 2313 4219 1838 4219 
Q 1578 4219 1281 4162 
Q 984 4106 628 3988 
L 628 4550 
Q 988 4650 1302 4700 
Q 1616 4750 1894 4750 
Q 2613 4750 3031 4423 
Q 3450 4097 3450 3541 
Q 3450 3153 3228 2886 
Q 3006 2619 2597 2516 
z
" transform="scale(0.015625)"/>
       </defs>
       <use xlink:href="#DejaVuSans-33"/>
       <use xlink:href="#DejaVuSans-30" transform="translate(63.623047 0)"/>
      </g>
     </g>
    </g>
    <g id="xtick_3">
     <g id="line2d_5">
      <path d="M 112.263068 355.44 
L 112.263068 22.8 
" clip-path="url(#p941f095e84)" style="fill: none; stroke: #b0b0b0; stroke-opacity: 0.3; stroke-width: 0.8; stroke-linecap: square"/>
     </g>
     <g id="line2d_6">
      <g>
       <use xlink:href="#m449ce021d9" x="112.263068" y="355.44" style="stroke: #000000; stroke-width: 0.8"/>
      </g>
     </g>
     <g id="text_3">
      <!-- 60 -->
      <g transform="translate(105.900568 370.038437) scale(0.1 -0.1)">
       <defs>
        <path id="DejaVuSans-36" d="M 2113 2584 
Q 1688 2584 1439 2293 
Q 1191 2003 1191 1497 
Q 1191 994 1439 701 
Q 1688 409 2113 409 
Q 2538 409 2786 701 
Q 3034 994 3034 1497 
Q 3034 2003 2786 2293 
Q 2538 2584 2113 2584 
z
M 3366 4563 
L 3366 3988 
Q 3128 4100 2886 4159 
Q 2644 4219 2406 4219 
Q 1781 4219 1451 3797 
Q 1122 3375 1075 2522 
Q 1259 2794 1537 2939 
Q 1816 3084 2150 3084 
Q 2853 3084 3261 2657 
Q 3669 2231 3669 1497 
Q 3669 778 3244 343 
Q 2819 -91 2113 -91 
Q 1303 -91 875 529 
Q 447 1150 447 2328 
Q 447 3434 972 4092 
Q 1497 4750 2381 4750 
Q 2619 4750 2861 4703 
Q 3103 4656 3366 4563 
z
" transform="scale(0.015625)"/>
       </defs>
       <use xlink:href="#DejaVuSans-36"/>
       <use xlink:href="#DejaVuSans-30" transform="translate(63.623047 0)"/>
      </g>
     </g>
    </g>
    <g id="xtick_4">
     <g id="line2d_7">
      <path d="M 135.090341 355.44 
L 135.090341 22.8 
" clip-path="url(#p941f095e84)" style="fill: none; stroke: #b0b0b0; stroke-opacity: 0.3; stroke-width: 0.8; stroke-linecap: square"/>
     </g>
     <g id="line2d_8">
      <g>
       <use xlink:href="#m449ce021d9" x="135.090341" y="355.44" style="stroke: #000000; stroke-width: 0.8"/>
      </g>
     </g>
     <g id="text_4">
      <!-- 90 -->
      <g transform="translate(128.727841 370.038437) scale(0.1 -0.1)">
       <defs>
        <path id="DejaVuSans-39" d="M 703 97 
L 703 672 
Q 941 559 1184 500 
Q 1428 441 1663 441 
Q 2288 441 2617 861 
Q 2947 1281 2994 2138 
Q 2813 1869 2534 1725 
Q 2256 1581 1919 1581 
Q 1219 1581 811 2004 
Q 403 2428 403 3163 
Q 403 3881 828 4315 
Q 1253 4750 1959 4750 
Q 2769 4750 3195 4129 
Q 3622 3509 3622 2328 
Q 3622 1225 3098 567 
Q 2575 -91 1691 -91 
Q 1453 -91 1209 -44 
Q 966 3 703 97 
z
M 1959 2075 
Q 2384 2075 2632 2365 
Q 2881 2656 2881 3163 
Q 2881 3666 2632 3958 
Q 2384 4250 1959 4250 
Q 1534 4250 1286 3958 
Q 1038 3666 1038 3163 
Q 1038 2656 1286 2365 
Q 1534 2075 1959 2075 
z
" transform="scale(0.015625)"/>
       </defs>
       <use xlink:href="#DejaVuSans-39"/>
       <use xlink:href="#DejaVuSans-30" transform="translate(63.623047 0)"/>
      </g>
     </g>
    </g>
    <g id="xtick_5">
     <g id="line2d_9">
      <path d="M 157.917614 355.44 
L 157.917614 22.8 
" clip-path="url(#p941f095e84)" style="fill: none; stroke: #b0b0b0; stroke-opacity: 0.3; stroke-width: 0.8; stroke-linecap: square"/>
     </g>
     <g id="line2d_10">
      <g>
       <use xlink:href="#m449ce021d9" x="157.917614" y="355.44" style="stroke: #000000; stroke-width: 0.8"/>
      </g>
     </g>
     <g id="text_5">
      <!-- 120 -->
      <g transform="translate(148.373864 370.038437) scale(0.1 -0.1)">
       <defs>
        <path id="DejaVuSans-31" d="M 794 531 
L 1825 531 
L 1825 4091 
L 703 3866 
L 703 4441 
L 1819 4666 
L 2450 4666 
L 2450 531 
L 3481 531 
L 3481 0 
L 794 0 
L 794 531 
z
" transform="scale(0.015625)"/>
        <path id="DejaVuSans-32" d="M 1228 531 
L 3431 531 
L 3431 0 
L 469 0 
L 469 531 
Q 828 903 1448 1529 
Q 2069 2156 2228 2338 
Q 2531 2678 2651 2914 
Q 2772 3150 2772 3378 
Q 2772 3750 2511 3984 
Q 2250 4219 1831 4219 
Q 1534 4219 1204 4116 
Q 875 4013 500 3803 
L 500 4441 
Q 881 4594 1212 4672 
Q 1544 4750 1819 4750 
Q 2544 4750 2975 4387 
Q 3406 4025 3406 3419 
Q 3406 3131 3298 2873 
Q 3191 2616 2906 2266 
Q 2828 2175 2409 1742 
Q 1991 1309 1228 531 
z
" transform="scale(0.015625)"/>
       </defs>
       <use xlink:href="#DejaVuSans-31"/>
       <use xlink:href="#DejaVuSans-32" transform="translate(63.623047 0)"/>
       <use xlink:href="#DejaVuSans-30" transform="translate(127.246094 0)"/>
      </g>
     </g>
    </g>
    <g id="xtick_6">
     <g id="line2d_11">
      <path d="M 180.744886 355.44 
L 180.744886 22.8 
" clip-path="url(#p941f095e84)" style="fill: none; stroke: #b0b0b0; stroke-opacity: 0.3; stroke-width: 0.8; stroke-linecap: square"/>
     </g>
     <g id="line2d_12">
      <g>
       <use xlink:href="#m449ce021d9" x="180.744886" y="355.44" style="stroke: #000000; stroke-width: 0.8"/>
      </g>
     </g>
     <g id="text_6">
      <!-- 150 -->
      <g transform="translate(171.201136 370.038437) scale(0.1 -0.1)">
       <defs>
        <path id="DejaVuSans-35" d="M 691 4666 
L 3169 4666 
L 3169 4134 
L 1269 4134 
L 1269 2991 
Q 1406 3038 1543 3061 
Q 1681 3084 1819 3084 
Q 2600 3084 3056 2656 
Q 3513 2228 3513 1497 
Q 3513 744 3044 326 
Q 2575 -91 1722 -91 
Q 1428 -91 1123 -41 
Q 819 9 494 109 
L 494 744 
Q 775 591 1075 516 
Q 1375 441 1709 441 
Q 2250 441 2565 725 
Q 2881 1009 2881 1497 
Q 2881 1984 2565 2268 
Q 2250 2553 1709 2553 
Q 1456 2553 1204 2497 
Q 953 2441 691 2322 
L 691 4666 
z
" transform="scale(0.015625)"/>
       </defs>
       <use xlink:href="#DejaVuSans-31"/>
       <use xlink:href="#DejaVuSans-35" transform="translate(63.623047 0)"/>
       <use xlink:href="#DejaVuSans-30" transform="translate(127.246094 0)"/>
      </g>
     </g>
    </g>
    <g id="xtick_7">
     <g id="line2d_13">
      <path d="M 203.572159 355.44 
L 203.572159 22.8 
" clip-path="url(#p941f095e84)" style="fill: none; stroke: #b0b0b0; stroke-opacity: 0.3; stroke-width: 0.8; stroke-linecap: square"/>
     </g>
     <g id="line2d_14">
      <g>
       <use xlink:href="#m449ce021d9" x="203.572159" y="355.44" style="stroke: #000000; stroke-width: 0.8"/>
      </g>
     </g>
     <g id="text_7">
      <!-- 180 -->
      <g transform="translate(194.028409 370.038437) scale(0.1 -0.1)">
       <defs>
        <path id="DejaVuSans-38" d="M 2034 2216 
Q 1584 2216 1326 1975 
Q 1069 1734 1069 1313 
Q 1069 891 1326 650 
Q 1584 409 2034 409 
Q 2484 409 2743 651 
Q 3003 894 3003 1313 
Q 3003 1734 2745 1975 
Q 2488 2216 2034 2216 
z
M 1403 2484 
Q 997 2584 770 2862 
Q 544 3141 544 3541 
Q 544 4100 942 4425 
Q 1341 4750 2034 4750 
Q 2731 4750 3128 4425 
Q 3525 4100 3525 3541 
Q 3525 3141 3298 2862 
Q 3072 2584 2669 2484 
Q 3125 2378 3379 2068 
Q 3634 1759 3634 1313 
Q 3634 634 3220 271 
Q 2806 -91 2034 -91 
Q 1263 -91 848 271 
Q 434 634 434 1313 
Q 434 1759 690 2068 
Q 947 2378 1403 2484 
z
M 1172 3481 
Q 1172 3119 1398 2916 
Q 1625 2713 2034 2713 
Q 2441 2713 2670 2916 
Q 2900 3119 2900 3481 
Q 2900 3844 2670 4047 
Q 2441 4250 2034 4250 
Q 1625 4250 1398 4047 
Q 1172 3844 1172 3481 
z
" transform="scale(0.015625)"/>
       </defs>
       <use xlink:href="#DejaVuSans-31"/>
       <use xlink:href="#DejaVuSans-38" transform="translate(63.623047 0)"/>
       <use xlink:href="#DejaVuSans-30" transform="translate(127.246094 0)"/>
      </g>
     </g>
    </g>
    <g id="xtick_8">
     <g id="line2d_15">
      <path d="M 226.399432 355.44 
L 226.399432 22.8 
" clip-path="url(#p941f095e84)" style="fill: none; stroke: #b0b0b0; stroke-opacity: 0.3; stroke-width: 0.8; stroke-linecap: square"/>
     </g>
     <g id="line2d_16">
      <g>
       <use xlink:href="#m449ce021d9" x="226.399432" y="355.44" style="stroke: #000000; stroke-width: 0.8"/>
      </g>
     </g>
     <g id="text_8">
      <!-- 210 -->
      <g transform="translate(216.855682 370.038437) scale(0.1 -0.1)">
       <use xlink:href="#DejaVuSans-32"/>
       <use xlink:href="#DejaVuSans-31" transform="translate(63.623047 0)"/>
       <use xlink:href="#DejaVuSans-30" transform="translate(127.246094 0)"/>
      </g>
     </g>
    </g>
    <g id="xtick_9">
     <g id="line2d_17">
      <path d="M 249.226705 355.44 
L 249.226705 22.8 
" clip-path="url(#p941f095e84)" style="fill: none; stroke: #b0b0b0; stroke-opacity: 0.3; stroke-width: 0.8; stroke-linecap: square"/>
     </g>
     <g id="line2d_18">
      <g>
       <use xlink:href="#m449ce021d9" x="249.226705" y="355.44" style="stroke: #000000; stroke-width: 0.8"/>
      </g>
     </g>
     <g id="text_9">
      <!-- 240 -->
      <g transform="translate(239.682955 370.038437) scale(0.1 -0.1)">
       <defs>
        <path id="DejaVuSans-34" d="M 2419 4116 
L 825 1625 
L 2419 1625 
L 2419 4116 
z
M 2253 4666 
L 3047 4666 
L 3047 1625 
L 3713 1625 
L 3713 1100 
L 3047 1100 
L 3047 0 
L 2419 0 
L 2419 1100 
L 313 1100 
L 313 1709 
L 2253 4666 
z
" transform="scale(0.015625)"/>
       </defs>
       <use xlink:href="#DejaVuSans-32"/>
       <use xlink:href="#DejaVuSans-34" transform="translate(63.623047 0)"/>
       <use xlink:href="#DejaVuSans-30" transform="translate(127.246094 0)"/>
      </g>
     </g>
    </g>
    <g id="xtick_10">
     <g id="line2d_19">
      <path d="M 272.053977 355.44 
L 272.053977 22.8 
" clip-path="url(#p941f095e84)" style="fill: none; stroke: #b0b0b0; stroke-opacity: 0.3; stroke-width: 0.8; stroke-linecap: square"/>
     </g>
     <g id="line2d_20">
      <g>
       <use xlink:href="#m449ce021d9" x="272.053977" y="355.44" style="stroke: #000000; stroke-width: 0.8"/>
      </g>
     </g>
     <g id="text_10">
      <!-- 270 -->
      <g transform="translate(262.510227 370.038437) scale(0.1 -0.1)">
       <defs>
        <path id="DejaVuSans-37" d="M 525 4666 
L 3525 4666 
L 3525 4397 
L 1831 0 
L 1172 0 
L 2766 4134 
L 525 4134 
L 525 4666 
z
" transform="scale(0.015625)"/>
       </defs>
       <use xlink:href="#DejaVuSans-32"/>
       <use xlink:href="#DejaVuSans-37" transform="translate(63.623047 0)"/>
       <use xlink:href="#DejaVuSans-30" transform="translate(127.246094 0)"/>
      </g>
     </g>
    </g>
    <g id="xtick_11">
     <g id="line2d_21">
      <path d="M 294.88125 355.44 
L 294.88125 22.8 
" clip-path="url(#p941f095e84)" style="fill: none; stroke: #b0b0b0; stroke-opacity: 0.3; stroke-width: 0.8; stroke-linecap: square"/>
     </g>
     <g id="line2d_22">
      <g>
       <use xlink:href="#m449ce021d9" x="294.88125" y="355.44" style="stroke: #000000; stroke-width: 0.8"/>
      </g>
     </g>
     <g id="text_11">
      <!-- 300 -->
      <g transform="translate(285.3375 370.038437) scale(0.1 -0.1)">
       <use xlink:href="#DejaVuSans-33"/>
       <use xlink:href="#DejaVuSans-30" transform="translate(63.623047 0)"/>
       <use xlink:href="#DejaVuSans-30" transform="translate(127.246094 0)"/>
      </g>
     </g>
    </g>
    <g id="xtick_12">
     <g id="line2d_23">
      <path d="M 317.708523 355.44 
L 317.708523 22.8 
" clip-path="url(#p941f095e84)" style="fill: none; stroke: #b0b0b0; stroke-opacity: 0.3; stroke-width: 0.8; stroke-linecap: square"/>
     </g>
     <g id="line2d_24">
      <g>
       <use xlink:href="#m449ce021d9" x="317.708523" y="355.44" style="stroke: #000000; stroke-width: 0.8"/>
      </g>
     </g>
     <g id="text_12">
      <!-- 330 -->
      <g transform="translate(308.164773 370.038437) scale(0.1 -0.1)">
       <use xlink:href="#DejaVuSans-33"/>
       <use xlink:href="#DejaVuSans-33" transform="translate(63.623047 0)"/>
       <use xlink:href="#DejaVuSans-30" transform="translate(127.246094 0)"/>
      </g>
     </g>
    </g>
    <g id="xtick_13">
     <g id="line2d_25">
      <path d="M 340.535795 355.44 
L 340.535795 22.8 
" clip-path="url(#p941f095e84)" style="fill: none; stroke: #b0b0b0; stroke-opacity: 0.3; stroke-width: 0.8; stroke-linecap: square"/>
     </g>
     <g id="line2d_26">
      <g>
       <use xlink:href="#m449ce021d9" x="340.535795" y="355.44" style="stroke: #000000; stroke-width: 0.8"/>
      </g>
     </g>
     <g id="text_13">
      <!-- 360 -->
      <g transform="translate(330.992045 370.038437) scale(0.1 -0.1)">
       <use xlink:href="#DejaVuSans-33"/>
       <use xlink:href="#DejaVuSans-36" transform="translate(63.623047 0)"/>
       <use xlink:href="#DejaVuSans-30" transform="translate(127.246094 0)"/>
      </g>
     </g>
    </g>
    <g id="xtick_14">
     <g id="line2d_27">
      <path d="M 363.363068 355.44 
L 363.363068 22.8 
" clip-path="url(#p941f095e84)" style="fill: none; stroke: #b0b0b0; stroke-opacity: 0.3; stroke-width: 0.8; stroke-linecap: square"/>
     </g>
     <g id="line2d_28">
      <g>
       <use xlink:href="#m449ce021d9" x="363.363068" y="355.44" style="stroke: #000000; stroke-width: 0.8"/>
      </g>
     </g>
     <g id="text_14">
      <!-- 390 -->
      <g transform="translate(353.819318 370.038437) scale(0.1 -0.1)">
       <use xlink:href="#DejaVuSans-33"/>
       <use xlink:href="#DejaVuSans-39" transform="translate(63.623047 0)"/>
       <use xlink:href="#DejaVuSans-30" transform="translate(127.246094 0)"/>
      </g>
     </g>
    </g>
    <g id="xtick_15">
     <g id="line2d_29">
      <path d="M 386.190341 355.44 
L 386.190341 22.8 
" clip-path="url(#p941f095e84)" style="fill: none; stroke: #b0b0b0; stroke-opacity: 0.3; stroke-width: 0.8; stroke-linecap: square"/>
     </g>
     <g id="line2d_30">
      <g>
       <use xlink:href="#m449ce021d9" x="386.190341" y="355.44" style="stroke: #000000; stroke-width: 0.8"/>
      </g>
     </g>
     <g id="text_15">
      <!-- 420 -->
      <g transform="translate(376.646591 370.038437) scale(0.1 -0.1)">
       <use xlink:href="#DejaVuSans-34"/>
       <use xlink:href="#DejaVuSans-32" transform="translate(63.623047 0)"/>
       <use xlink:href="#DejaVuSans-30" transform="translate(127.246094 0)"/>
      </g>
     </g>
    </g>
    <g id="xtick_16">
     <g id="line2d_31">
      <path d="M 409.017614 355.44 
L 409.017614 22.8 
" clip-path="url(#p941f095e84)" style="fill: none; stroke: #b0b0b0; stroke-opacity: 0.3; stroke-width: 0.8; stroke-linecap: square"/>
     </g>
     <g id="line2d_32">
      <g>
       <use xlink:href="#m449ce021d9" x="409.017614" y="355.44" style="stroke: #000000; stroke-width: 0.8"/>
      </g>
     </g>
     <g id="text_16">
      <!-- 450 -->
      <g transform="translate(399.473864 370.038437) scale(0.1 -0.1)">
       <use xlink:href="#DejaVuSans-34"/>
       <use xlink:href="#DejaVuSans-35" transform="translate(63.623047 0)"/>
       <use xlink:href="#DejaVuSans-30" transform="translate(127.246094 0)"/>
      </g>
     </g>
    </g>
    <g id="xtick_17">
     <g id="line2d_33">
      <path d="M 431.844886 355.44 
L 431.844886 22.8 
" clip-path="url(#p941f095e84)" style="fill: none; stroke: #b0b0b0; stroke-opacity: 0.3; stroke-width: 0.8; stroke-linecap: square"/>
     </g>
     <g id="line2d_34">
      <g>
       <use xlink:href="#m449ce021d9" x="431.844886" y="355.44" style="stroke: #000000; stroke-width: 0.8"/>
      </g>
     </g>
     <g id="text_17">
      <!-- 480 -->
      <g transform="translate(422.301136 370.038437) scale(0.1 -0.1)">
       <use xlink:href="#DejaVuSans-34"/>
       <use xlink:href="#DejaVuSans-38" transform="translate(63.623047 0)"/>
       <use xlink:href="#DejaVuSans-30" transform="translate(127.246094 0)"/>
      </g>
     </g>
    </g>
    <g id="xtick_18">
     <g id="line2d_35">
      <path d="M 454.672159 355.44 
L 454.672159 22.8 
" clip-path="url(#p941f095e84)" style="fill: none; stroke: #b0b0b0; stroke-opacity: 0.3; stroke-width: 0.8; stroke-linecap: square"/>
     </g>
     <g id="line2d_36">
      <g>
       <use xlink:href="#m449ce021d9" x="454.672159" y="355.44" style="stroke: #000000; stroke-width: 0.8"/>
      </g>
     </g>
     <g id="text_18">
      <!-- 510 -->
      <g transform="translate(445.128409 370.038437) scale(0.1 -0.1)">
       <use xlink:href="#DejaVuSans-35"/>
       <use xlink:href="#DejaVuSans-31" transform="translate(63.623047 0)"/>
       <use xlink:href="#DejaVuSans-30" transform="translate(127.246094 0)"/>
      </g>
     </g>
    </g>
    <g id="xtick_19">
     <g id="line2d_37">
      <path d="M 477.499432 355.44 
L 477.499432 22.8 
" clip-path="url(#p941f095e84)" style="fill: none; stroke: #b0b0b0; stroke-opacity: 0.3; stroke-width: 0.8; stroke-linecap: square"/>
     </g>
     <g id="line2d_38">
      <g>
       <use xlink:href="#m449ce021d9" x="477.499432" y="355.44" style="stroke: #000000; stroke-width: 0.8"/>
      </g>
     </g>
     <g id="text_19">
      <!-- 540 -->
      <g transform="translate(467.955682 370.038437) scale(0.1 -0.1)">
       <use xlink:href="#DejaVuSans-35"/>
       <use xlink:href="#DejaVuSans-34" transform="translate(63.623047 0)"/>
       <use xlink:href="#DejaVuSans-30" transform="translate(127.246094 0)"/>
      </g>
     </g>
    </g>
    <g id="xtick_20">
     <g id="line2d_39">
      <path d="M 500.326705 355.44 
L 500.326705 22.8 
" clip-path="url(#p941f095e84)" style="fill: none; stroke: #b0b0b0; stroke-opacity: 0.3; stroke-width: 0.8; stroke-linecap: square"/>
     </g>
     <g id="line2d_40">
      <g>
       <use xlink:href="#m449ce021d9" x="500.326705" y="355.44" style="stroke: #000000; stroke-width: 0.8"/>
      </g>
     </g>
     <g id="text_20">
      <!-- 570 -->
      <g transform="translate(490.782955 370.038437) scale(0.1 -0.1)">
       <use xlink:href="#DejaVuSans-35"/>
       <use xlink:href="#DejaVuSans-37" transform="translate(63.623047 0)"/>
       <use xlink:href="#DejaVuSans-30" transform="translate(127.246094 0)"/>
      </g>
     </g>
    </g>
    <g id="xtick_21">
     <g id="line2d_41">
      <path d="M 523.153977 355.44 
L 523.153977 22.8 
" clip-path="url(#p941f095e84)" style="fill: none; stroke: #b0b0b0; stroke-opacity: 0.3; stroke-width: 0.8; stroke-linecap: square"/>
     </g>
     <g id="line2d_42">
      <g>
       <use xlink:href="#m449ce021d9" x="523.153977" y="355.44" style="stroke: #000000; stroke-width: 0.8"/>
      </g>
     </g>
     <g id="text_21">
      <!-- 600 -->
      <g transform="translate(513.610227 370.038437) scale(0.1 -0.1)">
       <use xlink:href="#DejaVuSans-36"/>
       <use xlink:href="#DejaVuSans-30" transform="translate(63.623047 0)"/>
       <use xlink:href="#DejaVuSans-30" transform="translate(127.246094 0)"/>
      </g>
     </g>
    </g>
    <g id="text_22">
     <!-- t [s] -->
     <g transform="translate(284.825781 383.716562) scale(0.1 -0.1)">
      <defs>
       <path id="DejaVuSans-74" d="M 1172 4494 
L 1172 3500 
L 2356 3500 
L 2356 3053 
L 1172 3053 
L 1172 1153 
Q 1172 725 1289 603 
Q 1406 481 1766 481 
L 2356 481 
L 2356 0 
L 1766 0 
Q 1100 0 847 248 
Q 594 497 594 1153 
L 594 3053 
L 172 3053 
L 172 3500 
L 594 3500 
L 594 4494 
L 1172 4494 
z
" transform="scale(0.015625)"/>
       <path id="DejaVuSans-20" transform="scale(0.015625)"/>
       <path id="DejaVuSans-5b" d="M 550 4863 
L 1875 4863 
L 1875 4416 
L 1125 4416 
L 1125 -397 
L 1875 -397 
L 1875 -844 
L 550 -844 
L 550 4863 
z
" transform="scale(0.015625)"/>
       <path id="DejaVuSans-73" d="M 2834 3397 
L 2834 2853 
Q 2591 2978 2328 3040 
Q 2066 3103 1784 3103 
Q 1356 3103 1142 2972 
Q 928 2841 928 2578 
Q 928 2378 1081 2264 
Q 1234 2150 1697 2047 
L 1894 2003 
Q 2506 1872 2764 1633 
Q 3022 1394 3022 966 
Q 3022 478 2636 193 
Q 2250 -91 1575 -91 
Q 1294 -91 989 -36 
Q 684 19 347 128 
L 347 722 
Q 666 556 975 473 
Q 1284 391 1588 391 
Q 1994 391 2212 530 
Q 2431 669 2431 922 
Q 2431 1156 2273 1281 
Q 2116 1406 1581 1522 
L 1381 1569 
Q 847 1681 609 1914 
Q 372 2147 372 2553 
Q 372 3047 722 3315 
Q 1072 3584 1716 3584 
Q 2034 3584 2315 3537 
Q 2597 3491 2834 3397 
z
" transform="scale(0.015625)"/>
       <path id="DejaVuSans-5d" d="M 1947 4863 
L 1947 -844 
L 622 -844 
L 622 -397 
L 1369 -397 
L 1369 4416 
L 622 4416 
L 622 4863 
L 1947 4863 
z
" transform="scale(0.015625)"/>
      </defs>
      <use xlink:href="#DejaVuSans-74"/>
      <use xlink:href="#DejaVuSans-20" transform="translate(39.208984 0)"/>
      <use xlink:href="#DejaVuSans-5b" transform="translate(70.996094 0)"/>
      <use xlink:href="#DejaVuSans-73" transform="translate(110.009766 0)"/>
      <use xlink:href="#DejaVuSans-5d" transform="translate(162.109375 0)"/>
     </g>
    </g>
   </g>
   <g id="matplotlib.axis_2">
    <g id="ytick_1">
     <g id="line2d_43">
      <path d="M 43.78125 316.25434 
L 545.98125 316.25434 
" clip-path="url(#p941f095e84)" style="fill: none; stroke: #b0b0b0; stroke-opacity: 0.3; stroke-width: 0.8; stroke-linecap: square"/>
     </g>
     <g id="line2d_44">
      <defs>
       <path id="m60345fb949" d="M 0 0 
L -3.5 0 
" style="stroke: #000000; stroke-width: 0.8"/>
      </defs>
      <g>
       <use xlink:href="#m60345fb949" x="43.78125" y="316.25434" style="stroke: #000000; stroke-width: 0.8"/>
      </g>
     </g>
     <g id="text_23">
      <!-- 4.6 -->
      <g transform="translate(20.878125 320.053558) scale(0.1 -0.1)">
       <defs>
        <path id="DejaVuSans-2e" d="M 684 794 
L 1344 794 
L 1344 0 
L 684 0 
L 684 794 
z
" transform="scale(0.015625)"/>
       </defs>
       <use xlink:href="#DejaVuSans-34"/>
       <use xlink:href="#DejaVuSans-2e" transform="translate(63.623047 0)"/>
       <use xlink:href="#DejaVuSans-36" transform="translate(95.410156 0)"/>
      </g>
     </g>
    </g>
    <g id="ytick_2">
     <g id="line2d_45">
      <path d="M 43.78125 266.865566 
L 545.98125 266.865566 
" clip-path="url(#p941f095e84)" style="fill: none; stroke: #b0b0b0; stroke-opacity: 0.3; stroke-width: 0.8; stroke-linecap: square"/>
     </g>
     <g id="line2d_46">
      <g>
       <use xlink:href="#m60345fb949" x="43.78125" y="266.865566" style="stroke: #000000; stroke-width: 0.8"/>
      </g>
     </g>
     <g id="text_24">
      <!-- 4.8 -->
      <g transform="translate(20.878125 270.664784) scale(0.1 -0.1)">
       <use xlink:href="#DejaVuSans-34"/>
       <use xlink:href="#DejaVuSans-2e" transform="translate(63.623047 0)"/>
       <use xlink:href="#DejaVuSans-38" transform="translate(95.410156 0)"/>
      </g>
     </g>
    </g>
    <g id="ytick_3">
     <g id="line2d_47">
      <path d="M 43.78125 217.476792 
L 545.98125 217.476792 
" clip-path="url(#p941f095e84)" style="fill: none; stroke: #b0b0b0; stroke-opacity: 0.3; stroke-width: 0.8; stroke-linecap: square"/>
     </g>
     <g id="line2d_48">
      <g>
       <use xlink:href="#m60345fb949" x="43.78125" y="217.476792" style="stroke: #000000; stroke-width: 0.8"/>
      </g>
     </g>
     <g id="text_25">
      <!-- 5.0 -->
      <g transform="translate(20.878125 221.27601) scale(0.1 -0.1)">
       <use xlink:href="#DejaVuSans-35"/>
       <use xlink:href="#DejaVuSans-2e" transform="translate(63.623047 0)"/>
       <use xlink:href="#DejaVuSans-30" transform="translate(95.410156 0)"/>
      </g>
     </g>
    </g>
    <g id="ytick_4">
     <g id="line2d_49">
      <path d="M 43.78125 168.088018 
L 545.98125 168.088018 
" clip-path="url(#p941f095e84)" style="fill: none; stroke: #b0b0b0; stroke-opacity: 0.3; stroke-width: 0.8; stroke-linecap: square"/>
     </g>
     <g id="line2d_50">
      <g>
       <use xlink:href="#m60345fb949" x="43.78125" y="168.088018" style="stroke: #000000; stroke-width: 0.8"/>
      </g>
     </g>
     <g id="text_26">
      <!-- 5.2 -->
      <g transform="translate(20.878125 171.887236) scale(0.1 -0.1)">
       <use xlink:href="#DejaVuSans-35"/>
       <use xlink:href="#DejaVuSans-2e" transform="translate(63.623047 0)"/>
       <use xlink:href="#DejaVuSans-32" transform="translate(95.410156 0)"/>
      </g>
     </g>
    </g>
    <g id="ytick_5">
     <g id="line2d_51">
      <path d="M 43.78125 118.699244 
L 545.98125 118.699244 
" clip-path="url(#p941f095e84)" style="fill: none; stroke: #b0b0b0; stroke-opacity: 0.3; stroke-width: 0.8; stroke-linecap: square"/>
     </g>
     <g id="line2d_52">
      <g>
       <use xlink:href="#m60345fb949" x="43.78125" y="118.699244" style="stroke: #000000; stroke-width: 0.8"/>
      </g>
     </g>
     <g id="text_27">
      <!-- 5.4 -->
      <g transform="translate(20.878125 122.498462) scale(0.1 -0.1)">
       <use xlink:href="#DejaVuSans-35"/>
       <use xlink:href="#DejaVuSans-2e" transform="translate(63.623047 0)"/>
       <use xlink:href="#DejaVuSans-34" transform="translate(95.410156 0)"/>
      </g>
     </g>
    </g>
    <g id="ytick_6">
     <g id="line2d_53">
      <path d="M 43.78125 69.31047 
L 545.98125 69.31047 
" clip-path="url(#p941f095e84)" style="fill: none; stroke: #b0b0b0; stroke-opacity: 0.3; stroke-width: 0.8; stroke-linecap: square"/>
     </g>
     <g id="line2d_54">
      <g>
       <use xlink:href="#m60345fb949" x="43.78125" y="69.31047" style="stroke: #000000; stroke-width: 0.8"/>
      </g>
     </g>
     <g id="text_28">
      <!-- 5.6 -->
      <g transform="translate(20.878125 73.109688) scale(0.1 -0.1)">
       <use xlink:href="#DejaVuSans-35"/>
       <use xlink:href="#DejaVuSans-2e" transform="translate(63.623047 0)"/>
       <use xlink:href="#DejaVuSans-36" transform="translate(95.410156 0)"/>
      </g>
     </g>
    </g>
    <g id="text_29">
     <!-- ln(U) [V] -->
     <g transform="translate(14.798438 210.149687) rotate(-90) scale(0.1 -0.1)">
      <defs>
       <path id="DejaVuSans-6c" d="M 603 4863 
L 1178 4863 
L 1178 0 
L 603 0 
L 603 4863 
z
" transform="scale(0.015625)"/>
       <path id="DejaVuSans-6e" d="M 3513 2113 
L 3513 0 
L 2938 0 
L 2938 2094 
Q 2938 2591 2744 2837 
Q 2550 3084 2163 3084 
Q 1697 3084 1428 2787 
Q 1159 2491 1159 1978 
L 1159 0 
L 581 0 
L 581 3500 
L 1159 3500 
L 1159 2956 
Q 1366 3272 1645 3428 
Q 1925 3584 2291 3584 
Q 2894 3584 3203 3211 
Q 3513 2838 3513 2113 
z
" transform="scale(0.015625)"/>
       <path id="DejaVuSans-28" d="M 1984 4856 
Q 1566 4138 1362 3434 
Q 1159 2731 1159 2009 
Q 1159 1288 1364 580 
Q 1569 -128 1984 -844 
L 1484 -844 
Q 1016 -109 783 600 
Q 550 1309 550 2009 
Q 550 2706 781 3412 
Q 1013 4119 1484 4856 
L 1984 4856 
z
" transform="scale(0.015625)"/>
       <path id="DejaVuSans-55" d="M 556 4666 
L 1191 4666 
L 1191 1831 
Q 1191 1081 1462 751 
Q 1734 422 2344 422 
Q 2950 422 3222 751 
Q 3494 1081 3494 1831 
L 3494 4666 
L 4128 4666 
L 4128 1753 
Q 4128 841 3676 375 
Q 3225 -91 2344 -91 
Q 1459 -91 1007 375 
Q 556 841 556 1753 
L 556 4666 
z
" transform="scale(0.015625)"/>
       <path id="DejaVuSans-29" d="M 513 4856 
L 1013 4856 
Q 1481 4119 1714 3412 
Q 1947 2706 1947 2009 
Q 1947 1309 1714 600 
Q 1481 -109 1013 -844 
L 513 -844 
Q 928 -128 1133 580 
Q 1338 1288 1338 2009 
Q 1338 2731 1133 3434 
Q 928 4138 513 4856 
z
" transform="scale(0.015625)"/>
       <path id="DejaVuSans-56" d="M 1831 0 
L 50 4666 
L 709 4666 
L 2188 738 
L 3669 4666 
L 4325 4666 
L 2547 0 
L 1831 0 
z
" transform="scale(0.015625)"/>
      </defs>
      <use xlink:href="#DejaVuSans-6c"/>
      <use xlink:href="#DejaVuSans-6e" transform="translate(27.783203 0)"/>
      <use xlink:href="#DejaVuSans-28" transform="translate(91.162109 0)"/>
      <use xlink:href="#DejaVuSans-55" transform="translate(130.175781 0)"/>
      <use xlink:href="#DejaVuSans-29" transform="translate(203.369141 0)"/>
      <use xlink:href="#DejaVuSans-20" transform="translate(242.382812 0)"/>
      <use xlink:href="#DejaVuSans-5b" transform="translate(274.169922 0)"/>
      <use xlink:href="#DejaVuSans-56" transform="translate(313.183594 0)"/>
      <use xlink:href="#DejaVuSans-5d" transform="translate(381.591797 0)"/>
     </g>
    </g>
   </g>
   <g id="LineCollection_1">
    <path d="M 66.608523 49.444047 
L 66.608523 37.92 
" clip-path="url(#p941f095e84)" style="fill: none; stroke: #8b0000; stroke-width: 1.5"/>
    <path d="M 89.435795 62.413876 
L 89.435795 50.2833 
" clip-path="url(#p941f095e84)" style="fill: none; stroke: #8b0000; stroke-width: 1.5"/>
    <path d="M 112.263068 76.102406 
L 112.263068 63.297909 
" clip-path="url(#p941f095e84)" style="fill: none; stroke: #8b0000; stroke-width: 1.5"/>
    <path d="M 135.090341 93.597076 
L 135.090341 79.877972 
" clip-path="url(#p941f095e84)" style="fill: none; stroke: #8b0000; stroke-width: 1.5"/>
    <path d="M 157.917614 109.18591 
L 157.917614 94.598508 
" clip-path="url(#p941f095e84)" style="fill: none; stroke: #8b0000; stroke-width: 1.5"/>
    <path d="M 180.744886 122.406046 
L 180.744886 107.04065 
" clip-path="url(#p941f095e84)" style="fill: none; stroke: #8b0000; stroke-width: 1.5"/>
    <path d="M 203.572159 136.373432 
L 203.572159 120.14238 
" clip-path="url(#p941f095e84)" style="fill: none; stroke: #8b0000; stroke-width: 1.5"/>
    <path d="M 226.399432 152.452182 
L 226.399432 135.166111 
" clip-path="url(#p941f095e84)" style="fill: none; stroke: #8b0000; stroke-width: 1.5"/>
    <path d="M 249.226705 166.924917 
L 249.226705 148.632779 
" clip-path="url(#p941f095e84)" style="fill: none; stroke: #8b0000; stroke-width: 1.5"/>
    <path d="M 272.053977 182.297734 
L 272.053977 162.875182 
" clip-path="url(#p941f095e84)" style="fill: none; stroke: #8b0000; stroke-width: 1.5"/>
    <path d="M 294.88125 197.153975 
L 294.88125 176.575319 
" clip-path="url(#p941f095e84)" style="fill: none; stroke: #8b0000; stroke-width: 1.5"/>
    <path d="M 317.708523 211.333064 
L 317.708523 189.589578 
" clip-path="url(#p941f095e84)" style="fill: none; stroke: #8b0000; stroke-width: 1.5"/>
    <path d="M 340.535795 224.657371 
L 340.535795 201.761913 
" clip-path="url(#p941f095e84)" style="fill: none; stroke: #8b0000; stroke-width: 1.5"/>
    <path d="M 363.363068 240.558318 
L 363.363068 216.21174 
" clip-path="url(#p941f095e84)" style="fill: none; stroke: #8b0000; stroke-width: 1.5"/>
    <path d="M 386.190341 253.673101 
L 386.190341 228.064107 
" clip-path="url(#p941f095e84)" style="fill: none; stroke: #8b0000; stroke-width: 1.5"/>
    <path d="M 409.017614 271.625075 
L 409.017614 244.186867 
" clip-path="url(#p941f095e84)" style="fill: none; stroke: #8b0000; stroke-width: 1.5"/>
    <path d="M 431.844886 284.359462 
L 431.844886 255.549344 
" clip-path="url(#p941f095e84)" style="fill: none; stroke: #8b0000; stroke-width: 1.5"/>
    <path d="M 454.672159 297.784188 
L 454.672159 267.457748 
" clip-path="url(#p941f095e84)" style="fill: none; stroke: #8b0000; stroke-width: 1.5"/>
    <path d="M 477.499432 316.896058 
L 477.499432 284.28083 
" clip-path="url(#p941f095e84)" style="fill: none; stroke: #8b0000; stroke-width: 1.5"/>
    <path d="M 500.326705 329.635342 
L 500.326705 295.405499 
" clip-path="url(#p941f095e84)" style="fill: none; stroke: #8b0000; stroke-width: 1.5"/>
    <path d="M 523.153977 340.32 
L 523.153977 304.678617 
" clip-path="url(#p941f095e84)" style="fill: none; stroke: #8b0000; stroke-width: 1.5"/>
   </g>
   <g id="line2d_55">
    <defs>
     <path id="mff8262b98a" d="M 3 0 
L -3 -0 
" style="stroke: #8b0000"/>
    </defs>
    <g clip-path="url(#p941f095e84)">
     <use xlink:href="#mff8262b98a" x="66.608523" y="49.444047" style="fill: #8b0000; stroke: #8b0000"/>
     <use xlink:href="#mff8262b98a" x="89.435795" y="62.413876" style="fill: #8b0000; stroke: #8b0000"/>
     <use xlink:href="#mff8262b98a" x="112.263068" y="76.102406" style="fill: #8b0000; stroke: #8b0000"/>
     <use xlink:href="#mff8262b98a" x="135.090341" y="93.597076" style="fill: #8b0000; stroke: #8b0000"/>
     <use xlink:href="#mff8262b98a" x="157.917614" y="109.18591" style="fill: #8b0000; stroke: #8b0000"/>
     <use xlink:href="#mff8262b98a" x="180.744886" y="122.406046" style="fill: #8b0000; stroke: #8b0000"/>
     <use xlink:href="#mff8262b98a" x="203.572159" y="136.373432" style="fill: #8b0000; stroke: #8b0000"/>
     <use xlink:href="#mff8262b98a" x="226.399432" y="152.452182" style="fill: #8b0000; stroke: #8b0000"/>
     <use xlink:href="#mff8262b98a" x="249.226705" y="166.924917" style="fill: #8b0000; stroke: #8b0000"/>
     <use xlink:href="#mff8262b98a" x="272.053977" y="182.297734" style="fill: #8b0000; stroke: #8b0000"/>
     <use xlink:href="#mff8262b98a" x="294.88125" y="197.153975" style="fill: #8b0000; stroke: #8b0000"/>
     <use xlink:href="#mff8262b98a" x="317.708523" y="211.333064" style="fill: #8b0000; stroke: #8b0000"/>
     <use xlink:href="#mff8262b98a" x="340.535795" y="224.657371" style="fill: #8b0000; stroke: #8b0000"/>
     <use xlink:href="#mff8262b98a" x="363.363068" y="240.558318" style="fill: #8b0000; stroke: #8b0000"/>
     <use xlink:href="#mff8262b98a" x="386.190341" y="253.673101" style="fill: #8b0000; stroke: #8b0000"/>
     <use xlink:href="#mff8262b98a" x="409.017614" y="271.625075" style="fill: #8b0000; stroke: #8b0000"/>
     <use xlink:href="#mff8262b98a" x="431.844886" y="284.359462" style="fill: #8b0000; stroke: #8b0000"/>
     <use xlink:href="#mff8262b98a" x="454.672159" y="297.784188" style="fill: #8b0000; stroke: #8b0000"/>
     <use xlink:href="#mff8262b98a" x="477.499432" y="316.896058" style="fill: #8b0000; stroke: #8b0000"/>
     <use xlink:href="#mff8262b98a" x="500.326705" y="329.635342" style="fill: #8b0000; stroke: #8b0000"/>
     <use xlink:href="#mff8262b98a" x="523.153977" y="340.32" style="fill: #8b0000; stroke: #8b0000"/>
    </g>
   </g>
   <g id="line2d_56">
    <g clip-path="url(#p941f095e84)">
     <use xlink:href="#mff8262b98a" x="66.608523" y="37.92" style="fill: #8b0000; stroke: #8b0000"/>
     <use xlink:href="#mff8262b98a" x="89.435795" y="50.2833" style="fill: #8b0000; stroke: #8b0000"/>
     <use xlink:href="#mff8262b98a" x="112.263068" y="63.297909" style="fill: #8b0000; stroke: #8b0000"/>
     <use xlink:href="#mff8262b98a" x="135.090341" y="79.877972" style="fill: #8b0000; stroke: #8b0000"/>
     <use xlink:href="#mff8262b98a" x="157.917614" y="94.598508" style="fill: #8b0000; stroke: #8b0000"/>
     <use xlink:href="#mff8262b98a" x="180.744886" y="107.04065" style="fill: #8b0000; stroke: #8b0000"/>
     <use xlink:href="#mff8262b98a" x="203.572159" y="120.14238" style="fill: #8b0000; stroke: #8b0000"/>
     <use xlink:href="#mff8262b98a" x="226.399432" y="135.166111" style="fill: #8b0000; stroke: #8b0000"/>
     <use xlink:href="#mff8262b98a" x="249.226705" y="148.632779" style="fill: #8b0000; stroke: #8b0000"/>
     <use xlink:href="#mff8262b98a" x="272.053977" y="162.875182" style="fill: #8b0000; stroke: #8b0000"/>
     <use xlink:href="#mff8262b98a" x="294.88125" y="176.575319" style="fill: #8b0000; stroke: #8b0000"/>
     <use xlink:href="#mff8262b98a" x="317.708523" y="189.589578" style="fill: #8b0000; stroke: #8b0000"/>
     <use xlink:href="#mff8262b98a" x="340.535795" y="201.761913" style="fill: #8b0000; stroke: #8b0000"/>
     <use xlink:href="#mff8262b98a" x="363.363068" y="216.21174" style="fill: #8b0000; stroke: #8b0000"/>
     <use xlink:href="#mff8262b98a" x="386.190341" y="228.064107" style="fill: #8b0000; stroke: #8b0000"/>
     <use xlink:href="#mff8262b98a" x="409.017614" y="244.186867" style="fill: #8b0000; stroke: #8b0000"/>
     <use xlink:href="#mff8262b98a" x="431.844886" y="255.549344" style="fill: #8b0000; stroke: #8b0000"/>
     <use xlink:href="#mff8262b98a" x="454.672159" y="267.457748" style="fill: #8b0000; stroke: #8b0000"/>
     <use xlink:href="#mff8262b98a" x="477.499432" y="284.28083" style="fill: #8b0000; stroke: #8b0000"/>
     <use xlink:href="#mff8262b98a" x="500.326705" y="295.405499" style="fill: #8b0000; stroke: #8b0000"/>
     <use xlink:href="#mff8262b98a" x="523.153977" y="304.678617" style="fill: #8b0000; stroke: #8b0000"/>
    </g>
   </g>
   <g id="line2d_57">
    <path d="M 66.608523 43.357898 
L 89.435795 57.566854 
L 112.263068 71.77581 
L 135.090341 85.984767 
L 157.917614 100.193723 
L 180.744886 114.402679 
L 203.572159 128.611635 
L 226.399432 142.820591 
L 249.226705 157.029547 
L 272.053977 171.238503 
L 294.88125 185.447459 
L 317.708523 199.656415 
L 340.535795 213.865371 
L 363.363068 228.074327 
L 386.190341 242.283283 
L 409.017614 256.492239 
L 431.844886 270.701195 
L 454.672159 284.910151 
L 477.499432 299.119108 
L 500.326705 313.328064 
L 523.153977 327.53702 
" clip-path="url(#p941f095e84)" style="fill: none; stroke: #0000ff; stroke-width: 1.5; stroke-linecap: square"/>
   </g>
   <g id="line2d_58">
    <defs>
     <path id="md5ac8657bb" d="M 0 3 
C 0.795609 3 1.55874 2.683901 2.12132 2.12132 
C 2.683901 1.55874 3 0.795609 3 0 
C 3 -0.795609 2.683901 -1.55874 2.12132 -2.12132 
C 1.55874 -2.683901 0.795609 -3 0 -3 
C -0.795609 -3 -1.55874 -2.683901 -2.12132 -2.12132 
C -2.683901 -1.55874 -3 -0.795609 -3 0 
C -3 0.795609 -2.683901 1.55874 -2.12132 2.12132 
C -1.55874 2.683901 -0.795609 3 0 3 
z
" style="stroke: #8b0000"/>
    </defs>
    <g clip-path="url(#p941f095e84)">
     <use xlink:href="#md5ac8657bb" x="66.608523" y="43.682024" style="fill: #8b0000; stroke: #8b0000"/>
     <use xlink:href="#md5ac8657bb" x="89.435795" y="56.348588" style="fill: #8b0000; stroke: #8b0000"/>
     <use xlink:href="#md5ac8657bb" x="112.263068" y="69.700157" style="fill: #8b0000; stroke: #8b0000"/>
     <use xlink:href="#md5ac8657bb" x="135.090341" y="86.737524" style="fill: #8b0000; stroke: #8b0000"/>
     <use xlink:href="#md5ac8657bb" x="157.917614" y="101.892209" style="fill: #8b0000; stroke: #8b0000"/>
     <use xlink:href="#md5ac8657bb" x="180.744886" y="114.723348" style="fill: #8b0000; stroke: #8b0000"/>
     <use xlink:href="#md5ac8657bb" x="203.572159" y="128.257906" style="fill: #8b0000; stroke: #8b0000"/>
     <use xlink:href="#md5ac8657bb" x="226.399432" y="143.809147" style="fill: #8b0000; stroke: #8b0000"/>
     <use xlink:href="#md5ac8657bb" x="249.226705" y="157.778848" style="fill: #8b0000; stroke: #8b0000"/>
     <use xlink:href="#md5ac8657bb" x="272.053977" y="172.586458" style="fill: #8b0000; stroke: #8b0000"/>
     <use xlink:href="#md5ac8657bb" x="294.88125" y="186.864647" style="fill: #8b0000; stroke: #8b0000"/>
     <use xlink:href="#md5ac8657bb" x="317.708523" y="200.461321" style="fill: #8b0000; stroke: #8b0000"/>
     <use xlink:href="#md5ac8657bb" x="340.535795" y="213.209642" style="fill: #8b0000; stroke: #8b0000"/>
     <use xlink:href="#md5ac8657bb" x="363.363068" y="228.385029" style="fill: #8b0000; stroke: #8b0000"/>
     <use xlink:href="#md5ac8657bb" x="386.190341" y="240.868604" style="fill: #8b0000; stroke: #8b0000"/>
     <use xlink:href="#md5ac8657bb" x="409.017614" y="257.905971" style="fill: #8b0000; stroke: #8b0000"/>
     <use xlink:href="#md5ac8657bb" x="431.844886" y="269.954403" style="fill: #8b0000; stroke: #8b0000"/>
     <use xlink:href="#md5ac8657bb" x="454.672159" y="282.620968" style="fill: #8b0000; stroke: #8b0000"/>
     <use xlink:href="#md5ac8657bb" x="477.499432" y="300.588444" style="fill: #8b0000; stroke: #8b0000"/>
     <use xlink:href="#md5ac8657bb" x="500.326705" y="312.520421" style="fill: #8b0000; stroke: #8b0000"/>
     <use xlink:href="#md5ac8657bb" x="523.153977" y="322.499308" style="fill: #8b0000; stroke: #8b0000"/>
    </g>
   </g>
   <g id="patch_3">
    <path d="M 43.78125 355.44 
L 43.78125 22.8 
" style="fill: none; stroke: #000000; stroke-width: 0.8; stroke-linejoin: miter; stroke-linecap: square"/>
   </g>
   <g id="patch_4">
    <path d="M 545.98125 355.44 
L 545.98125 22.8 
" style="fill: none; stroke: #000000; stroke-width: 0.8; stroke-linejoin: miter; stroke-linecap: square"/>
   </g>
   <g id="patch_5">
    <path d="M 43.78125 355.44 
L 545.98125 355.44 
" style="fill: none; stroke: #000000; stroke-width: 0.8; stroke-linejoin: miter; stroke-linecap: square"/>
   </g>
   <g id="patch_6">
    <path d="M 43.78125 22.8 
L 545.98125 22.8 
" style="fill: none; stroke: #000000; stroke-width: 0.8; stroke-linejoin: miter; stroke-linecap: square"/>
   </g>
   <g id="text_30">
    <!-- Semilogaritmické napětí vybíjenýho kondenzátoru přes $R_0$ a $R_x$ s připojenéným odporem $R_x$ -->
    <g transform="translate(19.48125 16.8) scale(0.12 -0.12)">
     <defs>
      <path id="DejaVuSans-53" d="M 3425 4513 
L 3425 3897 
Q 3066 4069 2747 4153 
Q 2428 4238 2131 4238 
Q 1616 4238 1336 4038 
Q 1056 3838 1056 3469 
Q 1056 3159 1242 3001 
Q 1428 2844 1947 2747 
L 2328 2669 
Q 3034 2534 3370 2195 
Q 3706 1856 3706 1288 
Q 3706 609 3251 259 
Q 2797 -91 1919 -91 
Q 1588 -91 1214 -16 
Q 841 59 441 206 
L 441 856 
Q 825 641 1194 531 
Q 1563 422 1919 422 
Q 2459 422 2753 634 
Q 3047 847 3047 1241 
Q 3047 1584 2836 1778 
Q 2625 1972 2144 2069 
L 1759 2144 
Q 1053 2284 737 2584 
Q 422 2884 422 3419 
Q 422 4038 858 4394 
Q 1294 4750 2059 4750 
Q 2388 4750 2728 4690 
Q 3069 4631 3425 4513 
z
" transform="scale(0.015625)"/>
      <path id="DejaVuSans-65" d="M 3597 1894 
L 3597 1613 
L 953 1613 
Q 991 1019 1311 708 
Q 1631 397 2203 397 
Q 2534 397 2845 478 
Q 3156 559 3463 722 
L 3463 178 
Q 3153 47 2828 -22 
Q 2503 -91 2169 -91 
Q 1331 -91 842 396 
Q 353 884 353 1716 
Q 353 2575 817 3079 
Q 1281 3584 2069 3584 
Q 2775 3584 3186 3129 
Q 3597 2675 3597 1894 
z
M 3022 2063 
Q 3016 2534 2758 2815 
Q 2500 3097 2075 3097 
Q 1594 3097 1305 2825 
Q 1016 2553 972 2059 
L 3022 2063 
z
" transform="scale(0.015625)"/>
      <path id="DejaVuSans-6d" d="M 3328 2828 
Q 3544 3216 3844 3400 
Q 4144 3584 4550 3584 
Q 5097 3584 5394 3201 
Q 5691 2819 5691 2113 
L 5691 0 
L 5113 0 
L 5113 2094 
Q 5113 2597 4934 2840 
Q 4756 3084 4391 3084 
Q 3944 3084 3684 2787 
Q 3425 2491 3425 1978 
L 3425 0 
L 2847 0 
L 2847 2094 
Q 2847 2600 2669 2842 
Q 2491 3084 2119 3084 
Q 1678 3084 1418 2786 
Q 1159 2488 1159 1978 
L 1159 0 
L 581 0 
L 581 3500 
L 1159 3500 
L 1159 2956 
Q 1356 3278 1631 3431 
Q 1906 3584 2284 3584 
Q 2666 3584 2933 3390 
Q 3200 3197 3328 2828 
z
" transform="scale(0.015625)"/>
      <path id="DejaVuSans-69" d="M 603 3500 
L 1178 3500 
L 1178 0 
L 603 0 
L 603 3500 
z
M 603 4863 
L 1178 4863 
L 1178 4134 
L 603 4134 
L 603 4863 
z
" transform="scale(0.015625)"/>
      <path id="DejaVuSans-6f" d="M 1959 3097 
Q 1497 3097 1228 2736 
Q 959 2375 959 1747 
Q 959 1119 1226 758 
Q 1494 397 1959 397 
Q 2419 397 2687 759 
Q 2956 1122 2956 1747 
Q 2956 2369 2687 2733 
Q 2419 3097 1959 3097 
z
M 1959 3584 
Q 2709 3584 3137 3096 
Q 3566 2609 3566 1747 
Q 3566 888 3137 398 
Q 2709 -91 1959 -91 
Q 1206 -91 779 398 
Q 353 888 353 1747 
Q 353 2609 779 3096 
Q 1206 3584 1959 3584 
z
" transform="scale(0.015625)"/>
      <path id="DejaVuSans-67" d="M 2906 1791 
Q 2906 2416 2648 2759 
Q 2391 3103 1925 3103 
Q 1463 3103 1205 2759 
Q 947 2416 947 1791 
Q 947 1169 1205 825 
Q 1463 481 1925 481 
Q 2391 481 2648 825 
Q 2906 1169 2906 1791 
z
M 3481 434 
Q 3481 -459 3084 -895 
Q 2688 -1331 1869 -1331 
Q 1566 -1331 1297 -1286 
Q 1028 -1241 775 -1147 
L 775 -588 
Q 1028 -725 1275 -790 
Q 1522 -856 1778 -856 
Q 2344 -856 2625 -561 
Q 2906 -266 2906 331 
L 2906 616 
Q 2728 306 2450 153 
Q 2172 0 1784 0 
Q 1141 0 747 490 
Q 353 981 353 1791 
Q 353 2603 747 3093 
Q 1141 3584 1784 3584 
Q 2172 3584 2450 3431 
Q 2728 3278 2906 2969 
L 2906 3500 
L 3481 3500 
L 3481 434 
z
" transform="scale(0.015625)"/>
      <path id="DejaVuSans-61" d="M 2194 1759 
Q 1497 1759 1228 1600 
Q 959 1441 959 1056 
Q 959 750 1161 570 
Q 1363 391 1709 391 
Q 2188 391 2477 730 
Q 2766 1069 2766 1631 
L 2766 1759 
L 2194 1759 
z
M 3341 1997 
L 3341 0 
L 2766 0 
L 2766 531 
Q 2569 213 2275 61 
Q 1981 -91 1556 -91 
Q 1019 -91 701 211 
Q 384 513 384 1019 
Q 384 1609 779 1909 
Q 1175 2209 1959 2209 
L 2766 2209 
L 2766 2266 
Q 2766 2663 2505 2880 
Q 2244 3097 1772 3097 
Q 1472 3097 1187 3025 
Q 903 2953 641 2809 
L 641 3341 
Q 956 3463 1253 3523 
Q 1550 3584 1831 3584 
Q 2591 3584 2966 3190 
Q 3341 2797 3341 1997 
z
" transform="scale(0.015625)"/>
      <path id="DejaVuSans-72" d="M 2631 2963 
Q 2534 3019 2420 3045 
Q 2306 3072 2169 3072 
Q 1681 3072 1420 2755 
Q 1159 2438 1159 1844 
L 1159 0 
L 581 0 
L 581 3500 
L 1159 3500 
L 1159 2956 
Q 1341 3275 1631 3429 
Q 1922 3584 2338 3584 
Q 2397 3584 2469 3576 
Q 2541 3569 2628 3553 
L 2631 2963 
z
" transform="scale(0.015625)"/>
      <path id="DejaVuSans-63" d="M 3122 3366 
L 3122 2828 
Q 2878 2963 2633 3030 
Q 2388 3097 2138 3097 
Q 1578 3097 1268 2742 
Q 959 2388 959 1747 
Q 959 1106 1268 751 
Q 1578 397 2138 397 
Q 2388 397 2633 464 
Q 2878 531 3122 666 
L 3122 134 
Q 2881 22 2623 -34 
Q 2366 -91 2075 -91 
Q 1284 -91 818 406 
Q 353 903 353 1747 
Q 353 2603 823 3093 
Q 1294 3584 2113 3584 
Q 2378 3584 2631 3529 
Q 2884 3475 3122 3366 
z
" transform="scale(0.015625)"/>
      <path id="DejaVuSans-6b" d="M 581 4863 
L 1159 4863 
L 1159 1991 
L 2875 3500 
L 3609 3500 
L 1753 1863 
L 3688 0 
L 2938 0 
L 1159 1709 
L 1159 0 
L 581 0 
L 581 4863 
z
" transform="scale(0.015625)"/>
      <path id="DejaVuSans-e9" d="M 3597 1894 
L 3597 1613 
L 953 1613 
Q 991 1019 1311 708 
Q 1631 397 2203 397 
Q 2534 397 2845 478 
Q 3156 559 3463 722 
L 3463 178 
Q 3153 47 2828 -22 
Q 2503 -91 2169 -91 
Q 1331 -91 842 396 
Q 353 884 353 1716 
Q 353 2575 817 3079 
Q 1281 3584 2069 3584 
Q 2775 3584 3186 3129 
Q 3597 2675 3597 1894 
z
M 3022 2063 
Q 3016 2534 2758 2815 
Q 2500 3097 2075 3097 
Q 1594 3097 1305 2825 
Q 1016 2553 972 2059 
L 3022 2063 
z
M 2466 5119 
L 3088 5119 
L 2070 3944 
L 1591 3944 
L 2466 5119 
z
" transform="scale(0.015625)"/>
      <path id="DejaVuSans-70" d="M 1159 525 
L 1159 -1331 
L 581 -1331 
L 581 3500 
L 1159 3500 
L 1159 2969 
Q 1341 3281 1617 3432 
Q 1894 3584 2278 3584 
Q 2916 3584 3314 3078 
Q 3713 2572 3713 1747 
Q 3713 922 3314 415 
Q 2916 -91 2278 -91 
Q 1894 -91 1617 61 
Q 1341 213 1159 525 
z
M 3116 1747 
Q 3116 2381 2855 2742 
Q 2594 3103 2138 3103 
Q 1681 3103 1420 2742 
Q 1159 2381 1159 1747 
Q 1159 1113 1420 752 
Q 1681 391 2138 391 
Q 2594 391 2855 752 
Q 3116 1113 3116 1747 
z
" transform="scale(0.015625)"/>
      <path id="DejaVuSans-11b" d="M 3597 1894 
L 3597 1613 
L 953 1613 
Q 991 1019 1311 708 
Q 1631 397 2203 397 
Q 2534 397 2845 478 
Q 3156 559 3463 722 
L 3463 178 
Q 3153 47 2828 -22 
Q 2503 -91 2169 -91 
Q 1331 -91 842 396 
Q 353 884 353 1716 
Q 353 2575 817 3079 
Q 1281 3584 2069 3584 
Q 2775 3584 3186 3129 
Q 3597 2675 3597 1894 
z
M 3022 2063 
Q 3016 2534 2758 2815 
Q 2500 3097 2075 3097 
Q 1594 3097 1305 2825 
Q 1016 2553 972 2059 
L 3022 2063 
z
M 1833 3944 
L 1067 5119 
L 1502 5119 
L 2064 4353 
L 2627 5119 
L 3061 5119 
L 2295 3944 
L 1833 3944 
z
" transform="scale(0.015625)"/>
      <path id="DejaVuSans-ed" d="M 1322 5119 
L 1944 5119 
L 926 3944 
L 447 3944 
L 1322 5119 
z
M 603 3500 
L 1178 3500 
L 1178 0 
L 603 0 
L 603 3500 
z
M 891 3584 
L 891 3584 
z
" transform="scale(0.015625)"/>
      <path id="DejaVuSans-76" d="M 191 3500 
L 800 3500 
L 1894 563 
L 2988 3500 
L 3597 3500 
L 2284 0 
L 1503 0 
L 191 3500 
z
" transform="scale(0.015625)"/>
      <path id="DejaVuSans-79" d="M 2059 -325 
Q 1816 -950 1584 -1140 
Q 1353 -1331 966 -1331 
L 506 -1331 
L 506 -850 
L 844 -850 
Q 1081 -850 1212 -737 
Q 1344 -625 1503 -206 
L 1606 56 
L 191 3500 
L 800 3500 
L 1894 763 
L 2988 3500 
L 3597 3500 
L 2059 -325 
z
" transform="scale(0.015625)"/>
      <path id="DejaVuSans-62" d="M 3116 1747 
Q 3116 2381 2855 2742 
Q 2594 3103 2138 3103 
Q 1681 3103 1420 2742 
Q 1159 2381 1159 1747 
Q 1159 1113 1420 752 
Q 1681 391 2138 391 
Q 2594 391 2855 752 
Q 3116 1113 3116 1747 
z
M 1159 2969 
Q 1341 3281 1617 3432 
Q 1894 3584 2278 3584 
Q 2916 3584 3314 3078 
Q 3713 2572 3713 1747 
Q 3713 922 3314 415 
Q 2916 -91 2278 -91 
Q 1894 -91 1617 61 
Q 1341 213 1159 525 
L 1159 0 
L 581 0 
L 581 4863 
L 1159 4863 
L 1159 2969 
z
" transform="scale(0.015625)"/>
      <path id="DejaVuSans-6a" d="M 603 3500 
L 1178 3500 
L 1178 -63 
Q 1178 -731 923 -1031 
Q 669 -1331 103 -1331 
L -116 -1331 
L -116 -844 
L 38 -844 
Q 366 -844 484 -692 
Q 603 -541 603 -63 
L 603 3500 
z
M 603 4863 
L 1178 4863 
L 1178 4134 
L 603 4134 
L 603 4863 
z
" transform="scale(0.015625)"/>
      <path id="DejaVuSans-fd" d="M 2059 -325 
Q 1816 -950 1584 -1140 
Q 1353 -1331 966 -1331 
L 506 -1331 
L 506 -850 
L 844 -850 
Q 1081 -850 1212 -737 
Q 1344 -625 1503 -206 
L 1606 56 
L 191 3500 
L 800 3500 
L 1894 763 
L 2988 3500 
L 3597 3500 
L 2059 -325 
z
M 2330 5119 
L 2952 5119 
L 1934 3944 
L 1455 3944 
L 2330 5119 
z
" transform="scale(0.015625)"/>
      <path id="DejaVuSans-68" d="M 3513 2113 
L 3513 0 
L 2938 0 
L 2938 2094 
Q 2938 2591 2744 2837 
Q 2550 3084 2163 3084 
Q 1697 3084 1428 2787 
Q 1159 2491 1159 1978 
L 1159 0 
L 581 0 
L 581 4863 
L 1159 4863 
L 1159 2956 
Q 1366 3272 1645 3428 
Q 1925 3584 2291 3584 
Q 2894 3584 3203 3211 
Q 3513 2838 3513 2113 
z
" transform="scale(0.015625)"/>
      <path id="DejaVuSans-64" d="M 2906 2969 
L 2906 4863 
L 3481 4863 
L 3481 0 
L 2906 0 
L 2906 525 
Q 2725 213 2448 61 
Q 2172 -91 1784 -91 
Q 1150 -91 751 415 
Q 353 922 353 1747 
Q 353 2572 751 3078 
Q 1150 3584 1784 3584 
Q 2172 3584 2448 3432 
Q 2725 3281 2906 2969 
z
M 947 1747 
Q 947 1113 1208 752 
Q 1469 391 1925 391 
Q 2381 391 2643 752 
Q 2906 1113 2906 1747 
Q 2906 2381 2643 2742 
Q 2381 3103 1925 3103 
Q 1469 3103 1208 2742 
Q 947 2381 947 1747 
z
" transform="scale(0.015625)"/>
      <path id="DejaVuSans-7a" d="M 353 3500 
L 3084 3500 
L 3084 2975 
L 922 459 
L 3084 459 
L 3084 0 
L 275 0 
L 275 525 
L 2438 3041 
L 353 3041 
L 353 3500 
z
" transform="scale(0.015625)"/>
      <path id="DejaVuSans-e1" d="M 2194 1759 
Q 1497 1759 1228 1600 
Q 959 1441 959 1056 
Q 959 750 1161 570 
Q 1363 391 1709 391 
Q 2188 391 2477 730 
Q 2766 1069 2766 1631 
L 2766 1759 
L 2194 1759 
z
M 3341 1997 
L 3341 0 
L 2766 0 
L 2766 531 
Q 2569 213 2275 61 
Q 1981 -91 1556 -91 
Q 1019 -91 701 211 
Q 384 513 384 1019 
Q 384 1609 779 1909 
Q 1175 2209 1959 2209 
L 2766 2209 
L 2766 2266 
Q 2766 2663 2505 2880 
Q 2244 3097 1772 3097 
Q 1472 3097 1187 3025 
Q 903 2953 641 2809 
L 641 3341 
Q 956 3463 1253 3523 
Q 1550 3584 1831 3584 
Q 2591 3584 2966 3190 
Q 3341 2797 3341 1997 
z
M 2290 5119 
L 2912 5119 
L 1894 3944 
L 1415 3944 
L 2290 5119 
z
" transform="scale(0.015625)"/>
      <path id="DejaVuSans-75" d="M 544 1381 
L 544 3500 
L 1119 3500 
L 1119 1403 
Q 1119 906 1312 657 
Q 1506 409 1894 409 
Q 2359 409 2629 706 
Q 2900 1003 2900 1516 
L 2900 3500 
L 3475 3500 
L 3475 0 
L 2900 0 
L 2900 538 
Q 2691 219 2414 64 
Q 2138 -91 1772 -91 
Q 1169 -91 856 284 
Q 544 659 544 1381 
z
M 1991 3584 
L 1991 3584 
z
" transform="scale(0.015625)"/>
      <path id="DejaVuSans-159" d="M 2631 2963 
Q 2534 3019 2420 3045 
Q 2306 3072 2169 3072 
Q 1681 3072 1420 2755 
Q 1159 2438 1159 1844 
L 1159 0 
L 581 0 
L 581 3500 
L 1159 3500 
L 1159 2956 
Q 1341 3275 1631 3429 
Q 1922 3584 2338 3584 
Q 2397 3584 2469 3576 
Q 2541 3569 2628 3553 
L 2631 2963 
z
M 1457 3944 
L 691 5119 
L 1126 5119 
L 1688 4353 
L 2251 5119 
L 2685 5119 
L 1919 3944 
L 1457 3944 
z
" transform="scale(0.015625)"/>
      <path id="DejaVuSans-Oblique-52" d="M 1613 4147 
L 1294 2491 
L 2106 2491 
Q 2584 2491 2879 2755 
Q 3175 3019 3175 3444 
Q 3175 3784 2976 3965 
Q 2778 4147 2406 4147 
L 1613 4147 
z
M 2772 2241 
Q 2972 2194 3105 2009 
Q 3238 1825 3413 1275 
L 3809 0 
L 3144 0 
L 2778 1197 
Q 2638 1659 2453 1815 
Q 2269 1972 1888 1972 
L 1191 1972 
L 806 0 
L 172 0 
L 1081 4666 
L 2503 4666 
Q 3150 4666 3495 4373 
Q 3841 4081 3841 3531 
Q 3841 3044 3547 2687 
Q 3253 2331 2772 2241 
z
" transform="scale(0.015625)"/>
      <path id="DejaVuSans-Oblique-78" d="M 3841 3500 
L 2234 1784 
L 3219 0 
L 2559 0 
L 1819 1388 
L 531 0 
L -166 0 
L 1556 1844 
L 641 3500 
L 1300 3500 
L 1972 2234 
L 3144 3500 
L 3841 3500 
z
" transform="scale(0.015625)"/>
     </defs>
     <use xlink:href="#DejaVuSans-53" transform="translate(0 0.015625)"/>
     <use xlink:href="#DejaVuSans-65" transform="translate(63.476562 0.015625)"/>
     <use xlink:href="#DejaVuSans-6d" transform="translate(125 0.015625)"/>
     <use xlink:href="#DejaVuSans-69" transform="translate(222.412109 0.015625)"/>
     <use xlink:href="#DejaVuSans-6c" transform="translate(250.195312 0.015625)"/>
     <use xlink:href="#DejaVuSans-6f" transform="translate(277.978516 0.015625)"/>
     <use xlink:href="#DejaVuSans-67" transform="translate(339.160156 0.015625)"/>
     <use xlink:href="#DejaVuSans-61" transform="translate(402.636719 0.015625)"/>
     <use xlink:href="#DejaVuSans-72" transform="translate(463.916016 0.015625)"/>
     <use xlink:href="#DejaVuSans-69" transform="translate(505.029297 0.015625)"/>
     <use xlink:href="#DejaVuSans-74" transform="translate(532.8125 0.015625)"/>
     <use xlink:href="#DejaVuSans-6d" transform="translate(572.021484 0.015625)"/>
     <use xlink:href="#DejaVuSans-69" transform="translate(669.433594 0.015625)"/>
     <use xlink:href="#DejaVuSans-63" transform="translate(697.216797 0.015625)"/>
     <use xlink:href="#DejaVuSans-6b" transform="translate(752.197266 0.015625)"/>
     <use xlink:href="#DejaVuSans-e9" transform="translate(810.107422 0.015625)"/>
     <use xlink:href="#DejaVuSans-20" transform="translate(871.630859 0.015625)"/>
     <use xlink:href="#DejaVuSans-6e" transform="translate(903.417969 0.015625)"/>
     <use xlink:href="#DejaVuSans-61" transform="translate(966.796875 0.015625)"/>
     <use xlink:href="#DejaVuSans-70" transform="translate(1028.076172 0.015625)"/>
     <use xlink:href="#DejaVuSans-11b" transform="translate(1091.552734 0.015625)"/>
     <use xlink:href="#DejaVuSans-74" transform="translate(1153.076172 0.015625)"/>
     <use xlink:href="#DejaVuSans-ed" transform="translate(1192.285156 0.015625)"/>
     <use xlink:href="#DejaVuSans-20" transform="translate(1220.068359 0.015625)"/>
     <use xlink:href="#DejaVuSans-76" transform="translate(1251.855469 0.015625)"/>
     <use xlink:href="#DejaVuSans-79" transform="translate(1311.035156 0.015625)"/>
     <use xlink:href="#DejaVuSans-62" transform="translate(1370.214844 0.015625)"/>
     <use xlink:href="#DejaVuSans-ed" transform="translate(1433.691406 0.015625)"/>
     <use xlink:href="#DejaVuSans-6a" transform="translate(1461.474609 0.015625)"/>
     <use xlink:href="#DejaVuSans-65" transform="translate(1489.257812 0.015625)"/>
     <use xlink:href="#DejaVuSans-6e" transform="translate(1550.78125 0.015625)"/>
     <use xlink:href="#DejaVuSans-fd" transform="translate(1614.160156 0.015625)"/>
     <use xlink:href="#DejaVuSans-68" transform="translate(1673.339844 0.015625)"/>
     <use xlink:href="#DejaVuSans-6f" transform="translate(1736.71875 0.015625)"/>
     <use xlink:href="#DejaVuSans-20" transform="translate(1797.900391 0.015625)"/>
     <use xlink:href="#DejaVuSans-6b" transform="translate(1829.6875 0.015625)"/>
     <use xlink:href="#DejaVuSans-6f" transform="translate(1887.597656 0.015625)"/>
     <use xlink:href="#DejaVuSans-6e" transform="translate(1948.779297 0.015625)"/>
     <use xlink:href="#DejaVuSans-64" transform="translate(2012.158203 0.015625)"/>
     <use xlink:href="#DejaVuSans-65" transform="translate(2075.634766 0.015625)"/>
     <use xlink:href="#DejaVuSans-6e" transform="translate(2137.158203 0.015625)"/>
     <use xlink:href="#DejaVuSans-7a" transform="translate(2200.537109 0.015625)"/>
     <use xlink:href="#DejaVuSans-e1" transform="translate(2253.027344 0.015625)"/>
     <use xlink:href="#DejaVuSans-74" transform="translate(2314.306641 0.015625)"/>
     <use xlink:href="#DejaVuSans-6f" transform="translate(2353.515625 0.015625)"/>
     <use xlink:href="#DejaVuSans-72" transform="translate(2414.697266 0.015625)"/>
     <use xlink:href="#DejaVuSans-75" transform="translate(2455.810547 0.015625)"/>
     <use xlink:href="#DejaVuSans-20" transform="translate(2519.189453 0.015625)"/>
     <use xlink:href="#DejaVuSans-70" transform="translate(2550.976562 0.015625)"/>
     <use xlink:href="#DejaVuSans-159" transform="translate(2614.453125 0.015625)"/>
     <use xlink:href="#DejaVuSans-65" transform="translate(2655.566406 0.015625)"/>
     <use xlink:href="#DejaVuSans-73" transform="translate(2717.089844 0.015625)"/>
     <use xlink:href="#DejaVuSans-20" transform="translate(2769.189453 0.015625)"/>
     <use xlink:href="#DejaVuSans-Oblique-52" transform="translate(2800.976562 0.015625)"/>
     <use xlink:href="#DejaVuSans-30" transform="translate(2870.458984 -16.390625) scale(0.7)"/>
     <use xlink:href="#DejaVuSans-20" transform="translate(2917.729492 0.015625)"/>
     <use xlink:href="#DejaVuSans-61" transform="translate(2949.516602 0.015625)"/>
     <use xlink:href="#DejaVuSans-20" transform="translate(3010.795898 0.015625)"/>
     <use xlink:href="#DejaVuSans-Oblique-52" transform="translate(3042.583008 0.015625)"/>
     <use xlink:href="#DejaVuSans-Oblique-78" transform="translate(3112.06543 -16.390625) scale(0.7)"/>
     <use xlink:href="#DejaVuSans-20" transform="translate(3156.225586 0.015625)"/>
     <use xlink:href="#DejaVuSans-73" transform="translate(3188.012695 0.015625)"/>
     <use xlink:href="#DejaVuSans-20" transform="translate(3240.112305 0.015625)"/>
     <use xlink:href="#DejaVuSans-70" transform="translate(3271.899414 0.015625)"/>
     <use xlink:href="#DejaVuSans-159" transform="translate(3335.375977 0.015625)"/>
     <use xlink:href="#DejaVuSans-69" transform="translate(3376.489258 0.015625)"/>
     <use xlink:href="#DejaVuSans-70" transform="translate(3404.272461 0.015625)"/>
     <use xlink:href="#DejaVuSans-6f" transform="translate(3467.749023 0.015625)"/>
     <use xlink:href="#DejaVuSans-6a" transform="translate(3528.930664 0.015625)"/>
     <use xlink:href="#DejaVuSans-65" transform="translate(3556.713867 0.015625)"/>
     <use xlink:href="#DejaVuSans-6e" transform="translate(3618.237305 0.015625)"/>
     <use xlink:href="#DejaVuSans-e9" transform="translate(3681.616211 0.015625)"/>
     <use xlink:href="#DejaVuSans-6e" transform="translate(3743.139648 0.015625)"/>
     <use xlink:href="#DejaVuSans-fd" transform="translate(3806.518555 0.015625)"/>
     <use xlink:href="#DejaVuSans-6d" transform="translate(3865.698242 0.015625)"/>
     <use xlink:href="#DejaVuSans-20" transform="translate(3963.110352 0.015625)"/>
     <use xlink:href="#DejaVuSans-6f" transform="translate(3994.897461 0.015625)"/>
     <use xlink:href="#DejaVuSans-64" transform="translate(4056.079102 0.015625)"/>
     <use xlink:href="#DejaVuSans-70" transform="translate(4119.555664 0.015625)"/>
     <use xlink:href="#DejaVuSans-6f" transform="translate(4183.032227 0.015625)"/>
     <use xlink:href="#DejaVuSans-72" transform="translate(4244.213867 0.015625)"/>
     <use xlink:href="#DejaVuSans-65" transform="translate(4285.327148 0.015625)"/>
     <use xlink:href="#DejaVuSans-6d" transform="translate(4346.850586 0.015625)"/>
     <use xlink:href="#DejaVuSans-20" transform="translate(4444.262695 0.015625)"/>
     <use xlink:href="#DejaVuSans-Oblique-52" transform="translate(4476.049805 0.015625)"/>
     <use xlink:href="#DejaVuSans-Oblique-78" transform="translate(4545.532227 -16.390625) scale(0.7)"/>
    </g>
   </g>
   <g id="legend_1">
    <g id="patch_7">
     <path d="M 274.38125 62.078125 
L 538.98125 62.078125 
Q 540.98125 62.078125 540.98125 60.078125 
L 540.98125 29.8 
Q 540.98125 27.8 538.98125 27.8 
L 274.38125 27.8 
Q 272.38125 27.8 272.38125 29.8 
L 272.38125 60.078125 
Q 272.38125 62.078125 274.38125 62.078125 
z
" style="fill: #ffffff; opacity: 0.8; stroke: #cccccc; stroke-linejoin: miter"/>
    </g>
    <g id="line2d_59">
     <path d="M 276.38125 37.4 
L 286.38125 37.4 
L 296.38125 37.4 
" style="fill: none; stroke: #0000ff; stroke-width: 1.5; stroke-linecap: square"/>
    </g>
    <g id="text_31">
     <!-- Fit přímky ($k=-1.918 * 10^-3$, $q=5.705 * 10^0$) -->
     <g transform="translate(304.38125 40.9) scale(0.1 -0.1)">
      <defs>
       <path id="DejaVuSans-46" d="M 628 4666 
L 3309 4666 
L 3309 4134 
L 1259 4134 
L 1259 2759 
L 3109 2759 
L 3109 2228 
L 1259 2228 
L 1259 0 
L 628 0 
L 628 4666 
z
" transform="scale(0.015625)"/>
       <path id="DejaVuSans-Oblique-6b" d="M 1172 4863 
L 1747 4863 
L 1197 2028 
L 3169 3500 
L 3916 3500 
L 1716 1825 
L 3322 0 
L 2625 0 
L 1131 1709 
L 800 0 
L 225 0 
L 1172 4863 
z
" transform="scale(0.015625)"/>
       <path id="DejaVuSans-3d" d="M 678 2906 
L 4684 2906 
L 4684 2381 
L 678 2381 
L 678 2906 
z
M 678 1631 
L 4684 1631 
L 4684 1100 
L 678 1100 
L 678 1631 
z
" transform="scale(0.015625)"/>
       <path id="DejaVuSans-2212" d="M 678 2272 
L 4684 2272 
L 4684 1741 
L 678 1741 
L 678 2272 
z
" transform="scale(0.015625)"/>
       <path id="DejaVuSans-2a" d="M 3009 3897 
L 1888 3291 
L 3009 2681 
L 2828 2375 
L 1778 3009 
L 1778 1831 
L 1422 1831 
L 1422 3009 
L 372 2375 
L 191 2681 
L 1313 3291 
L 191 3897 
L 372 4206 
L 1422 3572 
L 1422 4750 
L 1778 4750 
L 1778 3572 
L 2828 4206 
L 3009 3897 
z
" transform="scale(0.015625)"/>
       <path id="DejaVuSans-2c" d="M 750 794 
L 1409 794 
L 1409 256 
L 897 -744 
L 494 -744 
L 750 256 
L 750 794 
z
" transform="scale(0.015625)"/>
       <path id="DejaVuSans-Oblique-71" d="M 2669 525 
Q 2438 222 2123 65 
Q 1809 -91 1428 -91 
Q 897 -91 595 267 
Q 294 625 294 1253 
Q 294 1759 480 2231 
Q 666 2703 1013 3078 
Q 1238 3322 1530 3453 
Q 1822 3584 2144 3584 
Q 2531 3584 2781 3431 
Q 3031 3278 3144 2969 
L 3244 3494 
L 3822 3494 
L 2888 -1319 
L 2309 -1319 
L 2669 525 
z
M 891 1338 
Q 891 875 1084 633 
Q 1278 391 1644 391 
Q 2188 391 2572 911 
Q 2956 1431 2956 2175 
Q 2956 2625 2757 2864 
Q 2559 3103 2188 3103 
Q 1916 3103 1684 2976 
Q 1453 2850 1281 2606 
Q 1100 2350 995 2006 
Q 891 1663 891 1338 
z
" transform="scale(0.015625)"/>
      </defs>
      <use xlink:href="#DejaVuSans-46" transform="translate(0 0.765625)"/>
      <use xlink:href="#DejaVuSans-69" transform="translate(57.519531 0.765625)"/>
      <use xlink:href="#DejaVuSans-74" transform="translate(85.302734 0.765625)"/>
      <use xlink:href="#DejaVuSans-20" transform="translate(124.511719 0.765625)"/>
      <use xlink:href="#DejaVuSans-70" transform="translate(156.298828 0.765625)"/>
      <use xlink:href="#DejaVuSans-159" transform="translate(219.775391 0.765625)"/>
      <use xlink:href="#DejaVuSans-ed" transform="translate(260.888672 0.765625)"/>
      <use xlink:href="#DejaVuSans-6d" transform="translate(288.671875 0.765625)"/>
      <use xlink:href="#DejaVuSans-6b" transform="translate(386.083984 0.765625)"/>
      <use xlink:href="#DejaVuSans-79" transform="translate(443.994141 0.765625)"/>
      <use xlink:href="#DejaVuSans-20" transform="translate(503.173828 0.765625)"/>
      <use xlink:href="#DejaVuSans-28" transform="translate(534.960938 0.765625)"/>
      <use xlink:href="#DejaVuSans-Oblique-6b" transform="translate(573.974609 0.765625)"/>
      <use xlink:href="#DejaVuSans-3d" transform="translate(651.367188 0.765625)"/>
      <use xlink:href="#DejaVuSans-2212" transform="translate(754.638672 0.765625)"/>
      <use xlink:href="#DejaVuSans-31" transform="translate(838.427734 0.765625)"/>
      <use xlink:href="#DejaVuSans-2e" transform="translate(902.050781 0.765625)"/>
      <use xlink:href="#DejaVuSans-39" transform="translate(933.837891 0.765625)"/>
      <use xlink:href="#DejaVuSans-31" transform="translate(997.460938 0.765625)"/>
      <use xlink:href="#DejaVuSans-38" transform="translate(1061.083984 0.765625)"/>
      <use xlink:href="#DejaVuSans-2a" transform="translate(1144.189453 0.765625)"/>
      <use xlink:href="#DejaVuSans-31" transform="translate(1213.671875 0.765625)"/>
      <use xlink:href="#DejaVuSans-30" transform="translate(1277.294922 0.765625)"/>
      <use xlink:href="#DejaVuSans-2212" transform="translate(1355.512695 39.046875) scale(0.7)"/>
      <use xlink:href="#DejaVuSans-33" transform="translate(1430.537109 0.765625)"/>
      <use xlink:href="#DejaVuSans-2c" transform="translate(1494.160156 0.765625)"/>
      <use xlink:href="#DejaVuSans-20" transform="translate(1525.947266 0.765625)"/>
      <use xlink:href="#DejaVuSans-Oblique-71" transform="translate(1557.734375 0.765625)"/>
      <use xlink:href="#DejaVuSans-3d" transform="translate(1640.693359 0.765625)"/>
      <use xlink:href="#DejaVuSans-35" transform="translate(1743.964844 0.765625)"/>
      <use xlink:href="#DejaVuSans-2e" transform="translate(1807.587891 0.765625)"/>
      <use xlink:href="#DejaVuSans-37" transform="translate(1831.625 0.765625)"/>
      <use xlink:href="#DejaVuSans-30" transform="translate(1895.248047 0.765625)"/>
      <use xlink:href="#DejaVuSans-35" transform="translate(1958.871094 0.765625)"/>
      <use xlink:href="#DejaVuSans-2a" transform="translate(2041.976562 0.765625)"/>
      <use xlink:href="#DejaVuSans-31" transform="translate(2111.458984 0.765625)"/>
      <use xlink:href="#DejaVuSans-30" transform="translate(2175.082031 0.765625)"/>
      <use xlink:href="#DejaVuSans-30" transform="translate(2239.662109 39.046875) scale(0.7)"/>
      <use xlink:href="#DejaVuSans-29" transform="translate(2286.932617 0.765625)"/>
     </g>
    </g>
    <g id="LineCollection_2">
     <path d="M 286.38125 57.498437 
L 286.38125 47.498437 
" style="fill: none; stroke: #8b0000; stroke-width: 1.5"/>
    </g>
    <g id="line2d_60">
     <g>
      <use xlink:href="#mff8262b98a" x="286.38125" y="57.498437" style="fill: #8b0000; stroke: #8b0000"/>
     </g>
    </g>
    <g id="line2d_61">
     <g>
      <use xlink:href="#mff8262b98a" x="286.38125" y="47.498437" style="fill: #8b0000; stroke: #8b0000"/>
     </g>
    </g>
    <g id="line2d_62"/>
    <g id="line2d_63">
     <g>
      <use xlink:href="#md5ac8657bb" x="286.38125" y="52.498437" style="fill: #8b0000; stroke: #8b0000"/>
     </g>
    </g>
    <g id="text_32">
     <!-- Chyba měření -->
     <g transform="translate(304.38125 55.998437) scale(0.1 -0.1)">
      <defs>
       <path id="DejaVuSans-43" d="M 4122 4306 
L 4122 3641 
Q 3803 3938 3442 4084 
Q 3081 4231 2675 4231 
Q 1875 4231 1450 3742 
Q 1025 3253 1025 2328 
Q 1025 1406 1450 917 
Q 1875 428 2675 428 
Q 3081 428 3442 575 
Q 3803 722 4122 1019 
L 4122 359 
Q 3791 134 3420 21 
Q 3050 -91 2638 -91 
Q 1578 -91 968 557 
Q 359 1206 359 2328 
Q 359 3453 968 4101 
Q 1578 4750 2638 4750 
Q 3056 4750 3426 4639 
Q 3797 4528 4122 4306 
z
" transform="scale(0.015625)"/>
      </defs>
      <use xlink:href="#DejaVuSans-43"/>
      <use xlink:href="#DejaVuSans-68" transform="translate(69.824219 0)"/>
      <use xlink:href="#DejaVuSans-79" transform="translate(133.203125 0)"/>
      <use xlink:href="#DejaVuSans-62" transform="translate(192.382812 0)"/>
      <use xlink:href="#DejaVuSans-61" transform="translate(255.859375 0)"/>
      <use xlink:href="#DejaVuSans-20" transform="translate(317.138672 0)"/>
      <use xlink:href="#DejaVuSans-6d" transform="translate(348.925781 0)"/>
      <use xlink:href="#DejaVuSans-11b" transform="translate(446.337891 0)"/>
      <use xlink:href="#DejaVuSans-159" transform="translate(507.861328 0)"/>
      <use xlink:href="#DejaVuSans-65" transform="translate(546.724609 0)"/>
      <use xlink:href="#DejaVuSans-6e" transform="translate(608.248047 0)"/>
      <use xlink:href="#DejaVuSans-ed" transform="translate(671.626953 0)"/>
     </g>
    </g>
   </g>
  </g>
 </g>
 <defs>
  <clipPath id="p941f095e84">
   <rect x="43.78125" y="22.8" width="502.2" height="332.64"/>
  </clipPath>
 </defs>
</svg>
