<?xml version="1.0" encoding="utf-8" standalone="no"?>
<!DOCTYPE svg PUBLIC "-//W3C//DTD SVG 1.1//EN"
  "http://www.w3.org/Graphics/SVG/1.1/DTD/svg11.dtd">
<svg xmlns:xlink="http://www.w3.org/1999/xlink" width="553.18125pt" height="392.514375pt" viewBox="0 0 553.18125 392.514375" xmlns="http://www.w3.org/2000/svg" version="1.1">
 <metadata>
  <rdf:RDF xmlns:dc="http://purl.org/dc/elements/1.1/" xmlns:cc="http://creativecommons.org/ns#" xmlns:rdf="http://www.w3.org/1999/02/22-rdf-syntax-ns#">
   <cc:Work>
    <dc:type rdf:resource="http://purl.org/dc/dcmitype/StillImage"/>
    <dc:date>2026-04-13T18:44:14.902103</dc:date>
    <dc:format>image/svg+xml</dc:format>
    <dc:creator>
     <cc:Agent>
      <dc:title>Matplotlib v3.10.8, https://matplotlib.org/</dc:title>
     </cc:Agent>
    </dc:creator>
   </cc:Work>
  </rdf:RDF>
 </metadata>
 <defs>
  <style type="text/css">*{stroke-linejoin: round; stroke-linecap: butt}</style>
 </defs>
 <g id="figure_1">
  <g id="patch_1">
   <path d="M 0 392.514375 
L 553.18125 392.514375 
L 553.18125 0 
L 0 0 
z
" style="fill: #ffffff"/>
  </g>
  <g id="axes_1">
   <g id="patch_2">
    <path d="M 43.78125 354.958125 
L 545.98125 354.958125 
L 545.98125 22.318125 
L 43.78125 22.318125 
z
" style="fill: #ffffff"/>
   </g>
   <g id="matplotlib.axis_1">
    <g id="xtick_1">
     <g id="line2d_1">
      <path d="M 66.608523 354.958125 
L 66.608523 22.318125 
" clip-path="url(#p08300b0676)" style="fill: none; stroke: #b0b0b0; stroke-opacity: 0.3; stroke-width: 0.8; stroke-linecap: square"/>
     </g>
     <g id="line2d_2">
      <defs>
       <path id="mbd0ff2033c" d="M 0 0 
L 0 3.5 
" style="stroke: #000000; stroke-width: 0.8"/>
      </defs>
      <g>
       <use xlink:href="#mbd0ff2033c" x="66.608523" y="354.958125" style="stroke: #000000; stroke-width: 0.8"/>
      </g>
     </g>
     <g id="text_1">
      <!-- 0.45 -->
      <g transform="translate(55.47571 369.556562) scale(0.1 -0.1)">
       <defs>
        <path id="DejaVuSans-30" d="M 2034 4250 
Q 1547 4250 1301 3770 
Q 1056 3291 1056 2328 
Q 1056 1369 1301 889 
Q 1547 409 2034 409 
Q 2525 409 2770 889 
Q 3016 1369 3016 2328 
Q 3016 3291 2770 3770 
Q 2525 4250 2034 4250 
z
M 2034 4750 
Q 2819 4750 3233 4129 
Q 3647 3509 3647 2328 
Q 3647 1150 3233 529 
Q 2819 -91 2034 -91 
Q 1250 -91 836 529 
Q 422 1150 422 2328 
Q 422 3509 836 4129 
Q 1250 4750 2034 4750 
z
" transform="scale(0.015625)"/>
        <path id="DejaVuSans-2e" d="M 684 794 
L 1344 794 
L 1344 0 
L 684 0 
L 684 794 
z
" transform="scale(0.015625)"/>
        <path id="DejaVuSans-34" d="M 2419 4116 
L 825 1625 
L 2419 1625 
L 2419 4116 
z
M 2253 4666 
L 3047 4666 
L 3047 1625 
L 3713 1625 
L 3713 1100 
L 3047 1100 
L 3047 0 
L 2419 0 
L 2419 1100 
L 313 1100 
L 313 1709 
L 2253 4666 
z
" transform="scale(0.015625)"/>
        <path id="DejaVuSans-35" d="M 691 4666 
L 3169 4666 
L 3169 4134 
L 1269 4134 
L 1269 2991 
Q 1406 3038 1543 3061 
Q 1681 3084 1819 3084 
Q 2600 3084 3056 2656 
Q 3513 2228 3513 1497 
Q 3513 744 3044 326 
Q 2575 -91 1722 -91 
Q 1428 -91 1123 -41 
Q 819 9 494 109 
L 494 744 
Q 775 591 1075 516 
Q 1375 441 1709 441 
Q 2250 441 2565 725 
Q 2881 1009 2881 1497 
Q 2881 1984 2565 2268 
Q 2250 2553 1709 2553 
Q 1456 2553 1204 2497 
Q 953 2441 691 2322 
L 691 4666 
z
" transform="scale(0.015625)"/>
       </defs>
       <use xlink:href="#DejaVuSans-30"/>
       <use xlink:href="#DejaVuSans-2e" transform="translate(63.623047 0)"/>
       <use xlink:href="#DejaVuSans-34" transform="translate(95.410156 0)"/>
       <use xlink:href="#DejaVuSans-35" transform="translate(159.033203 0)"/>
      </g>
     </g>
    </g>
    <g id="xtick_2">
     <g id="line2d_3">
      <path d="M 165.857535 354.958125 
L 165.857535 22.318125 
" clip-path="url(#p08300b0676)" style="fill: none; stroke: #b0b0b0; stroke-opacity: 0.3; stroke-width: 0.8; stroke-linecap: square"/>
     </g>
     <g id="line2d_4">
      <g>
       <use xlink:href="#mbd0ff2033c" x="165.857535" y="354.958125" style="stroke: #000000; stroke-width: 0.8"/>
      </g>
     </g>
     <g id="text_2">
      <!-- 0.50 -->
      <g transform="translate(154.724722 369.556562) scale(0.1 -0.1)">
       <use xlink:href="#DejaVuSans-30"/>
       <use xlink:href="#DejaVuSans-2e" transform="translate(63.623047 0)"/>
       <use xlink:href="#DejaVuSans-35" transform="translate(95.410156 0)"/>
       <use xlink:href="#DejaVuSans-30" transform="translate(159.033203 0)"/>
      </g>
     </g>
    </g>
    <g id="xtick_3">
     <g id="line2d_5">
      <path d="M 265.106546 354.958125 
L 265.106546 22.318125 
" clip-path="url(#p08300b0676)" style="fill: none; stroke: #b0b0b0; stroke-opacity: 0.3; stroke-width: 0.8; stroke-linecap: square"/>
     </g>
     <g id="line2d_6">
      <g>
       <use xlink:href="#mbd0ff2033c" x="265.106546" y="354.958125" style="stroke: #000000; stroke-width: 0.8"/>
      </g>
     </g>
     <g id="text_3">
      <!-- 0.55 -->
      <g transform="translate(253.973734 369.556562) scale(0.1 -0.1)">
       <use xlink:href="#DejaVuSans-30"/>
       <use xlink:href="#DejaVuSans-2e" transform="translate(63.623047 0)"/>
       <use xlink:href="#DejaVuSans-35" transform="translate(95.410156 0)"/>
       <use xlink:href="#DejaVuSans-35" transform="translate(159.033203 0)"/>
      </g>
     </g>
    </g>
    <g id="xtick_4">
     <g id="line2d_7">
      <path d="M 364.355558 354.958125 
L 364.355558 22.318125 
" clip-path="url(#p08300b0676)" style="fill: none; stroke: #b0b0b0; stroke-opacity: 0.3; stroke-width: 0.8; stroke-linecap: square"/>
     </g>
     <g id="line2d_8">
      <g>
       <use xlink:href="#mbd0ff2033c" x="364.355558" y="354.958125" style="stroke: #000000; stroke-width: 0.8"/>
      </g>
     </g>
     <g id="text_4">
      <!-- 0.60 -->
      <g transform="translate(353.222746 369.556562) scale(0.1 -0.1)">
       <defs>
        <path id="DejaVuSans-36" d="M 2113 2584 
Q 1688 2584 1439 2293 
Q 1191 2003 1191 1497 
Q 1191 994 1439 701 
Q 1688 409 2113 409 
Q 2538 409 2786 701 
Q 3034 994 3034 1497 
Q 3034 2003 2786 2293 
Q 2538 2584 2113 2584 
z
M 3366 4563 
L 3366 3988 
Q 3128 4100 2886 4159 
Q 2644 4219 2406 4219 
Q 1781 4219 1451 3797 
Q 1122 3375 1075 2522 
Q 1259 2794 1537 2939 
Q 1816 3084 2150 3084 
Q 2853 3084 3261 2657 
Q 3669 2231 3669 1497 
Q 3669 778 3244 343 
Q 2819 -91 2113 -91 
Q 1303 -91 875 529 
Q 447 1150 447 2328 
Q 447 3434 972 4092 
Q 1497 4750 2381 4750 
Q 2619 4750 2861 4703 
Q 3103 4656 3366 4563 
z
" transform="scale(0.015625)"/>
       </defs>
       <use xlink:href="#DejaVuSans-30"/>
       <use xlink:href="#DejaVuSans-2e" transform="translate(63.623047 0)"/>
       <use xlink:href="#DejaVuSans-36" transform="translate(95.410156 0)"/>
       <use xlink:href="#DejaVuSans-30" transform="translate(159.033203 0)"/>
      </g>
     </g>
    </g>
    <g id="xtick_5">
     <g id="line2d_9">
      <path d="M 463.60457 354.958125 
L 463.60457 22.318125 
" clip-path="url(#p08300b0676)" style="fill: none; stroke: #b0b0b0; stroke-opacity: 0.3; stroke-width: 0.8; stroke-linecap: square"/>
     </g>
     <g id="line2d_10">
      <g>
       <use xlink:href="#mbd0ff2033c" x="463.60457" y="354.958125" style="stroke: #000000; stroke-width: 0.8"/>
      </g>
     </g>
     <g id="text_5">
      <!-- 0.65 -->
      <g transform="translate(452.471758 369.556562) scale(0.1 -0.1)">
       <use xlink:href="#DejaVuSans-30"/>
       <use xlink:href="#DejaVuSans-2e" transform="translate(63.623047 0)"/>
       <use xlink:href="#DejaVuSans-36" transform="translate(95.410156 0)"/>
       <use xlink:href="#DejaVuSans-35" transform="translate(159.033203 0)"/>
      </g>
     </g>
    </g>
    <g id="text_6">
     <!-- $U$ [V] -->
     <g transform="translate(282.28125 383.234687) scale(0.1 -0.1)">
      <defs>
       <path id="DejaVuSans-Oblique-55" d="M 991 4666 
L 1625 4666 
L 1075 1831 
Q 1041 1641 1027 1517 
Q 1013 1394 1013 1300 
Q 1013 869 1253 645 
Q 1494 422 1959 422 
Q 2563 422 2898 753 
Q 3234 1084 3378 1831 
L 3928 4666 
L 4563 4666 
L 4000 1753 
Q 3816 809 3300 359 
Q 2784 -91 1888 -91 
Q 1188 -91 780 261 
Q 372 613 372 1216 
Q 372 1325 387 1461 
Q 403 1597 434 1753 
L 991 4666 
z
" transform="scale(0.015625)"/>
       <path id="DejaVuSans-20" transform="scale(0.015625)"/>
       <path id="DejaVuSans-5b" d="M 550 4863 
L 1875 4863 
L 1875 4416 
L 1125 4416 
L 1125 -397 
L 1875 -397 
L 1875 -844 
L 550 -844 
L 550 4863 
z
" transform="scale(0.015625)"/>
       <path id="DejaVuSans-56" d="M 1831 0 
L 50 4666 
L 709 4666 
L 2188 738 
L 3669 4666 
L 4325 4666 
L 2547 0 
L 1831 0 
z
" transform="scale(0.015625)"/>
       <path id="DejaVuSans-5d" d="M 1947 4863 
L 1947 -844 
L 622 -844 
L 622 -397 
L 1369 -397 
L 1369 4416 
L 622 4416 
L 622 4863 
L 1947 4863 
z
" transform="scale(0.015625)"/>
      </defs>
      <use xlink:href="#DejaVuSans-Oblique-55" transform="translate(0 0.015625)"/>
      <use xlink:href="#DejaVuSans-20" transform="translate(73.193359 0.015625)"/>
      <use xlink:href="#DejaVuSans-5b" transform="translate(104.980469 0.015625)"/>
      <use xlink:href="#DejaVuSans-56" transform="translate(143.994141 0.015625)"/>
      <use xlink:href="#DejaVuSans-5d" transform="translate(212.402344 0.015625)"/>
     </g>
    </g>
   </g>
   <g id="matplotlib.axis_2">
    <g id="ytick_1">
     <g id="line2d_11">
      <path d="M 43.78125 347.030846 
L 545.98125 347.030846 
" clip-path="url(#p08300b0676)" style="fill: none; stroke: #b0b0b0; stroke-opacity: 0.3; stroke-width: 0.8; stroke-linecap: square"/>
     </g>
     <g id="line2d_12">
      <defs>
       <path id="md13357065d" d="M 0 0 
L -3.5 0 
" style="stroke: #000000; stroke-width: 0.8"/>
      </defs>
      <g>
       <use xlink:href="#md13357065d" x="43.78125" y="347.030846" style="stroke: #000000; stroke-width: 0.8"/>
      </g>
     </g>
     <g id="text_7">
      <!-- 0.0 -->
      <g transform="translate(20.878125 350.830065) scale(0.1 -0.1)">
       <use xlink:href="#DejaVuSans-30"/>
       <use xlink:href="#DejaVuSans-2e" transform="translate(63.623047 0)"/>
       <use xlink:href="#DejaVuSans-30" transform="translate(95.410156 0)"/>
      </g>
     </g>
    </g>
    <g id="ytick_2">
     <g id="line2d_13">
      <path d="M 43.78125 275.103636 
L 545.98125 275.103636 
" clip-path="url(#p08300b0676)" style="fill: none; stroke: #b0b0b0; stroke-opacity: 0.3; stroke-width: 0.8; stroke-linecap: square"/>
     </g>
     <g id="line2d_14">
      <g>
       <use xlink:href="#md13357065d" x="43.78125" y="275.103636" style="stroke: #000000; stroke-width: 0.8"/>
      </g>
     </g>
     <g id="text_8">
      <!-- 0.5 -->
      <g transform="translate(20.878125 278.902855) scale(0.1 -0.1)">
       <use xlink:href="#DejaVuSans-30"/>
       <use xlink:href="#DejaVuSans-2e" transform="translate(63.623047 0)"/>
       <use xlink:href="#DejaVuSans-35" transform="translate(95.410156 0)"/>
      </g>
     </g>
    </g>
    <g id="ytick_3">
     <g id="line2d_15">
      <path d="M 43.78125 203.176426 
L 545.98125 203.176426 
" clip-path="url(#p08300b0676)" style="fill: none; stroke: #b0b0b0; stroke-opacity: 0.3; stroke-width: 0.8; stroke-linecap: square"/>
     </g>
     <g id="line2d_16">
      <g>
       <use xlink:href="#md13357065d" x="43.78125" y="203.176426" style="stroke: #000000; stroke-width: 0.8"/>
      </g>
     </g>
     <g id="text_9">
      <!-- 1.0 -->
      <g transform="translate(20.878125 206.975645) scale(0.1 -0.1)">
       <defs>
        <path id="DejaVuSans-31" d="M 794 531 
L 1825 531 
L 1825 4091 
L 703 3866 
L 703 4441 
L 1819 4666 
L 2450 4666 
L 2450 531 
L 3481 531 
L 3481 0 
L 794 0 
L 794 531 
z
" transform="scale(0.015625)"/>
       </defs>
       <use xlink:href="#DejaVuSans-31"/>
       <use xlink:href="#DejaVuSans-2e" transform="translate(63.623047 0)"/>
       <use xlink:href="#DejaVuSans-30" transform="translate(95.410156 0)"/>
      </g>
     </g>
    </g>
    <g id="ytick_4">
     <g id="line2d_17">
      <path d="M 43.78125 131.249216 
L 545.98125 131.249216 
" clip-path="url(#p08300b0676)" style="fill: none; stroke: #b0b0b0; stroke-opacity: 0.3; stroke-width: 0.8; stroke-linecap: square"/>
     </g>
     <g id="line2d_18">
      <g>
       <use xlink:href="#md13357065d" x="43.78125" y="131.249216" style="stroke: #000000; stroke-width: 0.8"/>
      </g>
     </g>
     <g id="text_10">
      <!-- 1.5 -->
      <g transform="translate(20.878125 135.048435) scale(0.1 -0.1)">
       <use xlink:href="#DejaVuSans-31"/>
       <use xlink:href="#DejaVuSans-2e" transform="translate(63.623047 0)"/>
       <use xlink:href="#DejaVuSans-35" transform="translate(95.410156 0)"/>
      </g>
     </g>
    </g>
    <g id="ytick_5">
     <g id="line2d_19">
      <path d="M 43.78125 59.322007 
L 545.98125 59.322007 
" clip-path="url(#p08300b0676)" style="fill: none; stroke: #b0b0b0; stroke-opacity: 0.3; stroke-width: 0.8; stroke-linecap: square"/>
     </g>
     <g id="line2d_20">
      <g>
       <use xlink:href="#md13357065d" x="43.78125" y="59.322007" style="stroke: #000000; stroke-width: 0.8"/>
      </g>
     </g>
     <g id="text_11">
      <!-- 2.0 -->
      <g transform="translate(20.878125 63.121225) scale(0.1 -0.1)">
       <defs>
        <path id="DejaVuSans-32" d="M 1228 531 
L 3431 531 
L 3431 0 
L 469 0 
L 469 531 
Q 828 903 1448 1529 
Q 2069 2156 2228 2338 
Q 2531 2678 2651 2914 
Q 2772 3150 2772 3378 
Q 2772 3750 2511 3984 
Q 2250 4219 1831 4219 
Q 1534 4219 1204 4116 
Q 875 4013 500 3803 
L 500 4441 
Q 881 4594 1212 4672 
Q 1544 4750 1819 4750 
Q 2544 4750 2975 4387 
Q 3406 4025 3406 3419 
Q 3406 3131 3298 2873 
Q 3191 2616 2906 2266 
Q 2828 2175 2409 1742 
Q 1991 1309 1228 531 
z
" transform="scale(0.015625)"/>
       </defs>
       <use xlink:href="#DejaVuSans-32"/>
       <use xlink:href="#DejaVuSans-2e" transform="translate(63.623047 0)"/>
       <use xlink:href="#DejaVuSans-30" transform="translate(95.410156 0)"/>
      </g>
     </g>
    </g>
    <g id="text_12">
     <!-- $I$ [A] -->
     <g transform="translate(14.798438 199.038125) rotate(-90) scale(0.1 -0.1)">
      <defs>
       <path id="DejaVuSans-Oblique-49" d="M 1081 4666 
L 1716 4666 
L 806 0 
L 172 0 
L 1081 4666 
z
" transform="scale(0.015625)"/>
       <path id="DejaVuSans-41" d="M 2188 4044 
L 1331 1722 
L 3047 1722 
L 2188 4044 
z
M 1831 4666 
L 2547 4666 
L 4325 0 
L 3669 0 
L 3244 1197 
L 1141 1197 
L 716 0 
L 50 0 
L 1831 4666 
z
" transform="scale(0.015625)"/>
      </defs>
      <use xlink:href="#DejaVuSans-Oblique-49" transform="translate(0 0.015625)"/>
      <use xlink:href="#DejaVuSans-20" transform="translate(29.492188 0.015625)"/>
      <use xlink:href="#DejaVuSans-5b" transform="translate(61.279297 0.015625)"/>
      <use xlink:href="#DejaVuSans-41" transform="translate(100.292969 0.015625)"/>
      <use xlink:href="#DejaVuSans-5d" transform="translate(168.701172 0.015625)"/>
     </g>
    </g>
   </g>
   <g id="line2d_21">
    <path d="M 126.15793 335.36036 
L 140.09587 333.668051 
L 153.156361 331.860242 
L 165.440647 329.93727 
L 177.049972 327.896448 
L 188.051833 325.738015 
L 198.513725 323.460089 
L 208.469397 321.066485 
L 217.986344 318.551463 
L 227.098314 315.915493 
L 235.872804 313.146827 
L 244.309814 310.252589 
L 252.443091 307.228761 
L 260.306384 304.069156 
L 267.933441 300.765039 
L 275.324261 297.321028 
L 282.478846 293.743084 
L 289.46469 290.00118 
L 296.248046 286.116465 
L 302.862661 282.073707 
L 309.342285 277.853422 
L 315.686916 273.455498 
L 321.896555 268.880536 
L 327.971202 264.12989 
L 333.944605 259.176914 
L 339.816764 254.019548 
L 345.587678 248.656232 
L 351.291097 243.051856 
L 356.927019 237.200241 
L 362.461698 231.133365 
L 367.92888 224.811532 
L 373.362314 218.187115 
L 378.728252 211.292682 
L 384.026695 204.123065 
L 389.291389 196.624074 
L 394.522335 188.78347 
L 399.685785 180.643279 
L 404.815487 172.141708 
L 409.91144 163.266008 
L 414.973646 154.00316 
L 420.035852 144.273411 
L 425.06431 134.123039 
L 430.05902 123.537809 
L 435.053729 112.426311 
L 440.014691 100.843106 
L 444.941905 88.772684 
L 449.869118 76.11046 
L 454.762584 62.920578 
L 459.65605 49.088543 
L 463.60457 37.438125 
L 463.60457 37.438125 
" clip-path="url(#p08300b0676)" style="fill: none; stroke: #ff0000; stroke-width: 1.5; stroke-linecap: square"/>
   </g>
   <g id="LineCollection_1">
    <path d="M 66.608523 332.645404 
L 185.707337 332.645404 
" clip-path="url(#p08300b0676)" style="fill: none; stroke: #000000; stroke-width: 1.5"/>
    <path d="M 205.557139 303.87452 
L 324.655954 303.87452 
" clip-path="url(#p08300b0676)" style="fill: none; stroke: #000000; stroke-width: 1.5"/>
    <path d="M 245.256744 289.489078 
L 364.355558 289.489078 
" clip-path="url(#p08300b0676)" style="fill: none; stroke: #000000; stroke-width: 1.5"/>
    <path d="M 265.106546 275.103636 
L 384.205361 275.103636 
" clip-path="url(#p08300b0676)" style="fill: none; stroke: #000000; stroke-width: 1.5"/>
    <path d="M 284.956349 260.718194 
L 404.055163 260.718194 
" clip-path="url(#p08300b0676)" style="fill: none; stroke: #000000; stroke-width: 1.5"/>
    <path d="M 344.505756 160.0201 
L 463.60457 160.0201 
" clip-path="url(#p08300b0676)" style="fill: none; stroke: #000000; stroke-width: 1.5"/>
    <path d="M 364.355558 145.634658 
L 483.454373 145.634658 
" clip-path="url(#p08300b0676)" style="fill: none; stroke: #000000; stroke-width: 1.5"/>
    <path d="M 364.355558 116.863775 
L 483.454373 116.863775 
" clip-path="url(#p08300b0676)" style="fill: none; stroke: #000000; stroke-width: 1.5"/>
    <path d="M 384.205361 73.707449 
L 503.304175 73.707449 
" clip-path="url(#p08300b0676)" style="fill: none; stroke: #000000; stroke-width: 1.5"/>
    <path d="M 404.055163 59.322007 
L 523.153977 59.322007 
" clip-path="url(#p08300b0676)" style="fill: none; stroke: #000000; stroke-width: 1.5"/>
   </g>
   <g id="LineCollection_2">
    <path d="M 126.15793 339.838125 
L 126.15793 325.452683 
" clip-path="url(#p08300b0676)" style="fill: none; stroke: #000000; stroke-width: 1.5"/>
    <path d="M 265.106546 311.067241 
L 265.106546 296.681799 
" clip-path="url(#p08300b0676)" style="fill: none; stroke: #000000; stroke-width: 1.5"/>
    <path d="M 304.806151 298.120343 
L 304.806151 280.857813 
" clip-path="url(#p08300b0676)" style="fill: none; stroke: #000000; stroke-width: 1.5"/>
    <path d="M 324.655954 283.734901 
L 324.655954 266.472371 
" clip-path="url(#p08300b0676)" style="fill: none; stroke: #000000; stroke-width: 1.5"/>
    <path d="M 344.505756 269.349459 
L 344.505756 252.086929 
" clip-path="url(#p08300b0676)" style="fill: none; stroke: #000000; stroke-width: 1.5"/>
    <path d="M 404.055163 170.08991 
L 404.055163 149.950291 
" clip-path="url(#p08300b0676)" style="fill: none; stroke: #000000; stroke-width: 1.5"/>
    <path d="M 423.904965 155.704468 
L 423.904965 135.564849 
" clip-path="url(#p08300b0676)" style="fill: none; stroke: #000000; stroke-width: 1.5"/>
    <path d="M 423.904965 126.933584 
L 423.904965 106.793965 
" clip-path="url(#p08300b0676)" style="fill: none; stroke: #000000; stroke-width: 1.5"/>
    <path d="M 443.754768 83.777258 
L 443.754768 63.637639 
" clip-path="url(#p08300b0676)" style="fill: none; stroke: #000000; stroke-width: 1.5"/>
    <path d="M 463.60457 69.391816 
L 463.60457 49.252197 
" clip-path="url(#p08300b0676)" style="fill: none; stroke: #000000; stroke-width: 1.5"/>
   </g>
   <g id="line2d_22">
    <defs>
     <path id="mb290f8840f" d="M 0 3 
L 0 -3 
" style="stroke: #000000"/>
    </defs>
    <g clip-path="url(#p08300b0676)">
     <use xlink:href="#mb290f8840f" x="66.608523" y="332.645404" style="fill: #0000ff; stroke: #000000"/>
     <use xlink:href="#mb290f8840f" x="205.557139" y="303.87452" style="fill: #0000ff; stroke: #000000"/>
     <use xlink:href="#mb290f8840f" x="245.256744" y="289.489078" style="fill: #0000ff; stroke: #000000"/>
     <use xlink:href="#mb290f8840f" x="265.106546" y="275.103636" style="fill: #0000ff; stroke: #000000"/>
     <use xlink:href="#mb290f8840f" x="284.956349" y="260.718194" style="fill: #0000ff; stroke: #000000"/>
     <use xlink:href="#mb290f8840f" x="344.505756" y="160.0201" style="fill: #0000ff; stroke: #000000"/>
     <use xlink:href="#mb290f8840f" x="364.355558" y="145.634658" style="fill: #0000ff; stroke: #000000"/>
     <use xlink:href="#mb290f8840f" x="364.355558" y="116.863775" style="fill: #0000ff; stroke: #000000"/>
     <use xlink:href="#mb290f8840f" x="384.205361" y="73.707449" style="fill: #0000ff; stroke: #000000"/>
     <use xlink:href="#mb290f8840f" x="404.055163" y="59.322007" style="fill: #0000ff; stroke: #000000"/>
    </g>
   </g>
   <g id="line2d_23">
    <g clip-path="url(#p08300b0676)">
     <use xlink:href="#mb290f8840f" x="185.707337" y="332.645404" style="fill: #0000ff; stroke: #000000"/>
     <use xlink:href="#mb290f8840f" x="324.655954" y="303.87452" style="fill: #0000ff; stroke: #000000"/>
     <use xlink:href="#mb290f8840f" x="364.355558" y="289.489078" style="fill: #0000ff; stroke: #000000"/>
     <use xlink:href="#mb290f8840f" x="384.205361" y="275.103636" style="fill: #0000ff; stroke: #000000"/>
     <use xlink:href="#mb290f8840f" x="404.055163" y="260.718194" style="fill: #0000ff; stroke: #000000"/>
     <use xlink:href="#mb290f8840f" x="463.60457" y="160.0201" style="fill: #0000ff; stroke: #000000"/>
     <use xlink:href="#mb290f8840f" x="483.454373" y="145.634658" style="fill: #0000ff; stroke: #000000"/>
     <use xlink:href="#mb290f8840f" x="483.454373" y="116.863775" style="fill: #0000ff; stroke: #000000"/>
     <use xlink:href="#mb290f8840f" x="503.304175" y="73.707449" style="fill: #0000ff; stroke: #000000"/>
     <use xlink:href="#mb290f8840f" x="523.153977" y="59.322007" style="fill: #0000ff; stroke: #000000"/>
    </g>
   </g>
   <g id="line2d_24">
    <defs>
     <path id="m6ed8668a1b" d="M 3 0 
L -3 -0 
" style="stroke: #000000"/>
    </defs>
    <g clip-path="url(#p08300b0676)">
     <use xlink:href="#m6ed8668a1b" x="126.15793" y="339.838125" style="fill: #0000ff; stroke: #000000"/>
     <use xlink:href="#m6ed8668a1b" x="265.106546" y="311.067241" style="fill: #0000ff; stroke: #000000"/>
     <use xlink:href="#m6ed8668a1b" x="304.806151" y="298.120343" style="fill: #0000ff; stroke: #000000"/>
     <use xlink:href="#m6ed8668a1b" x="324.655954" y="283.734901" style="fill: #0000ff; stroke: #000000"/>
     <use xlink:href="#m6ed8668a1b" x="344.505756" y="269.349459" style="fill: #0000ff; stroke: #000000"/>
     <use xlink:href="#m6ed8668a1b" x="404.055163" y="170.08991" style="fill: #0000ff; stroke: #000000"/>
     <use xlink:href="#m6ed8668a1b" x="423.904965" y="155.704468" style="fill: #0000ff; stroke: #000000"/>
     <use xlink:href="#m6ed8668a1b" x="423.904965" y="126.933584" style="fill: #0000ff; stroke: #000000"/>
     <use xlink:href="#m6ed8668a1b" x="443.754768" y="83.777258" style="fill: #0000ff; stroke: #000000"/>
     <use xlink:href="#m6ed8668a1b" x="463.60457" y="69.391816" style="fill: #0000ff; stroke: #000000"/>
    </g>
   </g>
   <g id="line2d_25">
    <g clip-path="url(#p08300b0676)">
     <use xlink:href="#m6ed8668a1b" x="126.15793" y="325.452683" style="fill: #0000ff; stroke: #000000"/>
     <use xlink:href="#m6ed8668a1b" x="265.106546" y="296.681799" style="fill: #0000ff; stroke: #000000"/>
     <use xlink:href="#m6ed8668a1b" x="304.806151" y="280.857813" style="fill: #0000ff; stroke: #000000"/>
     <use xlink:href="#m6ed8668a1b" x="324.655954" y="266.472371" style="fill: #0000ff; stroke: #000000"/>
     <use xlink:href="#m6ed8668a1b" x="344.505756" y="252.086929" style="fill: #0000ff; stroke: #000000"/>
     <use xlink:href="#m6ed8668a1b" x="404.055163" y="149.950291" style="fill: #0000ff; stroke: #000000"/>
     <use xlink:href="#m6ed8668a1b" x="423.904965" y="135.564849" style="fill: #0000ff; stroke: #000000"/>
     <use xlink:href="#m6ed8668a1b" x="423.904965" y="106.793965" style="fill: #0000ff; stroke: #000000"/>
     <use xlink:href="#m6ed8668a1b" x="443.754768" y="63.637639" style="fill: #0000ff; stroke: #000000"/>
     <use xlink:href="#m6ed8668a1b" x="463.60457" y="49.252197" style="fill: #0000ff; stroke: #000000"/>
    </g>
   </g>
   <g id="line2d_26">
    <defs>
     <path id="m2c727844cb" d="M 0 3 
C 0.795609 3 1.55874 2.683901 2.12132 2.12132 
C 2.683901 1.55874 3 0.795609 3 0 
C 3 -0.795609 2.683901 -1.55874 2.12132 -2.12132 
C 1.55874 -2.683901 0.795609 -3 0 -3 
C -0.795609 -3 -1.55874 -2.683901 -2.12132 -2.12132 
C -2.683901 -1.55874 -3 -0.795609 -3 0 
C -3 0.795609 -2.683901 1.55874 -2.12132 2.12132 
C -1.55874 2.683901 -0.795609 3 0 3 
z
" style="stroke: #0000ff"/>
    </defs>
    <g clip-path="url(#p08300b0676)">
     <use xlink:href="#m2c727844cb" x="126.15793" y="332.645404" style="fill: #0000ff; stroke: #0000ff"/>
     <use xlink:href="#m2c727844cb" x="265.106546" y="303.87452" style="fill: #0000ff; stroke: #0000ff"/>
     <use xlink:href="#m2c727844cb" x="304.806151" y="289.489078" style="fill: #0000ff; stroke: #0000ff"/>
     <use xlink:href="#m2c727844cb" x="324.655954" y="275.103636" style="fill: #0000ff; stroke: #0000ff"/>
     <use xlink:href="#m2c727844cb" x="344.505756" y="260.718194" style="fill: #0000ff; stroke: #0000ff"/>
     <use xlink:href="#m2c727844cb" x="404.055163" y="160.0201" style="fill: #0000ff; stroke: #0000ff"/>
     <use xlink:href="#m2c727844cb" x="423.904965" y="145.634658" style="fill: #0000ff; stroke: #0000ff"/>
     <use xlink:href="#m2c727844cb" x="423.904965" y="116.863775" style="fill: #0000ff; stroke: #0000ff"/>
     <use xlink:href="#m2c727844cb" x="443.754768" y="73.707449" style="fill: #0000ff; stroke: #0000ff"/>
     <use xlink:href="#m2c727844cb" x="463.60457" y="59.322007" style="fill: #0000ff; stroke: #0000ff"/>
    </g>
   </g>
   <g id="patch_3">
    <path d="M 43.78125 354.958125 
L 43.78125 22.318125 
" style="fill: none; stroke: #000000; stroke-width: 0.8; stroke-linejoin: miter; stroke-linecap: square"/>
   </g>
   <g id="patch_4">
    <path d="M 545.98125 354.958125 
L 545.98125 22.318125 
" style="fill: none; stroke: #000000; stroke-width: 0.8; stroke-linejoin: miter; stroke-linecap: square"/>
   </g>
   <g id="patch_5">
    <path d="M 43.78125 354.958125 
L 545.98125 354.958125 
" style="fill: none; stroke: #000000; stroke-width: 0.8; stroke-linejoin: miter; stroke-linecap: square"/>
   </g>
   <g id="patch_6">
    <path d="M 43.78125 22.318125 
L 545.98125 22.318125 
" style="fill: none; stroke: #000000; stroke-width: 0.8; stroke-linejoin: miter; stroke-linecap: square"/>
   </g>
   <g id="text_13">
    <!-- Oranžová Dioda -->
    <g transform="translate(246.812813 16.318125) scale(0.12 -0.12)">
     <defs>
      <path id="DejaVuSans-4f" d="M 2522 4238 
Q 1834 4238 1429 3725 
Q 1025 3213 1025 2328 
Q 1025 1447 1429 934 
Q 1834 422 2522 422 
Q 3209 422 3611 934 
Q 4013 1447 4013 2328 
Q 4013 3213 3611 3725 
Q 3209 4238 2522 4238 
z
M 2522 4750 
Q 3503 4750 4090 4092 
Q 4678 3434 4678 2328 
Q 4678 1225 4090 567 
Q 3503 -91 2522 -91 
Q 1538 -91 948 565 
Q 359 1222 359 2328 
Q 359 3434 948 4092 
Q 1538 4750 2522 4750 
z
" transform="scale(0.015625)"/>
      <path id="DejaVuSans-72" d="M 2631 2963 
Q 2534 3019 2420 3045 
Q 2306 3072 2169 3072 
Q 1681 3072 1420 2755 
Q 1159 2438 1159 1844 
L 1159 0 
L 581 0 
L 581 3500 
L 1159 3500 
L 1159 2956 
Q 1341 3275 1631 3429 
Q 1922 3584 2338 3584 
Q 2397 3584 2469 3576 
Q 2541 3569 2628 3553 
L 2631 2963 
z
" transform="scale(0.015625)"/>
      <path id="DejaVuSans-61" d="M 2194 1759 
Q 1497 1759 1228 1600 
Q 959 1441 959 1056 
Q 959 750 1161 570 
Q 1363 391 1709 391 
Q 2188 391 2477 730 
Q 2766 1069 2766 1631 
L 2766 1759 
L 2194 1759 
z
M 3341 1997 
L 3341 0 
L 2766 0 
L 2766 531 
Q 2569 213 2275 61 
Q 1981 -91 1556 -91 
Q 1019 -91 701 211 
Q 384 513 384 1019 
Q 384 1609 779 1909 
Q 1175 2209 1959 2209 
L 2766 2209 
L 2766 2266 
Q 2766 2663 2505 2880 
Q 2244 3097 1772 3097 
Q 1472 3097 1187 3025 
Q 903 2953 641 2809 
L 641 3341 
Q 956 3463 1253 3523 
Q 1550 3584 1831 3584 
Q 2591 3584 2966 3190 
Q 3341 2797 3341 1997 
z
" transform="scale(0.015625)"/>
      <path id="DejaVuSans-6e" d="M 3513 2113 
L 3513 0 
L 2938 0 
L 2938 2094 
Q 2938 2591 2744 2837 
Q 2550 3084 2163 3084 
Q 1697 3084 1428 2787 
Q 1159 2491 1159 1978 
L 1159 0 
L 581 0 
L 581 3500 
L 1159 3500 
L 1159 2956 
Q 1366 3272 1645 3428 
Q 1925 3584 2291 3584 
Q 2894 3584 3203 3211 
Q 3513 2838 3513 2113 
z
" transform="scale(0.015625)"/>
      <path id="DejaVuSans-17e" d="M 353 3500 
L 3084 3500 
L 3084 2975 
L 922 459 
L 3084 459 
L 3084 0 
L 275 0 
L 275 525 
L 2438 3041 
L 353 3041 
L 353 3500 
z
M 1457 3944 
L 691 5119 
L 1126 5119 
L 1688 4353 
L 2251 5119 
L 2685 5119 
L 1919 3944 
L 1457 3944 
z
" transform="scale(0.015625)"/>
      <path id="DejaVuSans-6f" d="M 1959 3097 
Q 1497 3097 1228 2736 
Q 959 2375 959 1747 
Q 959 1119 1226 758 
Q 1494 397 1959 397 
Q 2419 397 2687 759 
Q 2956 1122 2956 1747 
Q 2956 2369 2687 2733 
Q 2419 3097 1959 3097 
z
M 1959 3584 
Q 2709 3584 3137 3096 
Q 3566 2609 3566 1747 
Q 3566 888 3137 398 
Q 2709 -91 1959 -91 
Q 1206 -91 779 398 
Q 353 888 353 1747 
Q 353 2609 779 3096 
Q 1206 3584 1959 3584 
z
" transform="scale(0.015625)"/>
      <path id="DejaVuSans-76" d="M 191 3500 
L 800 3500 
L 1894 563 
L 2988 3500 
L 3597 3500 
L 2284 0 
L 1503 0 
L 191 3500 
z
" transform="scale(0.015625)"/>
      <path id="DejaVuSans-e1" d="M 2194 1759 
Q 1497 1759 1228 1600 
Q 959 1441 959 1056 
Q 959 750 1161 570 
Q 1363 391 1709 391 
Q 2188 391 2477 730 
Q 2766 1069 2766 1631 
L 2766 1759 
L 2194 1759 
z
M 3341 1997 
L 3341 0 
L 2766 0 
L 2766 531 
Q 2569 213 2275 61 
Q 1981 -91 1556 -91 
Q 1019 -91 701 211 
Q 384 513 384 1019 
Q 384 1609 779 1909 
Q 1175 2209 1959 2209 
L 2766 2209 
L 2766 2266 
Q 2766 2663 2505 2880 
Q 2244 3097 1772 3097 
Q 1472 3097 1187 3025 
Q 903 2953 641 2809 
L 641 3341 
Q 956 3463 1253 3523 
Q 1550 3584 1831 3584 
Q 2591 3584 2966 3190 
Q 3341 2797 3341 1997 
z
M 2290 5119 
L 2912 5119 
L 1894 3944 
L 1415 3944 
L 2290 5119 
z
" transform="scale(0.015625)"/>
      <path id="DejaVuSans-44" d="M 1259 4147 
L 1259 519 
L 2022 519 
Q 2988 519 3436 956 
Q 3884 1394 3884 2338 
Q 3884 3275 3436 3711 
Q 2988 4147 2022 4147 
L 1259 4147 
z
M 628 4666 
L 1925 4666 
Q 3281 4666 3915 4102 
Q 4550 3538 4550 2338 
Q 4550 1131 3912 565 
Q 3275 0 1925 0 
L 628 0 
L 628 4666 
z
" transform="scale(0.015625)"/>
      <path id="DejaVuSans-69" d="M 603 3500 
L 1178 3500 
L 1178 0 
L 603 0 
L 603 3500 
z
M 603 4863 
L 1178 4863 
L 1178 4134 
L 603 4134 
L 603 4863 
z
" transform="scale(0.015625)"/>
      <path id="DejaVuSans-64" d="M 2906 2969 
L 2906 4863 
L 3481 4863 
L 3481 0 
L 2906 0 
L 2906 525 
Q 2725 213 2448 61 
Q 2172 -91 1784 -91 
Q 1150 -91 751 415 
Q 353 922 353 1747 
Q 353 2572 751 3078 
Q 1150 3584 1784 3584 
Q 2172 3584 2448 3432 
Q 2725 3281 2906 2969 
z
M 947 1747 
Q 947 1113 1208 752 
Q 1469 391 1925 391 
Q 2381 391 2643 752 
Q 2906 1113 2906 1747 
Q 2906 2381 2643 2742 
Q 2381 3103 1925 3103 
Q 1469 3103 1208 2742 
Q 947 2381 947 1747 
z
" transform="scale(0.015625)"/>
     </defs>
     <use xlink:href="#DejaVuSans-4f"/>
     <use xlink:href="#DejaVuSans-72" transform="translate(78.710938 0)"/>
     <use xlink:href="#DejaVuSans-61" transform="translate(119.824219 0)"/>
     <use xlink:href="#DejaVuSans-6e" transform="translate(181.103516 0)"/>
     <use xlink:href="#DejaVuSans-17e" transform="translate(244.482422 0)"/>
     <use xlink:href="#DejaVuSans-6f" transform="translate(296.972656 0)"/>
     <use xlink:href="#DejaVuSans-76" transform="translate(358.154297 0)"/>
     <use xlink:href="#DejaVuSans-e1" transform="translate(417.333984 0)"/>
     <use xlink:href="#DejaVuSans-20" transform="translate(478.613281 0)"/>
     <use xlink:href="#DejaVuSans-44" transform="translate(510.400391 0)"/>
     <use xlink:href="#DejaVuSans-69" transform="translate(587.402344 0)"/>
     <use xlink:href="#DejaVuSans-6f" transform="translate(615.185547 0)"/>
     <use xlink:href="#DejaVuSans-64" transform="translate(676.367188 0)"/>
     <use xlink:href="#DejaVuSans-61" transform="translate(739.84375 0)"/>
    </g>
   </g>
   <g id="legend_1">
    <g id="patch_7">
     <path d="M 50.78125 60.474375 
L 237.164062 60.474375 
Q 239.164062 60.474375 239.164062 58.474375 
L 239.164062 29.318125 
Q 239.164062 27.318125 237.164062 27.318125 
L 50.78125 27.318125 
Q 48.78125 27.318125 48.78125 29.318125 
L 48.78125 58.474375 
Q 48.78125 60.474375 50.78125 60.474375 
z
" style="fill: #ffffff; opacity: 0.8; stroke: #cccccc; stroke-linejoin: miter"/>
    </g>
    <g id="line2d_27">
     <path d="M 52.78125 35.816563 
L 62.78125 35.816563 
L 72.78125 35.816563 
" style="fill: none; stroke: #ff0000; stroke-width: 1.5; stroke-linecap: square"/>
    </g>
    <g id="text_14">
     <!-- Proložení Shockleyovou rovnicí -->
     <g transform="translate(80.78125 39.316563) scale(0.1 -0.1)">
      <defs>
       <path id="DejaVuSans-50" d="M 1259 4147 
L 1259 2394 
L 2053 2394 
Q 2494 2394 2734 2622 
Q 2975 2850 2975 3272 
Q 2975 3691 2734 3919 
Q 2494 4147 2053 4147 
L 1259 4147 
z
M 628 4666 
L 2053 4666 
Q 2838 4666 3239 4311 
Q 3641 3956 3641 3272 
Q 3641 2581 3239 2228 
Q 2838 1875 2053 1875 
L 1259 1875 
L 1259 0 
L 628 0 
L 628 4666 
z
" transform="scale(0.015625)"/>
       <path id="DejaVuSans-6c" d="M 603 4863 
L 1178 4863 
L 1178 0 
L 603 0 
L 603 4863 
z
" transform="scale(0.015625)"/>
       <path id="DejaVuSans-65" d="M 3597 1894 
L 3597 1613 
L 953 1613 
Q 991 1019 1311 708 
Q 1631 397 2203 397 
Q 2534 397 2845 478 
Q 3156 559 3463 722 
L 3463 178 
Q 3153 47 2828 -22 
Q 2503 -91 2169 -91 
Q 1331 -91 842 396 
Q 353 884 353 1716 
Q 353 2575 817 3079 
Q 1281 3584 2069 3584 
Q 2775 3584 3186 3129 
Q 3597 2675 3597 1894 
z
M 3022 2063 
Q 3016 2534 2758 2815 
Q 2500 3097 2075 3097 
Q 1594 3097 1305 2825 
Q 1016 2553 972 2059 
L 3022 2063 
z
" transform="scale(0.015625)"/>
       <path id="DejaVuSans-ed" d="M 1322 5119 
L 1944 5119 
L 926 3944 
L 447 3944 
L 1322 5119 
z
M 603 3500 
L 1178 3500 
L 1178 0 
L 603 0 
L 603 3500 
z
M 891 3584 
L 891 3584 
z
" transform="scale(0.015625)"/>
       <path id="DejaVuSans-53" d="M 3425 4513 
L 3425 3897 
Q 3066 4069 2747 4153 
Q 2428 4238 2131 4238 
Q 1616 4238 1336 4038 
Q 1056 3838 1056 3469 
Q 1056 3159 1242 3001 
Q 1428 2844 1947 2747 
L 2328 2669 
Q 3034 2534 3370 2195 
Q 3706 1856 3706 1288 
Q 3706 609 3251 259 
Q 2797 -91 1919 -91 
Q 1588 -91 1214 -16 
Q 841 59 441 206 
L 441 856 
Q 825 641 1194 531 
Q 1563 422 1919 422 
Q 2459 422 2753 634 
Q 3047 847 3047 1241 
Q 3047 1584 2836 1778 
Q 2625 1972 2144 2069 
L 1759 2144 
Q 1053 2284 737 2584 
Q 422 2884 422 3419 
Q 422 4038 858 4394 
Q 1294 4750 2059 4750 
Q 2388 4750 2728 4690 
Q 3069 4631 3425 4513 
z
" transform="scale(0.015625)"/>
       <path id="DejaVuSans-68" d="M 3513 2113 
L 3513 0 
L 2938 0 
L 2938 2094 
Q 2938 2591 2744 2837 
Q 2550 3084 2163 3084 
Q 1697 3084 1428 2787 
Q 1159 2491 1159 1978 
L 1159 0 
L 581 0 
L 581 4863 
L 1159 4863 
L 1159 2956 
Q 1366 3272 1645 3428 
Q 1925 3584 2291 3584 
Q 2894 3584 3203 3211 
Q 3513 2838 3513 2113 
z
" transform="scale(0.015625)"/>
       <path id="DejaVuSans-63" d="M 3122 3366 
L 3122 2828 
Q 2878 2963 2633 3030 
Q 2388 3097 2138 3097 
Q 1578 3097 1268 2742 
Q 959 2388 959 1747 
Q 959 1106 1268 751 
Q 1578 397 2138 397 
Q 2388 397 2633 464 
Q 2878 531 3122 666 
L 3122 134 
Q 2881 22 2623 -34 
Q 2366 -91 2075 -91 
Q 1284 -91 818 406 
Q 353 903 353 1747 
Q 353 2603 823 3093 
Q 1294 3584 2113 3584 
Q 2378 3584 2631 3529 
Q 2884 3475 3122 3366 
z
" transform="scale(0.015625)"/>
       <path id="DejaVuSans-6b" d="M 581 4863 
L 1159 4863 
L 1159 1991 
L 2875 3500 
L 3609 3500 
L 1753 1863 
L 3688 0 
L 2938 0 
L 1159 1709 
L 1159 0 
L 581 0 
L 581 4863 
z
" transform="scale(0.015625)"/>
       <path id="DejaVuSans-79" d="M 2059 -325 
Q 1816 -950 1584 -1140 
Q 1353 -1331 966 -1331 
L 506 -1331 
L 506 -850 
L 844 -850 
Q 1081 -850 1212 -737 
Q 1344 -625 1503 -206 
L 1606 56 
L 191 3500 
L 800 3500 
L 1894 763 
L 2988 3500 
L 3597 3500 
L 2059 -325 
z
" transform="scale(0.015625)"/>
       <path id="DejaVuSans-75" d="M 544 1381 
L 544 3500 
L 1119 3500 
L 1119 1403 
Q 1119 906 1312 657 
Q 1506 409 1894 409 
Q 2359 409 2629 706 
Q 2900 1003 2900 1516 
L 2900 3500 
L 3475 3500 
L 3475 0 
L 2900 0 
L 2900 538 
Q 2691 219 2414 64 
Q 2138 -91 1772 -91 
Q 1169 -91 856 284 
Q 544 659 544 1381 
z
M 1991 3584 
L 1991 3584 
z
" transform="scale(0.015625)"/>
      </defs>
      <use xlink:href="#DejaVuSans-50"/>
      <use xlink:href="#DejaVuSans-72" transform="translate(58.552734 0)"/>
      <use xlink:href="#DejaVuSans-6f" transform="translate(97.416016 0)"/>
      <use xlink:href="#DejaVuSans-6c" transform="translate(158.597656 0)"/>
      <use xlink:href="#DejaVuSans-6f" transform="translate(186.380859 0)"/>
      <use xlink:href="#DejaVuSans-17e" transform="translate(247.5625 0)"/>
      <use xlink:href="#DejaVuSans-65" transform="translate(300.052734 0)"/>
      <use xlink:href="#DejaVuSans-6e" transform="translate(361.576172 0)"/>
      <use xlink:href="#DejaVuSans-ed" transform="translate(424.955078 0)"/>
      <use xlink:href="#DejaVuSans-20" transform="translate(452.738281 0)"/>
      <use xlink:href="#DejaVuSans-53" transform="translate(484.525391 0)"/>
      <use xlink:href="#DejaVuSans-68" transform="translate(548.001953 0)"/>
      <use xlink:href="#DejaVuSans-6f" transform="translate(611.380859 0)"/>
      <use xlink:href="#DejaVuSans-63" transform="translate(672.5625 0)"/>
      <use xlink:href="#DejaVuSans-6b" transform="translate(727.542969 0)"/>
      <use xlink:href="#DejaVuSans-6c" transform="translate(785.453125 0)"/>
      <use xlink:href="#DejaVuSans-65" transform="translate(813.236328 0)"/>
      <use xlink:href="#DejaVuSans-79" transform="translate(874.759766 0)"/>
      <use xlink:href="#DejaVuSans-6f" transform="translate(933.939453 0)"/>
      <use xlink:href="#DejaVuSans-76" transform="translate(995.121094 0)"/>
      <use xlink:href="#DejaVuSans-6f" transform="translate(1054.300781 0)"/>
      <use xlink:href="#DejaVuSans-75" transform="translate(1115.482422 0)"/>
      <use xlink:href="#DejaVuSans-20" transform="translate(1178.861328 0)"/>
      <use xlink:href="#DejaVuSans-72" transform="translate(1210.648438 0)"/>
      <use xlink:href="#DejaVuSans-6f" transform="translate(1249.511719 0)"/>
      <use xlink:href="#DejaVuSans-76" transform="translate(1310.693359 0)"/>
      <use xlink:href="#DejaVuSans-6e" transform="translate(1369.873047 0)"/>
      <use xlink:href="#DejaVuSans-69" transform="translate(1433.251953 0)"/>
      <use xlink:href="#DejaVuSans-63" transform="translate(1461.035156 0)"/>
      <use xlink:href="#DejaVuSans-ed" transform="translate(1516.015625 0)"/>
     </g>
    </g>
    <g id="LineCollection_3">
     <path d="M 57.78125 50.894688 
L 67.78125 50.894688 
" style="fill: none; stroke: #000000; stroke-width: 1.5"/>
    </g>
    <g id="LineCollection_4">
     <path d="M 62.78125 55.894688 
L 62.78125 45.894688 
" style="fill: none; stroke: #000000; stroke-width: 1.5"/>
    </g>
    <g id="line2d_28">
     <g>
      <use xlink:href="#mb290f8840f" x="57.78125" y="50.894688" style="fill: #0000ff; stroke: #000000"/>
     </g>
    </g>
    <g id="line2d_29">
     <g>
      <use xlink:href="#mb290f8840f" x="67.78125" y="50.894688" style="fill: #0000ff; stroke: #000000"/>
     </g>
    </g>
    <g id="line2d_30">
     <g>
      <use xlink:href="#m6ed8668a1b" x="62.78125" y="55.894688" style="fill: #0000ff; stroke: #000000"/>
     </g>
    </g>
    <g id="line2d_31">
     <g>
      <use xlink:href="#m6ed8668a1b" x="62.78125" y="45.894688" style="fill: #0000ff; stroke: #000000"/>
     </g>
    </g>
    <g id="line2d_32"/>
    <g id="line2d_33">
     <g>
      <use xlink:href="#m2c727844cb" x="62.78125" y="50.894688" style="fill: #0000ff; stroke: #0000ff"/>
     </g>
    </g>
    <g id="text_15">
     <!-- Naměřená data s chybou -->
     <g transform="translate(80.78125 54.394688) scale(0.1 -0.1)">
      <defs>
       <path id="DejaVuSans-4e" d="M 628 4666 
L 1478 4666 
L 3547 763 
L 3547 4666 
L 4159 4666 
L 4159 0 
L 3309 0 
L 1241 3903 
L 1241 0 
L 628 0 
L 628 4666 
z
" transform="scale(0.015625)"/>
       <path id="DejaVuSans-6d" d="M 3328 2828 
Q 3544 3216 3844 3400 
Q 4144 3584 4550 3584 
Q 5097 3584 5394 3201 
Q 5691 2819 5691 2113 
L 5691 0 
L 5113 0 
L 5113 2094 
Q 5113 2597 4934 2840 
Q 4756 3084 4391 3084 
Q 3944 3084 3684 2787 
Q 3425 2491 3425 1978 
L 3425 0 
L 2847 0 
L 2847 2094 
Q 2847 2600 2669 2842 
Q 2491 3084 2119 3084 
Q 1678 3084 1418 2786 
Q 1159 2488 1159 1978 
L 1159 0 
L 581 0 
L 581 3500 
L 1159 3500 
L 1159 2956 
Q 1356 3278 1631 3431 
Q 1906 3584 2284 3584 
Q 2666 3584 2933 3390 
Q 3200 3197 3328 2828 
z
" transform="scale(0.015625)"/>
       <path id="DejaVuSans-11b" d="M 3597 1894 
L 3597 1613 
L 953 1613 
Q 991 1019 1311 708 
Q 1631 397 2203 397 
Q 2534 397 2845 478 
Q 3156 559 3463 722 
L 3463 178 
Q 3153 47 2828 -22 
Q 2503 -91 2169 -91 
Q 1331 -91 842 396 
Q 353 884 353 1716 
Q 353 2575 817 3079 
Q 1281 3584 2069 3584 
Q 2775 3584 3186 3129 
Q 3597 2675 3597 1894 
z
M 3022 2063 
Q 3016 2534 2758 2815 
Q 2500 3097 2075 3097 
Q 1594 3097 1305 2825 
Q 1016 2553 972 2059 
L 3022 2063 
z
M 1833 3944 
L 1067 5119 
L 1502 5119 
L 2064 4353 
L 2627 5119 
L 3061 5119 
L 2295 3944 
L 1833 3944 
z
" transform="scale(0.015625)"/>
       <path id="DejaVuSans-159" d="M 2631 2963 
Q 2534 3019 2420 3045 
Q 2306 3072 2169 3072 
Q 1681 3072 1420 2755 
Q 1159 2438 1159 1844 
L 1159 0 
L 581 0 
L 581 3500 
L 1159 3500 
L 1159 2956 
Q 1341 3275 1631 3429 
Q 1922 3584 2338 3584 
Q 2397 3584 2469 3576 
Q 2541 3569 2628 3553 
L 2631 2963 
z
M 1457 3944 
L 691 5119 
L 1126 5119 
L 1688 4353 
L 2251 5119 
L 2685 5119 
L 1919 3944 
L 1457 3944 
z
" transform="scale(0.015625)"/>
       <path id="DejaVuSans-74" d="M 1172 4494 
L 1172 3500 
L 2356 3500 
L 2356 3053 
L 1172 3053 
L 1172 1153 
Q 1172 725 1289 603 
Q 1406 481 1766 481 
L 2356 481 
L 2356 0 
L 1766 0 
Q 1100 0 847 248 
Q 594 497 594 1153 
L 594 3053 
L 172 3053 
L 172 3500 
L 594 3500 
L 594 4494 
L 1172 4494 
z
" transform="scale(0.015625)"/>
       <path id="DejaVuSans-73" d="M 2834 3397 
L 2834 2853 
Q 2591 2978 2328 3040 
Q 2066 3103 1784 3103 
Q 1356 3103 1142 2972 
Q 928 2841 928 2578 
Q 928 2378 1081 2264 
Q 1234 2150 1697 2047 
L 1894 2003 
Q 2506 1872 2764 1633 
Q 3022 1394 3022 966 
Q 3022 478 2636 193 
Q 2250 -91 1575 -91 
Q 1294 -91 989 -36 
Q 684 19 347 128 
L 347 722 
Q 666 556 975 473 
Q 1284 391 1588 391 
Q 1994 391 2212 530 
Q 2431 669 2431 922 
Q 2431 1156 2273 1281 
Q 2116 1406 1581 1522 
L 1381 1569 
Q 847 1681 609 1914 
Q 372 2147 372 2553 
Q 372 3047 722 3315 
Q 1072 3584 1716 3584 
Q 2034 3584 2315 3537 
Q 2597 3491 2834 3397 
z
" transform="scale(0.015625)"/>
       <path id="DejaVuSans-62" d="M 3116 1747 
Q 3116 2381 2855 2742 
Q 2594 3103 2138 3103 
Q 1681 3103 1420 2742 
Q 1159 2381 1159 1747 
Q 1159 1113 1420 752 
Q 1681 391 2138 391 
Q 2594 391 2855 752 
Q 3116 1113 3116 1747 
z
M 1159 2969 
Q 1341 3281 1617 3432 
Q 1894 3584 2278 3584 
Q 2916 3584 3314 3078 
Q 3713 2572 3713 1747 
Q 3713 922 3314 415 
Q 2916 -91 2278 -91 
Q 1894 -91 1617 61 
Q 1341 213 1159 525 
L 1159 0 
L 581 0 
L 581 4863 
L 1159 4863 
L 1159 2969 
z
" transform="scale(0.015625)"/>
      </defs>
      <use xlink:href="#DejaVuSans-4e"/>
      <use xlink:href="#DejaVuSans-61" transform="translate(74.804688 0)"/>
      <use xlink:href="#DejaVuSans-6d" transform="translate(136.083984 0)"/>
      <use xlink:href="#DejaVuSans-11b" transform="translate(233.496094 0)"/>
      <use xlink:href="#DejaVuSans-159" transform="translate(295.019531 0)"/>
      <use xlink:href="#DejaVuSans-65" transform="translate(333.882812 0)"/>
      <use xlink:href="#DejaVuSans-6e" transform="translate(395.40625 0)"/>
      <use xlink:href="#DejaVuSans-e1" transform="translate(458.785156 0)"/>
      <use xlink:href="#DejaVuSans-20" transform="translate(520.064453 0)"/>
      <use xlink:href="#DejaVuSans-64" transform="translate(551.851562 0)"/>
      <use xlink:href="#DejaVuSans-61" transform="translate(615.328125 0)"/>
      <use xlink:href="#DejaVuSans-74" transform="translate(676.607422 0)"/>
      <use xlink:href="#DejaVuSans-61" transform="translate(715.816406 0)"/>
      <use xlink:href="#DejaVuSans-20" transform="translate(777.095703 0)"/>
      <use xlink:href="#DejaVuSans-73" transform="translate(808.882812 0)"/>
      <use xlink:href="#DejaVuSans-20" transform="translate(860.982422 0)"/>
      <use xlink:href="#DejaVuSans-63" transform="translate(892.769531 0)"/>
      <use xlink:href="#DejaVuSans-68" transform="translate(947.75 0)"/>
      <use xlink:href="#DejaVuSans-79" transform="translate(1011.128906 0)"/>
      <use xlink:href="#DejaVuSans-62" transform="translate(1070.308594 0)"/>
      <use xlink:href="#DejaVuSans-6f" transform="translate(1133.785156 0)"/>
      <use xlink:href="#DejaVuSans-75" transform="translate(1194.966797 0)"/>
     </g>
    </g>
   </g>
  </g>
 </g>
 <defs>
  <clipPath id="p08300b0676">
   <rect x="43.78125" y="22.318125" width="502.2" height="332.64"/>
  </clipPath>
 </defs>
</svg>
